<svg width="39" height="48" viewBox="0 0 39 48" fill="none" xmlns="http://www.w3.org/2000/svg">
<path d="M5.29469 10.5894C8.21887 10.5894 10.5894 8.21887 10.5894 5.29469C10.5894 2.37051 8.21887 0 5.29469 0C2.37051 0 0 2.37051 0 5.29469C0 8.21887 2.37051 10.5894 5.29469 10.5894Z" fill="#0000FE"/>
<path d="M14.8945 17.2115C17.8187 17.2115 20.1892 14.8409 20.1892 11.9168C20.1892 8.99258 17.8187 6.62207 14.8945 6.62207C11.9704 6.62207 9.59985 8.99258 9.59985 11.9168C9.59985 14.8409 11.9704 17.2115 14.8945 17.2115Z" fill="#0000FE"/>
<path d="M23.8333 24.8278C26.7574 24.8278 29.128 22.4573 29.128 19.5331C29.128 16.6089 26.7574 14.2384 23.8333 14.2384C20.9091 14.2384 18.5386 16.6089 18.5386 19.5331C18.5386 22.4573 20.9091 24.8278 23.8333 24.8278Z" fill="#0000FE"/>
<path d="M33.4336 31.4449C36.3578 31.4449 38.7283 29.0744 38.7283 26.1502C38.7283 23.2261 36.3578 20.8555 33.4336 20.8555C30.5094 20.8555 28.1389 23.2261 28.1389 26.1502C28.1389 29.0744 30.5094 31.4449 33.4336 31.4449Z" fill="#0000FE"/>
<path d="M25.1558 39.7224C28.08 39.7224 30.4505 37.3519 30.4505 34.4277C30.4505 31.5036 28.08 29.1331 25.1558 29.1331C22.2316 29.1331 19.8611 31.5036 19.8611 34.4277C19.8611 37.3519 22.2316 39.7224 25.1558 39.7224Z" fill="#0000FE"/>
<path d="M16.8833 47.9999C19.8075 47.9999 22.178 45.6294 22.178 42.7052C22.178 39.781 19.8075 37.4105 16.8833 37.4105C13.9591 37.4105 11.5886 39.781 11.5886 42.7052C11.5886 45.6294 13.9591 47.9999 16.8833 47.9999Z" fill="#0000FE"/>
<path d="M14.8945 32.4391C17.8187 32.4391 20.1892 30.0686 20.1892 27.1444C20.1892 24.2203 17.8187 21.8497 14.8945 21.8497C11.9704 21.8497 9.59985 24.2203 9.59985 27.1444C9.59985 30.0686 11.9704 32.4391 14.8945 32.4391Z" fill="#0000FE"/>
</svg>
