<svg width="39" height="48" viewBox="0 0 39 48" fill="none" xmlns="http://www.w3.org/2000/svg">
<path d="M5.29469 10.5894C8.21887 10.5894 10.5894 8.21887 10.5894 5.29469C10.5894 2.37051 8.21887 0 5.29469 0C2.37051 0 0 2.37051 0 5.29469C0 8.21887 2.37051 10.5894 5.29469 10.5894Z" fill="white"/>
<path d="M14.8943 17.2115C17.8185 17.2115 20.189 14.8409 20.189 11.9168C20.189 8.99258 17.8185 6.62207 14.8943 6.62207C11.9701 6.62207 9.59961 8.99258 9.59961 11.9168C9.59961 14.8409 11.9701 17.2115 14.8943 17.2115Z" fill="white"/>
<path d="M23.8338 24.8277C26.7579 24.8277 29.1285 22.4572 29.1285 19.533C29.1285 16.6088 26.7579 14.2383 23.8338 14.2383C20.9096 14.2383 18.5391 16.6088 18.5391 19.533C18.5391 22.4572 20.9096 24.8277 23.8338 24.8277Z" fill="white"/>
<path d="M33.4334 31.4449C36.3575 31.4449 38.7281 29.0744 38.7281 26.1502C38.7281 23.226 36.3575 20.8555 33.4334 20.8555C30.5092 20.8555 28.1387 23.226 28.1387 26.1502C28.1387 29.0744 30.5092 31.4449 33.4334 31.4449Z" fill="white"/>
<path d="M25.156 39.7222C28.0802 39.7222 30.4507 37.3517 30.4507 34.4275C30.4507 31.5033 28.0802 29.1328 25.156 29.1328C22.2318 29.1328 19.8613 31.5033 19.8613 34.4275C19.8613 37.3517 22.2318 39.7222 25.156 39.7222Z" fill="white"/>
<path d="M16.8836 48C19.8077 48 22.1783 45.6295 22.1783 42.7053C22.1783 39.7812 19.8077 37.4106 16.8836 37.4106C13.9594 37.4106 11.5889 39.7812 11.5889 42.7053C11.5889 45.6295 13.9594 48 16.8836 48Z" fill="white"/>
<path d="M14.8943 32.439C17.8185 32.439 20.189 30.0685 20.189 27.1443C20.189 24.2201 17.8185 21.8496 14.8943 21.8496C11.9701 21.8496 9.59961 24.2201 9.59961 27.1443C9.59961 30.0685 11.9701 32.439 14.8943 32.439Z" fill="white"/>
</svg>
