<svg width="96" height="96" viewBox="0 0 96 96" fill="none" xmlns="http://www.w3.org/2000/svg">
<path d="M48 96C74.5097 96 96 74.5097 96 48C96 21.4903 74.5097 0 48 0C21.4903 0 0 21.4903 0 48C0 74.5097 21.4903 96 48 96Z" fill="#73C3F9"/>
<path d="M62.071 70.5667H33.928C33.4231 63.945 33.4231 57.2946 33.928 50.6729V24.3682H62.071V50.6729C62.5093 57.2969 62.5093 63.9427 62.071 70.5667Z" fill="#EEEFEE"/>
<path d="M47.9996 58.187C46.8903 58.187 45.8264 58.6277 45.042 59.4121C44.2576 60.1965 43.8169 61.2604 43.8169 62.3698V71.3165H52.1824V62.3698C52.1824 61.2604 51.7417 60.1965 50.9573 59.4121C50.1729 58.6277 49.109 58.187 47.9996 58.187Z" fill="#62667C"/>
<path d="M36.2705 35.49H42.014V41.2335H36.2705V35.49Z" fill="#69B0EE"/>
<g opacity="0.3">
<path opacity="0.3" d="M42.014 35.49V35.8485L37.4968 41.2335H36.2705V41.1547L41.0315 35.49H42.014Z" fill="#EEEFEE"/>
<path opacity="0.3" d="M42.0144 36.6592V37.4189L38.8164 41.2334H38.1714L42.0144 36.6592Z" fill="#EEEFEE"/>
</g>
<path d="M45.1724 35.49H50.9159V41.2335H45.1724V35.49Z" fill="#69B0EE"/>
<g opacity="0.3">
<path opacity="0.3" d="M50.9159 35.49V35.8485L46.3986 41.2335H45.1724V41.1547L49.9334 35.49H50.9159Z" fill="#EEEFEE"/>
<path opacity="0.3" d="M50.9162 36.6592V37.4189L47.7182 41.2334H47.0732L50.9162 36.6592Z" fill="#EEEFEE"/>
</g>
<path d="M54.0737 35.49H59.8172V41.2335H54.0737V35.49Z" fill="#69B0EE"/>
<g opacity="0.3">
<path opacity="0.3" d="M59.8172 35.49V35.8485L55.3 41.2335H54.0737V41.1547L58.8347 35.49H59.8172Z" fill="#EEEFEE"/>
<path opacity="0.3" d="M59.8174 36.6592V37.4189L56.6194 41.2334H55.9736L59.8174 36.6592Z" fill="#EEEFEE"/>
</g>
<path d="M36.2705 27.2766H42.014V33.0201H36.2705V27.2766Z" fill="#69B0EE"/>
<g opacity="0.3">
<path opacity="0.3" d="M42.014 27.2766V27.6351L37.4968 33.0201H36.2705V32.9414L41.0315 27.2766H42.014Z" fill="#EEEFEE"/>
<path opacity="0.3" d="M42.0144 28.4458V29.2056L38.8164 33.0201H38.1714L42.0144 28.4458Z" fill="#EEEFEE"/>
</g>
<path d="M45.1724 27.2766H50.9159V33.0201H45.1724V27.2766Z" fill="#69B0EE"/>
<g opacity="0.3">
<path opacity="0.3" d="M50.9159 27.2766V27.6351L46.3986 33.0201H45.1724V32.9414L49.9334 27.2766H50.9159Z" fill="#EEEFEE"/>
<path opacity="0.3" d="M50.9162 28.4458V29.2056L47.7182 33.0201H47.0732L50.9162 28.4458Z" fill="#EEEFEE"/>
</g>
<path d="M54.0737 27.2766H59.8172V33.0201H54.0737V27.2766Z" fill="#69B0EE"/>
<g opacity="0.3">
<path opacity="0.3" d="M59.8172 27.2766V27.6351L55.3 33.0201H54.0737V32.9414L58.8347 27.2766H59.8172Z" fill="#EEEFEE"/>
<path opacity="0.3" d="M59.8174 28.4458V29.2056L56.6194 33.0201H55.9736L59.8174 28.4458Z" fill="#EEEFEE"/>
</g>
<path d="M36.2705 43.7039H42.014V49.4473H36.2705V43.7039Z" fill="#69B0EE"/>
<g opacity="0.3">
<path opacity="0.3" d="M42.014 43.7039V44.0624L37.4968 49.4466H36.2705V49.3679L41.0315 43.7039H42.014Z" fill="#EEEFEE"/>
<path opacity="0.3" d="M42.0144 44.8723V45.6321L38.8164 49.4466H38.1714L42.0144 44.8723Z" fill="#EEEFEE"/>
</g>
<path d="M45.1724 43.7039H50.9159V49.4473H45.1724V43.7039Z" fill="#69B0EE"/>
<g opacity="0.3">
<path opacity="0.3" d="M50.9159 43.7039V44.0624L46.3986 49.4466H45.1724V49.3679L49.9334 43.7039H50.9159Z" fill="#EEEFEE"/>
<path opacity="0.3" d="M50.9162 44.8723V45.6321L47.7182 49.4466H47.0732L50.9162 44.8723Z" fill="#EEEFEE"/>
</g>
<path d="M54.0737 43.7039H59.8172V49.4473H54.0737V43.7039Z" fill="#69B0EE"/>
<g opacity="0.3">
<path opacity="0.3" d="M59.8172 43.7039V44.0624L55.3 49.4466H54.0737V49.3679L58.8347 43.7039H59.8172Z" fill="#EEEFEE"/>
<path opacity="0.3" d="M59.8174 44.8723V45.6321L56.6194 49.4466H55.9736L59.8174 44.8723Z" fill="#EEEFEE"/>
</g>
<path d="M36.2705 51.9172H42.014V57.6607H36.2705V51.9172Z" fill="#69B0EE"/>
<g opacity="0.3">
<path opacity="0.3" d="M42.014 51.9172V52.2757L37.4968 57.66H36.2705V57.5812L41.0315 51.9172H42.014Z" fill="#EEEFEE"/>
<path opacity="0.3" d="M42.0144 53.0857V53.8454L38.8164 57.6599H38.1714L42.0144 53.0857Z" fill="#EEEFEE"/>
</g>
<path d="M54.0737 51.9172H59.8172V57.6607H54.0737V51.9172Z" fill="#69B0EE"/>
<g opacity="0.3">
<path opacity="0.3" d="M59.8172 51.9172V52.2757L55.3 57.66H54.0737V57.5812L58.8347 51.9172H59.8172Z" fill="#EEEFEE"/>
<path opacity="0.3" d="M59.8174 53.0857V53.8454L56.6194 57.6599H55.9736L59.8174 53.0857Z" fill="#EEEFEE"/>
</g>
<path d="M19.1997 50.6729H33.9282V70.5666H19.1997V50.6729Z" fill="#DBD8DD"/>
<path d="M21.5874 58.668H25.4911V62.5717H21.5874V58.668Z" fill="#69B0EE"/>
<g opacity="0.3">
<path opacity="0.3" d="M25.4911 58.668V58.9117L22.4207 62.5717H21.5874V62.5177L24.8237 58.668H25.4911Z" fill="#EEEFEE"/>
<path opacity="0.3" d="M25.4911 59.4622V59.9789L23.3177 62.5717H22.8789L25.4911 59.4622Z" fill="#EEEFEE"/>
</g>
<path d="M27.6372 58.668H31.541V62.5717H27.6372V58.668Z" fill="#69B0EE"/>
<g opacity="0.3">
<path opacity="0.3" d="M31.541 58.668V58.9117L28.4705 62.5717H27.6372V62.5177L30.8735 58.668H31.541Z" fill="#EEEFEE"/>
<path opacity="0.3" d="M31.541 59.4622V59.9789L29.3675 62.5717H28.9287L31.541 59.4622Z" fill="#EEEFEE"/>
</g>
<path d="M21.5874 53.0857H25.4911V56.9894H21.5874V53.0857Z" fill="#69B0EE"/>
<g opacity="0.3">
<path opacity="0.3" d="M25.4911 53.0857V53.3294L22.4207 56.9894H21.5874V56.9354L24.8237 53.0857H25.4911Z" fill="#EEEFEE"/>
<path opacity="0.3" d="M25.4911 53.8799V54.3966L23.3177 56.9894H22.8789L25.4911 53.8799Z" fill="#EEEFEE"/>
</g>
<path d="M27.6372 53.0857H31.541V56.9894H27.6372V53.0857Z" fill="#69B0EE"/>
<g opacity="0.3">
<path opacity="0.3" d="M31.541 53.0857V53.3294L28.4705 56.9894H27.6372V56.9354L30.8735 53.0857H31.541Z" fill="#EEEFEE"/>
<path opacity="0.3" d="M31.541 53.8799V54.3966L29.3675 56.9894H28.9287L31.541 53.8799Z" fill="#EEEFEE"/>
</g>
<path d="M21.5874 64.2502H25.4911V68.154H21.5874V64.2502Z" fill="#69B0EE"/>
<g opacity="0.3">
<path opacity="0.3" d="M25.4911 64.2502V64.494L22.4207 68.154H21.5874V68.1007L24.8237 64.2502H25.4911Z" fill="#EEEFEE"/>
<path opacity="0.3" d="M25.4911 65.0452V65.5612L23.3177 68.1539H22.8789L25.4911 65.0452Z" fill="#EEEFEE"/>
</g>
<path d="M27.6372 64.2502H31.541V68.154H27.6372V64.2502Z" fill="#69B0EE"/>
<g opacity="0.3">
<path opacity="0.3" d="M31.541 64.2502V64.494L28.4705 68.154H27.6372V68.1007L30.8735 64.2502H31.541Z" fill="#EEEFEE"/>
<path opacity="0.3" d="M31.541 65.0452V65.5612L29.3675 68.1539H28.9287L31.541 65.0452Z" fill="#EEEFEE"/>
</g>
<path d="M62.0718 50.6729H76.8003V70.5666H62.0718V50.6729Z" fill="#DBD8DD"/>
<path d="M64.4585 58.668H68.3622V62.5717H64.4585V58.668Z" fill="#69B0EE"/>
<g opacity="0.3">
<path opacity="0.3" d="M68.3622 58.668V58.9117L65.2917 62.5717H64.4585V62.5177L67.6947 58.668H68.3622Z" fill="#EEEFEE"/>
<path opacity="0.3" d="M68.3623 59.4622V59.9789L66.1887 62.5717H65.75L68.3623 59.4622Z" fill="#EEEFEE"/>
</g>
<path d="M70.5093 58.668H74.413V62.5717H70.5093V58.668Z" fill="#69B0EE"/>
<g opacity="0.3">
<path opacity="0.3" d="M74.413 58.668V58.9117L71.3425 62.5717H70.5093V62.5177L73.7455 58.668H74.413Z" fill="#EEEFEE"/>
<path opacity="0.3" d="M74.413 59.4622V59.9789L72.2395 62.5717H71.8008L74.413 59.4622Z" fill="#EEEFEE"/>
</g>
<path d="M64.4585 53.0857H68.3622V56.9894H64.4585V53.0857Z" fill="#69B0EE"/>
<g opacity="0.3">
<path opacity="0.3" d="M68.3622 53.0857V53.3294L65.2917 56.9894H64.4585V56.9354L67.6947 53.0857H68.3622Z" fill="#EEEFEE"/>
<path opacity="0.3" d="M68.3623 53.8799V54.3966L66.1887 56.9894H65.75L68.3623 53.8799Z" fill="#EEEFEE"/>
</g>
<path d="M70.5093 53.0857H74.413V56.9894H70.5093V53.0857Z" fill="#69B0EE"/>
<g opacity="0.3">
<path opacity="0.3" d="M74.413 53.0857V53.3294L71.3425 56.9894H70.5093V56.9354L73.7455 53.0857H74.413Z" fill="#EEEFEE"/>
<path opacity="0.3" d="M74.413 53.8799V54.3966L72.2395 56.9894H71.8008L74.413 53.8799Z" fill="#EEEFEE"/>
</g>
<path d="M64.4585 64.2502H68.3622V68.154H64.4585V64.2502Z" fill="#69B0EE"/>
<g opacity="0.3">
<path opacity="0.3" d="M68.3622 64.2502V64.494L65.2917 68.154H64.4585V68.1007L67.6947 64.2502H68.3622Z" fill="#EEEFEE"/>
<path opacity="0.3" d="M68.3623 65.0452V65.5612L66.1887 68.1539H65.75L68.3623 65.0452Z" fill="#EEEFEE"/>
</g>
<path d="M70.5093 64.2502H74.413V68.154H70.5093V64.2502Z" fill="#69B0EE"/>
<g opacity="0.3">
<path opacity="0.3" d="M74.413 64.2502V64.494L71.3425 68.154H70.5093V68.1007L73.7455 64.2502H74.413Z" fill="#EEEFEE"/>
<path opacity="0.3" d="M74.413 65.0452V65.5612L72.2395 68.1539H71.8008L74.413 65.0452Z" fill="#EEEFEE"/>
</g>
<path d="M63.0444 23.2424H32.9064C32.696 23.2424 32.5254 23.413 32.5254 23.6234V25.0612C32.5254 25.2716 32.696 25.4422 32.9064 25.4422H63.0444C63.2548 25.4422 63.4254 25.2716 63.4254 25.0612V23.6234C63.4254 23.413 63.2548 23.2424 63.0444 23.2424Z" fill="#DBD8DD"/>
<path d="M33.928 48.8423H18.4097C18.2876 48.8423 18.1705 48.8908 18.0841 48.9772C17.9977 49.0635 17.9492 49.1807 17.9492 49.3028V50.5823C17.9492 50.6428 17.9611 50.7026 17.9843 50.7585C18.0074 50.8144 18.0413 50.8651 18.0841 50.9079C18.1269 50.9507 18.1776 50.9846 18.2335 51.0077C18.2894 51.0309 18.3492 51.0428 18.4097 51.0428H33.928V48.8423Z" fill="#BBBBCD"/>
<path d="M62.0718 51.0428H77.59C77.7122 51.0428 77.8293 50.9943 77.9157 50.9079C78.002 50.8216 78.0505 50.7044 78.0505 50.5823V49.3028C78.0505 49.2423 78.0386 49.1824 78.0155 49.1266C77.9923 49.0707 77.9584 49.0199 77.9157 48.9772C77.8729 48.9344 77.8221 48.9005 77.7663 48.8773C77.7104 48.8542 77.6505 48.8423 77.59 48.8423H62.0718V51.0428Z" fill="#BBBBCD"/>
<path d="M17.25 70.5667H78.75V72.7574H17.25V70.5667Z" fill="#575B6D"/>
</svg>
