<svg width="96" height="96" viewBox="0 0 96 96" fill="none" xmlns="http://www.w3.org/2000/svg">
<path d="M95.9625 46.1119L80.5912 62.1506C62.7769 80.7356 33.1744 81.0731 14.9437 62.8969L0 48C0 47.9381 0 47.8744 0.001875 47.8125C0.03375 39.2156 2.32687 31.155 6.315 24.1875C14.5875 9.73687 30.1575 0 48 0C53.3475 0 58.4925 0.87375 63.2962 2.49C63.2962 6.915 66.3919 10.7381 70.7194 11.6587L81.9187 14.04C84.9356 17.0512 87.5531 20.4619 89.685 24.1875C92.1187 28.4381 93.9206 33.0975 94.9631 38.0362C95.5181 40.6575 95.8575 43.3537 95.9625 46.1119Z" fill="#73C3F9"/>
<path d="M95.9625 46.1119L80.5912 62.1506C62.7769 80.7356 33.1744 81.0731 14.9437 62.8969L0 48C0 39.3337 2.29687 31.2056 6.315 24.1875C14.5875 38.6381 30.1575 48.375 48 48.375C65.8425 48.375 81.4125 38.6381 89.685 24.1875C93.4106 30.6937 95.655 38.1525 95.9625 46.1119Z" fill="#73C3F9"/>
<path d="M70.2292 51.1448H68.5918L68.6794 48.4844L68.7872 45.2161H70.0337L70.1415 48.4844L70.2292 51.1448Z" fill="#EC771B"/>
<path d="M70.2289 51.1448H69.4414V45.2161H70.0333L70.1412 48.4844L70.2289 51.1448Z" fill="#C55732"/>
<path d="M69.4414 48.1097V45.2158H68.7868L68.6914 48.1097H69.4414Z" fill="#C55732"/>
<path d="M70.1288 48.1097L70.0333 45.2158H69.4414V48.1097H70.1288Z" fill="#A44E3E"/>
<path d="M71.9851 46.2561C71.2808 46.9283 70.3613 47.2645 69.442 47.2645C68.5227 47.2645 67.6034 46.9285 66.8989 46.2561C65.7754 45.184 65.5508 43.5788 66.2249 42.2933C66.9299 40.9489 67.666 39.6203 68.2651 38.2287L69.442 35.4944L70.6169 38.2231C71.2171 39.6169 71.9543 40.9476 72.6599 42.2943C73.3332 43.5796 73.1084 45.1844 71.9851 46.2561Z" fill="#43AF3E"/>
<path d="M71.9848 46.2561C71.2805 46.9283 70.361 47.2645 69.4417 47.2645C69.0056 47.2645 68.5695 46.9285 68.2351 46.2561C67.6948 45.1694 67.5926 43.5349 67.9286 42.241C68.3958 40.4416 68.8098 38.5881 69.1935 36.7101L69.4417 35.4944L70.6166 38.2231C71.2168 39.6169 71.954 40.9476 72.6596 42.2943C73.3329 43.5796 73.1081 45.1844 71.9848 46.2561Z" fill="#00A23E"/>
<path d="M71.9855 46.2561C71.2812 46.9283 70.3617 47.2645 69.4424 47.2645V35.4944L70.6173 38.2231C71.2174 39.6169 71.9547 40.9476 72.6603 42.2943C73.3336 43.5796 73.1088 45.1844 71.9855 46.2561Z" fill="#008839"/>
<path d="M88.9828 47.2712H87.291L87.3816 44.5224L87.493 41.1458H88.7809L88.8923 44.5224L88.9828 47.2712Z" fill="#EC771B"/>
<path d="M88.9825 47.2712H88.1689V41.1458H88.7806L88.8919 44.5224L88.9825 47.2712Z" fill="#C55732"/>
<path d="M88.1688 44.028V41.1458H87.4925L87.3975 44.028H88.1688Z" fill="#C55732"/>
<path d="M88.8756 44.028L88.7806 41.1458H88.1689V44.028H88.8756Z" fill="#A44E3E"/>
<path d="M90.7963 42.2206C90.0688 42.9151 89.1187 43.2623 88.1688 43.2623C87.2191 43.2623 86.2691 42.9151 85.5414 42.2206C84.3806 41.1128 84.1485 39.4544 84.8448 38.1263C85.5731 36.7375 86.3338 35.3646 86.9527 33.9267L88.1686 31.1018L89.3825 33.9211C90.0026 35.3611 90.7642 36.736 91.4932 38.1272C92.1892 39.4551 91.9569 41.1132 90.7963 42.2206Z" fill="#43AF3E"/>
<path d="M90.7967 42.2206C90.0692 42.9151 89.1191 43.2624 88.1692 43.2624C87.7187 43.2624 87.2679 42.9151 86.9225 42.2206C86.3643 41.0979 86.2588 39.4091 86.6058 38.0724C87.0887 36.2133 87.5163 34.2984 87.9127 32.3581L88.1692 31.1021L89.3831 33.9213C90.0032 35.3613 90.7648 36.7362 91.4938 38.1275C92.1896 39.4552 91.9573 41.1132 90.7967 42.2206Z" fill="#00A23E"/>
<path d="M90.7964 42.2206C90.0689 42.9151 89.1188 43.2623 88.1689 43.2623V31.1018L89.3828 33.9211C90.0029 35.3611 90.7645 36.736 91.4935 38.1272C92.1893 39.4551 91.957 41.1132 90.7964 42.2206Z" fill="#008839"/>
<path d="M5.8039 49.0685H4.11621L4.20659 46.2402L4.31759 42.7656H5.60252L5.71371 46.2402L5.8039 49.0685Z" fill="#EC771B"/>
<path d="M5.80466 49.0685H4.99316V42.7656H5.60329L5.71448 46.2402L5.80466 49.0685Z" fill="#C55732"/>
<path d="M4.99129 45.7943V42.7656H4.31648L4.21973 45.7943H4.99129Z" fill="#C55732"/>
<path d="M5.70023 45.7943L5.60329 42.7656H4.99316V45.7943H5.70023Z" fill="#A44E3E"/>
<path d="M7.61337 43.8714C6.88755 44.586 5.93974 44.9433 4.99212 44.9433C4.04449 44.9433 3.09687 44.586 2.37087 43.8714C1.21287 42.7316 0.981115 41.0252 1.67599 39.6587C2.40255 38.2295 3.16155 36.8171 3.77899 35.3375L4.99212 32.4309L6.20318 35.3317C6.82174 36.8133 7.58168 38.2282 8.30899 39.6596C9.00312 41.0261 8.77137 42.732 7.61337 43.8714Z" fill="#43AF3E"/>
<path d="M7.61342 43.8715C6.88761 44.586 5.9398 44.9434 4.99217 44.9434C4.54255 44.9434 4.09311 44.586 3.74849 43.8715C3.19161 42.7163 3.08624 40.9787 3.43255 39.6032C3.91424 37.6903 4.34099 35.7199 4.73642 33.7236L4.99236 32.4312L6.20342 35.332C6.82199 36.8136 7.58192 38.2285 8.30924 39.6598C9.00318 41.0262 8.77142 42.732 7.61342 43.8715Z" fill="#00A23E"/>
<path d="M7.61441 43.8715C6.8886 44.586 5.94079 44.9434 4.99316 44.9434V32.4312L6.20423 35.332C6.82279 36.8136 7.58273 38.2285 8.31004 39.6598C9.00417 41.0262 8.77241 42.732 7.61441 43.8715Z" fill="#008839"/>
<path d="M18.9783 52.2056H17.7119L17.7796 50.0833L17.863 47.4763H18.8272L18.9106 50.0833L18.9783 52.2056Z" fill="#EC771B"/>
<path d="M18.9781 52.2056H18.3691V47.4763H18.827L18.9105 50.0833L18.9781 52.2056Z" fill="#C55732"/>
<path d="M18.3701 49.8159V47.4763H17.8639L17.7891 49.8159H18.3701Z" fill="#C55732"/>
<path d="M18.9018 49.8159L18.827 47.4763H18.3691V49.8159H18.9018Z" fill="#A44E3E"/>
<path d="M20.3366 48.3061C19.7919 48.8424 19.0808 49.1105 18.3696 49.1105C17.6586 49.1105 16.9474 48.8424 16.4025 48.3061C15.5336 47.4509 15.3598 46.1703 15.8811 45.1451C16.4263 44.0727 16.9958 43.0128 17.4591 41.9026L18.3694 39.7214L19.2782 41.8981C19.7424 43.01 20.3126 44.0714 20.8583 45.1456C21.3795 46.171 21.2055 47.4511 20.3366 48.3061Z" fill="#43AF3E"/>
<path d="M20.3367 48.3062C19.792 48.8424 19.0808 49.1106 18.3696 49.1106C18.0323 49.1106 17.695 48.8424 17.4364 48.3062C17.0185 47.4392 16.9394 46.1355 17.1992 45.1033C17.5605 43.6678 17.8808 42.1894 18.1776 40.6914L18.3696 39.7217L19.2784 41.8984C19.7427 43.0102 20.3129 44.0717 20.8585 45.1459C21.3795 46.1711 21.2055 47.4512 20.3367 48.3062Z" fill="#00A23E"/>
<path d="M20.3362 48.3062C19.7915 48.8424 19.0803 49.1106 18.3691 49.1106V39.7217L19.278 41.8984C19.7422 43.0102 20.3124 44.0717 20.858 45.1459C21.3791 46.1711 21.2051 47.4512 20.3362 48.3062Z" fill="#008839"/>
<path d="M70.1136 32.4531C70.1138 32.4346 70.1149 32.4162 70.1149 32.3976C70.1149 28.9964 67.3576 26.239 63.9563 26.239C63.1484 26.239 62.3774 26.3961 61.6703 26.6793C60.3046 24.2326 57.6916 22.5771 54.6906 22.5771C50.7936 22.5771 47.5499 25.3681 46.8449 29.0598C46.6347 29.0296 46.4202 29.0133 46.2016 29.0133C44.0828 29.0133 42.3076 30.4801 41.833 32.4533H70.1136V32.4531Z" fill="white"/>
<path d="M64.104 32.4532C64.104 32.4425 64.1048 32.432 64.1048 32.4214C64.1048 30.4655 62.5193 28.88 60.5635 28.88C60.0988 28.88 59.6554 28.9704 59.2489 29.1332C58.4637 27.7264 56.961 26.7744 55.2353 26.7744C52.9943 26.7744 51.1292 28.3792 50.7239 30.5021C50.6029 30.4849 50.4795 30.4753 50.3539 30.4753C49.1355 30.4753 48.1148 31.3187 47.8418 32.4534H64.104V32.4532Z" fill="#DFF7FD"/>
<path d="M96.0003 47.9999C96.0003 48.6712 95.9872 49.3406 95.959 50.0043C95.8728 52.1081 95.6497 54.1762 95.3009 56.2012C95.2672 56.3999 95.2315 56.5987 95.194 56.7974H47.1865L55.4834 53.5687C63.3959 50.4918 71.8128 48.9131 80.3028 48.9131C81.199 48.0168 82.2565 47.3174 83.404 46.8412C84.5534 46.3649 85.7965 46.1118 87.064 46.1118H95.9628C95.9815 46.5824 95.9928 47.0531 95.9984 47.5274C96.0003 47.6849 96.0003 47.8424 96.0003 47.9999Z" fill="#6CDC2D"/>
<path d="M95.9597 50.0044C95.8734 52.1081 95.6503 54.1763 95.3016 56.2013C95.2678 56.4 95.2322 56.5988 95.1947 56.7975H59.7891C67.1784 54.1575 74.9691 52.8038 82.8253 52.8038C83.7216 51.9075 84.7772 51.2081 85.9266 50.7319C87.0759 50.2556 88.3172 50.0044 89.5847 50.0044H95.9597Z" fill="#5DBF1D"/>
<path d="M36.5925 56.7975H0.80625C0.76875 56.5988 0.733125 56.4 0.699375 56.2012C0.429375 54.645 0.23625 53.0606 0.12375 51.4556C0.121875 51.4331 0.12 51.4087 0.118125 51.3862C0.039375 50.2687 0 49.1381 0 48C0 47.9381 0 47.8744 0.001875 47.8125H3.05812C4.125 47.8125 5.1675 48.0244 6.135 48.4238C7.10062 48.8231 7.9875 49.4119 8.74312 50.1656C15.8831 50.1656 22.9612 51.495 29.6156 54.0825L36.5925 56.7975Z" fill="#B6E337"/>
<path d="M23.8634 56.7974H0.806523C0.769023 56.5987 0.733398 56.3999 0.699648 56.2012C0.429648 54.6449 0.236523 53.0606 0.124023 51.4556H0.429648C1.42527 51.4556 2.40215 51.6524 3.3059 52.0274C4.20965 52.4006 5.04027 52.9518 5.74527 53.6568C11.9234 53.6568 18.0509 54.7218 23.8634 56.7974Z" fill="#6CDC2D"/>
<path d="M78.9541 84.6845C76.0684 87.1239 72.8903 89.2257 69.4816 90.9357L49.7734 56.7976H51.0672L78.9541 84.6845Z" fill="#FF9F00"/>
<path d="M69.4821 90.9357C66.1839 92.5895 62.6702 93.8739 58.9914 94.7345L48.8252 56.7976H49.7739L69.4821 90.9357Z" fill="#FFC300"/>
<path d="M58.9905 94.7345C55.5068 95.552 51.8768 95.9889 48.1474 96.0001H48.0049V56.7976H48.8243L58.9905 94.7345Z" fill="#6CDC2D"/>
<path d="M44.9455 56.7976L17.0512 84.6901C15.4555 83.3439 13.9499 81.8945 12.5418 80.3532C11.3324 79.0276 10.1943 77.6345 9.13867 76.1795L42.7049 56.7976H44.9455Z" fill="#159DE4"/>
<path d="M42.7048 56.7976L9.13859 76.1795C7.82609 74.3739 6.63734 72.4726 5.58547 70.4889C4.76234 68.9401 4.02172 67.3407 3.37109 65.6982L36.5923 56.7976H42.7048Z" fill="#65B2FE"/>
<path d="M36.5919 56.7976L3.37066 65.6982C2.65441 63.8982 2.04504 62.0457 1.55004 60.1464C1.26316 59.0457 1.01379 57.9282 0.805664 56.7976H36.5919Z" fill="#FF6378"/>
<path d="M86.8639 76.1739C85.8064 77.6307 84.6683 79.0276 83.457 80.3532C82.0527 81.8926 80.547 83.3401 78.9533 84.6845L51.0664 56.7976H53.307L86.8639 76.1739Z" fill="#65B2FE"/>
<path d="M92.6301 65.6964C91.1451 69.4426 89.1989 72.9582 86.8645 76.1739L53.3076 56.7976H59.4201L92.6301 65.6964Z" fill="#159DE4"/>
<path d="M77.6319 65.1433C77.6319 65.8226 77.0812 66.3733 76.4019 66.3733C75.7226 66.3733 75.1719 65.8226 75.1719 65.1433C75.1719 64.464 75.7226 63.9133 76.4019 63.9133C77.0812 63.9133 77.6319 64.4638 77.6319 65.1433Z" fill="#148CC1"/>
<path d="M95.194 56.7976C94.9859 57.9282 94.7365 59.0457 94.4478 60.1464C93.9547 62.0439 93.3453 63.8964 92.6309 65.6964L59.4209 56.7976H95.194Z" fill="#FE3345"/>
<path d="M47.1848 56.7976L37.0186 94.7382C29.5373 92.987 22.7292 89.4864 17.0498 84.6901L44.9442 56.7976H47.1848Z" fill="#F99568"/>
<path d="M47.1861 56.7976L37.0198 94.7382C33.3411 93.8776 29.8255 92.5932 26.5273 90.9376L46.2373 56.7976H47.1861Z" fill="#ED784A"/>
<path d="M48.0042 56.7976V96.0001H47.9986C44.2223 96.0001 40.5454 95.5633 37.0186 94.7383L47.1848 56.7976H48.0042Z" fill="#B6E337"/>
<path d="M63.4971 84.958C63.4971 85.6373 62.9464 86.188 62.2671 86.188C61.5878 86.188 61.0371 85.6373 61.0371 84.958C61.0371 84.2787 61.5878 83.728 62.2671 83.728C62.9464 83.728 63.4971 84.2787 63.4971 84.958Z" fill="#FF9F00"/>
<path d="M23.5486 71.5054C23.8883 71.5054 24.1636 71.23 24.1636 70.8904C24.1636 70.5507 23.8883 70.2754 23.5486 70.2754C23.2089 70.2754 22.9336 70.5507 22.9336 70.8904C22.9336 71.23 23.2089 71.5054 23.5486 71.5054Z" fill="#148CC1"/>
<path d="M89.0645 62.2327C89.0645 62.912 88.5138 63.4627 87.8345 63.4627C87.1552 63.4627 86.6045 62.912 86.6045 62.2327C86.6045 61.5534 87.1552 61.0027 87.8345 61.0027C88.5138 61.0027 89.0645 61.5534 89.0645 62.2327Z" fill="#DE1263"/>
<path d="M71.6036 70.9163C71.6036 71.5956 71.0529 72.1463 70.3736 72.1463C69.6942 72.1463 69.1436 71.5956 69.1436 70.9163C69.1436 70.237 69.6942 69.6863 70.3736 69.6863C71.0529 69.6863 71.6036 70.237 71.6036 70.9163Z" fill="#159DE4"/>
<path d="M34.5912 59.288C34.5912 59.7684 34.2017 60.1578 33.7214 60.1578C33.241 60.1578 32.8516 59.7684 32.8516 59.288C32.8516 58.8077 33.241 58.4182 33.7214 58.4182C34.2017 58.4182 34.5912 58.8077 34.5912 59.288Z" fill="#159DE4"/>
<path d="M55.585 91.8115C55.585 92.4909 55.0343 93.0415 54.355 93.0415C53.6757 93.0415 53.125 92.4909 53.125 91.8115C53.125 91.1322 53.6757 90.5815 54.355 90.5815C55.0343 90.5815 55.585 91.1322 55.585 91.8115Z" fill="#00A23E"/>
<path d="M63.4966 75.7649C64.1759 75.7649 64.7266 75.2142 64.7266 74.5349C64.7266 73.8556 64.1759 73.3049 63.4966 73.3049C62.8173 73.3049 62.2666 73.8556 62.2666 74.5349C62.2666 75.2142 62.8173 75.7649 63.4966 75.7649Z" fill="#EC781B"/>
<path d="M86.3902 69.6863C87.0695 69.6863 87.6202 69.1356 87.6202 68.4563C87.6202 67.777 87.0695 67.2263 86.3902 67.2263C85.7108 67.2263 85.1602 67.777 85.1602 68.4563C85.1602 69.1356 85.7108 69.6863 86.3902 69.6863Z" fill="#148CC1"/>
<path d="M31.9898 67.6678C32.6691 67.6678 33.2198 67.1171 33.2198 66.4378C33.2198 65.7585 32.6691 65.2078 31.9898 65.2078C31.3105 65.2078 30.7598 65.7585 30.7598 66.4378C30.7598 67.1171 31.3105 67.6678 31.9898 67.6678Z" fill="#148CC1"/>
<path d="M77.0567 75.3277C77.0567 76.007 76.506 76.5577 75.8267 76.5577C75.1474 76.5577 74.5967 76.007 74.5967 75.3277C74.5967 74.6483 75.1474 74.0977 75.8267 74.0977C76.506 74.0977 77.0567 74.6483 77.0567 75.3277Z" fill="#159DE4"/>
<path d="M61.0381 91.2017C61.0381 91.881 60.4874 92.4317 59.8081 92.4317C59.1288 92.4317 58.5781 91.881 58.5781 91.2017C58.5781 90.5224 59.1288 89.9717 59.8081 89.9717C60.4874 89.9717 61.0381 90.5224 61.0381 91.2017Z" fill="#EC781B"/>
<path d="M67.1875 60.7749C67.1875 61.4542 66.6369 62.0049 65.9575 62.0049C65.2782 62.0049 64.7275 61.4542 64.7275 60.7749C64.7275 60.0956 65.2782 59.5449 65.9575 59.5449C66.6369 59.5449 67.1875 60.0956 67.1875 60.7749Z" fill="#148CC1"/>
<path d="M19.1788 76.5576C19.1788 77.237 18.6281 77.7876 17.9487 77.7876C17.2694 77.7876 16.7188 77.237 16.7188 76.5576C16.7188 75.8783 17.2694 75.3276 17.9487 75.3276C18.6281 75.3276 19.1788 75.8783 19.1788 76.5576Z" fill="#148CC1"/>
<path d="M44.4112 88.7417C44.4112 89.421 43.8605 89.9717 43.1812 89.9717C42.5019 89.9717 41.9512 89.421 41.9512 88.7417C41.9512 88.0624 42.5019 87.5117 43.1812 87.5117C43.8605 87.5117 44.4112 88.0624 44.4112 88.7417Z" fill="#43AF3E"/>
<path d="M59.0379 76.2177C59.0379 76.7091 58.6395 77.1078 58.1479 77.1078C57.6564 77.1078 57.2578 76.7093 57.2578 76.2177C57.2578 75.7261 57.6563 75.3276 58.1479 75.3276C58.6395 75.3276 59.0379 75.7261 59.0379 76.2177Z" fill="#EC781B"/>
<path d="M54.0164 82.8381C54.0164 83.3295 53.618 83.7281 53.1264 83.7281C52.6348 83.7281 52.2363 83.3297 52.2363 82.8381C52.2363 82.3464 52.6348 81.948 53.1264 81.948C53.618 81.948 54.0164 82.3466 54.0164 82.8381Z" fill="#00A23E"/>
<path d="M57.0682 64.2533C57.0682 64.7448 56.6698 65.1434 56.1781 65.1434C55.6865 65.1434 55.2881 64.745 55.2881 64.2533C55.2881 63.7617 55.6865 63.3633 56.1781 63.3633C56.6698 63.3633 57.0682 63.7617 57.0682 64.2533Z" fill="#EC781B"/>
<path d="M65.9569 66.8158C65.9569 67.3075 65.5584 67.7059 65.0668 67.7059C64.5752 67.7059 64.1768 67.3075 64.1768 66.8158C64.1768 66.3244 64.5752 65.9258 65.0668 65.9258C65.5584 65.9258 65.9569 66.3244 65.9569 66.8158Z" fill="#159DE4"/>
<path d="M28.661 62.5729C28.661 63.0645 28.2625 63.463 27.7709 63.463C27.2795 63.463 26.8809 63.0645 26.8809 62.5729C26.8809 62.0815 27.2793 61.6829 27.7709 61.6829C28.2624 61.6829 28.661 62.0813 28.661 62.5729Z" fill="#159DE4"/>
<path d="M82.6708 77.1076C82.6708 77.5992 82.2723 77.9977 81.7807 77.9977C81.2891 77.9977 80.8906 77.5992 80.8906 77.1076C80.8906 76.6162 81.2891 76.2175 81.7807 76.2175C82.2723 76.2177 82.6708 76.6162 82.6708 77.1076Z" fill="#159DE4"/>
<path d="M60.6971 62.5729C60.6971 63.0645 60.2987 63.463 59.807 63.463C59.3154 63.463 58.917 63.0645 58.917 62.5729C58.917 62.0815 59.3154 61.6829 59.807 61.6829C60.2985 61.6829 60.6971 62.0813 60.6971 62.5729Z" fill="#159DE4"/>
<path d="M8.8729 66.8158C8.8729 67.3075 8.47446 67.7059 7.98284 67.7059C7.4914 67.7059 7.09277 67.3075 7.09277 66.8158C7.09277 66.3244 7.49121 65.9258 7.98284 65.9258C8.47446 65.9258 8.8729 66.3244 8.8729 66.8158Z" fill="#159DE4"/>
<path d="M20.9588 63.9133C20.9588 64.4047 20.5604 64.8033 20.0688 64.8033C19.5771 64.8033 19.1787 64.4049 19.1787 63.9133C19.1787 63.4216 19.5771 63.0232 20.0688 63.0232C20.5602 63.0232 20.9588 63.4216 20.9588 63.9133Z" fill="#159DE4"/>
<path d="M14.2446 70.5242C15.0615 70.5242 15.7236 69.862 15.7236 69.0452C15.7236 68.2283 15.0615 67.5662 14.2446 67.5662C13.4278 67.5662 12.7656 68.2283 12.7656 69.0452C12.7656 69.862 13.4278 70.5242 14.2446 70.5242Z" fill="#159DE4"/>
<path d="M50.035 66.8158C50.035 67.3075 49.6366 67.7059 49.1449 67.7059C48.6535 67.7059 48.2549 67.3075 48.2549 66.8158C48.2549 66.3244 48.6533 65.9258 49.1449 65.9258C49.6366 65.9258 50.035 66.3244 50.035 66.8158Z" fill="#00A23E"/>
<path d="M72.979 84.958C73.6583 84.958 74.209 84.4074 74.209 83.728C74.209 83.0487 73.6583 82.498 72.979 82.498C72.2997 82.498 71.749 83.0487 71.749 83.728C71.749 84.4074 72.2997 84.958 72.979 84.958Z" fill="#EC781B"/>
<path d="M55.585 69.6863C55.585 70.3656 55.0343 70.9163 54.355 70.9163C53.6757 70.9163 53.125 70.3656 53.125 69.6863C53.125 69.007 53.6757 68.4563 54.355 68.4563C55.0343 68.4563 55.585 69.007 55.585 69.6863Z" fill="#FF9F00"/>
<path d="M76.4033 58.2573C76.4033 58.7116 76.0349 59.0801 75.5806 59.0801C75.1263 59.0801 74.7578 58.7116 74.7578 58.2573C74.7578 57.803 75.1263 57.4346 75.5806 57.4346C76.0349 57.4346 76.4033 57.803 76.4033 58.2573Z" fill="#DE1263"/>
<path d="M70.8333 59.1891C71.259 59.1891 71.6041 58.844 71.6041 58.4183C71.6041 57.9926 71.259 57.6475 70.8333 57.6475C70.4076 57.6475 70.0625 57.9926 70.0625 58.4183C70.0625 58.844 70.4076 59.1891 70.8333 59.1891Z" fill="#DE1263"/>
<path d="M26.8807 58.2574C26.8807 58.6832 26.5355 59.0284 26.1097 59.0284C25.6839 59.0284 25.3389 58.6832 25.3389 58.2574C25.3389 57.8316 25.6841 57.4866 26.1097 57.4866C26.5355 57.4864 26.8807 57.8316 26.8807 58.2574Z" fill="#DE1263"/>
<path d="M4.40009 63.9271C5.0358 63.9271 5.55115 63.4118 5.55115 62.7761C5.55115 62.1403 5.0358 61.625 4.40009 61.625C3.76437 61.625 3.24902 62.1403 3.24902 62.7761C3.24902 63.4118 3.76437 63.9271 4.40009 63.9271Z" fill="#DE1263"/>
<path d="M7.47815 58.2574C7.47815 58.6832 7.13296 59.0284 6.70734 59.0284C6.28171 59.0284 5.93652 58.6832 5.93652 58.2574C5.93652 57.8316 6.28171 57.4866 6.70734 57.4866C7.13296 57.4866 7.47815 57.8316 7.47815 58.2574Z" fill="#DE1263"/>
<path d="M13.5384 61.5458C13.9641 61.5458 14.3092 61.2007 14.3092 60.775C14.3092 60.3493 13.9641 60.0042 13.5384 60.0042C13.1127 60.0042 12.7676 60.3493 12.7676 60.775C12.7676 61.2007 13.1127 61.5458 13.5384 61.5458Z" fill="#DE1263"/>
<path d="M20.5057 58.0525C20.5057 58.4783 20.1605 58.8235 19.7349 58.8235C19.3091 58.8235 18.9639 58.4783 18.9639 58.0525C18.9639 57.6267 19.3091 57.2815 19.7349 57.2815C20.1607 57.2817 20.5057 57.6269 20.5057 58.0525Z" fill="#DE1263"/>
<path d="M83.1409 60.0936C83.5666 60.0936 83.9117 59.7485 83.9117 59.3228C83.9117 58.8971 83.5666 58.552 83.1409 58.552C82.7152 58.552 82.3701 58.8971 82.3701 59.3228C82.3701 59.7485 82.7152 60.0936 83.1409 60.0936Z" fill="#DE1263"/>
<path d="M93.0277 59.288C93.4534 59.288 93.7985 58.9429 93.7985 58.5171C93.7985 58.0914 93.4534 57.7463 93.0277 57.7463C92.6019 57.7463 92.2568 58.0914 92.2568 58.5171C92.2568 58.9429 92.6019 59.288 93.0277 59.288Z" fill="#DE1263"/>
<path d="M45.9854 77.4478C45.9854 78.1271 45.4347 78.6778 44.7554 78.6778C44.0761 78.6778 43.5254 78.1271 43.5254 77.4478C43.5254 76.7685 44.0761 76.2178 44.7554 76.2178C45.4347 76.2178 45.9854 76.7683 45.9854 77.4478Z" fill="#43AF3E"/>
<path d="M40.0749 21.1054C40.0749 24.5449 37.286 27.3338 33.8465 27.3338C30.4055 27.3338 27.6182 24.5449 27.6182 21.1054C27.6182 17.6644 30.4057 14.8757 33.8465 14.8757C37.2862 14.8755 40.0749 17.6644 40.0749 21.1054Z" fill="#FFF9BB"/>
<path d="M40.0751 21.1054C40.0751 24.5449 37.2862 27.3337 33.8467 27.3337V14.8755C37.2864 14.8755 40.0751 17.6644 40.0751 21.1054Z" fill="#FFEB98"/>
<path d="M25.2047 33.2507C25.2047 33.2391 25.2056 33.2275 25.2056 33.2159C25.2056 31.0757 23.4707 29.3408 21.3305 29.3408C20.822 29.3408 20.337 29.4398 19.8922 29.6177C19.0329 28.0784 17.3887 27.0366 15.5004 27.0366C13.0483 27.0366 11.0073 28.7927 10.5637 31.1155C10.4315 31.0966 10.2963 31.0862 10.1589 31.0862C8.82578 31.0862 7.70866 32.0091 7.41016 33.2507H25.2047Z" fill="white"/>
<path d="M21.4227 33.2509C21.4227 33.2441 21.4232 33.2376 21.4232 33.2308C21.4232 32.0001 20.4256 31.0026 19.195 31.0026C18.9027 31.0026 18.6237 31.0594 18.3679 31.1617C17.8739 30.2766 16.9283 29.6775 15.8425 29.6775C14.4325 29.6775 13.2589 30.6872 13.0037 32.0229C12.9276 32.0121 12.85 32.0061 12.7711 32.0061C12.0044 32.0061 11.3622 32.5367 11.1904 33.2507H21.4227V33.2509Z" fill="#DFF7FD"/>
<path d="M81.919 14.04H48.289C48.289 14.0156 48.2871 13.9912 48.2871 13.9669C48.2871 9.52124 51.8909 5.91749 56.3365 5.91749C57.3921 5.91749 58.4009 6.12187 59.3252 6.49312C60.2571 4.82249 61.6352 3.43312 63.2965 2.48999C70.3896 4.87312 76.7421 8.86686 81.919 14.04Z" fill="white"/>
<path d="M56.1425 14.0398C56.1425 14.0257 56.1416 14.012 56.1416 13.998C56.1416 11.4414 58.214 9.36895 60.7706 9.36895C61.3779 9.36895 61.9575 9.48708 62.4889 9.6997C63.5154 7.8607 65.4793 6.61646 67.7349 6.61646C70.664 6.61646 73.1019 8.7142 73.6318 11.4888C73.7897 11.4661 73.9511 11.4538 74.1152 11.4538C75.7078 11.4538 77.042 12.5563 77.3987 14.0394H56.1425V14.0398Z" fill="#DFF7FD"/>
</svg>
