<svg width="96" height="96" viewBox="0 0 96 96" fill="none" xmlns="http://www.w3.org/2000/svg">
<path d="M79.4979 83.441C88.3515 75.0673 93.8764 63.2105 93.8764 50.0624C93.8764 24.6918 73.3093 4.12476 47.9387 4.12476C22.568 4.12476 2.00098 24.6918 2.00098 50.0624C2.00098 75.4331 22.568 96.0001 47.9387 96.0001C49.9267 96.0001 51.8854 95.8736 53.8069 95.6287L79.4979 83.441Z" fill="#73C3F9"/>
<path d="M74.3454 68.543C73.9423 67.0615 73.8002 65.5212 73.9254 63.991L74.6756 56.9251C75.0418 52.4917 74.366 48.0498 72.4035 44.0577C67.3325 33.7428 68.4958 32.9943 68.3383 22.757C68.3383 20.6658 66.6429 18.9702 64.5515 18.9702C62.4602 18.9702 60.7648 20.6656 60.7648 22.757C60.7648 64.388 60.8422 61.333 60.5855 62.5536V68.005C60.5855 72.598 56.8488 76.3349 52.2558 76.3349C49.2054 76.3349 38.6857 76.3349 31.5273 76.3349C34.7118 80.7637 39.0684 84.2313 44.1242 86.3311C44.1555 86.344 44.1868 86.3572 44.2181 86.3705C48.1243 88.0203 52.4857 91.3124 53.2145 95.3971L53.285 95.6888C63.5715 94.4963 72.821 89.9075 79.8838 83.0707L74.3454 68.543Z" fill="#F9BA8F"/>
<path d="M17.4634 19.1026L16.3101 18.034C14.532 16.3866 11.7295 16.4935 10.0821 18.2714C8.43473 20.0495 8.54161 22.852 10.3195 24.4994L17.4634 31.1187V19.1026Z" fill="#F9BA8F"/>
<path d="M12.6634 21.187C11.5727 20.1764 11.1139 18.7315 11.3001 17.3547C10.855 17.5825 10.4404 17.8852 10.0821 18.2716C8.43473 20.0497 8.54161 22.8522 10.3195 24.4996L17.4634 31.1189V25.6347L12.6634 21.187Z" fill="#FCAD6D"/>
<path d="M74.6904 69.4478C73.1263 80.2339 63.8432 88.5201 52.6236 88.5201C50.6865 88.5201 48.8074 88.2728 47.0156 87.8087C49.9862 89.625 52.6584 92.2796 53.2146 95.397L53.2851 95.6888C63.5715 94.4963 72.8209 89.9074 79.8838 83.0706L74.6904 69.4478Z" fill="#FD995B"/>
<path d="M54.2404 76.5141H23.8213C20.2242 76.5141 17.2979 73.5876 17.2979 69.9904V6.52369C17.2979 2.9265 20.2242 0 23.8213 0H54.2404C57.8376 0 60.7639 2.9265 60.7639 6.52369V69.9906C60.7639 73.5876 57.8374 76.5141 54.2404 76.5141Z" fill="#2A428C"/>
<path d="M23.8214 0C20.2242 0 17.2979 2.9265 17.2979 6.5235V69.9904C17.2979 73.5876 20.2244 76.5141 23.8214 76.5141H32.8896C30.877 74.4609 33.2245 72.4553 33.2245 72.4553C29.9119 71.5862 30.1932 68.1049 30.1932 68.1049C30.1932 68.1049 30.1932 14.9025 30.1932 11.5744C30.1932 8.24625 33.5738 7.40569 33.5738 7.40569C32.2422 6.07406 33.5738 4.67475 33.5738 4.67475V2.42006C32.3455 1.64156 32.5874 0.581625 32.8547 0L23.8214 0Z" fill="#142766"/>
<path d="M34.2261 4.67504H33.5747C32.952 4.67504 32.4473 4.17029 32.4473 3.5476C32.4473 2.92492 32.952 2.42017 33.5747 2.42017H34.2261C34.8488 2.42017 35.3535 2.92492 35.3535 3.5476C35.3535 4.17029 34.8488 4.67504 34.2261 4.67504Z" fill="#3C58A0"/>
<path d="M44.3329 4.67504H38.0737C37.451 4.67504 36.9463 4.17029 36.9463 3.5476C36.9463 2.92492 37.451 2.42017 38.0737 2.42017H44.3329C44.9555 2.42017 45.4603 2.92492 45.4603 3.5476C45.4603 4.17029 44.9555 4.67504 44.3329 4.67504Z" fill="#3C58A0"/>
<path d="M54.2423 4.05859H49.6705C48.8181 4.05859 48.1274 4.74953 48.1274 5.60172C48.1274 6.59378 47.3157 7.40566 46.3237 7.40566H31.7423C30.7503 7.40566 29.9384 6.59397 29.9384 5.60172C29.9384 4.74953 29.2475 4.05859 28.3953 4.05859H23.8233C22.462 4.05859 21.3584 5.16222 21.3584 6.52347V69.9904C21.3584 71.3516 22.462 72.4552 23.8233 72.4552H54.2423C55.6036 72.4552 56.7072 71.3516 56.7072 69.9904C56.7072 63.4618 56.7072 8.26591 56.7072 6.52347C56.7072 5.16222 55.6036 4.05859 54.2423 4.05859Z" fill="#73C3F9"/>
<path d="M33.2262 72.4555C32.7575 70.4329 35.1035 69.9604 35.1035 69.9604C35.1035 69.9604 36.5956 56.89 35.1035 55.3978C33.6113 53.9057 35.1035 52.4966 35.1035 52.4966C35.1035 52.4966 36.7336 39.5644 35.1035 37.9341C33.4733 36.304 35.1035 35.0329 35.1035 35.0329V20.4703C32.1837 18.6268 33.7195 15.9743 33.7195 15.9743V11.7977C31.5132 9.5914 33.5748 7.40665 33.5755 7.4059H31.7422C30.7501 7.4059 29.9382 6.59421 29.9382 5.60196C29.9382 4.74978 29.2473 4.05884 28.3951 4.05884H23.8233C22.462 4.05884 21.3584 5.16228 21.3584 6.52371V69.9908C21.3584 71.352 22.462 72.4556 23.8233 72.4556H33.2262V72.4555Z" fill="#4FABF7"/>
<path d="M29.8608 15.974H48.2019C49.3552 15.974 50.2901 15.0391 50.2901 13.8858C50.2901 12.7325 49.3552 11.7976 48.2019 11.7976H29.8608C28.7075 11.7976 27.7725 12.7325 27.7725 13.8858C27.7725 15.0393 28.7075 15.974 29.8608 15.974Z" fill="#E9EFFF"/>
<path d="M29.8616 11.7976H33.7189V15.9742H29.8616C28.7083 15.9742 27.7734 15.0393 27.7734 13.886C27.7733 12.7323 28.7083 11.7976 29.8616 11.7976Z" fill="#9BD8F9"/>
<path d="M51.9084 35.0328H26.1547C25.1216 35.0328 24.2764 34.1875 24.2764 33.1544V22.3486C24.2764 21.3155 25.1216 20.4702 26.1547 20.4702H51.9084C52.9416 20.4702 53.7868 21.3155 53.7868 22.3486V33.1544C53.7868 34.1875 52.9416 35.0328 51.9084 35.0328Z" fill="#E9EFFF"/>
<path d="M51.9084 52.4964H26.1547C25.1216 52.4964 24.2764 51.6512 24.2764 50.618V39.8122C24.2764 38.7791 25.1216 37.9338 26.1547 37.9338H51.9084C52.9416 37.9338 53.7868 38.7791 53.7868 39.8122V50.618C53.7868 51.6512 52.9416 52.4964 51.9084 52.4964Z" fill="#E9EFFF"/>
<path d="M51.9084 69.9603H26.1547C25.1216 69.9603 24.2764 69.115 24.2764 68.0819V57.2761C24.2764 56.243 25.1216 55.3977 26.1547 55.3977H51.9084C52.9416 55.3977 53.7868 56.243 53.7868 57.2761V68.0819C53.7868 69.115 52.9416 69.9603 51.9084 69.9603Z" fill="#E9EFFF"/>
<path d="M51.9084 35.0328H26.1547C25.1216 35.0328 24.2764 34.1875 24.2764 33.1544V22.3486C24.2764 21.3155 25.1216 20.4702 26.1547 20.4702H51.9084C52.9416 20.4702 53.7868 21.3155 53.7868 22.3486V33.1544C53.7868 34.1875 52.9416 35.0328 51.9084 35.0328Z" fill="#E9EFFF"/>
<path d="M51.9084 52.4964H26.1547C25.1216 52.4964 24.2764 51.6512 24.2764 50.618V39.8122C24.2764 38.7791 25.1216 37.9338 26.1547 37.9338H51.9084C52.9416 37.9338 53.7868 38.7791 53.7868 39.8122V50.618C53.7868 51.6512 52.9416 52.4964 51.9084 52.4964Z" fill="#E9EFFF"/>
<path d="M51.9084 69.9603H26.1547C25.1216 69.9603 24.2764 69.115 24.2764 68.0819V57.2761C24.2764 56.243 25.1216 55.3977 26.1547 55.3977H51.9084C52.9416 55.3977 53.7868 56.243 53.7868 57.2761V68.0819C53.7868 69.115 52.9416 69.9603 51.9084 69.9603Z" fill="#E9EFFF"/>
<path d="M33.2239 33.1542V22.3486C33.2239 21.3155 34.0691 20.4702 35.1022 20.4702H26.1547C25.1216 20.4702 24.2764 21.3155 24.2764 22.3486V33.1542C24.2764 34.1873 25.1216 35.0326 26.1547 35.0326H35.1022C34.0691 35.0326 33.2239 34.1873 33.2239 33.1542Z" fill="#D3DCFB"/>
<path d="M33.2239 50.618V39.8122C33.2239 38.7791 34.0691 37.9338 35.1022 37.9338H26.1547C25.1216 37.9338 24.2764 38.7791 24.2764 39.8122V50.618C24.2764 51.6512 25.1216 52.4964 26.1547 52.4964H35.1022C34.0691 52.4964 33.2239 51.6512 33.2239 50.618Z" fill="#D3DCFB"/>
<path d="M33.2239 68.0819V57.2761C33.2239 56.243 34.0691 55.3977 35.1022 55.3977H26.1547C25.1216 55.3977 24.2764 56.243 24.2764 57.2761V68.0819C24.2764 69.115 25.1216 69.9603 26.1547 69.9603H35.1022C34.0691 69.9603 33.2239 69.115 33.2239 68.0819Z" fill="#D3DCFB"/>
<path d="M38.0161 26.51H30.4844C29.7077 26.51 29.0781 25.8806 29.0781 25.1038C29.0781 24.3269 29.7077 23.6975 30.4844 23.6975H38.0161C38.7927 23.6975 39.4223 24.3269 39.4223 25.1038C39.4223 25.8804 38.7927 26.51 38.0161 26.51Z" fill="#3C58A0"/>
<path d="M47.5786 31.8054H30.4844C29.7077 31.8054 29.0781 31.176 29.0781 30.3992C29.0781 29.6224 29.7077 28.9929 30.4844 28.9929H47.5786C48.3552 28.9929 48.9848 29.6224 48.9848 30.3992C48.9848 31.176 48.3552 31.8054 47.5786 31.8054Z" fill="#BEC8F7"/>
<path d="M43.8926 26.51H42.8301C42.0535 26.51 41.4238 25.8806 41.4238 25.1038C41.4238 24.3269 42.0535 23.6975 42.8301 23.6975H43.8926C44.6693 23.6975 45.2989 24.3269 45.2989 25.1038C45.2989 25.8804 44.6695 26.51 43.8926 26.51Z" fill="#BEC8F7"/>
<path d="M38.0161 43.9739H30.4844C29.7077 43.9739 29.0781 43.3444 29.0781 42.5676C29.0781 41.7908 29.7077 41.1614 30.4844 41.1614H38.0161C38.7927 41.1614 39.4223 41.7908 39.4223 42.5676C39.4223 43.3444 38.7927 43.9739 38.0161 43.9739Z" fill="#3C58A0"/>
<path d="M47.5786 49.2693H30.4844C29.7077 49.2693 29.0781 48.6399 29.0781 47.863C29.0781 47.0862 29.7077 46.4568 30.4844 46.4568H47.5786C48.3552 46.4568 48.9848 47.0862 48.9848 47.863C48.9848 48.6397 48.3552 49.2693 47.5786 49.2693Z" fill="#BEC8F7"/>
<path d="M43.8926 43.9739H42.8301C42.0535 43.9739 41.4238 43.3444 41.4238 42.5676C41.4238 41.7908 42.0535 41.1614 42.8301 41.1614H43.8926C44.6693 41.1614 45.2989 41.7908 45.2989 42.5676C45.2989 43.3444 44.6695 43.9739 43.8926 43.9739Z" fill="#BEC8F7"/>
<path d="M38.0161 61.4375H30.4844C29.7077 61.4375 29.0781 60.8079 29.0781 60.0312C29.0781 59.2544 29.7077 58.625 30.4844 58.625H38.0161C38.7927 58.625 39.4223 59.2544 39.4223 60.0312C39.4223 60.8081 38.7927 61.4375 38.0161 61.4375Z" fill="#3C58A0"/>
<path d="M47.5786 66.7329H30.4844C29.7077 66.7329 29.0781 66.1035 29.0781 65.3267C29.0781 64.5498 29.7077 63.9204 30.4844 63.9204H47.5786C48.3552 63.9204 48.9848 64.5498 48.9848 65.3267C48.9848 66.1035 48.3552 66.7329 47.5786 66.7329Z" fill="#BEC8F7"/>
<path d="M43.8926 61.4375H42.8301C42.0535 61.4375 41.4238 60.8079 41.4238 60.0312C41.4238 59.2544 42.0535 58.625 42.8301 58.625H43.8926C44.6693 58.625 45.2989 59.2544 45.2989 60.0312C45.2989 60.8081 44.6695 61.4375 43.8926 61.4375Z" fill="#BEC8F7"/>
<path d="M23.876 42.3453C22.4265 43.9096 19.9834 44.0028 18.419 42.5532L11.9509 36.56C10.3865 35.1106 10.2934 32.6673 11.7429 31.103C13.1925 29.5386 15.6356 29.4455 17.1999 30.895L23.6681 36.8883C25.2324 38.3378 25.3256 40.781 23.876 42.3453Z" fill="#F9BA8F"/>
<path d="M21.08 39.8291L14.6119 33.8358C13.53 32.8335 13.1529 31.356 13.5019 30.0225C12.8497 30.2107 12.2379 30.569 11.7429 31.1032C10.2934 32.6675 10.3865 35.1108 11.9509 36.5602L18.419 42.5535C19.9834 44.0028 22.4265 43.9098 23.876 42.3455C24.323 41.8631 24.6223 41.2966 24.7779 40.7019C23.5204 41.0647 22.1102 40.7836 21.08 39.8291Z" fill="#FCAD6D"/>
<path d="M23.876 63.4107C22.4265 64.975 19.9834 65.0682 18.419 63.6186L11.9509 57.6254C10.3865 56.176 10.2934 53.7327 11.7429 52.1684C13.1925 50.6041 15.6356 50.5109 17.1999 51.9605L23.6681 57.9537C25.2324 59.4031 25.3256 61.8464 23.876 63.4107Z" fill="#F9BA8F"/>
<path d="M21.08 60.8943L14.6119 54.901C13.53 53.8986 13.1529 52.4211 13.5019 51.0876C12.8497 51.2759 12.2379 51.6342 11.7429 52.1684C10.2934 53.7327 10.3865 56.176 11.9509 57.6254L18.419 63.6186C19.9834 65.068 22.4265 64.975 23.876 63.4107C24.323 62.9283 24.6223 62.3618 24.7779 61.7671C23.5204 62.1301 22.1102 61.8488 21.08 60.8943Z" fill="#FCAD6D"/>
<path d="M23.876 52.8782C22.4265 54.4425 19.9834 54.5357 18.419 53.0862L11.9509 47.0929C10.3865 45.6435 10.2934 43.2002 11.7429 41.6359C13.1925 40.0716 15.6356 39.9784 17.1999 41.428L23.6681 47.4212C25.2324 48.8706 25.3256 51.3137 23.876 52.8782Z" fill="#F9BA8F"/>
<path d="M21.08 50.3618L14.6119 44.3686C13.53 43.3662 13.1529 41.8887 13.5019 40.5552C12.8497 40.7434 12.2377 41.1017 11.7429 41.6359C10.2934 43.2002 10.3865 45.6434 11.9509 47.0929L18.419 53.0862C19.9834 54.5357 22.4265 54.4426 23.876 52.8782C24.323 52.3958 24.6223 51.8294 24.7779 51.2346C23.5204 51.5976 22.1102 51.3164 21.08 50.3618Z" fill="#FCAD6D"/>
<path d="M79.0768 16.2913C76.5833 19.463 74.3329 24.02 76.132 28.9929C79.507 38.3216 84.882 46.241 82.3819 60.0313C81.2475 66.2885 84.97 68.9114 89.3749 69.9101C92.2585 63.9022 93.8766 57.1717 93.8766 50.0623C93.8768 36.707 88.1756 24.6851 79.0768 16.2913Z" fill="#84CAFA"/>
</svg>
