<svg width="96" height="96" viewBox="0 0 96 96" fill="none" xmlns="http://www.w3.org/2000/svg">
<path d="M48 96C74.5097 96 96 74.5097 96 48C96 21.4903 74.5097 0 48 0C21.4903 0 0 21.4903 0 48C0 74.5097 21.4903 96 48 96Z" fill="#73C3F9"/>
<path d="M95.8642 51.6123L71.9215 27.6696L70.763 31.1888L54.8864 15.3123L51.9925 22.8186L44.6165 15.3124L41.7226 22.8188L34.3465 15.3124L31.4527 22.8188L24.0766 15.3124L12.9728 26.4162L19.8509 33.1639L12.9727 36.6861L21.2482 44.8313L12.9727 46.9561L19.6822 53.5353L12.9727 57.226L51.6113 95.8647C75.241 94.1067 94.1058 75.2419 95.8642 51.6123Z" fill="#149AF5"/>
<path d="M77.0568 43.9085L83.0255 38.7734L71.9217 27.6697L66.7869 33.6386L61.6518 27.6697L56.5168 33.6386L51.3817 27.6697L46.2466 33.6386L41.1116 27.6697L30.0078 38.7734L35.9767 43.9085L30.0078 49.0436L35.9767 54.1786L30.0078 59.3137L35.9767 64.4487L30.0078 69.5836L41.1116 80.6874L46.2466 74.7187L51.3817 80.6874L56.5168 74.7187L61.6518 80.6874L66.7869 74.7187L71.9217 80.6874L83.0255 69.5836L77.0568 64.4487L83.0255 59.3137L77.0568 54.1786L83.0255 49.0436L77.0568 43.9085Z" fill="#4A5BE5"/>
<path d="M83.0263 49.0442L77.0563 54.1779L83.0263 59.3136L77.0563 64.4492L83.0263 69.5829L71.9226 80.6867L66.787 74.7186L61.6513 80.6867L56.5176 74.7186V33.6392L61.6513 27.6692L66.787 33.6392L71.9226 27.6692L83.0263 38.7729L77.0563 43.9086L83.0263 49.0442Z" fill="#283EE1"/>
<path d="M60.0215 31.5511L65.9902 26.4162L54.8864 15.3125L49.7515 21.2812L44.6165 15.3125L39.4814 21.2812L34.3463 15.3125L29.2113 21.2812L24.0764 15.3125L12.9727 26.4162L18.9413 31.5511L12.9727 36.6862L18.9413 41.8213L12.9727 46.9563L18.9413 52.0914L12.9727 57.2262L24.0764 68.33L29.2113 62.3613L34.3463 68.33L39.4814 62.3613L44.6165 68.33L49.7515 62.3613L54.8864 68.33L65.9902 57.2262L60.0215 52.0914L65.9902 46.9563L60.0215 41.8213L65.9902 36.6862L60.0215 31.5511Z" fill="#FF90C2"/>
<path d="M65.9912 36.6864L60.023 41.822L65.9912 46.9557L60.023 52.0914L65.9912 57.227L54.8874 68.3307L49.7537 62.3607L44.618 68.3307L39.4824 62.3607V21.2814L44.618 15.3132L49.7537 21.2814L54.8874 15.3132L65.9912 26.417L60.023 31.5507L65.9912 36.6864Z" fill="#FF73AF"/>
</svg>
