<svg width="512" height="512" viewBox="0 0 512 512" fill="none" xmlns="http://www.w3.org/2000/svg">
<g clip-path="url(#clip0)">
<path d="M340.212 432.821L465.616 393.899C488.072 356.886 501.002 313.452 501.002 266.998C501.002 131.687 391.311 21.9961 256 21.9961C120.689 21.9961 10.998 131.687 10.998 266.998C10.998 330.96 35.518 389.189 75.659 432.821H340.212Z" fill="#4FABF7"/>
<path d="M322.499 53.7251C323.07 43.4981 333.356 36.0381 343.395 38.9491C345.142 39.4561 347.011 38.8591 348.124 37.4201C353.598 30.3451 362.17 25.7881 371.808 25.7881C385.125 25.7881 396.404 34.4871 400.287 46.5121C400.93 48.5041 402.917 49.6801 404.997 49.4431C412.061 48.6381 418.909 52.0891 422.537 58.0431C423.771 60.0681 426.377 60.7011 428.451 59.5511C430.91 58.1881 433.824 57.5481 436.91 57.9221C443.227 58.6871 448.302 63.8161 449.004 70.1401C449.937 78.5401 443.387 85.6511 435.175 85.6511H317.805C310.013 85.6511 303.417 79.2751 303.55 71.4841C303.688 63.3821 310.567 57.4981 318.049 57.8181C320.386 57.9201 322.368 56.0621 322.499 53.7251Z" fill="#73C3F9"/>
<path d="M253.792 118.185C254.673 102.407 270.541 90.8979 286.029 95.3899C288.724 96.1719 291.608 95.2499 293.325 93.0309C301.77 82.1159 314.994 75.0859 329.863 75.0859C350.408 75.0859 367.808 88.5069 373.799 107.058C374.791 110.131 377.856 111.945 381.065 111.58C391.962 110.338 402.527 115.662 408.124 124.848C410.028 127.973 414.048 128.949 417.248 127.175C421.041 125.072 425.537 124.085 430.298 124.662C440.044 125.842 447.872 133.754 448.956 143.511C450.396 156.47 440.29 167.441 427.622 167.441H246.55C234.53 167.441 224.353 157.604 224.558 145.586C224.772 133.086 235.384 124.009 246.925 124.503C250.533 124.655 253.591 121.789 253.792 118.185Z" fill="#9BD8F9"/>
<path d="M203.345 244.499C202.261 234.742 194.432 226.83 184.687 225.65C179.925 225.073 175.43 226.06 171.637 228.163C168.437 229.937 164.417 228.961 162.513 225.836C156.916 216.65 146.351 211.326 135.454 212.568C132.245 212.934 129.181 211.119 128.188 208.046C122.197 189.495 104.797 176.074 84.252 176.074C69.383 176.074 56.159 183.104 47.714 194.019C45.997 196.238 43.113 197.159 40.418 196.378C33.396 194.341 26.3 195.602 20.553 199.051C14.338 220.627 10.999 243.421 10.999 266.997C10.999 267.475 11.013 267.95 11.016 268.428H182.013C194.679 268.429 204.785 257.458 203.345 244.499Z" fill="#73C3F9"/>
<path d="M371.932 373.021H370.404V483.685C410.103 462.681 443.335 431.095 466.34 392.675V215.599L311.146 141.723V348.567H371.933C378.675 348.567 384.16 354.052 384.16 360.794C384.16 367.536 378.674 373.021 371.932 373.021Z" fill="#3C58A0"/>
<path d="M311.146 348.567H371.933C371.947 348.567 371.961 348.569 371.976 348.569V347.038C359.785 343.41 360.5 330 360.5 330C360.5 330 360.5 206.5 360.5 192.5C360.5 178.5 372.881 179.559 372.881 179.559L371.373 170.392L311.147 141.723V348.567H311.146Z" fill="#2A428C"/>
<path d="M74.728 431.821C112.651 473.504 164.758 502.043 223.419 509.839V373.53H223.42H280.968V234.948H74.728V431.821Z" fill="#DAE2FE"/>
<path d="M128.756 273.321C128.756 252.128 145.936 234.948 167.129 234.948H74.728V431.821C90.472 449.126 108.668 464.156 128.756 476.387V273.321Z" fill="#BEC8F7"/>
<path d="M97.8433 121.263H257.853V235.967H97.8433V121.263Z" fill="#DAE2FE"/>
<path d="M140.871 208.849V148.381C140.871 133.404 153.012 121.263 167.989 121.263H97.8433V235.967H167.989C153.012 235.967 140.871 223.826 140.871 208.849Z" fill="#BEC8F7"/>
<path d="M177.848 46.835C173.628 46.835 170.206 43.414 170.206 39.193V7.642C170.206 3.422 173.627 0 177.848 0C182.068 0 185.49 3.421 185.49 7.642V39.193C185.489 43.413 182.068 46.835 177.848 46.835Z" fill="#DAE2FE"/>
<path d="M105.292 261.422C101.072 261.422 97.6499 264.843 97.6499 269.064V453.935C102.582 458.117 107.678 462.109 112.934 465.896V269.064C112.934 264.844 109.513 261.422 105.292 261.422Z" fill="#A8B7EF"/>
<path d="M134.314 261.422C130.094 261.422 126.672 264.843 126.672 269.064V475.104C131.65 478.204 136.747 481.13 141.956 483.875V269.065C141.956 264.844 138.535 261.422 134.314 261.422Z" fill="#A8B7EF"/>
<path d="M163.337 261.422C159.117 261.422 155.695 264.843 155.695 269.064V490.586C160.702 492.836 165.8 494.92 170.979 496.836V269.064C170.979 264.844 167.557 261.422 163.337 261.422Z" fill="#A8B7EF"/>
<path d="M192.359 261.422C188.139 261.422 184.717 264.843 184.717 269.064V501.453C189.746 502.98 194.84 504.356 200.001 505.563V269.064C200 264.844 196.579 261.422 192.359 261.422Z" fill="#A8B7EF"/>
<path d="M221.38 337.868C217.16 337.868 213.738 334.447 213.738 330.226V269.064C213.738 264.844 217.159 261.422 221.38 261.422C225.6 261.422 229.022 264.843 229.022 269.064V330.226C229.022 334.447 225.601 337.868 221.38 337.868Z" fill="#A8B7EF"/>
<path d="M134.315 217.627C130.095 217.627 126.673 214.206 126.673 209.985V149.134C126.673 144.914 130.094 141.492 134.315 141.492C138.536 141.492 141.957 144.913 141.957 149.134V209.985C141.956 214.205 138.535 217.627 134.315 217.627Z" fill="#A8B7EF"/>
<path d="M163.337 217.627C159.117 217.627 155.695 214.206 155.695 209.985V149.134C155.695 144.914 159.116 141.492 163.337 141.492C167.557 141.492 170.979 144.913 170.979 149.134V209.985C170.978 214.205 167.557 217.627 163.337 217.627Z" fill="#A8B7EF"/>
<path d="M192.359 217.627C188.139 217.627 184.717 214.206 184.717 209.985V149.134C184.717 144.914 188.138 141.492 192.359 141.492C196.579 141.492 200.001 144.913 200.001 149.134V209.985C200 214.205 196.579 217.627 192.359 217.627Z" fill="#A8B7EF"/>
<path d="M221.381 217.627C217.161 217.627 213.739 214.206 213.739 209.985V149.134C213.739 144.914 217.16 141.492 221.381 141.492C225.601 141.492 229.023 144.913 229.023 149.134V209.985C229.023 214.205 225.601 217.627 221.381 217.627Z" fill="#A8B7EF"/>
<path d="M221.38 217.627C217.16 217.627 213.738 214.206 213.738 209.985V149.134C213.738 144.914 217.159 141.492 221.38 141.492C225.6 141.492 229.022 144.913 229.022 149.134V209.985C229.022 214.205 225.601 217.627 221.38 217.627Z" fill="#A8B7EF"/>
<path d="M250.403 337.868C246.183 337.868 242.761 334.447 242.761 330.226V269.064C242.761 264.844 246.182 261.422 250.403 261.422C254.624 261.422 258.045 264.843 258.045 269.064V330.226C258.045 334.447 254.623 337.868 250.403 337.868Z" fill="#A8B7EF"/>
<path d="M135.937 44.8669H219.759V121.263H135.937V44.8669Z" fill="#DAE2FE"/>
<path d="M170.965 98.1449V67.9849C170.965 55.2169 181.315 44.8669 194.083 44.8669H135.937V121.263H194.083C181.315 121.263 170.965 110.913 170.965 98.1449Z" fill="#BEC8F7"/>
<path d="M221.381 373.53V509.554C232.693 511.154 244.247 512 256 512C297.959 512 337.45 501.444 371.975 482.855V373.53H221.381Z" fill="#FFC839"/>
<path d="M275.556 477.455V408.072C275.556 388.994 291.021 373.529 310.099 373.529H221.381V509.553C232.693 511.154 244.247 512 256 512C269.453 512 282.651 510.909 295.514 508.822C283.722 503.333 275.556 491.311 275.556 477.455Z" fill="#FFB332"/>
<path d="M433.157 255.206H343.312C339.092 255.206 335.67 251.785 335.67 247.564C335.67 243.344 339.091 239.922 343.312 239.922H433.157C437.378 239.922 440.799 243.343 440.799 247.564C440.798 251.785 437.377 255.206 433.157 255.206Z" fill="#73C3F9"/>
<path d="M433.157 287.405H343.312C339.092 287.405 335.67 283.984 335.67 279.763C335.67 275.543 339.091 272.121 343.312 272.121H433.157C437.378 272.121 440.799 275.542 440.799 279.763C440.798 283.984 437.377 287.405 433.157 287.405Z" fill="#73C3F9"/>
<path d="M433.157 319.605H343.312C339.092 319.605 335.67 316.184 335.67 311.963C335.67 307.742 339.091 304.321 343.312 304.321H433.157C437.378 304.321 440.799 307.742 440.799 311.963C440.799 316.184 437.377 319.605 433.157 319.605Z" fill="#73C3F9"/>
<path d="M433.157 351.804H403.566C399.346 351.804 395.924 348.383 395.924 344.162C395.924 339.941 399.345 336.52 403.566 336.52H433.157C437.378 336.52 440.799 339.941 440.799 344.162C440.799 348.383 437.377 351.804 433.157 351.804Z" fill="#73C3F9"/>
<path d="M433.157 384.003H403.566C399.346 384.003 395.924 380.582 395.924 376.361C395.924 372.14 399.345 368.719 403.566 368.719H433.157C437.378 368.719 440.799 372.14 440.799 376.361C440.799 380.582 437.377 384.003 433.157 384.003Z" fill="#73C3F9"/>
<path d="M433.157 416.203H397.453C393.233 416.203 389.811 412.782 389.811 408.561C389.811 404.341 393.232 400.919 397.453 400.919H433.157C437.378 400.919 440.799 404.34 440.799 408.561C440.798 412.781 437.377 416.203 433.157 416.203Z" fill="#73C3F9"/>
<path d="M433.157 433.118H397.452C393.232 433.118 389.81 436.539 389.81 440.76C389.81 444.981 393.231 448.402 397.452 448.402H420.679C425.888 443.671 430.88 438.707 435.665 433.548C434.878 433.274 434.036 433.118 433.157 433.118Z" fill="#73C3F9"/>
<path d="M467.265 223.707C466.163 223.707 465.045 223.468 463.984 222.962L306.126 147.756C302.315 145.941 300.699 141.38 302.514 137.57C304.329 133.76 308.89 132.142 312.7 133.958L470.558 209.164C474.368 210.979 475.985 215.54 474.17 219.35C472.859 222.099 470.12 223.707 467.265 223.707Z" fill="#4F71B6"/>
<path d="M253.145 420.607C248.925 420.607 245.503 417.186 245.503 412.965V403.643C245.503 399.423 248.924 396.001 253.145 396.001C257.365 396.001 260.787 399.422 260.787 403.643V412.965C260.787 417.185 257.365 420.607 253.145 420.607Z" fill="#FF9100"/>
<path d="M282.167 420.607C277.947 420.607 274.525 417.186 274.525 412.965V403.643C274.525 399.423 277.946 396.001 282.167 396.001C286.388 396.001 289.809 399.422 289.809 403.643V412.965C289.809 417.185 286.388 420.607 282.167 420.607Z" fill="#FF9100"/>
<path d="M311.189 420.607C306.969 420.607 303.547 417.186 303.547 412.965V403.643C303.547 399.423 306.968 396.001 311.189 396.001C315.41 396.001 318.831 399.422 318.831 403.643V412.965C318.831 417.185 315.41 420.607 311.189 420.607Z" fill="#FF9100"/>
<path d="M340.212 420.607C335.992 420.607 332.57 417.186 332.57 412.965V403.643C332.57 399.423 335.991 396.001 340.212 396.001C344.432 396.001 347.854 399.422 347.854 403.643V412.965C347.853 417.185 344.432 420.607 340.212 420.607Z" fill="#FF9100"/>
<path d="M253.145 460.137C248.925 460.137 245.503 456.716 245.503 452.495V443.173C245.503 438.953 248.924 435.531 253.145 435.531C257.365 435.531 260.787 438.952 260.787 443.173V452.495C260.787 456.716 257.365 460.137 253.145 460.137Z" fill="#FF9100"/>
<path d="M282.167 460.137C277.947 460.137 274.525 456.716 274.525 452.495V443.173C274.525 438.953 277.946 435.531 282.167 435.531C286.388 435.531 289.809 438.952 289.809 443.173V452.495C289.809 456.716 286.388 460.137 282.167 460.137Z" fill="#FF9100"/>
<path d="M311.189 460.137C306.969 460.137 303.547 456.716 303.547 452.495V443.173C303.547 438.953 306.968 435.531 311.189 435.531C315.41 435.531 318.831 438.952 318.831 443.173V452.495C318.831 456.716 315.41 460.137 311.189 460.137Z" fill="#FF9100"/>
<path d="M340.212 460.137C335.992 460.137 332.57 456.716 332.57 452.495V443.173C332.57 438.953 335.991 435.531 340.212 435.531C344.432 435.531 347.854 438.952 347.854 443.173V452.495C347.853 456.716 344.432 460.137 340.212 460.137Z" fill="#FF9100"/>
<path d="M253.145 499.668C248.925 499.668 245.503 496.247 245.503 492.026V482.704C245.503 478.484 248.924 475.062 253.145 475.062C257.365 475.062 260.787 478.483 260.787 482.704V492.026C260.787 496.246 257.365 499.668 253.145 499.668Z" fill="#FF9100"/>
<path d="M282.167 499.668C277.947 499.668 274.525 496.247 274.525 492.026V482.704C274.525 478.484 277.946 475.062 282.167 475.062C286.388 475.062 289.809 478.483 289.809 482.704V492.026C289.809 496.246 286.388 499.668 282.167 499.668Z" fill="#FF9100"/>
<path d="M311.189 499.668C306.969 499.668 303.547 496.247 303.547 492.026V482.704C303.547 478.484 306.968 475.062 311.189 475.062C315.41 475.062 318.831 478.483 318.831 482.704V492.026C318.831 496.246 315.41 499.668 311.189 499.668Z" fill="#FF9100"/>
<path d="M340.212 475.062C335.992 475.062 332.57 478.483 332.57 482.704V492.026C332.57 494.788 334.041 497.201 336.237 498.543C340.035 497.227 343.79 495.821 347.5 494.326C347.729 493.6 347.854 492.828 347.854 492.026V482.704C347.853 478.483 344.432 475.062 340.212 475.062Z" fill="#FF9100"/>
<path d="M371.976 374.549H221.381C213.784 374.549 207.626 368.391 207.626 360.794C207.626 353.197 213.784 347.039 221.381 347.039H371.975C379.572 347.039 385.73 353.197 385.73 360.794C385.731 368.391 379.573 374.549 371.976 374.549Z" fill="#FFDD40"/>
<path d="M283.828 360.794C283.828 353.197 289.986 347.039 297.583 347.039H221.381C213.784 347.039 207.626 353.197 207.626 360.794C207.626 368.391 213.784 374.549 221.381 374.549H297.583C289.986 374.549 283.828 368.391 283.828 360.794Z" fill="#FFC839"/>
<path d="M219.759 52.5081H135.937C131.717 52.5081 128.295 49.0871 128.295 44.8661C128.295 40.6451 131.716 37.2241 135.937 37.2241H219.759C223.979 37.2241 227.401 40.6451 227.401 44.8661C227.401 49.0871 223.979 52.5081 219.759 52.5081Z" fill="#E9EFFF"/>
<path d="M257.853 128.905H97.8432C93.6232 128.905 90.2012 125.484 90.2012 121.263C90.2012 117.043 93.6222 113.621 97.8432 113.621H257.853C262.073 113.621 265.495 117.042 265.495 121.263C265.495 125.483 262.073 128.905 257.853 128.905Z" fill="#E9EFFF"/>
<path d="M280.967 242.59H74.7279C70.5079 242.59 67.0859 239.169 67.0859 234.948C67.0859 230.728 70.5069 227.306 74.7279 227.306H280.967C285.187 227.306 288.609 230.727 288.609 234.948C288.609 239.168 285.188 242.59 280.967 242.59Z" fill="#E9EFFF"/>
<path d="M163.337 100.599C159.117 100.599 155.695 97.1779 155.695 92.9569V71.4799C155.695 67.2599 159.116 63.8379 163.337 63.8379C167.558 63.8379 170.979 67.2589 170.979 71.4799V92.9569C170.979 97.1769 167.557 100.599 163.337 100.599Z" fill="#A8B7EF"/>
<path d="M192.359 100.599C188.139 100.599 184.717 97.1779 184.717 92.9569V71.4799C184.717 67.2599 188.138 63.8379 192.359 63.8379C196.58 63.8379 200.001 67.2589 200.001 71.4799V92.9569C200.001 97.1769 196.579 100.599 192.359 100.599Z" fill="#A8B7EF"/>
</g>
<defs>
<clipPath id="clip0">
<rect width="512" height="512" fill="white"/>
</clipPath>
</defs>
</svg>
