<svg width="96" height="96" viewBox="0 0 96 96" fill="none" xmlns="http://www.w3.org/2000/svg">
<path d="M47.999 91.8857C72.2364 91.8857 91.8847 72.2374 91.8847 48C91.8847 23.7626 72.2364 4.11426 47.999 4.11426C23.7616 4.11426 4.11328 23.7626 4.11328 48C4.11328 72.2374 23.7616 91.8857 47.999 91.8857Z" fill="#73C3F9"/>
<path opacity="0.1" d="M18.6523 50.8838L25.6192 43.0324L34.6363 41.181L33.2718 38.6986C33.1758 38.5203 33.2375 38.301 33.4158 38.1981L33.9986 37.8758L33.8821 37.6701C33.6489 37.2313 33.8066 36.6827 34.2386 36.4495L40.2318 33.1444L49.7152 19.6357L49.242 18.7786C49.1666 18.6415 49.1324 18.4907 49.1324 18.3398C49.1324 18.0244 49.2969 17.7159 49.5986 17.5511C49.9003 17.3867 50.2501 17.4209 50.5175 17.5992V17.5855L50.5381 17.6061C50.6066 17.6541 50.6683 17.7226 50.7232 17.7912L90.7689 57.8369C86.3118 77.2975 68.9221 91.8278 48.1243 91.8827H47.8775C47.6649 91.8827 47.4592 91.8689 47.2466 91.8689L25.6192 70.2415V57.8506L18.6523 50.8838Z" fill="black"/>
<path d="M47.9996 47.6112L25.6172 43.03V70.24L47.9996 74.8212L70.382 70.24V43.03L47.9996 47.6112Z" fill="#CD5248"/>
<path d="M70.3824 43.03V70.2399L48 74.821V47.6111L70.3824 43.03Z" fill="#A64139"/>
<path d="M47.9996 38.4492L25.6172 43.0303L47.9996 47.6799L70.382 43.0303L47.9996 38.4492Z" fill="#DBD8DD"/>
<path d="M48 38.4492V47.6114L70.3824 43.0303L48 38.4492Z" fill="#EDEDED"/>
<path d="M48 47.6111L54.9099 55.7362L77.3474 50.8813L70.3824 43.03L48 47.6111Z" fill="#DBD8DD"/>
<path d="M47.9997 47.6111L41.0898 55.7362L18.6523 50.8813L25.6173 43.03L47.9997 47.6111Z" fill="#EDEDED"/>
<path d="M57.186 25.9748L55.0866 26.7456C54.7812 26.8576 54.6474 27.2154 54.8044 27.5003L56.6871 30.9183C56.8441 31.2034 57.2179 31.2815 57.4758 31.0833L59.2493 29.7208C59.4573 29.561 59.5175 29.2733 59.3909 29.0434L57.8341 26.217C57.7076 25.9872 57.4322 25.8843 57.186 25.9748Z" fill="#19282F"/>
<path d="M38.2402 41.7743L45.3227 51.3362C45.5008 51.5766 45.8291 51.6482 46.0911 51.5039L47.2248 50.8794C47.5138 50.7202 47.6191 50.3569 47.4599 50.0678L41.809 39.8086L38.2402 41.7743Z" fill="#344D5B"/>
<path d="M34.8851 37.3909L33.4149 38.2007C33.2371 38.2986 33.1723 38.522 33.2703 38.6998L35.7311 43.1675C35.829 43.3452 36.0525 43.41 36.2302 43.3121L37.7005 42.5022C37.8783 42.4043 37.9429 42.1808 37.8451 42.0031L35.3842 37.5354C35.2863 37.3576 35.0629 37.293 34.8851 37.3909Z" fill="#344D5B"/>
<path d="M61.5908 39.3706L44.1256 40.2209L44.1188 40.2004L38.1256 43.5055C37.6868 43.7455 37.145 43.581 36.9051 43.1489L33.8811 37.67C33.6479 37.2312 33.8056 36.6826 34.2376 36.4494L40.2308 33.1444L50.2765 18.8403L61.5908 39.3706Z" fill="#21D0C3"/>
<path d="M34.2367 36.4461C33.802 36.6856 33.6437 37.232 33.8832 37.6668L36.903 43.1492C37.1424 43.5839 37.6889 43.7422 38.1236 43.5028L44.1168 40.2017L40.2299 33.145L34.2367 36.4461Z" fill="#1AA399"/>
<path d="M49.5947 17.5532L49.5947 17.5532C49.1595 17.7929 49.001 18.3401 49.2407 18.7753L61.0879 40.284C61.3276 40.7193 61.8748 40.8777 62.31 40.638L62.31 40.6379C62.7452 40.3982 62.9037 39.8511 62.664 39.4159L50.8168 17.9072C50.5771 17.472 50.0299 17.3135 49.5947 17.5532Z" fill="#344D5B"/>
</svg>
