<svg width="96" height="96" viewBox="0 0 96 96" fill="none" xmlns="http://www.w3.org/2000/svg">
<path d="M48 93C72.8528 93 93 72.8528 93 48C93 23.1472 72.8528 3 48 3C23.1472 3 3 23.1472 3 48C3 72.8528 23.1472 93 48 93Z" fill="#5EBAF8"/>
<path d="M48 86.4375C69.2284 86.4375 86.4375 69.2284 86.4375 48C86.4375 26.7716 69.2284 9.5625 48 9.5625C26.7716 9.5625 9.5625 26.7716 9.5625 48C9.5625 69.2284 26.7716 86.4375 48 86.4375Z" fill="#73C3F9"/>
<path d="M74.3964 37.0076C74.3964 30.5486 69.1603 25.3125 62.7013 25.3125C56.2423 25.3125 51.0061 30.5486 51.0061 37.0076C51.0061 39.1905 51.6043 41.2339 52.6456 42.9825H23.5936C22.4945 42.9825 21.6035 43.8735 21.6035 44.9726V61.0853C21.6035 62.1844 22.4945 63.0754 23.5936 63.0754H26.3173L23.4695 65.9231C22.1581 67.2345 22.1581 69.3604 23.4695 70.6717L27.752 74.9543C29.0634 76.2656 31.1893 76.2656 32.5006 74.9543L38.7399 68.7154L41.7834 71.7589C43.2598 73.2353 45.7873 72.2753 45.9114 70.191L46.3348 63.0754H68.3701C69.4693 63.0754 70.3603 62.1844 70.3603 61.0853V45.8464C72.8326 43.7018 74.3964 40.5371 74.3964 37.0076Z" fill="#5EBAF8"/>
<path d="M68.3698 60.4501H23.5936C22.4945 60.4501 21.6035 59.5591 21.6035 58.4599V42.3473C21.6035 41.2482 22.4945 40.3572 23.5936 40.3572H68.3698C69.4689 40.3572 70.3599 41.2482 70.3599 42.3473V58.4599C70.3599 59.5591 69.4689 60.4501 68.3698 60.4501Z" fill="#FEDE3A"/>
<path d="M68.3698 56.7684H23.5936C22.4945 56.7684 21.6035 55.8774 21.6035 54.7783V58.4601C21.6035 59.5592 22.4945 60.4502 23.5936 60.4502H68.3698C69.4689 60.4502 70.3599 59.5592 70.3599 58.4601V54.7783C70.3599 55.8774 69.4689 56.7684 68.3698 56.7684Z" fill="#E7AD27"/>
<path d="M28.2331 49.8874L44.3079 48.9311C45.7557 48.8449 46.9539 50.043 46.868 51.4913L45.9117 67.566C45.7876 69.6503 43.2601 70.6103 41.7841 69.1339L38.7406 66.0904L32.501 72.3289C31.1896 73.6403 29.0637 73.6403 27.7524 72.3289L23.4699 68.0464C22.1585 66.735 22.1585 64.6091 23.4699 63.2978L29.7087 57.0589L26.6652 54.0154C25.1889 52.539 26.1489 50.0111 28.2331 49.8874Z" fill="#1CAEE4"/>
<path d="M29.8419 70.2396L25.5594 65.9571C24.248 64.6457 24.248 62.5199 25.5594 61.2085L23.4699 63.298C22.1585 64.6094 22.1585 66.7353 23.4699 68.0466L27.7524 72.3291C29.0637 73.6405 31.1896 73.6405 32.501 72.3291L34.5905 70.2396C33.2791 71.551 31.1532 71.551 29.8419 70.2396Z" fill="#009ADD"/>
<path d="M29.7076 57.0591L31.7971 54.9696L28.7536 51.9261C28.1719 51.3444 27.9687 50.6001 28.0628 49.9033C26.0967 50.1497 25.2282 52.5797 26.6641 54.0156L29.7076 57.0591Z" fill="#009ADD"/>
<path d="M43.8732 67.0442L40.8297 64.0007L38.7402 66.0902L41.7837 69.1337C43.2196 70.5696 45.6496 69.7007 45.896 67.735C45.1992 67.8291 44.4545 67.6259 43.8732 67.0442Z" fill="#009ADD"/>
<path d="M68.3709 40.3574H51.2188C51.7516 43.1242 53.2591 45.5437 55.3704 47.2443C55.3381 47.2184 55.3059 47.1922 55.274 47.1659V54.9978C55.274 55.9499 56.4099 56.4434 57.1059 55.7939L63.5289 49.7984C66.1336 49.6166 68.5033 48.5816 70.3606 46.9709V42.3475C70.361 41.2484 69.47 40.3574 68.3709 40.3574Z" fill="#E7AD27"/>
<path d="M62.7029 46.0778C69.162 46.0778 74.3981 40.8417 74.3981 34.3826C74.3981 27.9236 69.162 22.6875 62.7029 22.6875C56.2439 22.6875 51.0078 27.9236 51.0078 34.3826C51.0078 40.8417 56.2439 46.0778 62.7029 46.0778Z" fill="#EF5A9D"/>
<path d="M62.7029 43.9904C56.5957 43.9904 51.5816 39.3089 51.0539 33.3389C51.0236 33.6827 51.0078 34.0307 51.0078 34.3821C51.0078 40.8411 56.2439 46.0772 62.7029 46.0772C69.1619 46.0772 74.3977 40.8411 74.3977 34.3821C74.3977 34.0307 74.3823 33.6827 74.3516 33.3389C73.8243 39.3089 68.8102 43.9904 62.7029 43.9904Z" fill="#E43D91"/>
<path d="M62.7014 46.0774C59.8807 46.0774 57.2936 45.0788 55.2734 43.416V51.2479C55.2734 52.2 56.4093 52.6935 57.1053 52.044L63.5287 46.0485C63.2553 46.0676 62.9797 46.0774 62.7014 46.0774Z" fill="#EF5A9D"/>
<path d="M61.6218 46.0283L57.1053 50.2441C56.4093 50.8936 55.2734 50.4001 55.2734 49.4479V51.2479C55.2734 52.2001 56.4093 52.6936 57.1053 52.0441L63.5287 46.0486C63.2553 46.0677 62.9797 46.0778 62.7014 46.0778C62.3373 46.0774 61.9773 46.0606 61.6218 46.0283Z" fill="#E43D91"/>
<path d="M62.7006 36.5761C63.8316 36.5761 64.7488 35.6592 64.7488 34.5278V28.5451C64.7488 27.4137 63.832 26.4968 62.7006 26.4968C61.5696 26.4968 60.6523 27.4137 60.6523 28.5451V34.5278C60.6523 35.6592 61.5696 36.5761 62.7006 36.5761Z" fill="#E43D91"/>
<path d="M62.7006 41.9654C63.8316 41.9654 64.7488 41.0485 64.7488 39.9171C64.7488 38.7861 63.832 37.8689 62.7006 37.8689C61.5696 37.8689 60.6523 38.7858 60.6523 39.9171C60.6523 41.0485 61.5696 41.9654 62.7006 41.9654Z" fill="#E43D91"/>
<path d="M62.7006 35.6374C63.8316 35.6374 64.7488 34.7205 64.7488 33.5891V27.6064C64.7488 26.475 63.832 25.5581 62.7006 25.5581C61.5696 25.5581 60.6523 26.475 60.6523 27.6064V33.5891C60.6523 34.7205 61.5696 35.6374 62.7006 35.6374Z" fill="#FEDE3A"/>
<path d="M62.7006 34.3441C63.8316 34.3441 64.7488 33.4273 64.7488 32.2959V33.5896C64.7488 34.7206 63.832 35.6379 62.7006 35.6379C61.5692 35.6379 60.6523 34.721 60.6523 33.5896V32.2959C60.6523 33.4269 61.5692 34.3441 62.7006 34.3441Z" fill="#F7CB15"/>
<path d="M62.7006 41.0269C63.8316 41.0269 64.7488 40.11 64.7488 38.9787C64.7488 37.8477 63.832 36.9304 62.7006 36.9304C61.5696 36.9304 60.6523 37.8473 60.6523 38.9787C60.6523 40.11 61.5696 41.0269 62.7006 41.0269Z" fill="#FEDE3A"/>
<path d="M62.7006 39.7334C63.6043 39.7334 64.3626 39.1443 64.6345 38.332C64.7031 38.5364 64.7488 38.7513 64.7488 38.9789C64.7488 40.1103 63.832 41.0272 62.7006 41.0272C61.5692 41.0272 60.6523 40.1103 60.6523 38.9789C60.6523 38.7513 60.6981 38.5364 60.7667 38.332C61.0386 39.1439 61.7968 39.7334 62.7006 39.7334Z" fill="#F7CB15"/>
</svg>
