<svg width="96" height="96" viewBox="0 0 96 96" fill="none" xmlns="http://www.w3.org/2000/svg">
<path d="M10.5279 77.2419C4.51252 69.2439 0.99397 59.2632 1.12874 48.4533C1.4554 22.3432 22.8223 1.64719 48.9295 2.11521C74.461 2.5737 95.0172 23.4133 95.0172 49.0539C95.0172 59.6279 91.5272 69.3764 85.6283 77.2243C85.1148 77.9077 84.2022 78.1728 83.4002 77.8784C72.961 74.0442 60.9083 71.8564 48.0711 71.8564C35.2288 71.8564 23.171 74.0456 12.7296 77.8835C11.9334 78.1758 11.0369 77.9194 10.5279 77.2419Z" fill="#73C3F9"/>
<path d="M48.0703 5.17383C48.0703 2.31592 50.387 0 53.2441 0H54.873C57.7302 0 60.0469 2.31592 60.0469 5.17383V17.2456H48.0703V5.17383Z" fill="#D63D24"/>
<path d="M85.6292 15.3296V77.2244C82.8914 80.8682 79.6335 84.0989 75.9692 86.811C75.6096 85.0671 74.0657 83.7568 72.2156 83.7568H23.9285C22.0784 83.7568 20.5352 85.0671 20.1755 86.811C16.5112 84.0989 13.2534 80.8689 10.5156 77.2244V15.3296C10.5156 11.0962 13.947 7.66479 18.1797 7.66479H77.9644C82.1978 7.66479 85.6292 11.0962 85.6292 15.3296Z" fill="#528ED7"/>
<path d="M18.1797 7.66479H24.1204C19.887 7.66479 16.4556 11.0962 16.4556 15.3296V83.7561C14.2781 81.7712 12.2881 79.5842 10.5156 77.2244V15.3296C10.5156 11.0962 13.947 7.66479 18.1797 7.66479ZM47.8809 11.4968C46.8225 11.4968 45.9641 12.3552 45.9641 13.4128C45.9641 14.4712 46.8225 15.3296 47.8809 15.3296C48.9392 15.3296 49.7969 14.4712 49.7969 13.4128C49.7969 12.3552 48.9392 11.4968 47.8809 11.4968Z" fill="#0573CD"/>
<path d="M76.0476 22.9937V86.7554C68.2341 92.5627 58.5544 96 48.0713 96C37.5881 96 27.9084 92.5627 20.0957 86.7554V22.9937C20.0957 20.8777 21.811 19.1616 23.9277 19.1616H72.2148C74.3315 19.1616 76.0476 20.8777 76.0476 22.9937Z" fill="#D3F1F5"/>
<path d="M66.083 29.7004V31.6165C66.083 32.146 65.6538 32.5752 65.1243 32.5752H30.6338C30.1042 32.5752 29.6758 32.146 29.6758 31.6165V29.7004C29.6758 29.1716 30.1042 28.7424 30.6338 28.7424H65.1243C65.6538 28.7424 66.083 29.1716 66.083 29.7004ZM53.6274 36.4072H30.6338C30.1042 36.4072 29.6758 36.8364 29.6758 37.3652V39.2812C29.6758 39.8108 30.1042 40.2393 30.6338 40.2393H53.6274C54.157 40.2393 54.5854 39.8108 54.5854 39.2812V37.3652C54.5854 36.8364 54.157 36.4072 53.6274 36.4072Z" fill="#95BCC9"/>
<path d="M66.083 48.8621V50.7788C66.083 51.3076 65.6538 51.7368 65.1243 51.7368H30.6338C30.1042 51.7368 29.6758 51.3076 29.6758 50.7788V48.8621C29.6758 48.3333 30.1042 47.9041 30.6338 47.9041H65.1243C65.6538 47.9041 66.083 48.3333 66.083 48.8621ZM65.1243 55.5688H30.6338C30.1042 55.5688 29.6758 55.998 29.6758 56.5269V58.4429C29.6758 58.9724 30.1042 59.4009 30.6338 59.4009H65.1243C65.6538 59.4009 66.083 58.9724 66.083 58.4429V56.5269C66.083 55.998 65.6538 55.5688 65.1243 55.5688ZM30.6338 67.0657H53.6274C54.157 67.0657 54.5854 66.6365 54.5854 66.1077V64.1917C54.5854 63.6628 54.157 63.2336 53.6274 63.2336H30.6338C30.1042 63.2336 29.6758 63.6628 29.6758 64.1917V66.1077C29.6758 66.6365 30.1042 67.0657 30.6338 67.0657ZM65.1243 70.8984H30.6338C30.1042 70.8984 29.6758 71.3269 29.6758 71.8564V73.7725C29.6758 74.3013 30.1042 74.7305 30.6338 74.7305H65.1243C65.6538 74.7305 66.083 74.3013 66.083 73.7725V71.8564C66.083 71.3269 65.6538 70.8984 65.1243 70.8984ZM65.1243 78.5632H30.6338C30.1042 78.5632 29.6758 78.9917 29.6758 79.5212V81.4373C29.6758 81.9661 30.1042 82.3953 30.6338 82.3953H65.1243C65.6538 82.3953 66.083 81.9661 66.083 81.4373V79.5212C66.083 78.9917 65.6538 78.5632 65.1243 78.5632ZM53.6274 86.2273H30.6338C30.1042 86.2273 29.6758 86.6565 29.6758 87.1853V89.1021C29.6758 89.6309 30.1042 90.0601 30.6338 90.0601H53.6274C54.157 90.0601 54.5854 89.6309 54.5854 89.1021V87.1853C54.5854 86.6565 54.157 86.2273 53.6274 86.2273Z" fill="#84DEEA"/>
<path d="M52.7988 0H53.2456C53.0947 0 52.946 0.00805665 52.7988 0.0205078V0ZM73.7483 0H53.2456C56.1028 0 58.4194 2.31592 58.4194 5.17383V29.0449C58.4194 29.7722 59.1973 30.2344 59.8359 29.8857L67.1228 25.9109C68.2668 25.2869 69.6497 25.2869 70.793 25.9109L78.0806 29.8857C78.7185 30.2336 79.4971 29.7722 79.4971 29.0449V5.74878C79.4971 2.57373 76.9233 0 73.7483 0Z" fill="#FDB44C"/>
<path d="M43.0898 13.4128C43.0898 14.4712 42.2322 15.3296 41.1738 15.3296C40.1155 15.3296 39.2578 14.4712 39.2578 13.4128C39.2578 12.3552 40.1155 11.4968 41.1738 11.4968C42.2322 11.4968 43.0898 12.3552 43.0898 13.4128Z" fill="#ADE8F0"/>
</svg>
