<svg width="96" height="96" viewBox="0 0 96 96" fill="none" xmlns="http://www.w3.org/2000/svg">
<g clip-path="url(#clip0)">
<path d="M47.9889 0.0112305C34.0872 0.0112305 24.2057 5.91309 20.1553 8.83927L25.9088 9.07187H76.0527C68.1605 3.37213 58.4678 0.0112305 47.9889 0.0112305Z" fill="#73C3F9"/>
<path d="M79.5696 76.5598H18.4249L9.67285 76.8933C14.3383 83.0705 20.4624 88.0843 27.5331 91.4218L68.4553 91.4113C75.5057 88.0816 81.6345 83.081 86.308 76.8942L79.5696 76.5598Z" fill="#73C3F9"/>
<path d="M54.3937 75.5583V76.3439C54.3937 79.8788 51.528 82.7446 47.993 82.7446C44.458 82.7446 41.5922 79.8788 41.5922 76.3439V75.5583H34.5068V89.9307H61.4791V75.5583H54.3937Z" fill="#000099"/>
<path d="M61.4803 79.3687V75.5583H54.3949V76.3439C54.3949 77.4382 54.1198 78.468 53.6357 79.3687H61.4803Z" fill="#000066"/>
<path d="M42.3524 79.3687C41.8683 78.4678 41.5932 77.438 41.5932 76.3439V75.5583H34.5078V79.3687H42.3524Z" fill="#000066"/>
<path d="M92.0106 67.1245C93.2431 64.2886 94.2134 61.3073 94.8848 58.2074C94.9183 58.0028 95.9765 53.7892 95.9765 48.0001C95.9765 38.4658 93.1949 29.5815 88.4005 22.1125H31.5371V67.1245H92.0106Z" fill="#0000CC"/>
<path d="M73.1816 22.1125V48.8509L95.9774 48.0001L95.9812 22.1125H73.1816Z" fill="#0000CC"/>
<path d="M10.4529 22.1125L3.11249 30.9683C1.10148 36.2611 0 42.0019 0 48.0001C0 54.7977 1.41369 61.2649 3.96255 67.1245H32.025V22.1125H10.4529Z" fill="#0000B2"/>
<path d="M9.67032 76.8946H86.3073C88.6174 73.8367 90.5717 70.4889 92.1061 66.9099H3.86914C5.40233 70.4825 7.35688 73.8316 9.67032 76.8946Z" fill="#000099"/>
<path d="M27.5312 91.4227C33.7367 94.3511 40.6711 95.9887 47.988 95.9887C55.2836 95.9887 62.228 94.3517 68.4539 91.4116C68.4539 89.4954 66.9006 87.9419 64.9843 87.9419H31.0009C29.0848 87.9419 27.5312 89.4952 27.5312 91.4116V91.4227Z" fill="#0000B2"/>
<path d="M10.6661 19.5504V17.8379C10.2124 18.3985 9.77128 18.9695 9.34277 19.5504H10.6661Z" fill="#FFA50A"/>
<path d="M10.6562 17.8489V19.5506H21.344V8.83911H20.155C18.8237 9.80077 18.1218 10.4414 18.1141 10.4457C15.3667 12.6342 12.8647 15.1181 10.6562 17.8489Z" fill="white"/>
<path d="M21.3359 8.83911H32.0237V19.5506H21.3359V8.83911Z" fill="#FFA50A"/>
<path d="M32.0146 8.83911H42.7024V19.5506H32.0146V8.83911Z" fill="white"/>
<path d="M42.6924 8.83911H53.3801V19.5506H42.6924V8.83911Z" fill="#FFA50A"/>
<path d="M53.3721 8.83911H64.0598V19.5506H53.3721V8.83911Z" fill="white"/>
<path d="M64.0508 8.83911H74.7385V19.5506H64.0508V8.83911Z" fill="#FFA50A"/>
<path d="M85.4092 19.5506H95.9831V15.5651C95.9831 12.21 93.5665 9.421 90.3795 8.83911H85.4094V19.5506H85.4092Z" fill="#FFA50A"/>
<path d="M74.7295 8.83911H85.4172V19.5506H74.7295V8.83911Z" fill="white"/>
<path d="M3.98457 28.8294C3.67725 29.5336 3.38631 30.2467 3.1123 30.968C3.78565 31.2742 4.5339 31.4449 5.32186 31.4449C8.27325 31.4449 10.6657 29.0524 10.6657 26.101V21.9973L3.98457 28.8294Z" fill="#000099"/>
<path d="M16.0001 31.4446C13.0487 31.4446 10.6562 29.0522 10.6562 26.1008V21.9971H21.344V26.1008C21.344 29.0522 18.9513 31.4446 16.0001 31.4446Z" fill="#000099"/>
<path d="M37.3585 31.4446C34.4071 31.4446 32.0146 29.0522 32.0146 26.1008V21.9971H42.7024V26.1008C42.7024 29.0522 40.3099 31.4446 37.3585 31.4446Z" fill="#0000B2"/>
<path d="M48.0363 31.4446C45.0849 31.4446 42.6924 29.0522 42.6924 26.1008V21.9971H53.3801V26.1008C53.3801 29.0522 50.9876 31.4446 48.0363 31.4446Z" fill="#0000B2"/>
<path d="M58.7159 31.4446C55.7645 31.4446 53.3721 29.0522 53.3721 26.1008V21.9971H64.0598V26.1008C64.0598 29.0522 61.6672 31.4446 58.7159 31.4446Z" fill="#0000B2"/>
<path d="M69.3947 31.4446C66.4433 31.4446 64.0508 29.0522 64.0508 26.1008V21.9971H74.7385V26.1008C74.7385 29.0522 72.3459 31.4446 69.3947 31.4446Z" fill="#0000B2"/>
<path d="M90.753 31.4446C87.8017 31.4446 85.4092 29.0522 85.4092 26.1008V21.9971L96.0009 23.6541V26.1008C96.0009 29.0522 93.7044 31.4446 90.753 31.4446Z" fill="#0000B2"/>
<path d="M80.0734 31.4446C77.122 31.4446 74.7295 29.0522 74.7295 26.1008V21.9971H85.4172V26.1008C85.4172 29.0522 83.0248 31.4446 80.0734 31.4446Z" fill="#0000B2"/>
<path d="M5.32166 28.9981C8.27306 28.9981 10.6655 26.6056 10.6655 23.6542V19.5505H9.34217C7.2286 22.4167 5.42592 25.5262 3.98438 28.8293C4.41176 28.9394 4.85984 28.9981 5.32166 28.9981Z" fill="#FA870A"/>
<path d="M16.0001 28.9981C13.0487 28.9981 10.6562 26.6056 10.6562 23.6542V19.5505H21.344V23.6542C21.344 26.6054 18.9513 28.9981 16.0001 28.9981Z" fill="#F5F0F0"/>
<path d="M26.6798 31.4446C23.7284 31.4446 21.3359 29.0522 21.3359 26.1008V21.9971H32.0237V26.1008C32.0235 29.0522 29.631 31.4446 26.6798 31.4446Z" fill="#000099"/>
<path d="M26.6798 28.9981C23.7284 28.9981 21.3359 26.6056 21.3359 23.6542V19.5505H32.0237V23.6542C32.0235 26.6054 29.631 28.9981 26.6798 28.9981Z" fill="#FA870A"/>
<path d="M37.3585 28.9981C34.4071 28.9981 32.0146 26.6056 32.0146 23.6542V19.5505H42.7024V23.6542C42.7024 26.6054 40.3099 28.9981 37.3585 28.9981Z" fill="#F5F0F0"/>
<path d="M48.0363 28.9981C45.0849 28.9981 42.6924 26.6056 42.6924 23.6542V19.5505H53.3801V23.6542C53.3801 26.6054 50.9876 28.9981 48.0363 28.9981Z" fill="#FA870A"/>
<path d="M58.7159 28.9981C55.7645 28.9981 53.3721 26.6056 53.3721 23.6542V19.5505H64.0598V23.6542C64.0598 26.6054 61.6672 28.9981 58.7159 28.9981Z" fill="#F5F0F0"/>
<path d="M69.3947 28.9981C66.4433 28.9981 64.0508 26.6056 64.0508 23.6542V19.5505H74.7385V23.6542C74.7385 26.6054 72.3459 28.9981 69.3947 28.9981Z" fill="#FA870A"/>
<path d="M90.753 28.9981C87.8017 28.9981 85.4092 26.6056 85.4092 23.6542V19.5505H96.0009V23.6542C96.0009 26.6054 93.7044 28.9981 90.753 28.9981Z" fill="#FA870A"/>
<path d="M80.0734 28.9981C77.122 28.9981 74.7295 26.6056 74.7295 23.6542V19.5505H85.4172V23.6542C85.4172 26.6054 83.0248 28.9981 80.0734 28.9981Z" fill="#F5F0F0"/>
<path d="M48.4221 37.1743H27.8496V55.5668H44.7234C45.3322 55.5668 45.861 55.1477 46.0001 54.5549L49.6988 38.7852C49.8918 37.9621 49.2674 37.1743 48.4221 37.1743Z" fill="#FFFAF2"/>
<path d="M30.5203 55.5668H24.9237C24.3354 55.5668 23.819 55.175 23.6607 54.6083L19.2533 38.8387C19.0196 38.0025 19.6481 37.1743 20.5162 37.1743H28.6508L30.5203 55.5668Z" fill="#FFD899"/>
<path d="M45.9642 60.0356H21.5637C21.0229 60.0356 20.5464 59.6801 20.3922 59.1618L13.4071 35.6782H6.72035C6.04531 35.6782 5.49805 35.131 5.49805 34.4559C5.49805 33.7809 6.04531 33.2336 6.72035 33.2336H14.3186C14.8594 33.2336 15.3359 33.5891 15.49 34.1074L22.4753 57.591H45.964C46.639 57.591 47.1863 58.1383 47.1863 58.8133C47.1863 59.4884 46.6392 60.0356 45.9642 60.0356Z" fill="#3BABF7"/>
<path d="M28.4604 62.358C28.9981 62.358 29.4355 62.7953 29.4355 63.333C29.4355 63.8707 28.9981 64.308 28.4604 64.308C27.9228 64.308 27.4854 63.8707 27.4854 63.333C27.4854 62.7953 27.923 62.358 28.4604 62.358ZM28.4604 59.9136C26.5719 59.9136 25.041 61.4445 25.041 63.333C25.041 65.2215 26.5719 66.7524 28.4604 66.7524C30.3489 66.7524 31.8799 65.2215 31.8799 63.333C31.8799 61.4445 30.3489 59.9136 28.4604 59.9136Z" fill="#73C3F9"/>
<path d="M39.0591 62.358C39.5967 62.358 40.0341 62.7953 40.0341 63.333C40.0341 63.8707 39.5967 64.308 39.0591 64.308C38.5214 64.308 38.0841 63.8707 38.0841 63.333C38.0841 62.7953 38.5214 62.358 39.0591 62.358ZM39.0591 59.9136C37.1706 59.9136 35.6396 61.4445 35.6396 63.333C35.6396 65.2215 37.1706 66.7524 39.0591 66.7524C40.9476 66.7524 42.4785 65.2215 42.4785 63.333C42.4785 61.4445 40.9476 59.9136 39.0591 59.9136Z" fill="#73C3F9"/>
<path d="M81.7819 41.1794H59.7997C58.5636 41.1794 57.5615 40.1773 57.5615 38.9413C57.5615 37.7052 58.5636 36.7031 59.7997 36.7031H81.7821C83.0181 36.7031 84.0202 37.7052 84.0202 38.9413C84.02 40.1773 83.0181 41.1794 81.7819 41.1794Z" fill="#000099"/>
<path d="M81.7819 48.6646H59.7997C58.5636 48.6646 57.5615 47.6624 57.5615 46.4264C57.5615 45.1904 58.5636 44.1882 59.7997 44.1882H81.7821C83.0181 44.1882 84.0202 45.1904 84.0202 46.4264C84.02 47.6624 83.0181 48.6646 81.7819 48.6646Z" fill="#000099"/>
<path d="M81.7819 56.1497H59.7997C58.5636 56.1497 57.5615 55.1475 57.5615 53.9115C57.5615 52.6755 58.5636 51.6733 59.7997 51.6733H81.7821C83.0181 51.6733 84.0202 52.6755 84.0202 53.9115C84.02 55.1475 83.0181 56.1497 81.7819 56.1497Z" fill="#000099"/>
</g>
<defs>
<clipPath id="clip0">
<rect width="96" height="96" fill="white"/>
</clipPath>
</defs>
</svg>
