<svg width="96" height="96" viewBox="0 0 96 96" fill="none" xmlns="http://www.w3.org/2000/svg">
<g clip-path="url(#clip0)">
<path d="M96.001 48C96.001 60.2575 91.4065 71.4417 83.8459 79.9247C75.0547 89.7884 62.2532 93.4505 48.001 93.4505C21.4912 93.4505 2.18262 74.9035 2.18262 48.3938C2.18262 33.4822 6.80059 19.7647 17.4685 10.9609C25.7657 4.11332 36.403 0 48.001 0C74.5107 0 96.001 21.4903 96.001 48Z" fill="#73C3F9"/>
<path d="M71.6393 64.9802C75.0842 57.8521 86.0518 35.1581 88.3639 30.3741C88.7157 29.6462 88.4107 28.7711 87.6828 28.4193L87.3711 28.2687L88.1948 26.5642C88.6074 25.7104 88.4201 24.7241 87.8022 24.076C87.7956 24.069 87.789 24.0622 87.7822 24.0554C87.7336 24.0057 87.6824 23.9583 87.6286 23.9129C87.6158 23.902 87.6034 23.8911 87.5902 23.8806C87.54 23.8401 87.4873 23.8021 87.4328 23.7657C87.4165 23.7548 87.401 23.743 87.3843 23.7324C87.3143 23.6882 87.2418 23.6468 87.1654 23.6099C86.8216 23.4437 86.4561 23.3746 86.0998 23.3915C85.316 23.4288 84.5764 23.8828 84.211 24.6392L83.4963 26.1179L83.3873 26.3436L83.0756 26.193C82.3477 25.8412 81.4724 26.1462 81.1208 26.8741L80.3825 28.4018L80.3074 28.3655C78.9427 27.7057 77.3015 28.2772 76.6419 29.6421C75.277 32.4664 71.0317 31.4943 71.0317 28.3576V15.3831C71.0317 12.7459 68.8937 10.6079 66.2566 10.6079H57.6418C57.3952 10.6079 18.2586 10.6079 17.9089 10.6079H17.9057C15.1106 12.8598 12.5105 15.4985 10.3524 18.2232V18.2286C9.34193 19.5043 8.39699 20.8336 7.51831 22.2096H7.51134C7.09308 22.865 6.43219 23.9828 6.21911 24.3587C6.22024 24.3589 6.22155 24.3589 6.22268 24.3591C2.26409 31.3375 0 39.4034 0 48.0001C0 56.4357 2.17882 64.3611 6 71.2494C6.00019 71.2496 6.00019 71.2498 6.00019 71.25C9.17478 76.9725 13.7971 81.931 15.2198 83.0693L15.2941 83.1288C23.8664 91.1131 35.3615 96.0001 48 96.0001C62.2524 96.0001 75.0526 89.7874 83.8428 79.9231C86.6822 76.7369 83.3643 71.8986 79.3432 73.3283C79.2691 73.3546 79.1947 73.3808 79.1206 73.4068C75.1656 74.7909 71.0319 71.8249 71.0319 67.6347C71.0319 66.7148 71.2392 65.8083 71.6393 64.9802ZM16.8358 36.7478C16.5222 36.7478 16.2487 36.6862 16.0122 36.5817C15.9684 36.3367 15.93 36.0897 15.8899 35.8431H16.8791C17.4773 35.8431 17.9622 35.3582 17.9622 34.76C17.9622 34.1618 17.4773 33.6769 16.8791 33.6769H15.5889C15.5725 33.535 15.5554 33.393 15.5401 33.2505C15.8537 32.9599 16.2839 32.7722 16.8358 32.7722C19.3978 32.7724 19.3924 36.7478 16.8358 36.7478ZM15.4349 24.3756H16.8789C17.4771 24.3756 17.962 23.8907 17.962 23.2925C17.962 22.6943 17.4771 22.2094 16.8789 22.2094H15.6216C15.6343 22.1065 15.6486 22.0041 15.6619 21.9013C16.6741 20.7689 18.9956 21.2347 18.9946 23.2925C18.9937 25.4587 16.3251 25.9225 15.4349 24.3756Z" fill="#3BABF7"/>
<path d="M62.0367 10.6079H53.4219V83.1288H62.0367C64.6738 83.1288 66.8118 80.9908 66.8118 78.3536V15.3831C66.8118 12.7459 64.6738 10.6079 62.0367 10.6079Z" fill="#2896FF"/>
<path d="M59.5674 13.2585H53.4219V80.602H59.5674C61.6088 80.602 63.2638 78.947 63.2638 76.9056V16.9549C63.2638 14.9135 61.609 13.2585 59.5674 13.2585Z" fill="white"/>
<path d="M55.6059 10.6079H6.13281V83.1288H55.6059C58.2431 83.1288 60.3811 80.991 60.3811 78.3536V15.3831C60.3811 12.7457 58.2431 10.6079 55.6059 10.6079ZM12.6162 72.345C10.0539 72.345 10.0583 68.3694 12.6162 68.3694C15.1785 68.3696 15.1741 72.345 12.6162 72.345ZM12.6162 61.1163C10.0539 61.1163 10.0583 57.141 12.6162 57.141C15.1785 57.141 15.1741 61.1163 12.6162 61.1163ZM12.6162 49.41C10.0539 49.41 10.0583 45.4346 12.6162 45.4346C15.1785 45.4345 15.1741 49.41 12.6162 49.41ZM12.6162 36.7478C10.0539 36.7478 10.0583 32.7724 12.6162 32.7724C15.1785 32.7724 15.1741 36.7478 12.6162 36.7478ZM12.8551 25.2805C10.2928 25.2805 10.2971 21.3049 12.8551 21.3049C15.4173 21.3049 15.413 25.2805 12.8551 25.2805Z" fill="#6EE1FF"/>
<path d="M60.3813 75.9564V15.3831C60.3813 12.7459 58.2433 10.6079 55.6062 10.6079H21.8369V75.9564H60.3813Z" fill="#6EE1FF"/>
<path d="M23.0683 68.354V50.8585C23.0683 47.6816 25.6438 45.1062 28.8206 45.1062H46.9594C48.2845 45.1062 49.3586 44.0319 49.3586 42.7069V28.5471C49.3586 27.2219 48.2843 26.1479 46.9594 26.1479H23.0683V10.6079H6.13281V83.1288H55.6059C58.2431 83.1288 60.3811 80.9908 60.3811 78.3536V74.1061H28.8204C25.6436 74.1061 23.0683 71.5308 23.0683 68.354ZM12.6162 72.345C10.0539 72.345 10.0583 68.3696 12.6162 68.3696C15.1785 68.3696 15.1741 72.345 12.6162 72.345ZM12.6162 61.1163C10.0539 61.1163 10.0583 57.141 12.6162 57.141C15.1785 57.141 15.1741 61.1163 12.6162 61.1163ZM12.6162 49.41C10.0539 49.41 10.0583 45.4346 12.6162 45.4346C15.1785 45.4345 15.1741 49.41 12.6162 49.41ZM12.6162 36.7478C10.0539 36.7478 10.0583 32.7724 12.6162 32.7724C15.1785 32.7724 15.1741 36.7478 12.6162 36.7478ZM12.8551 25.2805C10.2928 25.2805 10.2971 21.3051 12.8551 21.3051C15.4173 21.3049 15.413 25.2805 12.8551 25.2805Z" fill="#05CDFF"/>
<path d="M46.9589 42.8467H19.5545C18.2293 42.8467 17.1553 41.7725 17.1553 40.4475V26.2877C17.1553 24.9625 18.2295 23.8884 19.5545 23.8884H46.9591C48.2843 23.8884 49.3584 24.9627 49.3584 26.2877V40.4475C49.3584 41.7725 48.2841 42.8467 46.9589 42.8467Z" fill="white"/>
<path d="M23.0684 29.4128H43.4456V31.6724H23.0684V29.4128Z" fill="#6EE1FF"/>
<path d="M23.0684 35.062H43.4456V37.3216H23.0684V35.062Z" fill="#6EE1FF"/>
<path d="M12.6597 24.3757H2.18272C1.5845 24.3757 1.09961 23.8908 1.09961 23.2926C1.09961 22.6944 1.5845 22.2095 2.18272 22.2095H12.6597C13.2579 22.2095 13.7428 22.6944 13.7428 23.2926C13.7428 23.891 13.2579 24.3757 12.6597 24.3757Z" fill="#FFC305"/>
<path d="M12.6597 35.8432H2.18272C1.5845 35.8432 1.09961 35.3583 1.09961 34.7601C1.09961 34.1619 1.5845 33.677 2.18272 33.677H12.6597C13.2579 33.677 13.7428 34.1619 13.7428 34.7601C13.7428 35.3583 13.2579 35.8432 12.6597 35.8432Z" fill="#FFC305"/>
<path d="M12.6597 48.394H2.18272C1.5845 48.394 1.09961 47.9091 1.09961 47.3109C1.09961 46.7127 1.5845 46.2278 2.18272 46.2278H12.6597C13.2579 46.2278 13.7428 46.7127 13.7428 47.3109C13.7428 47.9091 13.2579 48.394 12.6597 48.394Z" fill="#FFC305"/>
<path d="M12.6597 59.8613H2.18272C1.5845 59.8613 1.09961 59.3764 1.09961 58.7782C1.09961 58.18 1.5845 57.6951 2.18272 57.6951H12.6597C13.2579 57.6951 13.7428 58.18 13.7428 58.7782C13.7428 59.3764 13.2579 59.8613 12.6597 59.8613Z" fill="#FFC305"/>
<path d="M12.6597 71.3288H2.18272C1.5845 71.3288 1.09961 70.8439 1.09961 70.2457C1.09961 69.6475 1.5845 69.1626 2.18272 69.1626H12.6597C13.2579 69.1626 13.7428 69.6475 13.7428 70.2457C13.7428 70.8439 13.2579 71.3288 12.6597 71.3288Z" fill="#FFC305"/>
<path d="M4.62973 22.2095H2.22823C1.66258 22.2095 1.15736 22.623 1.10371 23.1862C1.04216 23.8323 1.54851 24.3757 2.18173 24.3757H4.62973C5.22794 24.3757 5.71284 23.8908 5.71284 23.2926C5.71284 22.6944 5.22794 22.2095 4.62973 22.2095Z" fill="#F8E000"/>
<path d="M4.62973 33.677H2.22823C1.66258 33.677 1.15736 34.0906 1.10371 34.6538C1.04216 35.2998 1.54851 35.8432 2.18173 35.8432H4.62973C5.22794 35.8432 5.71284 35.3583 5.71284 34.7601C5.71284 34.1619 5.22794 33.677 4.62973 33.677Z" fill="#F8E000"/>
<path d="M4.62973 46.2278H2.22823C1.66258 46.2278 1.15736 46.6413 1.10371 47.2045C1.04216 47.8506 1.54851 48.3938 2.18173 48.3938H4.62973C5.22794 48.3938 5.71284 47.9089 5.71284 47.3107C5.71284 46.7127 5.22794 46.2278 4.62973 46.2278Z" fill="#F8E000"/>
<path d="M4.62973 57.6951H2.22823C1.66258 57.6951 1.15736 58.1086 1.10371 58.6718C1.04216 59.3178 1.54851 59.8613 2.18173 59.8613H4.62973C5.22794 59.8613 5.71284 59.3764 5.71284 58.7782C5.71284 58.1802 5.22794 57.6951 4.62973 57.6951Z" fill="#F8E000"/>
<path d="M4.62973 69.1628H2.22823C1.66258 69.1628 1.15736 69.5764 1.10371 70.1396C1.04216 70.7856 1.54851 71.3291 2.18173 71.3291H4.62973C5.22794 71.3291 5.71284 70.8442 5.71284 70.2459C5.71284 69.6477 5.22794 69.1628 4.62973 69.1628Z" fill="#F8E000"/>
<path d="M83.5945 24.0898C81.9616 24.0898 80.6377 25.4137 80.6377 27.0466V28.6003L82.5441 29.5218L83.9734 26.5642C84.3832 25.7166 84.2017 24.7381 83.5945 24.0898Z" fill="#6EE1FF"/>
<path d="M80.5881 28.4465L82.0173 25.489C82.3563 24.7874 83.0176 24.3473 83.7374 24.2575C83.5336 23.991 83.2678 23.7657 82.9451 23.6098C81.8451 23.0782 80.5224 23.539 79.9908 24.6391L78.5615 27.5966L82.5451 29.5219L82.596 29.4169L80.5881 28.4465Z" fill="#05CDFF"/>
<path d="M58.5146 64.8726L65.8655 49.664L72.1417 52.6975L64.7908 67.9061L58.5146 64.8726Z" fill="#F8E000"/>
<path d="M59.4326 63.0183L57.8574 66.2776L65.1003 69.778L73.1389 53.1444L70.5714 51.9036L66.3674 60.6025C65.1194 63.1847 62.0146 64.2663 59.4326 63.0183Z" fill="#FFC305"/>
<path d="M57.4592 76.5545C57.3858 76.5545 57.3114 76.5383 57.241 76.5042C56.9912 76.3834 56.8864 76.0831 57.0072 75.8332L58.5824 72.5739C58.7032 72.3241 59.0033 72.2196 59.2533 72.3401C59.5031 72.4609 59.6079 72.7612 59.4871 73.0111L57.9119 76.2704C57.8251 76.4498 57.6459 76.5545 57.4592 76.5545Z" fill="white"/>
<path d="M80.0459 35.6731L71.9072 52.5118L65.9239 49.6199L74.0626 32.7812L80.0459 35.6731Z" fill="white"/>
<path d="M84.1434 30.374L81.28 36.299L74.0371 32.7986L76.9005 26.8735C77.2523 26.1456 78.1275 25.8409 78.8554 26.1925L83.4624 28.4189C84.1903 28.7709 84.4953 29.6461 84.1434 30.374Z" fill="#2896FF"/>
<path d="M81.3047 36.2803L73.166 53.119L70.6528 51.9042L78.7915 35.0655L81.3047 36.2803Z" fill="#6EE1FF"/>
<path d="M59.0352 72.2234L59.4675 74.1824L65.1007 69.778L59.5148 67.0784L59.0352 72.2234Z" fill="#1A396B"/>
<path d="M57.9062 73.4281L59.467 74.1823L59.5143 67.0783L57.8574 66.2776L57.9062 73.4281Z" fill="#2896FF"/>
<path d="M83.4055 31.9017L82.5778 33.6143L75.4375 30.1635C74.9204 29.9138 74.2987 30.1302 74.0489 30.6473L67.5824 44.0278C67.1254 44.9737 65.9879 45.3699 65.042 44.9127L72.422 29.6421C73.0815 28.2772 74.7228 27.7056 76.0876 28.3651L83.4055 31.9017Z" fill="#1A396B"/>
</g>
<defs>
<clipPath id="clip0">
<rect width="96" height="96" fill="white"/>
</clipPath>
</defs>
</svg>
