<svg width="96" height="96" viewBox="0 0 96 96" fill="none" xmlns="http://www.w3.org/2000/svg">
<path d="M48 96C74.5097 96 96 74.5097 96 48C96 21.4903 74.5097 0 48 0C21.4903 0 0 21.4903 0 48C0 74.5097 21.4903 96 48 96Z" fill="#73C3F9"/>
<path d="M47.9988 58.9001L75.484 43.7048H20.5137L47.9988 58.9001Z" fill="#F6C358"/>
<path d="M45.8654 21.8173L20.499 43.7048H20.5139H75.484H75.4988L50.1326 21.8173C48.907 20.7595 47.0914 20.7595 45.8654 21.8173Z" fill="#F6C358"/>
<path d="M20.5139 43.7046H20.499V71.7099C20.499 72.4692 20.7688 73.1591 21.2037 73.7138L47.999 58.8999L20.5139 43.7046Z" fill="#FCD462"/>
<path d="M68.5416 23.7573H27.4596C26.8799 23.7573 26.4102 24.2271 26.4102 24.8065V31.73H69.5908V24.8065C69.5908 24.2271 69.1211 23.7573 68.5416 23.7573Z" fill="#64798A"/>
<path d="M69.5897 31.7304H35.65C35.4291 31.7304 35.2328 31.5896 35.1619 31.3802L34.5844 29.672C34.5137 29.4626 34.3172 29.3218 34.0961 29.3218H28.7584C28.5373 29.3218 28.341 29.4626 28.2701 29.672L27.6926 31.3802C27.6219 31.5896 27.4254 31.7304 27.2043 31.7304H26.4092V62.9864H69.5899V31.7304H69.5897Z" fill="white"/>
<path d="M26.4092 62.9863V65.8887C26.4092 66.4682 26.8789 66.9379 27.4584 66.9379H68.5404C69.1199 66.9379 69.5896 66.4682 69.5896 65.8887V62.9863H26.4092Z" fill="#D5D6DB"/>
<path d="M58.5102 27.751C59.1646 27.751 59.6951 27.2205 59.6951 26.5661C59.6951 25.9116 59.1646 25.3811 58.5102 25.3811C57.8557 25.3811 57.3252 25.9116 57.3252 26.5661C57.3252 27.2205 57.8557 27.751 58.5102 27.751Z" fill="#FCD462"/>
<path d="M62.7318 27.751C63.3863 27.751 63.9168 27.2205 63.9168 26.5661C63.9168 25.9116 63.3863 25.3811 62.7318 25.3811C62.0774 25.3811 61.5469 25.9116 61.5469 26.5661C61.5469 27.2205 62.0774 27.751 62.7318 27.751Z" fill="#44C4A1"/>
<path d="M66.9584 27.751C67.6128 27.751 68.1434 27.2205 68.1434 26.5661C68.1434 25.9116 67.6128 25.3811 66.9584 25.3811C66.304 25.3811 65.7734 25.9116 65.7734 26.5661C65.7734 27.2205 66.304 27.751 66.9584 27.751Z" fill="#E56353"/>
<path d="M35.8445 30.9452H43.1604L42.7297 29.672C42.6588 29.4626 42.4625 29.3218 42.2414 29.3218H35.2764C35.2914 29.3563 35.316 29.3849 35.3283 29.421L35.8445 30.9452Z" fill="#EBF0F3"/>
<path d="M69.5902 33.55H26.4102V44.7971H69.5902V33.55Z" fill="#E1E6E9"/>
<path d="M28.75 40.25C29.3465 40.25 29.8301 39.7664 29.8301 39.1699C29.8301 38.5734 29.3465 38.0898 28.75 38.0898C28.1535 38.0898 27.6699 38.5734 27.6699 39.1699C27.6699 39.7664 28.1535 40.25 28.75 40.25Z" fill="#D5D6DB"/>
<path d="M28.1602 39.1733L28.8953 39.9085V38.438L28.1602 39.1733Z" fill="#EBF0F3"/>
<path d="M67.251 40.25C67.8475 40.25 68.3311 39.7664 68.3311 39.1699C68.3311 38.5734 67.8475 38.0898 67.251 38.0898C66.6545 38.0898 66.1709 38.5734 66.1709 39.1699C66.1709 39.7664 66.6545 40.25 67.251 40.25Z" fill="#D5D6DB"/>
<path d="M67.8396 39.1733L67.1045 39.9085V38.438L67.8396 39.1733Z" fill="#EBF0F3"/>
<path d="M61.15 65.486C61.6007 65.486 61.966 65.1207 61.966 64.67C61.966 64.2193 61.6007 63.854 61.15 63.854C60.6993 63.854 60.334 64.2193 60.334 64.67C60.334 65.1207 60.6993 65.486 61.15 65.486Z" fill="#27A2DB"/>
<path d="M63.6803 65.486C64.1309 65.486 64.4963 65.1207 64.4963 64.67C64.4963 64.2193 64.1309 63.854 63.6803 63.854C63.2296 63.854 62.8643 64.2193 62.8643 64.67C62.8643 65.1207 63.2296 65.486 63.6803 65.486Z" fill="#E56353"/>
<path d="M66.2203 65.486C66.671 65.486 67.0363 65.1207 67.0363 64.67C67.0363 64.2193 66.671 63.854 66.2203 63.854C65.7696 63.854 65.4043 64.2193 65.4043 64.67C65.4043 65.1207 65.7696 65.486 66.2203 65.486Z" fill="#44C4A1"/>
<path d="M39.7781 64.28H28.1592V65.065H39.7781V64.28Z" fill="#64798A"/>
<path d="M36.3891 56.915H28.6191V57.7H36.3891V56.915Z" fill="#64798A"/>
<path d="M33.8291 59.9509H28.6191V60.7359H33.8291V59.9509Z" fill="#64798A"/>
<path d="M46.7201 56.915H38.9502V57.7H46.7201V56.915Z" fill="#64798A"/>
<path d="M44.1602 59.9509H38.9502V60.7359H44.1602V59.9509Z" fill="#64798A"/>
<path d="M57.0492 56.915H49.2793V57.7H57.0492V56.915Z" fill="#64798A"/>
<path d="M54.4893 59.9509H49.2793V60.7359H54.4893V59.9509Z" fill="#64798A"/>
<path d="M67.3793 56.915H59.6094V57.7H67.3793V56.915Z" fill="#64798A"/>
<path d="M64.8193 59.9509H59.6094V60.7359H64.8193V59.9509Z" fill="#64798A"/>
<path d="M46.0779 46.6782H39.593C39.2381 46.6782 38.9502 46.9659 38.9502 47.3208V53.806C38.9502 54.1609 39.2381 54.4486 39.593 54.4486H46.0779C46.4328 54.4486 46.7205 54.1609 46.7205 53.806V47.3208C46.7205 46.9659 46.4328 46.6782 46.0779 46.6782Z" fill="#44C4A1"/>
<path d="M35.7488 46.6782H29.2637C28.9088 46.6782 28.6211 46.9659 28.6211 47.3208V53.806C28.6211 54.1609 28.9088 54.4486 29.2637 54.4486H35.7488C36.1037 54.4486 36.3914 54.1609 36.3914 53.806V47.3208C36.3914 46.9659 36.1037 46.6782 35.7488 46.6782Z" fill="#F6C358"/>
<path d="M56.4068 46.6782H49.9219C49.567 46.6782 49.2793 46.9659 49.2793 47.3208V53.806C49.2793 54.1609 49.567 54.4486 49.9219 54.4486H56.4068C56.7617 54.4486 57.0496 54.1609 57.0496 53.806V47.3208C57.0496 46.9659 56.7617 46.6782 56.4068 46.6782Z" fill="#E56353"/>
<path d="M66.7379 46.6782H60.2529C59.898 46.6782 59.6104 46.9659 59.6104 47.3208V53.806C59.6104 54.1609 59.898 54.4486 60.2529 54.4486H66.7381C67.093 54.4486 67.3807 54.1609 67.3807 53.806V47.3208C67.3805 46.9659 67.0928 46.6782 66.7379 46.6782Z" fill="#27A2DB"/>
<path d="M55.5455 25.3811H27.9766V27.751H55.5455V25.3811Z" fill="#EBF0F3"/>
<path d="M75.5 43.7046H75.4851L48 58.8999L74.7957 73.7138C75.2303 73.1591 75.5 72.4692 75.5 71.7099V43.7046Z" fill="#FCD462"/>
<path d="M21.2041 73.7138C21.802 74.4769 22.7213 74.9759 23.7656 74.9759H72.2336C73.2781 74.9759 74.1973 74.4767 74.7951 73.7138L47.9994 58.8999L21.2041 73.7138Z" fill="#F6C358"/>
<path d="M20.5139 43.7046H20.499V68.9704L47.999 58.8999L20.5139 43.7046Z" fill="#FCD462"/>
<path d="M20.499 68.9704V71.7099C20.499 72.4692 20.7688 73.1591 21.2037 73.7138L47.999 58.8999L20.499 68.9704Z" fill="#DC8744"/>
</svg>
