<svg width="96" height="96" viewBox="0 0 96 96" fill="none" xmlns="http://www.w3.org/2000/svg">
<path d="M96 48C96 74.5097 74.5097 96 48 96C21.4903 96 0 74.5097 0 48C0 21.4903 21.4903 0 48 0C74.5097 0 96 21.4903 96 48Z" fill="#73C3F9"/>
<path d="M82.9711 47.9999C82.9711 67.3141 67.3139 82.9713 47.9997 82.9713C28.6855 82.9713 13.0283 67.3141 13.0283 47.9999C13.0283 28.6858 28.6855 13.0286 47.9997 13.0286C67.3139 13.0286 82.9711 28.6858 82.9711 47.9999Z" fill="#A7D0FC"/>
<path d="M61.3944 33.467C60.8097 33.9781 59.9212 33.9185 59.4101 33.3338L53.1564 26.1803V47.3438C53.1564 48.1205 52.5267 48.7501 51.7501 48.7501C50.9735 48.7501 50.3439 48.1205 50.3439 47.3438V22.9632L43.9842 15.6886C43.4731 15.104 43.5327 14.2156 44.1174 13.7043C44.702 13.193 45.5906 13.2528 46.1017 13.8374L61.5277 31.4827C62.0388 32.0675 61.9792 32.9558 61.3944 33.467Z" fill="#1380E2"/>
<path d="M39.1839 48.1665C39.0173 48.9251 38.2673 49.4049 37.5086 49.2383L32.5781 48.1551V67.5H34.6875C36.2407 67.5 37.5 68.7593 37.5 70.3125V94.848C26.0406 92.2909 16.1265 85.6367 9.375 76.5026V70.3125C9.375 68.7593 10.6342 67.5 12.1875 67.5H17.3438V27.6562C17.3438 26.8796 17.9734 26.25 18.75 26.25C19.5266 26.25 20.1562 26.8796 20.1562 27.6562V67.5H29.7656V47.5371L24.2316 46.3213C23.4729 46.1546 22.9931 45.4046 23.1598 44.646C23.3265 43.8874 24.0765 43.4076 24.8351 43.5742L29.7656 44.6574V44.5312C29.7656 43.7546 30.3953 43.125 31.1719 43.125C31.9485 43.125 32.5781 43.7546 32.5781 44.5312V45.2754L38.1122 46.4912C38.8708 46.6579 39.3506 47.4079 39.1839 48.1665ZM88.125 60.9375V74.3533C80.6492 85.7128 68.4789 93.7087 54.375 95.5802V80.625H45.9375C44.3843 80.625 43.125 79.3657 43.125 77.8125V47.8125C43.125 46.2593 44.3843 45 45.9375 45H68.4375C69.9818 45 71.2352 46.2444 71.2498 47.7851L74.1388 47.1504V46.4062C74.1388 45.6296 74.7684 45 75.5451 45C76.3217 45 76.9513 45.6296 76.9513 46.4062V46.5324L78.8498 46.1154V28.5696C78.8498 27.7929 79.4794 27.1633 80.256 27.1633C81.0326 27.1633 81.6623 27.7929 81.6623 28.5696V45.4976L81.8818 45.4494C82.6404 45.2828 83.3904 45.7626 83.5571 46.5212C83.7238 47.2798 83.244 48.0298 82.4854 48.1965L81.6623 48.3772V58.125H85.3125C86.8658 58.125 88.125 59.3843 88.125 60.9375ZM74.1388 50.0301L71.25 50.6646V58.125H74.1388V50.0301ZM78.8498 48.9951L76.9513 49.4121V58.125H78.8498V48.9951Z" fill="#84CAFA"/>
<path d="M83.25 69V80.58C75.0356 89.4634 63.5051 95.2352 50.625 95.9295V69C50.625 65.8933 53.1433 63.375 56.25 63.375H77.625C80.7317 63.375 83.25 65.8933 83.25 69ZM41.625 72.9998H20.25C17.1433 72.9998 14.625 75.5181 14.625 78.6248V82.4979C23.0961 90.6951 34.5774 95.8001 47.25 95.9942V78.6248C47.25 75.5181 44.7317 72.9998 41.625 72.9998Z" fill="#73C3F9"/>
<path d="M50.7666 18.4616C51.2778 19.0462 51.2181 19.9346 50.6335 20.4459L49.9278 21.063C49.3431 21.5741 48.4546 21.5145 47.9434 20.9299L44.3498 16.8193C43.5173 16.8829 42.6663 16.5667 42.0743 15.8899C41.0774 14.7495 41.1936 13.017 42.334 12.0203L42.4396 11.928C43.5799 10.9311 45.3124 11.0473 46.3092 12.1877C46.7976 12.7464 47.0189 13.4473 46.9833 14.1341L50.7666 18.4616ZM73.1247 1.40625C73.1247 0.629625 72.4951 0 71.7184 0C70.9418 0 70.3122 0.629625 70.3122 1.40625V11.3387C70.0126 11.2808 69.6985 11.25 69.3747 11.25C67.3036 11.25 65.6247 12.5092 65.6247 14.0625C65.6247 15.6158 67.3036 16.875 69.3747 16.875C71.4458 16.875 73.1247 15.6158 73.1247 14.0625C73.1247 13.9753 73.1247 1.40625 73.1247 1.40625Z" fill="#453D83"/>
<path d="M71.4375 72.5625C71.4375 85.5068 60.9443 96 48 96C35.0557 96 24.5625 85.5068 24.5625 72.5625C24.5625 59.6182 35.0557 49.125 48 49.125C60.9443 49.125 71.4375 59.6182 71.4375 72.5625Z" fill="#453D83"/>
<path d="M64.4934 89.2136C63.3159 90.38 61.3117 89.526 61.3117 87.8685V87.8662C61.3117 87.3665 61.5123 86.8888 61.8669 86.5368C65.5145 82.9168 67.7527 77.8785 67.6852 72.318C67.5556 61.6517 58.8189 52.9567 48.152 52.8757C42.1899 52.8305 36.8351 55.4357 33.1957 59.5834C32.8366 59.9927 32.3227 60.2325 31.7782 60.2325C30.1604 60.2325 29.309 58.3273 30.3759 57.1113C34.6053 52.2913 40.7806 49.221 47.6748 49.1274C60.6183 48.9519 71.3475 59.4542 71.4361 72.3984C71.4811 78.9753 68.8169 84.9303 64.4934 89.2136Z" fill="#51489A"/>
<path d="M67.6875 72.5625C67.6875 83.4356 58.8731 92.25 48 92.25C37.1269 92.25 28.3125 83.4356 28.3125 72.5625C28.3125 61.6894 37.1269 52.875 48 52.875C58.8731 52.875 67.6875 61.6894 67.6875 72.5625Z" fill="#FFD993"/>
<path d="M58.125 75.9375C58.125 82.6684 52.6684 88.125 45.9375 88.125C39.2066 88.125 33.75 82.6684 33.75 75.9375C33.75 69.2066 39.2064 63.75 45.9375 63.75C52.6686 63.75 58.125 69.2066 58.125 75.9375Z" fill="#FFF5F5"/>
<path d="M52.1262 69.1902V70.7961C52.1262 71.0417 51.9634 71.2576 51.7272 71.3249L44.5635 73.3716V79.84C44.5635 79.84 44.5294 81.0518 44.4681 81.1836C44.1049 82.3154 42.7465 83.1563 41.1259 83.1563C39.2275 83.1563 37.6885 82.0021 37.6885 80.5782C37.6885 79.1543 39.2275 78.0001 41.1259 78.0001C41.6147 78.0001 42.0799 78.0766 42.5009 78.2146V73.1875C42.5009 73.1631 42.5018 73.1389 42.5035 73.1149C42.5532 71.9676 43.3315 70.9737 44.4439 70.6559L51.4247 68.6614C51.7765 68.5609 52.1262 68.8247 52.1262 69.1902Z" fill="#453D83"/>
<path d="M52.1251 69.1901V79.7187C52.1251 80.8578 50.894 81.7812 49.3751 81.7812C47.8563 81.7812 46.625 80.8578 46.625 79.7187C46.625 78.5797 47.8561 77.6562 49.3751 77.6562C49.6124 77.6562 49.8429 77.6787 50.0626 77.7213V71.8002L48.3104 72.3009C47.4659 72.5422 46.6252 71.9081 46.6252 71.0296C46.6252 70.4394 47.0165 69.9206 47.5841 69.7584L51.4241 68.6611C51.7754 68.5608 52.1251 68.8246 52.1251 69.1901Z" fill="#51489A"/>
<path d="M15 21.5625V36.5625C15 38.1157 13.7408 39.375 12.1875 39.375H5.625C4.07175 39.375 2.8125 38.1157 2.8125 36.5625V21.5625C2.8125 20.0092 4.07175 18.75 5.625 18.75H12.1875C13.7408 18.75 15 20.0092 15 21.5625Z" fill="#453D83"/>
<path d="M34.6875 21.5625V36.5625C34.6875 38.1157 33.4282 39.375 31.875 39.375H12.1875C10.6342 39.375 9.375 38.1157 9.375 36.5625V21.5625C9.375 20.0092 10.6342 18.75 12.1875 18.75H31.875C33.4282 18.75 34.6875 20.0092 34.6875 21.5625Z" fill="#51489A"/>
<path d="M13.125 20.625H15.9375V39.375H13.125V20.625ZM20.625 39.375H23.4375V20.625H20.625V39.375ZM28.125 20.625V39.375H30.9375V20.625H28.125Z" fill="#453D83"/>
<path d="M75.6189 32.886C76.0982 34.3635 75.2887 35.9497 73.8112 36.429L68.193 38.2511C66.7155 38.7304 65.1292 37.9209 64.65 36.4434C64.1707 34.9659 64.9802 33.3797 66.4577 32.9004L72.0759 31.0783C73.5534 30.5991 75.1397 31.4085 75.6189 32.886ZM8.71875 16.875H2.8125C1.25925 16.875 0 18.1342 0 19.6875C0 21.2408 1.25925 22.5 2.8125 22.5H8.71875C10.272 22.5 11.5312 21.2408 11.5312 19.6875C11.5312 18.1342 10.272 16.875 8.71875 16.875Z" fill="#FF9F22"/>
<path d="M95.862 26.3205C96.3413 27.798 95.5318 29.3843 94.0543 29.8635L73.8112 36.429C72.3337 36.9083 70.7475 36.0988 70.2682 34.6213C69.789 33.1438 70.5984 31.5576 72.0759 31.0783L92.3192 24.513C93.7967 24.0337 95.3829 24.843 95.862 26.3205ZM34.6875 16.875H8.71875C7.1655 16.875 5.90625 18.1343 5.90625 19.6875C5.90625 21.2408 7.1655 22.5 8.71875 22.5H34.6875C36.2407 22.5 37.5 21.2408 37.5 19.6875C37.5 18.1343 36.2407 16.875 34.6875 16.875Z" fill="#FFC14F"/>
<path d="M63.1483 18.9177L61.5264 19.8047C61.4634 19.8392 61.4117 19.8908 61.3774 19.9538L60.4903 21.5757C60.348 21.8357 59.9745 21.8357 59.8324 21.5757L58.9453 19.9538C58.9108 19.8908 58.8592 19.839 58.7962 19.8047L57.1744 18.9177C56.9143 18.7754 56.9143 18.4019 57.1744 18.2595L58.7962 17.3725C58.8592 17.338 58.9108 17.2864 58.9453 17.2234L59.8324 15.6015C59.9747 15.3415 60.3482 15.3415 60.4903 15.6015L61.3774 17.2234C61.4119 17.2864 61.4634 17.3382 61.5264 17.3725L63.1483 18.2595C63.4084 18.402 63.4084 18.7754 63.1483 18.9177ZM92.8256 42.9574L91.2037 42.0704C91.1407 42.0359 91.089 41.9843 91.0547 41.9213L90.1676 40.2994C90.0253 40.0394 89.6518 40.0394 89.5097 40.2994L88.6226 41.9213C88.5881 41.9843 88.5365 42.036 88.4735 42.0704L86.8517 42.9574C86.5916 43.0997 86.5916 43.4732 86.8517 43.6155L88.4735 44.5026C88.5365 44.5371 88.5883 44.5887 88.6226 44.6517L89.5097 46.2735C89.652 46.5336 90.0255 46.5336 90.1676 46.2735L91.0547 44.6517C91.0892 44.5887 91.1407 44.5369 91.2037 44.5026L92.8256 43.6155C93.0857 43.473 93.0857 43.0997 92.8256 42.9574ZM23.4506 53.8847L20.6165 52.3347C20.5535 52.3002 20.5018 52.2486 20.4675 52.1856L18.9174 49.3515C18.7751 49.0915 18.4016 49.0915 18.2595 49.3515L16.7094 52.1856C16.6749 52.2484 16.6234 52.3002 16.5604 52.3347L13.7263 53.8847C13.4662 54.027 13.4662 54.4005 13.7263 54.5427L16.5604 56.0927C16.6234 56.1272 16.6751 56.1788 16.7094 56.2418L18.2595 59.0759C18.4018 59.3359 18.7753 59.3359 18.9174 59.0759L20.4675 56.2418C20.502 56.1788 20.5535 56.127 20.6165 56.0927L23.4506 54.5427C23.7107 54.4004 23.7107 54.0269 23.4506 53.8847ZM64.1081 48.0302V39.5927C64.1081 38.8161 63.4785 38.1865 62.7019 38.1865C61.9252 38.1865 61.2956 38.8161 61.2956 39.5927V48.0302C61.2956 48.8069 61.9252 49.4365 62.7019 49.4365C63.4785 49.4365 64.1081 48.8069 64.1081 48.0302ZM68.8524 51.4017L72.167 48.087C72.7162 47.5379 72.7162 46.6474 72.167 46.0982C71.6179 45.549 70.7274 45.549 70.1782 46.0982L66.8636 49.4129C66.3144 49.962 66.3144 50.8525 66.8636 51.4017C67.413 51.9509 68.3034 51.9509 68.8524 51.4017Z" fill="#FFF5F5"/>
</svg>
