<svg width="96" height="96" viewBox="0 0 96 96" fill="none" xmlns="http://www.w3.org/2000/svg">
<path d="M48 96C74.5097 96 96 74.5097 96 48C96 21.4903 74.5097 0 48 0C21.4903 0 0 21.4903 0 48C0 74.5097 21.4903 96 48 96Z" fill="#73C3F9"/>
<path d="M39.589 84.5072L50.9901 95.9083C74.4147 94.4685 93.2957 76.2285 95.7334 53.0875L62.4977 19.8518L61.8537 20.1156L52.7652 11.0271L33.9482 58.1766L46.8749 71.1034V82.8657L39.589 84.5072Z" fill="#84CAFA" fill-opacity="0.95"/>
<path d="M50.8122 78.8822V43.0273H45.1872V78.8822H39.5889V84.5072H56.4106V78.8822H50.8122Z" fill="white"/>
<path d="M50.8123 78.8822V43.0273H48.0225V84.5072H56.4106V78.8822H50.8123Z" fill="#E9EDF5"/>
<path d="M62.4977 19.8518L55.3481 17.731C53.8161 17.2765 52.7651 15.8685 52.7651 14.2705V11.0271H43.2345V14.2707C43.2345 15.8687 42.1836 17.2767 40.6515 17.7312L33.502 19.852V27.7943L37.2814 40.081C38.14 42.8719 37.869 45.888 36.5269 48.4813C35.9008 49.6913 35.3659 50.9442 34.9258 52.2298C34.2709 54.1431 33.9482 56.1546 33.9482 58.177H62.1261V57.9404C62.1261 56.29 61.9198 54.6432 61.4717 53.0549C61.0189 51.4497 60.4208 49.887 59.6841 48.3863L59.6344 48.2852C58.4179 45.8072 58.1642 42.966 58.9224 40.3118L62.4979 27.7943V19.8518H62.4977Z" fill="#000099"/>
<path d="M62.4976 27.7941V19.8518L55.3481 17.731C53.8158 17.2765 52.7651 15.8685 52.7651 14.2705V11.0271H48.0225V58.1768H62.126V57.9402C62.126 56.2898 61.9198 54.6432 61.4716 53.0547C61.0186 51.4495 60.4207 49.8868 59.684 48.3861L59.6345 48.285C58.418 45.807 58.1643 42.9659 58.9224 40.3116L62.4976 27.7941Z" fill="#000066"/>
</svg>
