<svg width="96" height="96" viewBox="0 0 96 96" fill="none" xmlns="http://www.w3.org/2000/svg">
<path d="M96 48C96 58.9631 92.3136 69.072 86.1216 77.1551H86.112C62.0927 89.0303 33.9071 89.0303 9.888 77.1551H9.87844C3.68644 69.072 0 58.9631 0 48C0 39.36 2.28487 31.248 6.288 24.24C6.29756 24.2209 6.30731 24.2016 6.31687 24.192C14.5824 9.73444 30.1536 0 48 0C65.8464 0 81.4176 9.73444 89.6833 24.192C89.6929 24.2016 89.7024 24.2209 89.712 24.24C93.7151 31.248 96 39.36 96 48Z" fill="#73C3F9"/>
<path d="M96 47.9999C96 58.963 92.3136 69.0719 86.1216 77.155C62.0927 89.0301 33.9071 89.0301 9.87844 77.155C3.68644 69.0719 0 58.963 0 47.9999C0 39.3599 2.28487 31.2479 6.288 24.2399C6.29756 24.2208 6.30731 24.2015 6.31687 24.1919C11.0784 32.5152 18.2593 39.2735 26.9089 43.5072C27.888 43.9872 28.896 44.4383 29.9137 44.8512C35.3569 47.069 41.2993 48.317 47.5202 48.3745H48.4802C54.7011 48.317 60.6435 47.069 66.0866 44.8512C67.1042 44.4385 68.1122 43.9874 69.0915 43.5072C77.7315 39.2735 84.9219 32.5152 89.6835 24.1919C89.6931 24.2015 89.7026 24.2208 89.7122 24.2399C93.7151 31.2479 96 39.3599 96 47.9999Z" fill="#3BABF7"/>
<path d="M81.0436 59.115L54.8349 62.2856L51.9736 39.2888L52.0843 39.2063C59.498 33.555 69.368 32.3175 77.9443 35.9775L78.158 36.0694L81.0436 59.115Z" fill="#06995A"/>
<path d="M75.3174 12.9692L49.1338 16.1886L51.974 39.2886L78.1577 36.0692L75.3174 12.9692Z" fill="#56C126"/>
<path d="M73.798 36.6054L72.8316 36.0738C67.371 33.0429 60.5496 34.1525 56.335 38.7524L58.6907 57.5296L76.1483 55.3395L73.798 36.6054Z" fill="#56C126"/>
<path d="M54.0557 20.0227L71.5271 17.8762L73.8307 36.6262L56.3593 38.7727L54.0557 20.0227Z" fill="#ACE334"/>
<path d="M58.3124 38.5479C57.8363 34.7527 60.5284 31.2881 64.3377 30.8102C68.1329 30.3341 71.5973 33.0262 72.0734 36.8214L72.0612 36.8372C68.0862 39.7489 62.8851 40.4014 58.3124 38.5479Z" fill="#56C126"/>
<path d="M66.0564 44.5638C62.2575 45.0405 58.7891 42.3468 58.3125 38.5481L72.0735 36.8218C72.5501 40.6203 69.8554 44.0872 66.0564 44.5638Z" fill="#06995A"/>
<path d="M66.9009 37.8409L70.7424 36.9885L70.673 36.4359L69.5302 36.5794C69.5009 36.4988 69.4685 36.417 69.4327 36.3339C69.091 35.5626 68.3302 35.0505 67.4472 34.9959C66.6412 34.9461 65.915 35.2931 65.5494 35.9019C65.356 36.2235 65.1922 36.6161 65.0309 37.1438L61.6728 37.5651C61.6499 37.1289 61.7187 36.8151 61.978 36.2848L62.2259 35.7767L61.2112 35.2806L60.9633 35.7887C60.5849 36.5629 60.5071 37.0704 60.5502 37.7059L59.3838 37.8521L59.4532 38.4047L63.3157 38.289C64.5228 38.2538 65.7235 38.103 66.9009 37.8409ZM66.2785 36.987C66.352 36.7997 66.4306 36.6276 66.5174 36.4832C66.6646 36.2374 66.994 36.099 67.3769 36.1224C67.72 36.1446 68.15 36.3148 68.3669 36.7251L66.2785 36.987Z" fill="#ACE334"/>
<path d="M65.8059 38.6875C65.8434 38.5175 65.8837 38.3438 65.9255 38.17L68.5745 37.8378C68.5261 38.2636 68.3506 38.537 68.3304 38.5666L68.0058 39.0224L68.9245 39.6785L69.2517 39.2193C69.2774 39.1827 69.6925 38.5883 69.7141 37.6951L70.8147 37.5571L70.7435 36.9888L59.4541 38.4051L59.5254 38.9735L60.7372 38.8214C61.1407 40.0477 62.2692 40.652 63.257 40.6919C64.5279 40.745 65.5295 39.9578 65.8059 38.6875ZM63.3046 39.5643C62.7804 39.5425 62.1924 39.2538 61.9002 38.675L64.7307 38.3198C64.7217 38.3624 64.7125 38.4033 64.7037 38.4473C64.4673 39.5281 63.5731 39.5751 63.3046 39.5643Z" fill="#56C126"/>
<path d="M51.4806 61.6444L30.3193 77.4638L16.3506 58.9088L16.405 58.7832C19.9862 50.1769 27.9062 44.1582 37.1631 43.0238L37.3918 42.9976L51.4806 61.6444Z" fill="#06995A"/>
<path d="M23.3541 24.4333L2.3125 40.3455L16.3506 58.909L37.3924 42.997L23.3541 24.4333Z" fill="#56C126"/>
<path d="M33.8891 45.6465L32.7864 45.671C26.5421 45.786 21.1961 50.1658 19.8555 56.259L31.3072 71.3252L45.3146 60.6782L33.8891 45.6465Z" fill="#56C126"/>
<path d="M8.46484 41.2136L22.5054 30.6041L33.8913 45.672L19.8508 56.2816L8.46484 41.2136Z" fill="#ACE334"/>
<path d="M21.4642 55.0905C19.1495 52.0453 19.7422 47.6979 22.7986 45.3748C25.8436 43.0603 30.191 43.6528 32.5057 46.698L32.5031 46.7177C30.5229 51.2299 26.3499 54.4018 21.4642 55.0905Z" fill="#56C126"/>
<path d="M31.1803 56.4135C28.1321 58.7304 23.7806 58.1385 21.4639 55.0905L32.5052 46.698C34.8221 49.7462 34.2285 54.0968 31.1803 56.4135Z" fill="#06995A"/>
<path d="M28.5415 50.173L31.438 47.5096L31.1009 47.0662L30.1839 47.7631C30.1182 47.708 30.049 47.6534 29.9765 47.5996C29.2942 47.1035 28.3792 47.0418 27.5877 47.4372C26.8651 47.7982 26.411 48.4625 26.3997 49.1725C26.3935 49.5477 26.4487 49.9696 26.5737 50.507L23.8793 52.555C23.6408 52.1892 23.543 51.8832 23.5017 51.2943L23.4614 50.7303L22.3347 50.8098L22.375 51.3738C22.4358 52.2333 22.6229 52.7114 22.9788 53.2396L22.043 53.951L22.3801 54.3944L25.6642 52.358C26.6909 51.7224 27.6543 50.99 28.5415 50.173ZM27.575 49.7463C27.5446 49.5474 27.5264 49.3591 27.529 49.1905C27.5332 48.904 27.7488 48.6192 28.0919 48.4475C28.3998 48.2947 28.8573 48.2264 29.2505 48.4726L27.575 49.7463Z" fill="#ACE334"/>
<path d="M28.0176 51.4551C27.9648 51.2892 27.9126 51.1188 27.8616 50.9474L29.9869 49.3319C30.1587 49.7245 30.1437 50.0491 30.1411 50.0849L30.0888 50.642L31.2126 50.749L31.2655 50.1876C31.2693 50.1432 31.3306 49.4208 30.9014 48.637L31.7845 47.9658L31.438 47.5098L22.3799 54.3948L22.7264 54.8508L23.6986 54.1118C24.6625 54.9706 25.9418 54.9277 26.8165 54.467C27.9432 53.8762 28.4153 52.6928 28.0176 51.4551ZM26.293 53.4678C25.8284 53.7119 25.1749 53.7567 24.6319 53.4023L26.9031 51.676C26.9166 51.7173 26.9292 51.7572 26.9436 51.7998C27.2809 52.8535 26.5308 53.3425 26.293 53.4678Z" fill="#56C126"/>
<path d="M47.9986 95.9999C41.0292 95.9999 34.3954 94.5112 28.4161 91.8243C28.4161 91.4568 28.1198 91.1624 27.7523 91.1624C27.7523 91.1624 26.9536 91.1418 26.9367 91.1343C22.9411 89.1824 19.2567 86.6924 15.9829 83.7562L15.6679 83.0043C15.3961 82.3518 14.7586 81.9281 14.0536 81.9281C12.5573 80.4318 11.1642 78.8362 9.87793 77.1543V57.4087H47.9986L50.9761 64.9912C54.9886 75.2156 53.8842 86.7356 47.9986 95.9999Z" fill="#000099"/>
<path d="M14.0537 61.5862V65.4431H15.9812V63.5137H17.9087V61.5862H14.0537Z" fill="#000080"/>
<path d="M86.1205 57.4087V77.1543C84.8343 78.8362 83.4393 80.4318 81.9449 81.9281L81.823 81.9506C80.908 82.1249 80.1918 82.8412 80.0155 83.7562C76.7418 86.6924 73.0593 89.1824 69.0618 91.1343C69.043 91.1437 68.2462 91.1624 68.2462 91.1624C67.8787 91.1624 67.5824 91.4568 67.5824 91.8243C61.603 94.5112 54.9693 95.9999 47.998 95.9999V57.4087H86.1205Z" fill="#000080"/>
<path d="M39.8298 89.8945H34.2522V90.8545V91.8241H39.8298V90.8545V89.8945ZM47.1353 89.8945H41.5578V90.8545V91.8241H47.1353V90.8545V89.8945ZM32.524 89.8951H26.9365V91.1345C26.9534 91.142 26.9722 91.1513 26.989 91.1588C26.9909 91.1551 26.9928 91.157 26.9947 91.1626C27.4653 91.4026 27.9359 91.622 28.4159 91.8245H32.524V89.8951Z" fill="#000080"/>
<path d="M25.2153 61.5864H19.6338V62.5504V63.5143H25.2153V62.5504V61.5864Z" fill="#000080"/>
<path d="M32.5231 61.5864H26.9414V62.5504V63.5143H32.5231V62.5504V61.5864Z" fill="#000080"/>
<path d="M47.1362 61.5864H41.5547V62.5504V63.5143H47.1362V62.5504V61.5864Z" fill="#000080"/>
<path d="M39.8295 61.5864H34.248V62.5504V63.5143H39.8295V62.5504V61.5864Z" fill="#000080"/>
<path d="M14.0518 73.995V79.4157H15.9811V73.995H14.0518ZM14.0518 67.0088V72.4275H15.9811V67.0088H14.0518ZM14.0536 80.9757V81.9282C14.6799 82.5563 15.323 83.1657 15.983 83.7563V80.9757H14.0536Z" fill="#000080"/>
<path d="M69.0631 89.8953V91.1346C69.0443 91.144 69.0237 91.1534 69.005 91.1628C68.5343 91.4028 68.0637 91.6221 67.5837 91.8246H63.4756V89.8953H69.0631Z" fill="#000066"/>
<path d="M61.7514 91.8231H56.1699V90.8592V89.8953H61.7514V90.8592V91.8231Z" fill="#000066"/>
<path d="M54.4448 91.8231H48.8633V90.8592V89.8953H54.4448V90.8592V91.8231Z" fill="#000066"/>
<path d="M80.0176 80.9758V83.7565C80.0213 83.7546 80.0251 83.7508 80.0288 83.7471C80.6851 83.1583 81.3245 82.5527 81.947 81.9283V80.9758H80.0176ZM80.9832 67.0071H80.0195V72.4296H80.9832H81.947V67.0071H80.9832ZM80.9832 73.9933H80.0195V79.4158H80.9832H81.947V73.9933H80.9832Z" fill="#000066"/>
<path d="M81.9468 61.5864V65.4433H80.983H80.0193V63.5139H78.0918V62.5502V61.5864H81.9468Z" fill="#000066"/>
<path d="M76.3655 63.5145H70.7842V62.5506V61.5867H76.3655V62.5506V63.5145Z" fill="#000066"/>
<path d="M69.0592 63.5145H63.4775V62.5506V61.5867H69.0592V62.5506V63.5145Z" fill="#000066"/>
<path d="M61.7514 63.5145H56.1699V62.5506V61.5867H61.7514V62.5506V63.5145Z" fill="#000066"/>
<path d="M54.4448 63.5153H48.8633V62.5513V61.5874H54.4448V62.5513V63.5153Z" fill="#000066"/>
<path d="M36.1989 30.0247C29.8196 30.0247 24.6455 24.8502 24.6455 18.4475C24.6455 12.0683 29.8198 6.89429 36.1989 6.89429L36.2223 6.91772C40.2153 14.1003 40.2153 22.8423 36.1989 30.0247Z" fill="#FFBF03"/>
<path d="M47.762 18.4587C47.762 24.844 42.5845 30.0247 36.1992 30.0247V6.89429C42.5845 6.89429 47.762 12.0734 47.762 18.4587Z" fill="#F18900"/>
<path d="M36.1994 26.2625C31.8954 26.2625 28.4043 22.7712 28.4043 18.4514C28.4043 14.1476 31.8954 10.6565 36.1994 10.6565L36.2154 10.6722C38.9092 15.5184 38.9092 21.4166 36.1994 26.2625Z" fill="#FFE706"/>
<path d="M44.0005 18.4589C44.0005 22.7671 40.5074 26.2623 36.1992 26.2623V10.6565C40.5072 10.6565 44.0005 14.1507 44.0005 18.4589Z" fill="#FFBF03"/>
<path d="M36.6137 16.5743L36.2001 12.1658H35.5733V13.4618C35.4791 13.4831 35.3833 13.5079 35.2856 13.5364C34.3766 13.8098 33.6984 14.5875 33.5138 15.5657C33.345 16.4588 33.6309 17.3181 34.2594 17.8116C34.5915 18.0726 35.0068 18.3105 35.5733 18.5644V22.3727C35.0833 22.3373 34.7423 22.2165 34.1867 21.8526L33.654 21.5046L32.958 22.5681L33.4907 22.9161C34.302 23.4469 34.8578 23.605 35.5733 23.6458V24.9685H36.2001L36.612 20.6398C36.7416 19.287 36.7416 17.9252 36.6137 16.5743ZM35.5733 17.1493C35.3743 17.041 35.1934 16.9292 35.0441 16.812C34.7903 16.6131 34.6819 16.2261 34.7618 15.8018C34.8345 15.4219 35.0848 14.9655 35.5731 14.7808V17.1493H35.5733Z" fill="#FFBF03"/>
<path d="M37.4056 17.9166C37.2209 17.851 37.0327 17.7818 36.8446 17.7107V14.7066C37.3134 14.8202 37.5939 15.0546 37.6241 15.0812L38.0874 15.5074L38.9484 14.5735L38.4815 14.1437C38.4442 14.11 37.8388 13.5632 36.8446 13.414V12.1658H36.2002V24.9687H36.8446V23.5945C38.2704 23.3157 39.1031 22.1404 39.2859 21.0431C39.5238 19.6316 38.7853 18.4031 37.4056 17.9166ZM38.0341 20.8318C37.9364 21.4142 37.5316 22.0303 36.8446 22.2752V19.0652C36.8908 19.0811 36.9352 19.0971 36.9832 19.1132C38.1568 19.5287 38.084 20.5337 38.0341 20.8318Z" fill="#F18900"/>
</svg>
