<svg width="96" height="96" viewBox="0 0 96 96" fill="none" xmlns="http://www.w3.org/2000/svg">
<g clip-path="url(#clip0)">
<path d="M8.66415 73.8016L83.5524 79.1514C90.0412 71.2299 93.9361 61.1015 93.9361 50.0626C93.9361 24.6922 73.3693 4.12549 47.9988 4.12549C22.6284 4.12549 2.06152 24.6922 2.06152 50.0626C2.06152 58.75 4.4739 66.8737 8.66415 73.8016Z" fill="#73C3F9"/>
<path d="M24.7598 89.6934C31.5775 93.6999 39.5184 95.9999 47.9979 95.9999C56.4774 95.9999 64.4184 93.6999 71.2363 89.6934H24.7598Z" fill="#2A428C"/>
<path d="M44.2816 95.8501C43.0206 94.3261 43.162 92.7174 43.5737 91.5425C43.7882 90.9307 43.7687 90.2827 43.5595 89.6934H24.7607C30.5721 93.1085 37.2001 95.2824 44.2816 95.8501Z" fill="#1C2E7A"/>
<path d="M19.5391 60.9146H58.3418V66.0399H19.5391V60.9146Z" fill="#E80054"/>
<path d="M88.0033 32.1909L66.9742 44.3321C67.8105 45.9827 68.2912 47.807 68.2912 49.7323C68.2912 51.9924 66.7578 53.9383 64.562 54.4644L64.0303 54.5917C64.1023 54.6262 66.0142 56.9507 71.5083 58.1314C71.603 58.1518 73.8273 58.6569 73.8425 60.8833C73.8513 62.1622 72.4158 63.6999 70.1396 63.6892L66.1194 63.6907V64.2834C67.1064 64.2834 67.9447 65.1375 67.8416 66.1869C67.7557 67.0605 66.9716 67.7447 66.0562 67.7447H64.5453V68.3374C66.5621 68.3374 67.1831 71.0985 65.3231 71.9475L64.0831 72.5135H66.4141C67.1731 72.5135 67.8796 72.7372 68.477 73.1179L85.0301 63.561L88.0033 32.1909Z" fill="#E9EFFF"/>
<path d="M70.1394 63.6892L66.1193 63.6907V64.2834C67.1063 64.2834 67.9446 65.1375 67.8414 66.1869C67.7556 67.0605 66.9714 67.7447 66.0561 67.7447H64.5452V68.3374C66.5619 68.3374 67.1829 71.0985 65.3229 71.9475L64.083 72.5136H66.414C67.1732 72.5136 67.8795 72.7372 68.4769 73.1179L71.5703 71.3319C71.5703 68.9771 71.5703 66.3022 71.5703 63.4688C71.1422 63.609 70.6644 63.6919 70.1394 63.6892Z" fill="#BEC8F7"/>
<path d="M68.2912 49.7323C68.2912 51.9925 66.7578 53.9383 64.562 54.4645L64.0303 54.5918C64.1023 54.6265 66.0142 56.9507 71.5083 58.1314C71.5158 58.1331 71.5381 58.1382 71.5704 58.1464C71.5704 52.4961 71.5704 46.6326 71.5704 41.6785L66.9742 44.332C67.8103 45.9825 68.2912 47.8069 68.2912 49.7323Z" fill="#BEC8F7"/>
<path d="M51.4955 14.333L49.7124 7.26947C49.5122 6.47579 49.9929 5.67029 50.7864 5.47004C51.5803 5.26885 52.3856 5.75054 52.586 6.54404L54.3691 13.6075C54.5694 14.4012 54.0886 15.2067 53.2951 15.407C52.505 15.6072 51.6963 15.1289 51.4955 14.333Z" fill="#FF4155"/>
<path d="M44.8177 3.45777H38.724C37.9056 3.45777 37.2422 2.79439 37.2422 1.97595C37.2422 1.15752 37.9056 0.494141 38.724 0.494141H44.8179C45.6364 0.494141 46.2998 1.15752 46.2998 1.97595C46.2998 2.79439 45.6362 3.45777 44.8177 3.45777Z" fill="#E80054"/>
<path d="M53.5986 36.224C59.2731 36.224 64.8711 39.7424 67.1826 44.765L87.9489 32.7755L88.7614 24.2041H43.7344L44.8736 36.2238H53.5986V36.224Z" fill="#FF4155"/>
<path d="M43.7344 24.2041L44.8736 36.2238H53.5986C59.2731 36.2238 64.8711 39.7422 67.1826 44.7648L71.5714 42.2309C71.5714 41.0341 71.5714 39.8855 71.5714 38.8027C71.5714 28.2901 75.4776 25.1448 77.7456 24.2041H43.7344Z" fill="#E80054"/>
<path d="M85.0853 62.9766L67.9825 72.8509C69.3267 73.4529 70.267 74.8009 70.267 76.3667C70.267 78.4204 68.6577 80.1084 66.6032 80.2095L65.1407 80.2815L66.5162 80.7838C68.2842 81.4294 68.974 83.7891 67.5355 85.3031C64.9598 88.0133 61.4834 89.5059 57.7469 89.5059H57.1465V89.8024H71.0526C75.8337 87.0227 80.0672 83.4058 83.5523 79.1513L85.0853 62.9766Z" fill="#FF4155"/>
<path d="M71.5701 70.7795L67.9823 72.8509C69.3265 73.4529 70.2668 74.8009 70.2668 76.3667C70.2668 78.4204 68.6577 80.1084 66.603 80.2097L65.1405 80.2817L66.516 80.784C68.284 81.4295 68.9738 83.7892 67.5353 85.3033C64.9596 88.0134 61.4832 89.5061 57.7467 89.5061H57.1465V89.8025H71.0526C72.4364 88.998 73.7727 88.1212 75.06 87.1813C71.4025 84.9189 71.5703 80.516 71.5703 80.516C71.5703 80.516 71.5701 76.5279 71.5701 70.7795Z" fill="#E80054"/>
<path d="M87.626 19.462C87.3607 16.1572 84.5754 13.5344 81.2053 13.5344H50.7352C47.3651 13.5344 44.5798 16.1572 44.3145 19.462H87.626Z" fill="#E9EFFF"/>
<path d="M71.3792 13.5347H50.7352C47.3651 13.5347 44.5798 16.1574 44.3145 19.4623H71.4063C68.4122 18.7909 68.3173 14.1939 71.3792 13.5347Z" fill="#D3DCFB"/>
<path d="M89.137 24.4019H43.3568C41.8836 24.4019 40.6895 23.2077 40.6895 21.7345C40.6895 20.2613 41.8836 19.0671 43.3568 19.0671H89.137C90.6102 19.0671 91.8044 20.2613 91.8044 21.7345C91.8046 23.2077 90.6104 24.4019 89.137 24.4019Z" fill="#D3DCFB"/>
<path d="M68.5879 21.7345C68.5879 20.2613 69.7821 19.0671 71.2553 19.0671H43.3568C41.8836 19.0671 40.6895 20.2613 40.6895 21.7345C40.6895 23.2077 41.8836 24.4019 43.3568 24.4019H71.2553C69.7821 24.4019 68.5879 23.2077 68.5879 21.7345Z" fill="#BEC8F7"/>
<path d="M60.0443 31.5479H49.9506C49.1321 31.5479 48.4688 30.8845 48.4688 30.066C48.4688 29.2476 49.1323 28.5842 49.9506 28.5842H60.0443C60.8627 28.5842 61.5261 29.2476 61.5261 30.066C61.5261 30.8845 60.8627 31.5479 60.0443 31.5479Z" fill="#FF7186"/>
<path d="M65.5463 80.3184H41.9391L41.3869 80.8705C40.1595 82.0981 38.1724 82.0981 36.945 80.8705L36.3928 80.3184H13.4346C16.7207 84.0695 20.6072 87.2808 24.9448 89.8025H57.7464C61.6843 89.8025 65.2358 88.153 67.7498 85.5076C69.6109 83.549 68.2481 80.3184 65.5463 80.3184Z" fill="#FCAD6D"/>
<path d="M41.2323 82.1823C41.3321 81.7816 41.3447 81.3695 41.2755 80.9714C40.0421 82.0936 38.1367 82.0623 36.9452 80.8705L36.393 80.3184H13.5909L13.5039 80.3956C16.7756 84.1132 20.6375 87.2982 24.945 89.8023H43.5956C43.451 89.3375 43.19 88.9049 42.8298 88.5504C40.6202 86.3769 40.8628 83.6677 41.2323 82.1823Z" fill="#FD995B"/>
<path d="M27.0009 70.9493C25.5964 69.5447 23.8586 68.5521 21.9742 68.0415H13.7884C12.5856 68.0415 11.6016 69.0255 11.6016 70.2283C11.6016 71.4311 12.5856 72.4151 13.7884 72.4151H27.7918C27.9968 72.4151 28.1944 72.3846 28.3828 72.3311L27.0009 70.9493Z" fill="#FF9100"/>
<path d="M64.5448 68.0415H56.3589C54.4746 68.5521 52.7368 69.5447 51.3323 70.9493L49.9502 72.3313C50.1386 72.3846 50.3363 72.4153 50.5412 72.4153H64.5446C65.7474 72.4153 66.7314 71.4313 66.7314 70.2285C66.7316 69.0255 65.7476 68.0415 64.5448 68.0415Z" fill="#FFB332"/>
<path d="M13.6093 80.5161H36.5897L28.291 72.2175H11.9171C10.6015 72.2175 9.42471 72.8389 8.66309 73.8017C10.1083 76.1914 11.7668 78.4371 13.6093 80.5161Z" fill="#823C26"/>
<path d="M66.4138 72.2175H50.04L41.7412 80.5161H66.4136C68.6957 80.5161 70.5628 78.649 70.5628 76.3667C70.5632 74.0847 68.6958 72.2175 66.4138 72.2175Z" fill="#A05838"/>
<path d="M47.2682 61.2005C43.2178 61.2005 43.2156 57.2488 39.1652 57.2488C35.1148 57.2488 35.1126 61.2005 31.0622 61.2005C27.1491 61.2005 27.0156 57.5126 23.3584 57.2628V61.6162C23.3584 62.9203 24.4253 63.9873 25.7293 63.9873H51.8106C53.1146 63.9873 54.1815 62.9203 54.1815 61.6162V57.3815C51.2727 58.065 50.8774 61.2005 47.2682 61.2005Z" fill="#FF7186"/>
<path d="M34.9861 63.5777C34.2408 62.854 34.1821 61.6669 34.2109 61.0386C34.2231 60.7718 34.1125 60.5164 33.9132 60.3389C33.9027 60.3295 33.8935 60.3203 33.8832 60.3109C33.1684 60.8273 32.3071 61.2006 31.0632 61.2006C27.1501 61.2006 27.0166 57.5127 23.3594 57.2629V61.6163C23.3594 62.9204 24.4262 63.9874 25.7303 63.9874H35.2099C35.1768 63.8352 35.1034 63.6917 34.9861 63.5777Z" fill="#FF4155"/>
<path d="M14.8625 61.2005C14.1996 61.2005 13.6467 61.0932 13.1652 60.9162C11.356 62.8015 9.49958 64.0428 7.94727 63.9766V63.9871H20.9879C22.292 63.9871 23.359 62.92 23.359 61.616V57.2626C23.231 57.2538 23.0991 57.2485 22.9621 57.2485C18.9123 57.2487 18.9123 61.2005 14.8625 61.2005Z" fill="#FF4155"/>
<path d="M70.1376 63.9806C68.6374 63.9705 66.8809 62.7026 65.1667 60.9163C64.6852 61.0933 64.1325 61.2005 63.4695 61.2005C59.4197 61.2005 59.4197 57.2488 55.3699 57.2488C54.9289 57.2488 54.5381 57.2979 54.1826 57.3813V61.616C54.1826 62.9201 55.2495 63.9872 56.5536 63.9872H70.1376V63.9806Z" fill="#FF4155"/>
<path d="M51.1467 8.883C50.2632 8.883 49.4585 8.28619 49.2324 7.3905C48.7212 5.36587 46.9059 3.95156 44.8177 3.95156C43.7264 3.95156 42.8418 3.06694 42.8418 1.97569C42.842 0.884625 43.7264 0 44.8177 0C48.718 0 52.1092 2.64131 53.0639 6.423C53.3311 7.48125 52.6899 8.55525 51.6318 8.82244C51.4696 8.8635 51.3069 8.883 51.1467 8.883Z" fill="#FF7186"/>
<path d="M9.47641 58.3315C8.60922 58.0402 7.6826 57.8418 6.76197 57.8418C6.76197 57.8418 4.21047 58.3805 4.19341 60.8817C4.1756 63.472 8.94841 66.1293 13.3577 61.3096C11.681 60.6905 10.887 59.2102 9.47641 58.3315Z" fill="#24B55E"/>
<path d="M68.8568 58.3315C69.724 58.0402 70.6508 57.8418 71.5713 57.8418C71.5713 57.8418 74.1228 58.3805 74.1398 60.8817C74.1576 63.472 69.3848 66.1293 64.9756 61.3096C66.6522 60.6905 67.4463 59.2102 68.8568 58.3315Z" fill="#24B55E"/>
<path d="M66.1196 63.9873H12.2768C11.2236 63.9873 10.2992 64.7645 10.1965 65.8126C10.0781 67.0171 11.032 68.0414 12.2134 68.0414H19.0262C22.0168 68.0414 24.8852 69.2294 27 71.3442L36.736 81.0802C38.0783 82.4225 40.2546 82.4225 41.5969 81.0802L51.3328 71.3442C53.4477 69.2294 56.316 68.0414 59.3066 68.0414H66.0561C67.1093 68.0414 68.0336 67.2642 68.1364 66.2161C68.2549 65.0118 67.3011 63.9873 66.1196 63.9873Z" fill="#FFDD40"/>
<path d="M10.1965 65.8126C10.0781 67.0171 11.0321 68.0414 12.2136 68.0414H19.0264C22.017 68.0414 24.8854 69.2294 27.0002 71.3444L36.7361 81.0803C38.0785 82.4226 40.2548 82.4226 41.5971 81.0803L46.9367 75.7407C42.484 77.9442 38.0378 71.1856 35.6081 68.7559C33.9602 67.108 34.5476 65.5019 35.0963 64.6388C35.2219 64.441 35.2581 64.2049 35.2105 63.9871H12.2768C11.2236 63.9872 10.2992 64.7644 10.1965 65.8126Z" fill="#FFB332"/>
<path d="M64.3807 54.5005H13.9508C11.9073 56.7366 6.76172 57.8414 6.76172 57.8414C10.8121 57.8414 10.8121 61.7931 14.8623 61.7931C18.9121 61.7931 18.9121 57.8414 22.9619 57.8414C27.0123 57.8414 27.0123 61.7931 31.0627 61.7931C35.113 61.7931 35.1153 57.8414 39.1657 57.8414C43.216 57.8414 43.2183 61.7931 47.2687 61.7931C51.319 61.7931 51.319 57.8414 55.3694 57.8414C59.4192 57.8414 59.4192 61.7931 63.469 61.7931C67.5194 61.7931 67.5194 57.8414 71.5696 57.8414C71.5698 57.8415 66.424 56.7366 64.3807 54.5005Z" fill="#49D88B"/>
<path d="M6.76172 57.8414C10.8121 57.8414 10.8121 61.7931 14.8623 61.7931C18.9121 61.7931 18.9121 57.8414 22.9619 57.8414C27.0123 57.8414 27.0123 61.7931 31.0627 61.7931C32.4685 61.7931 33.3863 61.3167 34.1555 60.6951C34.1052 60.5601 34.0233 60.4371 33.9127 60.3387C31.6897 58.3589 32.756 56.3631 33.4889 55.434C33.703 55.1625 33.7276 54.7952 33.5705 54.5005H13.9508C11.9075 56.7366 6.76172 57.8414 6.76172 57.8414Z" fill="#38C674"/>
<path d="M53.5978 35.9277H24.7354C17.1112 35.9277 9.74512 42.1083 9.74512 49.7324C9.74512 52.5843 12.057 54.896 14.9087 54.896H63.4245C66.2764 54.896 68.5881 52.5843 68.5881 49.7324C68.5881 42.1083 61.2219 35.9277 53.5978 35.9277Z" fill="#FCAD6D"/>
<path d="M33.4642 54.341C28.9652 49.1763 33.4372 44.0277 33.4372 44.0277L33.9831 39.9464C32.6085 38.5719 32.7934 37.3715 33.1416 36.6489C33.2524 36.419 33.2917 36.1694 33.2676 35.9277H24.7354C17.1112 35.9277 9.74512 42.1083 9.74512 49.7324C9.74512 52.5841 12.057 54.896 14.9087 54.896H33.6731C33.6716 54.6973 33.6024 54.4996 33.4642 54.341Z" fill="#FD995B"/>
<path d="M52.2152 43.5936C51.6366 43.015 51.6366 42.0765 52.2154 41.4979L53.3333 40.3804C53.9121 39.802 54.8503 39.8018 55.4289 40.3806C56.0076 40.9592 56.0076 41.8977 55.4288 42.4763L54.3109 43.5938C53.7321 44.1722 52.7938 44.1724 52.2152 43.5936Z" fill="#FCF0BE"/>
<path d="M42.1254 43.5936C41.5467 43.015 41.5467 42.0765 42.1255 41.4979L43.2432 40.3804C43.822 39.802 44.7603 39.8018 45.3391 40.3806C45.9177 40.9592 45.9177 41.8977 45.3389 42.4763L44.2212 43.5938C43.6424 44.1722 42.7044 44.1724 42.1254 43.5936Z" fill="#FCF0BE"/>
<path d="M32.0375 43.5936C31.4588 43.015 31.4588 42.0765 32.0376 41.4979L33.1553 40.3804C33.7341 39.802 34.6724 39.8018 35.2512 40.3806C35.8298 40.9592 35.8298 41.8977 35.251 42.4763L34.1333 43.5938C33.5545 44.1722 32.6165 44.1724 32.0375 43.5936Z" fill="#FCF0BE"/>
<path d="M21.9505 43.5936C21.3719 43.015 21.3719 42.0765 21.9507 41.4979L23.0684 40.3804C23.6472 39.802 24.5855 39.8018 25.1643 40.3806C25.7429 40.9592 25.7429 41.8977 25.1641 42.4763L24.0464 43.5938C23.4674 44.1722 22.5294 44.1724 21.9505 43.5936Z" fill="#FCF0BE"/>
<path d="M50.882 2.54025C49.3239 0.95625 47.1635 0 44.8177 0C43.7264 0 42.8418 0.884813 42.8418 1.97588C42.8418 3.06713 43.7264 3.95175 44.8177 3.95175C46.0653 3.95175 47.2132 4.45931 48.0461 5.29763C47.6493 3.60169 49.1943 2.09475 50.882 2.54025Z" fill="#FF4155"/>
</g>
<defs>
<clipPath id="clip0">
<rect width="96" height="96" fill="white"/>
</clipPath>
</defs>
</svg>
