<svg width="96" height="96" viewBox="0 0 96 96" fill="none" xmlns="http://www.w3.org/2000/svg">
<path d="M96 48C96 74.51 74.51 96 48 96C21.49 96 0 74.51 0 48C0 21.49 21.49 0 48 0C74.51 0 96 21.49 96 48Z" fill="#73C3F9"/>
<path d="M94.6284 59.425L66.9561 31.7527L57.3196 50.2192L38.853 31.7527L22.9932 62.647L55.7244 95.3782C74.7959 92.2925 90.0991 77.9722 94.6284 59.425Z" fill="#85CBFA" fill-opacity="0.95"/>
<path d="M12.8701 41.8806C12.8701 33.6152 19.5703 26.915 27.8364 26.915C34.2869 26.915 39.7852 30.9968 41.8872 36.7185C43.99 30.9968 49.4875 26.915 55.9387 26.915C64.2048 26.915 70.905 33.6152 70.905 41.8806C70.905 63.5977 41.8872 75.0586 41.8872 75.0586C41.8872 75.0586 12.8701 63.1267 12.8701 41.8806Z" fill="#FC5557"/>
<path d="M55.9382 26.915C49.4871 26.915 43.9895 30.9968 41.8867 36.7185V75.0593C41.8867 75.0593 70.9045 63.5984 70.9045 41.8806C70.9045 33.6152 64.2043 26.915 55.9382 26.915Z" fill="#E21E28"/>
<path d="M79.0723 62.2654C79.0723 72.0366 71.1511 79.9578 61.3799 79.9578C51.6086 79.9578 43.6875 72.0366 43.6875 62.2654C43.6875 52.4941 51.6086 44.573 61.3799 44.573C71.1511 44.573 79.0723 52.4941 79.0723 62.2654Z" fill="white"/>
<path d="M61.3801 44.573C61.3787 44.573 61.3772 44.573 61.375 44.573V79.9578H61.3801C71.1514 79.9578 79.0725 72.0366 79.0725 62.2654C79.0725 52.4941 71.1514 44.573 61.3801 44.573Z" fill="#E9EDF5"/>
<path d="M72.1763 58.6091H65.0359V51.4688H57.7234V58.6091H50.583V65.9216H57.7234V73.062H65.0359V65.9216H72.1763V58.6091Z" fill="#FFFAF2"/>
<path d="M65.0364 58.6091V51.4688H61.375V73.062H65.0364V65.9216H72.1768V58.6091H65.0364Z" fill="#FFD899"/>
</svg>
