<svg width="96" height="96" viewBox="0 0 96 96" fill="none" xmlns="http://www.w3.org/2000/svg">
<g clip-path="url(#clip0)">
<path d="M93.8922 49.0538C93.8922 74.9814 72.8738 95.9999 46.9461 95.9999C21.0184 95.9999 0 74.9814 0 49.0538C0 23.1261 21.0184 2.10767 46.9461 2.10767C72.8738 2.10767 93.8922 23.1261 93.8922 49.0538Z" fill="#F02399"/>
<path d="M47.7128 22.1317C47.7128 20.5972 48.9567 19.3533 50.4912 19.3533H69.8445C71.379 19.3533 72.6229 20.5972 72.6229 22.1317C72.6229 23.6662 71.379 24.9102 69.8445 24.9102H50.4912C48.9567 24.9102 47.7128 23.6662 47.7128 22.1317ZM63.9044 15.1377H79.406C77.2472 13.0709 74.8913 11.2084 72.3696 9.58081H63.9044C62.3699 9.58081 61.1259 10.8248 61.1259 12.3593C61.1259 13.8937 62.3699 15.1377 63.9044 15.1377ZM93.8363 46.7382C87.7039 43.8007 80.8347 42.1557 73.581 42.1557C57.2125 42.1557 42.8007 50.5328 34.3987 63.2335H2.17963C3.50217 67.4129 5.39381 71.3389 7.76354 74.9212C8.70821 76.3491 10.3094 77.205 12.0216 77.205H69.9114C81.0554 77.205 90.721 69.3976 92.9462 58.4782C93.5667 55.4336 93.8924 52.2818 93.8924 49.0539C93.8924 48.2774 93.8734 47.5054 93.8363 46.7382ZM20.8864 52.7904C20.8864 51.2559 19.6424 50.0119 18.108 50.0119H0.00976562C0.0475141 51.8934 0.195826 53.7479 0.448568 55.5688H18.108C19.6424 55.5688 20.8864 54.3249 20.8864 52.7904Z" fill="#FD73C4"/>
<path d="M73.4283 77.2052H52.6377C51.9274 75.5138 51.5449 73.7175 51.5449 71.8562C51.5449 61.8026 62.6976 53.6526 76.4551 53.6526C82.802 53.6526 88.5944 55.3873 92.9931 58.2432C92.5681 60.3847 91.9975 62.4739 91.292 64.4998C88.6436 72.1039 81.4804 77.2052 73.4283 77.2052Z" fill="#FC9302"/>
<path d="M91.4161 64.1368C89.0612 71.0827 85.1244 77.2986 80.0349 82.356C79.4864 82.382 78.9313 82.3952 78.3707 82.3952C67.7881 82.3952 59.209 77.6767 59.209 71.8563C59.209 66.0359 67.7881 61.3174 78.3707 61.3174C83.4102 61.3174 87.9954 62.3874 91.4161 64.1368Z" fill="#FDED32"/>
<path d="M80.8798 81.4964C74.1608 79.8588 69.4736 76.1587 69.4736 71.8564C69.4736 67.0134 75.4128 62.9335 83.5038 61.6997C86.5013 62.1567 89.2035 63.0046 91.4178 64.1371C89.1944 70.6944 85.5616 76.601 80.8798 81.4964Z" fill="#FDF385"/>
<path d="M86.2546 74.7305C77.8712 87.5385 63.3968 95.9999 46.9462 95.9999C30.4955 95.9999 16.0211 87.5385 7.6377 74.7305H86.2546Z" fill="#08A8F0"/>
<path d="M76.4557 78.5628H45.797C44.7387 78.5628 43.8809 77.7049 43.8809 76.6466C43.8809 75.5883 44.7387 74.7305 45.797 74.7305H76.4557C77.514 74.7305 78.3719 75.5883 78.3719 76.6466C78.3719 77.7049 77.514 78.5628 76.4557 78.5628ZM68.8868 82.5628C67.8285 82.5628 66.9707 83.4207 66.9707 84.479C66.9707 85.5373 67.8285 86.3951 68.8868 86.3951H75.4035C76.957 85.2094 78.4341 83.9292 79.8266 82.5628H68.8868Z" fill="#63BCFA"/>
<path d="M61.5081 21.078V93.6975C56.9235 95.1921 26.7822 92.5642 18.9692 86.7573C16.9179 85.2328 14.9955 83.5447 13.2207 81.7126V21.078C13.2207 20.0197 14.0786 19.1618 15.1369 19.1618H22.8015V15.3295C22.8015 14.2712 23.6594 13.4133 24.7177 13.4133H24.9093V7.66479H27.2087V13.4133H47.5201V7.66479H49.8195V13.4133H50.0111C51.0694 13.4133 51.9273 14.2712 51.9273 15.3295V19.1618H59.592C60.6503 19.1618 61.5081 20.0197 61.5081 21.078Z" fill="#003278"/>
<path d="M79.7801 46.6091L75.3831 42.9504V86.4114C74.152 87.3497 72.8731 88.2289 71.5508 89.0442V42.1696L68.308 47.3214C66.7412 45.7058 66.5842 42.8659 68.0656 40.5123C68.1241 40.4195 68.1844 40.3285 68.2463 40.2396H63.043C63.5469 38.1711 65.6503 36.5864 68.2304 36.4214L64.1331 33.8465C65.7474 32.2785 68.5874 32.1195 70.942 33.5993C72.1398 34.3522 73.0099 35.402 73.4821 36.533C73.6009 35.0138 74.4114 33.4403 75.8217 32.2881C77.9753 30.5285 80.8129 30.3351 82.609 31.6914L76.5851 36.6131C77.1142 36.4793 77.6756 36.4073 78.2572 36.4073C81.0383 36.4073 83.358 38.0531 83.8907 40.2396H78.1083C80.0852 42.0199 80.7367 44.6546 79.7801 46.6091Z" fill="#003278"/>
<path d="M91.8897 64.8605L87.4925 61.2018V72.732C86.3479 74.6874 85.0662 76.5528 83.6601 78.3145V60.421L80.4174 65.5726C78.8505 63.9571 78.6936 61.1171 80.175 58.7635C80.2334 58.6707 80.2938 58.5797 80.3557 58.4908H75.1523C75.6563 56.4223 77.7597 54.8376 80.3398 54.6727L76.2425 52.0977C77.8568 50.5297 80.6968 50.3707 83.0514 51.8505C84.2492 52.6034 85.1193 53.6533 85.5914 54.7842C85.7102 53.265 86.5208 51.6915 87.9311 50.5393C90.0847 48.7797 92.9223 48.5863 94.7183 49.9426L88.6945 54.8643C89.2235 54.7305 89.785 54.6585 90.3665 54.6585C93.1477 54.6585 95.4674 56.3043 96.0001 58.4908H90.2176C92.1947 60.2711 92.8462 62.9059 91.8897 64.8605Z" fill="#2740AF"/>
<path d="M61.5086 21.0778V93.6973C56.924 95.1919 52.0292 95.9999 46.9458 95.9999C36.463 95.9999 26.7829 92.5642 18.9697 86.7573V23.952C18.9697 22.8937 19.8276 22.0358 20.8859 22.0358H46.2149C47.0019 22.0358 47.6881 21.4296 47.7117 20.643C47.7362 19.8292 47.0835 19.1616 46.2751 19.1616H30.4667C29.4084 19.1616 28.5506 18.3037 28.5506 17.2454V15.3293C28.5506 14.271 29.4084 13.4131 30.4667 13.4131H50.0116C51.0699 13.4131 51.9278 14.271 51.9278 15.3293V19.1616H59.5925C60.6508 19.1616 61.5086 20.0195 61.5086 21.0778Z" fill="#00429A"/>
<path d="M55.3766 28.7426V95.2451C54.1159 95.4737 52.8379 95.6519 51.5443 95.7778V28.7426C51.5443 27.6843 52.4021 26.8264 53.4604 26.8264C54.5187 26.8264 55.3766 27.6843 55.3766 28.7426ZM43.8796 26.8264C42.8213 26.8264 41.9634 27.6843 41.9634 28.7426V95.7389C43.2266 95.8721 44.5046 95.9552 45.7958 95.9863V28.7426C45.7958 27.6843 44.9379 26.8264 43.8796 26.8264ZM34.2988 26.8264C33.2405 26.8264 32.3826 27.6843 32.3826 28.7426V93.6974C33.6377 94.1065 34.916 94.4643 36.2149 94.768V28.7426C36.2149 27.6843 35.3571 26.8264 34.2988 26.8264ZM24.7179 26.8264C23.6596 26.8264 22.8018 27.6843 22.8018 28.7426V89.3241C24.0431 90.0699 25.3217 90.7599 26.6341 91.3907V28.7426C26.6341 27.6843 25.7762 26.8264 24.7179 26.8264Z" fill="#003278"/>
<path d="M26.5394 9.58084H21.8448C21.3157 9.58084 20.8867 9.15181 20.8867 8.62275V0.958084C20.8867 0.42903 21.3157 0 21.8448 0H26.5394C27.0685 0 27.4975 0.42903 27.4975 0.958084V8.62275C27.4975 9.15181 27.0685 9.58084 26.5394 9.58084Z" fill="#F5C02C"/>
<path d="M62.0407 23.1339L63.465 25.738C63.4897 25.7832 63.5267 25.8202 63.5719 25.8449L66.176 27.2692C66.3626 27.3711 66.3626 27.6392 66.176 27.7411L63.5719 29.1654C63.5267 29.1901 63.4897 29.2271 63.465 29.2723L62.0407 31.8764C61.9388 32.063 61.6707 32.063 61.5688 31.8764L60.1445 29.2723C60.1197 29.2271 60.0828 29.1901 60.0375 29.1654L57.4335 27.7411C57.2468 27.6392 57.2468 27.3711 57.4335 27.2692L60.0375 25.8449C60.0828 25.8202 60.1197 25.7832 60.1445 25.738L61.5688 23.1339C61.6709 22.9475 61.9388 22.9475 62.0407 23.1339ZM52.8864 9.58084H25.6768C25.1478 9.58084 24.7188 9.15181 24.7188 8.62276V0.958084C24.7188 0.42903 25.1478 0 25.6768 0H52.8864C53.4155 0 53.8445 0.42903 53.8445 0.958084V3.8559C53.3494 4.38036 53.3494 5.20029 53.8445 5.72474V8.62276C53.8445 9.15181 53.4155 9.58084 52.8864 9.58084Z" fill="#FDED32"/>
<path d="M40.9213 4.9327L39.3529 5.79057C39.3257 5.80532 39.3035 5.82774 39.2885 5.85495L38.4307 7.42333C38.3692 7.53562 38.2078 7.53562 38.1463 7.42333L37.2884 5.85495C37.2735 5.82774 37.2513 5.80532 37.2241 5.79057L35.6557 4.9327C35.5434 4.87119 35.5434 4.70985 35.6557 4.64853L37.2241 3.79066C37.2513 3.77571 37.2737 3.75349 37.2884 3.72628L38.1463 2.15789C38.2078 2.04561 38.3692 2.04561 38.4307 2.15789L39.2885 3.72628C39.3035 3.75349 39.3257 3.77591 39.3529 3.79066L40.9213 4.64853C41.0338 4.70985 41.0338 4.87119 40.9213 4.9327ZM53.7242 3.79047C53.697 3.77552 53.6747 3.7533 53.6598 3.72609L52.8019 2.1577C52.7404 2.04541 52.5791 2.04541 52.5176 2.1577L51.6597 3.72609C51.6448 3.7533 51.6225 3.77571 51.5953 3.79047L50.0269 4.64834C49.9146 4.70985 49.9146 4.87119 50.0269 4.9325L51.5953 5.79037C51.6225 5.80513 51.645 5.82755 51.6597 5.85476L52.5176 7.42314C52.5791 7.53543 52.7404 7.53543 52.8019 7.42314L53.6598 5.85476C53.6747 5.82755 53.697 5.80513 53.7242 5.79037L53.8439 5.72484V3.856L53.7242 3.79047ZM26.55 4.64834L24.9817 3.79047C24.9544 3.77552 24.9322 3.7533 24.9173 3.72609L24.0594 2.1577C23.9979 2.04541 23.8366 2.04541 23.775 2.1577L22.9172 3.72609C22.9022 3.7533 22.88 3.77571 22.8528 3.79047L21.2844 4.64834C21.1721 4.70985 21.1721 4.87119 21.2844 4.9325L22.8528 5.79037C22.88 5.80513 22.9024 5.82755 22.9172 5.85476L23.775 7.42314C23.8366 7.53543 23.9979 7.53543 24.0594 7.42314L24.9173 5.85476C24.9322 5.82755 24.9544 5.80513 24.9817 5.79037L26.55 4.9325C26.6625 4.87119 26.6625 4.70985 26.55 4.64834ZM33.7357 4.64834L32.1673 3.79047C32.1401 3.77552 32.1179 3.7533 32.1029 3.72609L31.245 2.1577C31.1835 2.04541 31.0222 2.04541 30.9607 2.1577L30.1028 3.72609C30.0879 3.7533 30.0656 3.77571 30.0384 3.79047L28.47 4.64834C28.3578 4.70985 28.3578 4.87119 28.47 4.9325L30.0384 5.79037C30.0656 5.80513 30.0881 5.82755 30.1028 5.85476L30.9607 7.42314C31.0222 7.53543 31.1835 7.53543 31.245 7.42314L32.1029 5.85476C32.1179 5.82755 32.1401 5.80513 32.1673 5.79037L33.7357 4.9325C33.8482 4.87119 33.8482 4.70985 33.7357 4.64834Z" fill="#D98800"/>
<path d="M46.2613 46.6569L47.3831 48.7079C47.4024 48.7436 47.4317 48.7727 47.4672 48.792L49.5182 49.9138C49.6652 49.9941 49.6652 50.2052 49.5182 50.2855L47.4672 51.4072C47.4315 51.4266 47.4024 51.4559 47.3831 51.4916L46.2613 53.5426C46.181 53.6896 45.9699 53.6896 45.8896 53.5426L44.7679 51.4916C44.7485 51.4559 44.7192 51.4268 44.6838 51.4072L42.6327 50.2855C42.4857 50.2052 42.4857 49.9941 42.6327 49.9138L44.6838 48.792C44.7194 48.7727 44.7485 48.7434 44.7679 48.7079L45.8896 46.6569C45.9701 46.5099 46.181 46.5099 46.2613 46.6569ZM45.3324 2.1577L44.4745 3.72609C44.4596 3.75329 44.4373 3.77552 44.4101 3.79047L42.8417 4.64834C42.7295 4.70985 42.7295 4.87119 42.8417 4.9327L44.4101 5.79056C44.4373 5.80551 44.4596 5.82774 44.4745 5.85495L45.3324 7.42333C45.3939 7.53562 45.5552 7.53562 45.6167 7.42333L46.4746 5.85495C46.4895 5.82774 46.5118 5.80551 46.539 5.79056L48.1074 4.9327C48.2197 4.87119 48.2197 4.70985 48.1074 4.64834L46.539 3.79047C46.5118 3.77552 46.4895 3.75329 46.4746 3.72609L45.6167 2.1577C45.555 2.04541 45.3937 2.04541 45.3324 2.1577Z" fill="#FFF5F5"/>
<path d="M14.1359 31.3573L15.5602 33.9613C15.5849 34.0066 15.6219 34.0435 15.6671 34.0683L18.2712 35.4925C18.4578 35.5945 18.4578 35.8626 18.2712 35.9645L15.6671 37.3888C15.6219 37.4135 15.5849 37.4505 15.5602 37.4957L14.1359 40.0998C14.0339 40.2864 13.7659 40.2864 13.6639 40.0998L12.2396 37.4957C12.2149 37.4505 12.1779 37.4135 12.1327 37.3888L9.52865 35.9645C9.34201 35.8626 9.34201 35.5945 9.52865 35.4925L12.1327 34.0683C12.1779 34.0435 12.2149 34.0066 12.2396 33.9613L13.6639 31.3573C13.7661 31.1706 14.0339 31.1706 14.1359 31.3573Z" fill="#FDADE0"/>
<path d="M61.5906 81.1478L62.7123 83.1989C62.7317 83.2345 62.761 83.2637 62.7967 83.2832L64.8477 84.4049C64.9947 84.4852 64.9947 84.6964 64.8477 84.7767L62.7967 85.8984C62.761 85.9177 62.7319 85.9471 62.7123 85.9827L61.5906 88.0338C61.5103 88.1807 61.2992 88.1807 61.2189 88.0338L60.0972 85.9827C60.0778 85.9471 60.0485 85.9179 60.0129 85.8984L57.9618 84.7767C57.8148 84.6964 57.8148 84.4852 57.9618 84.4049L60.0129 83.2832C60.0485 83.2639 60.0776 83.2345 60.0972 83.1989L61.2189 81.1478C61.2994 81.0009 61.5103 81.0009 61.5906 81.1478Z" fill="#98E5FB"/>
<path d="M27.0992 77.3153L28.221 79.3664C28.2403 79.402 28.2696 79.4311 28.3051 79.4507L30.3561 80.5724C30.5031 80.6527 30.5031 80.8639 30.3561 80.9441L28.3051 82.0659C28.2694 82.0852 28.2403 82.1145 28.221 82.1502L27.0992 84.2012C27.0189 84.3482 26.8078 84.3482 26.7275 84.2012L25.6058 82.1502C25.5864 82.1145 25.5571 82.0854 25.5216 82.0659L23.4706 80.9441C23.3236 80.8639 23.3236 80.6527 23.4706 80.5724L25.5216 79.4507C25.5573 79.4313 25.5864 79.402 25.6058 79.3664L26.7275 77.3153C26.808 77.1683 27.0189 77.1683 27.0992 77.3153Z" fill="#0266EB"/>
<path d="M36.6803 56.2377L37.802 58.2887C37.8214 58.3244 37.8507 58.3535 37.8861 58.373L39.9372 59.4948C40.0842 59.5751 40.0842 59.7862 39.9372 59.8665L37.8861 60.9882C37.8505 61.0076 37.8214 61.0369 37.802 61.0725L36.6803 63.1236C36.6 63.2706 36.3888 63.2706 36.3085 63.1236L35.1868 61.0725C35.1675 61.0369 35.1381 61.0078 35.1027 60.9882L33.0516 59.8665C32.9047 59.7862 32.9047 59.5751 33.0516 59.4948L35.1027 58.373C35.1383 58.3537 35.1675 58.3244 35.1868 58.2887L36.3085 56.2377C36.389 56.0907 36.6 56.0907 36.6803 56.2377Z" fill="#314DC8"/>
</g>
<defs>
<clipPath id="clip0">
<rect width="96" height="96" fill="white"/>
</clipPath>
</defs>
</svg>
