<svg width="96" height="96" viewBox="0 0 96 96" fill="none" xmlns="http://www.w3.org/2000/svg">
<g clip-path="url(#clip0)">
<path d="M85.6817 76.3386C90.8837 68.8926 93.9375 59.8348 93.9375 50.0625C93.9375 24.6919 73.3706 4.125 48 4.125C22.6294 4.125 2.0625 24.6919 2.0625 50.0625C2.0625 59.8348 5.11631 68.8926 10.3183 76.3386H85.6817Z" fill="#73C3F9"/>
<path d="M48 75.375C66.6396 75.375 81.75 60.2646 81.75 41.625C81.75 22.9854 66.6396 7.875 48 7.875C29.3604 7.875 14.25 22.9854 14.25 41.625C14.25 60.2646 29.3604 75.375 48 75.375Z" fill="#84CAFA"/>
<path d="M80.5423 66.082C76.1524 62.2058 57.3696 59.0631 56.8851 58.9827H39.1153C38.6308 59.0629 19.848 62.2058 15.4581 66.082C13.8923 67.4644 12.0512 71.583 10.3223 76.3386C18.6255 88.2237 32.4019 95.9999 48.0002 95.9999C63.5985 95.9999 77.3749 88.2237 85.6781 76.3384C83.9492 71.5829 82.1081 67.4644 80.5423 66.082Z" fill="#000099"/>
<path d="M59.6795 59.487C58.0569 59.1784 56.9953 59.0009 56.8848 58.9827H39.1151C39.005 59.0009 37.9481 59.1777 36.332 59.485C36.7063 59.9841 41.043 65.5626 47.9595 65.5626C54.9465 65.5626 59.378 59.8844 59.6795 59.487Z" fill="#000080"/>
<path d="M56.885 41.3877H39.1152V58.9829C39.1152 58.9829 42.6817 62.7503 47.9596 62.7503C53.2376 62.7503 56.885 58.9829 56.885 58.9829V41.3877Z" fill="#FCAD6D"/>
<path d="M39.1152 41.3877V58.9829C56.8758 58.9829 56.885 48.9704 56.885 48.9704V41.3879H39.1152V41.3877Z" fill="#FD995B"/>
<path d="M56.3689 3.98919V4.71538C56.3689 4.71538 55.2726 2.80007 52.3328 1.35051C51.7958 1.08576 51.178 1.51644 51.2502 2.11082L51.4829 4.02763C51.4829 4.02763 50.6029 1.59444 48.4109 0.124068C48.1637 -0.0416816 47.8365 -0.0416816 47.5894 0.124068C45.3975 1.59444 44.5174 4.02763 44.5174 4.02763L44.7501 2.11082C44.8223 1.51644 44.2047 1.08557 43.6675 1.35051C40.7277 2.80007 39.6314 4.71538 39.6314 4.71538V3.98919C39.6314 3.44807 39.0747 3.08151 38.5804 3.30201C35.6159 4.62444 27.5708 9.91045 30.2316 27.6946H65.7679C68.4287 9.91045 60.3837 4.62444 57.4191 3.30201C56.9256 3.08151 56.3689 3.44788 56.3689 3.98919Z" fill="#AC7752"/>
<path d="M42.2727 14.9253C39.3899 13.0117 37.7352 7.45604 39.6314 4.71535V3.98916C39.6314 3.44804 39.0747 3.08148 38.5804 3.30198C35.6159 4.62441 27.5708 9.91041 30.2316 27.6946H42.2727V14.9253Z" fill="#9B6642"/>
<path d="M27.1594 61.5044C22.3305 62.7398 17.4349 64.3364 15.4581 66.0818C13.8923 67.4643 12.0512 71.5829 10.3223 76.3385C18.6255 88.2237 32.4019 95.9999 48.0002 95.9999C28.7775 84.9936 27.2006 62.1558 27.1594 61.5044Z" fill="#000080"/>
<path d="M62.073 29.9186C62.073 29.9186 64.0202 25.1777 67.4912 26.2783C70.9622 27.3789 67.4072 37.6528 60.6338 38.3L62.073 29.9186Z" fill="#FCAD6D"/>
<path d="M33.9275 29.9186C33.9275 29.9186 31.9803 25.1777 28.5093 26.2783C25.0383 27.3789 28.5933 37.6528 35.3667 38.3L33.9275 29.9186Z" fill="#FD995B"/>
<path d="M61.3211 23.3913C60.6632 21.4625 59.5926 18.7983 58.279 17.2569C57.5331 16.5344 56.7518 15.9357 55.9541 15.55C54.4176 14.807 52.9995 14.7871 51.7991 15.0819C49.3028 15.6948 46.6961 15.6946 44.1998 15.0819C42.9994 14.7871 41.5811 14.807 40.0448 15.55C39.2471 15.9357 38.4658 16.5344 37.7199 17.2569C36.4063 18.7983 35.3357 21.4625 34.6778 23.3913C34.1599 24.9095 33.0428 26.1481 31.587 26.8216C31.5812 27.0522 31.5752 27.2829 31.5752 27.5163C31.5752 39.611 38.9288 53.7954 47.9996 53.7954C57.0705 53.7954 64.4241 39.6108 64.4241 27.5163C64.4241 27.2829 64.4181 27.0522 64.4123 26.8216C62.9561 26.1481 61.839 24.9095 61.3211 23.3913Z" fill="#F9BA8F"/>
<path d="M39.075 27.5163C39.075 22.6554 40.2636 18.3444 42.2732 14.9253C41.5691 14.9838 40.8221 15.1741 40.0448 15.5502C39.2471 15.9359 38.4658 16.5346 37.7199 17.257C36.4063 18.7985 35.3357 21.4627 34.6778 23.3915C34.1599 24.9097 33.0428 26.1483 31.587 26.8218C31.5812 27.0524 31.5752 27.283 31.5752 27.5165C31.5752 39.6112 38.9288 53.7955 47.9996 53.7955C49.2898 53.7955 50.5451 53.5077 51.7496 52.9807C44.4855 49.802 39.075 37.8907 39.075 27.5163Z" fill="#FCAD6D"/>
<path d="M17.0752 80.033V84.0318C18.4171 85.2541 19.8322 86.3975 21.3125 87.4559L19.0559 79.7491C18.7278 78.6278 17.0752 78.8648 17.0752 80.033Z" fill="#000099"/>
<path d="M70.0498 87.1777H58.7998C56.7287 87.1777 55.0498 85.4989 55.0498 83.4277V59.0527C55.0498 56.9816 56.7287 55.3027 58.7998 55.3027H70.0498C72.1209 55.3027 73.7998 56.9816 73.7998 59.0527V83.4277C73.7998 85.4989 72.1207 87.1777 70.0498 87.1777Z" fill="#E9EFFF"/>
<path d="M58.7998 83.4277V59.0527C58.7998 56.9816 60.4787 55.3027 62.5498 55.3027H58.7998C56.7287 55.3027 55.0498 56.9816 55.0498 59.0527V83.4277C55.0498 85.4989 56.7287 87.1777 58.7998 87.1777H62.5498C60.4787 87.1777 58.7998 85.4989 58.7998 83.4277Z" fill="#D3DCFB"/>
<path d="M64.4248 62.8027C65.4603 62.8027 66.2998 61.9633 66.2998 60.9277C66.2998 59.8922 65.4603 59.0527 64.4248 59.0527C63.3893 59.0527 62.5498 59.8922 62.5498 60.9277C62.5498 61.9633 63.3893 62.8027 64.4248 62.8027Z" fill="#BEC8F7"/>
<path d="M68.1748 61.8652C68.6926 61.8652 69.1123 61.4455 69.1123 60.9277C69.1123 60.41 68.6926 59.9902 68.1748 59.9902C67.657 59.9902 67.2373 60.41 67.2373 60.9277C67.2373 61.4455 67.657 61.8652 68.1748 61.8652Z" fill="#BEC8F7"/>
<path d="M69.7018 54.6956C68.9381 54.2402 68.2997 53.6019 67.8444 52.8382C67.7166 52.6237 67.4871 52.4902 67.2373 52.4902C66.9876 52.4902 66.7581 52.6235 66.6302 52.8382C66.1749 53.6019 65.5365 54.2404 64.7728 54.6956C64.5583 54.8235 64.4248 55.053 64.4248 55.3027C64.4248 55.5525 64.5581 55.782 64.7728 55.9099C65.5365 56.3651 66.1749 57.0035 66.6302 57.7672C66.7581 57.9817 66.9876 58.1152 67.2373 58.1152C67.4871 58.1152 67.7166 57.9819 67.8444 57.7672C68.2997 57.0035 68.9381 56.3651 69.7018 55.9099C69.9163 55.782 70.0498 55.5525 70.0498 55.3027C70.0498 55.053 69.9163 54.8235 69.7018 54.6956Z" fill="white"/>
<path d="M45.3775 36.0838L46.9592 33.5636C47.4409 32.7962 48.5591 32.7962 49.0408 33.5636L50.6226 36.0838C51.1361 36.9022 50.548 37.9659 49.5818 37.9659H46.4185C45.4521 37.9657 44.8639 36.9021 45.3775 36.0838Z" fill="#FCAD6D"/>
<path d="M44.1345 45.163H51.8656C52.6365 44.4839 53.2265 43.6051 53.555 42.6072C53.852 41.7051 53.1671 40.7783 52.2174 40.7783H43.7827C42.833 40.7783 42.1481 41.7051 42.4451 42.6072C42.7736 43.6051 43.3636 44.4839 44.1345 45.163Z" fill="#2D2D59"/>
<path d="M51.8648 45.1631C50.8349 46.0722 49.4809 46.6252 47.9993 46.6252C46.5177 46.6252 45.1635 46.0724 44.1338 45.1631C45.165 44.2539 46.5177 43.7009 47.9993 43.7009C49.4809 43.7009 50.8335 44.2539 51.8648 45.1631Z" fill="#FF4155"/>
<path d="M58.3115 30.3908C58.3196 29.7355 58.0544 29.0775 57.5161 28.6022C56.6396 27.8282 55.2961 27.8282 54.4196 28.6022C53.8813 29.0775 53.6163 29.7355 53.6242 30.3908C53.6345 31.2417 54.6796 31.65 55.2813 31.0484C55.6604 30.6692 56.2751 30.6692 56.6542 31.0484C57.2561 31.6502 58.3012 31.2419 58.3115 30.3908Z" fill="#2D2D59"/>
<path d="M37.6877 30.3908C37.6796 29.7355 37.9447 29.0775 38.4831 28.6022C39.3596 27.8282 40.7031 27.8282 41.5796 28.6022C42.1179 29.0775 42.3829 29.7355 42.375 30.3908C42.3647 31.2417 41.3196 31.65 40.7179 31.0484C40.3387 30.6692 39.7241 30.6692 39.345 31.0484C38.7431 31.6502 37.698 31.2419 37.6877 30.3908Z" fill="#2D2D59"/>
<path d="M41.9062 26.0564H38.1562C37.3796 26.0564 36.75 25.4268 36.75 24.6501C36.75 23.8735 37.3796 23.2439 38.1562 23.2439H41.9062C42.6829 23.2439 43.3125 23.8735 43.3125 24.6501C43.3125 25.4268 42.6829 26.0564 41.9062 26.0564Z" fill="#875431"/>
<path d="M57.8438 26.0564H54.0938C53.3171 26.0564 52.6875 25.4268 52.6875 24.6501C52.6875 23.8735 53.3171 23.2439 54.0938 23.2439H57.8438C58.6204 23.2439 59.25 23.8735 59.25 24.6501C59.25 25.4268 58.6204 26.0564 57.8438 26.0564Z" fill="#875431"/>
<path d="M68.4863 72.3652C68.4863 73.6597 69.5355 74.709 70.83 74.709H69.2676C67.9731 74.709 66.9238 75.7582 66.9238 77.0527C66.9238 78.3472 67.9731 79.3965 69.2676 79.3965H70.83C69.5355 79.3965 68.4863 80.4457 68.4863 81.7402C68.4863 83.0347 69.5355 84.084 70.83 84.084H72.3925C71.098 84.084 70.0487 85.1332 70.0487 86.4277C70.0487 87.7222 71.098 88.7715 72.3925 88.7715H78.1736C83.3513 88.7715 87.5486 84.5741 87.5486 79.3965C87.5486 74.2189 83.3513 70.0215 78.1736 70.0215H70.8298C69.5357 70.0215 68.4863 71.0709 68.4863 72.3652Z" fill="#F9BA8F"/>
<path d="M70.364 85.2559C70.1641 85.6009 70.0479 86.0004 70.0479 86.4277C70.0479 87.7222 71.0971 88.7715 72.3916 88.7715H73.9072C74.5544 88.7715 75.079 88.2469 75.079 87.5996C75.079 86.9524 74.5544 86.4277 73.9072 86.4277H72.3916C71.5244 86.4277 70.7694 85.9558 70.364 85.2559Z" fill="#FCAD6D"/>
<path d="M68.8034 80.5684C68.6036 80.9134 68.4873 81.3129 68.4873 81.7402C68.4873 83.0347 69.5366 84.084 70.8311 84.084H73.9092C74.5565 84.084 75.0811 83.5594 75.0811 82.9121C75.0811 82.2649 74.5565 81.7402 73.9092 81.7402H70.8311C69.9641 81.7402 69.2088 81.2683 68.8034 80.5684Z" fill="#FCAD6D"/>
<path d="M68.8034 71.1934C68.6036 71.5384 68.4873 71.9379 68.4873 72.3652C68.4873 73.6597 69.5366 74.709 70.8311 74.709H73.9092C74.5565 74.709 75.0811 74.1844 75.0811 73.5371C75.0811 72.8899 74.5565 72.3652 73.9092 72.3652H70.8311C69.9641 72.3652 69.2088 71.8933 68.8034 71.1934Z" fill="#FCAD6D"/>
<path d="M67.24 75.8809C67.0401 76.2259 66.9238 76.6254 66.9238 77.0527C66.9238 78.3472 67.9731 79.3965 69.2676 79.3965H73.9082C74.5555 79.3965 75.0801 78.8719 75.0801 78.2246C75.0801 77.5774 74.5555 77.0527 73.9082 77.0527H69.2676C68.4006 77.0527 67.6453 76.5808 67.24 75.8809Z" fill="#FCAD6D"/>
</g>
<defs>
<clipPath id="clip0">
<rect width="96" height="96" fill="white"/>
</clipPath>
</defs>
</svg>
