<svg width="96" height="96" viewBox="0 0 96 96" fill="none" xmlns="http://www.w3.org/2000/svg">
<g clip-path="url(#clip0)">
<path d="M86.7653 74.7193C91.3061 67.5952 93.9383 59.1363 93.9383 50.0621C93.9383 30.0189 81.1005 12.9768 63.2001 6.70215H32.8007C14.9002 12.9768 2.0625 30.0189 2.0625 50.0621C2.0625 60.7636 5.72175 70.6104 11.8573 78.4196L86.7653 74.7193Z" fill="#74C4F9"/>
<path d="M32.3668 0H22.6721C22.5334 0 22.3961 0.0054375 22.2587 0.0105C21.8966 0.395625 21.2363 1.24687 21.1892 2.37413C21.1481 3.35606 21.5803 4.30706 22.4734 5.19994C24.9683 7.695 27.0298 24.9227 27.2252 26.6012C26.8988 26.9571 25.8823 28.1869 25.9723 29.6121C26.0216 30.3939 26.3948 31.0952 27.0793 31.7012H32.367C38.4341 31.7012 43.3701 26.7651 43.3701 20.6979V11.0033C43.3699 4.93594 38.4339 0 32.3668 0V0Z" fill="#93F9D7"/>
<path d="M22.672 0C16.6051 0 11.6689 4.93594 11.6689 11.0033V20.6979C11.6689 26.7651 16.6049 31.7012 22.672 31.7012H27.5194C24.658 29.5179 27.5194 26.7 27.5194 26.7C27.5194 26.7 25.3819 7.71131 22.672 5.00138C19.9623 2.29125 22.672 0 22.672 0V0Z" fill="#3ECE9A"/>
<path d="M32.3669 69.4331H22.6722C22.5321 69.4331 22.393 69.4374 22.2543 69.4425C21.7463 69.9544 20.6024 71.2882 20.683 72.8495C20.7383 73.9179 21.3533 74.8693 22.5113 75.677C22.7045 75.8119 22.8181 76.0256 22.8584 76.3309C23.045 77.7401 21.7296 80.4729 19.7598 83.6539H43.3701V80.436C43.3699 74.369 38.434 69.4331 32.3669 69.4331Z" fill="#F9A0B1"/>
<path d="M22.672 75.4467C18.8202 72.7598 22.672 69.4333 22.672 69.4333C17.294 69.4333 12.8077 73.3129 11.8574 78.4199C13.3248 80.2875 14.936 82.0362 16.6705 83.6543H20.08C22.5389 79.6484 23.9572 76.3429 22.672 75.4467Z" fill="#FF7186"/>
<path d="M32.3659 34.7168H22.6976C22.2369 35.1411 21.3364 36.1287 21.3488 37.3587C21.3583 38.3046 21.9021 39.1752 22.9648 39.9456C26.0436 42.1782 26.6794 59.5485 26.7351 61.2857C26.3681 61.5962 25.2739 62.6367 25.2705 63.9979C25.2684 64.8649 25.7076 65.6775 26.574 66.4178H32.3659C38.433 66.4178 43.3689 61.4819 43.3689 55.4147V45.7199C43.3689 39.6525 38.433 34.7168 32.3659 34.7168Z" fill="#FFEB97"/>
<path d="M23.1308 34.7168H22.672C16.6049 34.7168 11.6689 39.6527 11.6689 45.7199V55.4147C11.6689 61.4819 16.6049 66.4178 22.672 66.4178H27.0214C23.7168 63.9044 27.0214 61.4166 27.0214 61.4166C27.0214 61.4166 26.5058 42.1656 23.1308 39.718C19.7558 37.2704 23.1308 34.7168 23.1308 34.7168Z" fill="#FFDD40"/>
<path d="M58.7448 26.422C59.0652 26.2403 59.3643 26.0162 59.6345 25.7526L67.5447 18.0328C68.1376 17.4542 68.4644 16.6793 68.4644 15.8507C68.4644 15.0222 68.1378 14.247 67.5447 13.6682L59.6345 5.94866C59.3643 5.68485 59.0652 5.46078 58.7448 5.2791L58.3034 5.00122H31.8262V5.26297H32.3675C35.5375 5.26297 38.1076 7.83285 38.1076 11.0031V20.698C38.1076 23.8682 35.5375 26.4383 32.3673 26.4383H31.8262V26.7H58.3589L58.7448 26.422Z" fill="#6BEDC5"/>
<path d="M51.0063 22.5206V9.18016C51.0063 7.30685 52.1579 5.68966 53.788 5.00098H31.8262V5.26273H32.3675C35.5375 5.26273 38.1076 7.83279 38.1076 11.0029V20.6977C38.1076 23.868 35.5375 26.4379 32.3673 26.4379H31.8262V26.6996H53.788C52.1579 26.0111 51.0063 24.3939 51.0063 22.5206Z" fill="#3ECE9A"/>
<path d="M83.5194 79.1951L79.6117 75.3818C79.3415 75.118 79.0424 74.8939 78.7218 74.7122L78.2804 74.4343H31.8262V74.6961H32.3675C35.5375 74.6961 38.1076 77.2661 38.1076 80.4362V90.1311C38.1076 91.8546 37.3469 93.3998 36.1441 94.4518C39.9269 95.4598 43.9004 96 48.0009 96C62.3124 96 75.0944 89.4548 83.5194 79.1951Z" fill="#FF7186"/>
<path d="M51.0063 91.8874V78.5469C51.0063 76.7308 52.0891 75.1564 53.6405 74.4343H31.8262V74.6961H32.3675C35.5375 74.6961 38.1076 77.2661 38.1076 80.4362V90.1311C38.1076 91.8546 37.3469 93.3998 36.1441 94.4518C39.9269 95.4598 43.9004 96 48.0009 96C49.7318 96 51.44 95.9021 53.1213 95.7156C51.853 94.9097 51.0063 93.4931 51.0063 91.8874Z" fill="#FF4155"/>
<path d="M68.7333 61.1385C69.0537 60.9568 69.3528 60.7328 69.6232 60.4692L77.5334 52.7494C78.1263 52.1708 78.4531 51.3958 78.4531 50.5673C78.4531 49.7385 78.1265 48.9636 77.5334 48.3848L69.6232 40.6652C69.353 40.4014 69.0539 40.1773 68.7333 39.9956L68.2919 39.7178H31.8262V39.9795H32.3675C35.5375 39.9795 38.1076 42.5494 38.1076 45.7196V55.4145C38.1076 58.5848 35.5375 61.1548 32.3673 61.1548H31.8262V61.4166H68.3476L68.7333 61.1385Z" fill="#FFDD40"/>
<path d="M51.0063 57.1461V43.8056C51.0063 42.0107 52.0636 40.4507 53.5863 39.7178H31.8262V39.9795H32.3675C35.5375 39.9795 38.1076 42.5494 38.1076 45.7196V55.4145C38.1076 58.5848 35.5375 61.1546 32.3673 61.1546H31.8262V61.4164H54.0233C52.2698 60.7888 51.0063 59.1083 51.0063 57.1461Z" fill="#FFC839"/>
<path d="M38.3697 20.698V11.0031C38.3697 7.69372 35.6772 5.00122 32.3677 5.00122H22.6728C19.3632 5.00122 16.6709 7.69372 16.6709 11.0031V20.698C16.6709 24.0073 19.3632 26.6998 22.6728 26.6998H32.3677C35.6772 26.6998 38.3697 24.0075 38.3697 20.698Z" fill="#2BBC85"/>
<path d="M32.3676 74.4343H22.6728C19.3632 74.4343 16.6709 77.1268 16.6709 80.4362V83.6541C18.6903 85.5383 20.8799 87.2419 23.2135 88.741L29.4522 92.0978L29.4518 92.0981C31.6936 93.0891 34.0291 93.907 36.4424 94.5325C37.6265 93.4354 38.3695 91.8686 38.3695 90.1311V80.4362C38.3697 77.1268 35.6772 74.4343 32.3676 74.4343Z" fill="#E80054"/>
<path d="M38.3697 55.4145V45.7196C38.3697 42.4103 35.6772 39.7178 32.3677 39.7178H22.6728C19.3632 39.7178 16.6709 42.4101 16.6709 45.7196V55.4145C16.6709 58.7239 19.3632 61.4164 22.6728 61.4164H32.3677C35.6772 61.4164 38.3697 58.7241 38.3697 55.4145Z" fill="#FFB332"/>
<path d="M27.5202 22.7787C26.7018 22.7787 26.0384 22.1152 26.0384 21.2969V11.4775H25.1049C24.2864 11.4775 23.623 10.814 23.623 9.99573C23.623 9.17729 24.2864 8.51392 25.1049 8.51392H27.5202C28.3387 8.51392 29.002 9.17748 29.002 9.99573V21.2967C29.002 22.1152 28.3387 22.7787 27.5202 22.7787Z" fill="#DEEEFF"/>
<path d="M24.3972 57.5968C23.9123 57.4352 23.5497 57.0671 23.4021 56.5873C23.1535 55.7784 23.5418 55.2697 24.2472 54.3461C24.8202 53.5959 25.8867 52.1996 27.6745 49.6453C28.6765 48.2135 28.6555 47.5451 28.6619 47.5265C28.6214 46.7852 28.0054 46.1943 27.2541 46.1943C26.5817 46.1943 25.9999 46.6717 25.8707 47.3295C25.7129 48.1325 24.9336 48.6568 24.1311 48.4978C23.3281 48.3401 22.8049 47.5612 22.9626 46.7582C23.3642 44.714 25.1689 43.2307 27.2541 43.2307C29.9299 43.2307 32.143 45.7417 31.5334 48.3763C31.1207 50.1566 29.8523 51.7893 27.6537 54.7517C28.5687 54.7485 29.6149 54.7397 30.6062 54.7273C30.6126 54.7271 30.619 54.7271 30.6252 54.7271C31.435 54.7271 32.0963 55.3783 32.1064 56.1903C32.1167 57.0086 31.4616 57.6804 30.6434 57.6905C28.6765 57.7149 24.9439 57.7788 24.3972 57.5968Z" fill="#DEEEFF"/>
<path d="M27.5197 86.7656C26.7013 86.7656 26.0379 86.1021 26.0379 85.2838C26.0379 84.4656 26.7013 83.802 27.5197 83.802C28.2971 83.802 28.9297 83.1696 28.9297 82.3922C28.9297 81.6148 28.2973 80.9822 27.5197 80.9822C26.8474 80.9822 26.2656 81.4596 26.1364 82.1173C25.9785 82.9204 25.1987 83.4429 24.3967 83.2856C23.5937 83.1279 23.0706 82.3491 23.2282 81.546C23.6297 79.5021 25.4346 78.0186 27.5197 78.0186C29.9314 78.0186 31.8934 79.9806 31.8934 82.3922C31.8932 84.8036 29.9314 86.7656 27.5197 86.7656Z" fill="#DEEEFF"/>
<path d="M27.5189 83.8018C26.7005 83.8018 26.0371 84.4653 26.0371 85.2836C26.0371 86.1018 26.7005 86.7654 27.5189 86.7654C28.2963 86.7654 28.9289 87.3978 28.9289 88.1754C28.9289 88.9528 28.2965 89.5852 27.5189 89.5852C26.8194 89.5852 26.2192 89.0645 26.1226 88.373C26.1136 88.3085 26.1091 88.2419 26.1091 88.1754C26.1091 87.3571 25.4458 86.6936 24.6273 86.6936C23.8089 86.6936 23.1455 87.3571 23.1455 88.1754C23.1455 88.3616 23.1584 88.5442 23.1811 88.724C25.1709 90.0039 27.2668 91.1324 29.4511 92.0977C30.8962 91.3829 31.8926 89.8938 31.8926 88.1756C31.8924 85.7639 29.9306 83.8018 27.5189 83.8018Z" fill="#DEEEFF"/>
<path d="M76.0306 13.867L68.1203 6.14722C67.3673 5.41241 66.357 5.00122 65.305 5.00122H56.626C57.678 5.00122 58.6883 5.4126 59.4413 6.14722L67.3515 13.8668C68.466 14.9543 68.466 16.7464 67.3515 17.8339L59.4413 25.5537C58.6883 26.2885 57.678 26.6997 56.626 26.6997H65.305C66.357 26.6997 67.3675 26.2883 68.1203 25.5537L76.0304 17.8339C77.1451 16.7464 77.1451 14.9545 76.0306 13.867Z" fill="#93F9D7"/>
<path d="M76.6016 74.4343C77.6536 74.4343 78.6639 74.8457 79.4169 75.5805L83.3407 79.4096C84.5771 77.9224 85.7216 76.3562 86.765 74.7193C86.2966 74.5337 85.7939 74.4343 85.2807 74.4343H76.6016Z" fill="#F9A0B1"/>
<path d="M86.0188 48.5833L78.1086 40.8638C77.3556 40.129 76.3453 39.7178 75.2933 39.7178H66.6143C67.6663 39.7178 68.6766 40.1291 69.4296 40.8638L77.3398 48.5833C78.4543 49.671 78.4543 51.463 77.3398 52.5505L69.4296 60.2702C68.6766 61.005 67.6663 61.4162 66.6143 61.4162H75.2933C76.3453 61.4162 77.3558 61.0048 78.1086 60.2702L86.0188 52.5505C87.1333 51.463 87.1333 49.6708 86.0188 48.5833Z" fill="#FFEB97"/>
<path d="M83.3378 20.7131C79.3515 24.2061 75.9107 29.6794 82.5064 35.7593C87.3101 40.1873 91.0286 43.3581 93.7183 45.543C92.8007 36.1481 89.0522 27.5844 83.3378 20.7131Z" fill="#93D1FA"/>
</g>
<defs>
<clipPath id="clip0">
<rect width="96" height="96" fill="white"/>
</clipPath>
</defs>
</svg>
