<svg width="96" height="96" viewBox="0 0 96 96" fill="none" xmlns="http://www.w3.org/2000/svg">
<path d="M89.0706 70.6567C92.1826 64.4619 93.9375 57.4673 93.9375 50.0625C93.9375 24.6921 73.3704 4.125 48 4.125C22.6296 4.125 2.0625 24.6921 2.0625 50.0625C2.0625 57.4673 3.81738 64.4619 6.92944 70.6567H89.0706Z" fill="#73C3F9"/>
<path d="M89.2563 13.3674H6.74316V70.2817C14.2219 85.5139 29.8855 96 47.9998 96C66.114 96 81.7776 85.5139 89.2563 70.2817V13.3674Z" fill="#E6F7FE"/>
<path d="M19.2749 13.3674H6.74316V70.2817C9.73364 76.3726 14.0337 81.7031 19.2749 85.9094V13.3674Z" fill="#D5F1FE"/>
<path d="M6.74316 8.81763H89.2563V13.7424H6.74316V8.81763Z" fill="#D5F1FE"/>
<path d="M28.6726 13.7424H6.74316V8.81763H24.0327C26.5955 8.81763 28.6726 11.0222 28.6726 13.7424Z" fill="#11DFEF"/>
<path d="M6.74316 8.81763H19.2749V13.7424H6.74316V8.81763Z" fill="#0AC6E5"/>
<path d="M89.0044 0C87.4121 0 9.3125 0 6.99512 0C6.85596 0 6.74316 0.112793 6.74316 0.251953V9.10327H89.2563V0.251953C89.2563 0.112793 89.1436 0 89.0044 0Z" fill="#615DF9"/>
<path d="M19.2749 2.54443C19.2749 1.14478 20.4197 0 21.8193 0C13.4756 0 7.60522 0 6.99512 0C6.85522 0 6.74316 0.112793 6.74316 0.251953V9.10327H19.2749V2.54443Z" fill="#3342AE"/>
<path d="M13.5566 6.33908C12.5239 6.33908 11.6816 5.49753 11.6816 4.46408C11.6816 3.56979 12.3101 2.80295 13.1912 2.62424C14.3381 2.39353 15.4316 3.27536 15.4316 4.46408C15.4316 5.50559 14.5798 6.33908 13.5566 6.33908Z" fill="#F948B4"/>
<path d="M19.2754 6.33918C18.2573 6.33918 17.4004 5.51008 17.4004 4.46418C17.4004 3.27839 18.491 2.39289 19.6409 2.62434C20.5491 2.80891 21.1504 3.60212 21.1504 4.46418C21.1504 5.49689 20.3088 6.33918 19.2754 6.33918Z" fill="#FECD0A"/>
<path d="M24.9941 6.33917C23.9761 6.33917 23.1191 5.51007 23.1191 4.46417C23.1191 3.27252 24.2148 2.39362 25.3596 2.62433C26.2678 2.8089 26.8691 3.60284 26.8691 4.46417C26.8691 5.49689 26.0276 6.33917 24.9941 6.33917Z" fill="#39DF74"/>
<path d="M84.6169 49.3601V19.5527C84.6169 18.906 84.0925 18.3823 83.4458 18.3823H42.179C41.5322 18.3823 41.0078 18.906 41.0078 19.5527V49.3601C41.0078 50.0061 41.5322 50.5305 42.179 50.5305H83.4458C84.0925 50.5305 84.6169 50.0061 84.6169 49.3601Z" fill="#11DFEF"/>
<path d="M48.8931 49.3601V19.5527C48.8931 18.906 49.4167 18.3823 50.0635 18.3823H42.179C41.5322 18.3823 41.0078 18.906 41.0078 19.5527V49.3601C41.0078 50.0061 41.5322 50.5305 42.179 50.5305H50.0635C49.4167 50.5305 48.8931 50.0061 48.8931 49.3601Z" fill="#0AC6E5"/>
<path d="M42.9626 18.3823H12.554C11.9072 18.3823 11.3828 18.906 11.3828 19.5527V49.3601C11.3828 50.0061 11.9072 50.5305 12.554 50.5305H42.9626V18.3823Z" fill="#615DF9"/>
<path d="M19.2754 49.3601V19.5527C19.2754 18.906 19.7998 18.3823 20.4465 18.3823H12.554C11.9072 18.3823 11.3828 18.906 11.3828 19.5527V49.3601C11.3828 50.0061 11.9072 50.5305 12.554 50.5305H20.4465C19.7998 50.5305 19.2754 50.0061 19.2754 49.3601Z" fill="#3342AE"/>
<path d="M37.8411 23.1621H16.5034C16.1482 23.1621 15.8574 23.4529 15.8574 23.8081V27.5808C15.8574 27.5808 21.0635 23.8074 26.865 28.5681C27.0166 28.6926 27.166 28.8083 27.3162 28.9197C27.2986 29.0442 27.2891 29.1709 27.2891 29.3005C27.2891 30.8115 28.5181 32.0413 30.0291 32.0413C31.0295 32.0413 31.9062 31.5015 32.3853 30.6987C36.0298 30.5955 38.4871 27.6196 38.4871 27.6196V23.8081C38.4871 23.4529 38.1963 23.1621 37.8411 23.1621Z" fill="#FCE395"/>
<path d="M16.5034 23.1621C16.1482 23.1621 15.8574 23.4529 15.8574 23.8081V27.5808C15.8574 27.5808 18.1433 25.9248 21.3733 26.1921C21.3806 26.1833 21.3879 26.1738 21.3945 26.1658C21.5454 25.9885 21.5483 25.7358 21.415 25.5447C20.5581 24.3127 21.6948 23.1621 21.6948 23.1621H16.5034Z" fill="#FECD0A"/>
<path d="M77.4382 34.6135H50.1123C49.3352 34.6135 48.7061 33.9836 48.7061 33.2073C48.7061 32.4302 49.3352 31.801 50.1123 31.801H77.4382C78.2153 31.801 78.8445 32.4302 78.8445 33.2073C78.8445 33.9836 78.2153 34.6135 77.4382 34.6135Z" fill="#E6F7FE"/>
<path d="M77.4382 40.0298H50.1123C49.3352 40.0298 48.7061 39.4006 48.7061 38.6235C48.7061 37.8472 49.3352 37.2173 50.1123 37.2173H77.4382C78.2153 37.2173 78.8445 37.8472 78.8445 38.6235C78.8445 39.4006 78.2153 40.0298 77.4382 40.0298Z" fill="#E6F7FE"/>
<path d="M63.7747 45.4468H50.1113C49.335 45.4468 48.7051 44.8169 48.7051 44.0405C48.7051 43.2634 49.335 42.6343 50.1113 42.6343H63.7747C64.5518 42.6343 65.1809 43.2634 65.1809 44.0405C65.1809 44.8169 64.5518 45.4468 63.7747 45.4468Z" fill="#E6F7FE"/>
<path d="M64.4309 27.832H50.7676C49.7319 27.832 48.8926 26.9927 48.8926 25.957C48.8926 24.9214 49.7319 24.082 50.7676 24.082H64.4309C65.4666 24.082 66.3059 24.9214 66.3059 25.957C66.3059 26.9927 65.4666 27.832 64.4309 27.832Z" fill="#8181FC"/>
<path d="M59.053 25.957C59.053 24.9214 59.8923 24.082 60.928 24.082H50.7686C49.7329 24.082 48.8936 24.9214 48.8936 25.957C48.8936 26.9927 49.7329 27.832 50.7686 27.832H60.928C59.8923 27.832 59.053 26.9927 59.053 25.957Z" fill="#615DF9"/>
<path d="M77.4387 45.4468H75.4941C74.717 45.4468 74.0879 44.8169 74.0879 44.0405C74.0879 43.2634 74.717 42.6343 75.4941 42.6343H77.4387C78.2151 42.6343 78.845 43.2634 78.845 44.0405C78.845 44.8169 78.2158 45.4468 77.4387 45.4468Z" fill="#E6F7FE"/>
<path d="M20.3977 30.4601C21.2451 29.6127 22.6199 29.6127 23.468 30.4601L29.0835 36.0763C29.4189 36.4117 29.9631 36.4117 30.2986 36.0763L31.6616 34.7132C32.4292 33.9457 33.6736 33.9457 34.4404 34.7132L38.4871 38.7599V27.2447C38.4871 27.2447 36.0298 30.2206 32.3853 30.3238C31.907 31.1266 31.0303 31.6664 30.0298 31.6664C28.5188 31.6664 27.2891 30.4366 27.2891 28.9256C27.2891 28.796 27.2986 28.6693 27.3162 28.5448C27.1667 28.4335 27.0166 28.3177 26.865 28.1932C21.0642 23.4325 15.8574 27.2059 15.8574 27.2059V35.0011L20.3977 30.4601Z" fill="#FECD0A"/>
<path d="M21.6604 29.8439C21.6772 29.8146 21.6948 29.7867 21.7117 29.7604C21.8289 29.5758 21.8149 29.3348 21.6714 29.1693C20.4175 27.7235 20.9807 26.6527 21.3945 26.1656C21.4773 26.069 21.5139 25.9488 21.5095 25.8287C18.2078 25.5021 15.8574 27.2057 15.8574 27.2057V35.0009L20.3977 30.4598C20.7522 30.1061 21.199 29.9017 21.6604 29.8439Z" fill="#FCA60D"/>
<path d="M32.8865 28.9255C32.8865 30.5032 31.6077 31.7827 30.0293 31.7827C28.4517 31.7827 27.1729 30.5032 27.1729 28.9255C27.1729 27.3472 28.4517 26.0684 30.0293 26.0684C31.6077 26.0684 32.8865 27.3472 32.8865 28.9255Z" fill="#FCA60D"/>
<path d="M29.6338 26.0984C28.2437 26.2917 27.1729 27.4819 27.1729 28.9255C27.1729 30.5032 28.4517 31.7827 30.0293 31.7827C31.0554 31.7827 31.9526 31.24 32.4565 30.4277C30.0359 30.7632 28.3733 28.1309 29.6338 26.0984Z" fill="#F98A10"/>
<path d="M34.4404 34.3382C33.6729 33.5706 32.4285 33.5706 31.6616 34.3382L30.2986 35.7012C29.9631 36.0367 29.4189 36.0367 29.0835 35.7012L23.468 30.085C22.6199 29.2376 21.2451 29.2376 20.3977 30.085L15.8574 34.626V40.2606C15.8574 40.2606 21.0635 36.4871 26.865 41.2479C33.3264 46.5513 38.4871 40.2994 38.4871 40.2994V38.3848L34.4404 34.3382Z" fill="#FCA60D"/>
<path d="M22.554 33.728C20.3882 32.3496 21.248 30.4893 21.7117 29.7605C21.7703 29.6675 21.7959 29.5605 21.7893 29.4565C21.2825 29.4895 20.7852 29.6982 20.3977 30.085L15.8574 34.626V40.2605C15.8574 40.2605 17.7485 38.8909 20.52 38.8433C20.7141 38.6052 20.9031 38.4705 20.9031 38.4705C22.1584 37.9636 25.3035 35.4778 22.554 33.728Z" fill="#F98A10"/>
<path d="M16.5034 45.7916H37.8411C38.1963 45.7916 38.4871 45.5008 38.4871 45.1449V39.9242C38.4871 39.9242 33.3264 46.1754 26.865 40.8727C21.0642 36.1119 15.8574 39.8846 15.8574 39.8846V45.1449C15.8574 45.5008 16.1482 45.7916 16.5034 45.7916Z" fill="#8181FC"/>
<path d="M21.905 42.129C18.5542 40.1478 20.9023 38.4713 20.9031 38.4705C17.9236 38.3885 15.8574 39.8856 15.8574 39.8856V45.1458C15.8574 45.5011 16.1482 45.7918 16.5034 45.7918H22.3884C23.241 44.9246 24.1111 43.4334 21.905 42.129Z" fill="#615DF9"/>
<path d="M84.6169 77.8008V56.3408C84.6169 55.6941 84.0925 55.1697 83.4458 55.1697H42.179C41.5322 55.1697 41.0078 55.6941 41.0078 56.3408V86.1475C41.0078 86.7942 41.5322 87.3186 42.179 87.3186H74.875C78.5745 84.6453 81.8601 81.4343 84.6169 77.8008Z" fill="#11DFEF"/>
<path d="M48.8931 86.1475V56.3408C48.8931 55.6941 49.4167 55.1704 50.0635 55.1704H42.179C41.5322 55.1704 41.0078 55.6941 41.0078 56.3408V86.1475C41.0078 86.7942 41.5322 87.3186 42.179 87.3186H50.0635C49.4167 87.3186 48.8931 86.7942 48.8931 86.1475Z" fill="#0AC6E5"/>
<path d="M11.3828 56.3408V77.8008C14.1396 81.4351 17.4253 84.6453 21.1248 87.3186H42.9626V55.1704H12.554C11.9072 55.1704 11.3828 55.6941 11.3828 56.3408Z" fill="#615DF9"/>
<path d="M19.2754 56.3408C19.2754 55.6941 19.7998 55.1704 20.4465 55.1704H12.554C11.9072 55.1704 11.3828 55.6941 11.3828 56.3408V77.8008C13.6716 80.8169 16.3245 83.54 19.2754 85.908V56.3408Z" fill="#3342AE"/>
<path d="M77.4382 71.4016H50.1123C49.3352 71.4016 48.7061 70.7717 48.7061 69.9954C48.7061 69.2183 49.3352 68.5891 50.1123 68.5891H77.4382C78.2153 68.5891 78.8445 69.2183 78.8445 69.9954C78.8445 70.7717 78.2153 71.4016 77.4382 71.4016Z" fill="#E6F7FE"/>
<path d="M77.4382 76.8179H50.1123C49.3352 76.8179 48.7061 76.1887 48.7061 75.4116C48.7061 74.6345 49.3352 74.0054 50.1123 74.0054H77.4382C78.2153 74.0054 78.8445 74.6345 78.8445 75.4116C78.8445 76.1887 78.2153 76.8179 77.4382 76.8179Z" fill="#E6F7FE"/>
<path d="M63.7747 82.2349H50.1113C49.335 82.2349 48.7051 81.605 48.7051 80.8286C48.7051 80.0515 49.335 79.4224 50.1113 79.4224H63.7747C64.5518 79.4224 65.1809 80.0515 65.1809 80.8286C65.1809 81.605 64.5518 82.2349 63.7747 82.2349Z" fill="#E6F7FE"/>
<path d="M77.4377 82.2349H75.4932C74.7161 82.2349 74.0869 81.605 74.0869 80.8286C74.0869 80.0515 74.7161 79.4224 75.4932 79.4224H77.4377C78.2141 79.4224 78.844 80.0515 78.844 80.8286C78.844 81.605 78.2148 82.2349 77.4377 82.2349Z" fill="#E6F7FE"/>
<path d="M83.8391 5.95752H73.9639C73.1868 5.95752 72.5576 5.32837 72.5576 4.55127C72.5576 3.7749 73.1868 3.14502 73.9639 3.14502H83.8391C84.6155 3.14502 85.2454 3.7749 85.2454 4.55127C85.2454 5.32837 84.6155 5.95752 83.8391 5.95752Z" fill="#AEAEFF"/>
<path d="M66.8992 5.95752H32.4277C31.6514 5.95752 31.0215 5.32837 31.0215 4.55127C31.0215 3.7749 31.6514 3.14502 32.4277 3.14502H66.8992C67.6755 3.14502 68.3054 3.7749 68.3054 4.55127C68.3054 5.32837 67.6763 5.95752 66.8992 5.95752Z" fill="#AEAEFF"/>
<path d="M59.123 4.55127C59.123 3.7749 59.7529 3.14502 60.5293 3.14502H32.4277C31.6514 3.14502 31.0215 3.7749 31.0215 4.55127C31.0215 5.32837 31.6514 5.95752 32.4277 5.95752H60.5293C59.7529 5.95752 59.123 5.32837 59.123 4.55127Z" fill="#8181FC"/>
<path d="M64.4309 64.6201H50.7676C49.7319 64.6201 48.8926 63.7808 48.8926 62.7451C48.8926 61.7095 49.7319 60.8701 50.7676 60.8701H64.4309C65.4666 60.8701 66.3059 61.7095 66.3059 62.7451C66.3059 63.7808 65.4666 64.6201 64.4309 64.6201Z" fill="#8181FC"/>
<path d="M59.053 62.7451C59.053 61.7095 59.8923 60.8701 60.928 60.8701H50.7686C49.7329 60.8701 48.8936 61.7095 48.8936 62.7451C48.8936 63.7808 49.7329 64.6201 50.7686 64.6201H60.928C59.8923 64.6201 59.053 63.7808 59.053 62.7451Z" fill="#615DF9"/>
<path d="M37.8411 59.9502H16.5034C16.1482 59.9502 15.8574 60.241 15.8574 60.5962V64.3689C15.8574 64.3689 21.0635 60.5955 26.865 65.3562C27.0166 65.4807 27.166 65.5964 27.3162 65.7078C27.2986 65.8323 27.2891 65.959 27.2891 66.0886C27.2891 67.5996 28.5181 68.8293 30.0291 68.8293C31.0295 68.8293 31.9062 68.2896 32.3853 67.4868C36.0298 67.3835 38.4871 64.4077 38.4871 64.4077V60.5962C38.4871 60.241 38.1963 59.9502 37.8411 59.9502Z" fill="#FCE395"/>
<path d="M16.5034 59.9502C16.1482 59.9502 15.8574 60.241 15.8574 60.5962V64.3689C15.8574 64.3689 18.1433 62.7129 21.3733 62.9802C21.3806 62.9714 21.3879 62.9619 21.3945 62.9539C21.5454 62.7766 21.5483 62.5239 21.415 62.3328C20.5581 61.1008 21.6948 59.9502 21.6948 59.9502H16.5034Z" fill="#FECD0A"/>
<path d="M20.3977 67.2482C21.2451 66.4007 22.6199 66.4007 23.468 67.2482L29.0835 72.8644C29.4189 73.1998 29.9631 73.1998 30.2986 72.8644L31.6616 71.5013C32.4292 70.7338 33.6736 70.7338 34.4404 71.5013L38.4871 75.548V64.0328C38.4871 64.0328 36.0298 67.0087 32.3853 67.1119C31.907 67.9147 31.0303 68.4545 30.0298 68.4545C28.5188 68.4545 27.2891 67.2247 27.2891 65.7137C27.2891 65.5841 27.2986 65.4574 27.3162 65.3329C27.1667 65.2215 27.0166 65.1058 26.865 64.9813C21.0642 60.2206 15.8574 63.994 15.8574 63.994V71.7884L20.3977 67.2482Z" fill="#FECD0A"/>
<path d="M21.6604 66.6313C21.6772 66.6027 21.6948 66.5742 21.7117 66.5485C21.8289 66.364 21.8149 66.1223 21.6714 65.9575C20.4175 64.5117 20.9807 63.4409 21.3945 62.9538C21.4773 62.8564 21.5139 62.737 21.5095 62.6162C18.2078 62.2902 15.8574 63.9931 15.8574 63.9931V71.7883L20.3977 67.248C20.7522 66.8942 21.199 66.6899 21.6604 66.6313Z" fill="#FCA60D"/>
<path d="M32.8865 65.7136C32.8865 67.2913 31.6077 68.5708 30.0293 68.5708C28.4517 68.5708 27.1729 67.2913 27.1729 65.7136C27.1729 64.1353 28.4517 62.8564 30.0293 62.8564C31.6077 62.8564 32.8865 64.1353 32.8865 65.7136Z" fill="#FCA60D"/>
<path d="M29.6338 62.8865C28.2437 63.0798 27.1729 64.27 27.1729 65.7136C27.1729 67.2913 28.4517 68.5708 30.0293 68.5708C31.0554 68.5708 31.9526 68.0281 32.4565 67.2158C30.0359 67.5513 28.3733 64.9189 29.6338 62.8865Z" fill="#F98A10"/>
<path d="M34.4404 71.1263C33.6729 70.3587 32.4285 70.3587 31.6616 71.1263L30.2986 72.4893C29.9631 72.8248 29.4189 72.8248 29.0835 72.4893L23.468 66.8731C22.6199 66.0257 21.2451 66.0257 20.3977 66.8731L15.8574 71.4134V77.0486C15.8574 77.0486 21.0635 73.2752 26.865 78.036C33.3264 83.3394 38.4871 77.0875 38.4871 77.0875V75.1729L34.4404 71.1263Z" fill="#FCA60D"/>
<path d="M22.554 70.5161C20.3882 69.1377 21.248 67.2773 21.7117 66.5486C21.7703 66.4556 21.7959 66.3486 21.7893 66.2446C21.2825 66.2776 20.7852 66.4863 20.3977 66.873L15.8574 71.4133V77.0479C15.8574 77.0479 17.7485 75.679 20.5208 75.6313C20.7148 75.3933 20.9031 75.2585 20.9031 75.2585C22.1584 74.7517 25.3035 72.2659 22.554 70.5161Z" fill="#F98A10"/>
<path d="M16.5034 82.5797H37.8411C38.1963 82.5797 38.4871 82.2882 38.4871 81.933V76.7123C38.4871 76.7123 33.3264 82.9635 26.865 77.6608C21.0642 72.9 15.8574 76.6727 15.8574 76.6727V81.933C15.8574 82.2882 16.1482 82.5797 16.5034 82.5797Z" fill="#8181FC"/>
<path d="M21.905 78.9169C18.5542 76.9357 20.9023 75.2592 20.9023 75.2592C17.9236 75.1764 15.8574 76.6735 15.8574 76.6735V81.9337C15.8574 82.289 16.1482 82.5797 16.5034 82.5797H22.3884C23.241 81.7118 24.1111 80.2213 21.905 78.9169Z" fill="#615DF9"/>
</svg>
