<svg width="96" height="96" viewBox="0 0 96 96" fill="none" xmlns="http://www.w3.org/2000/svg">
<path d="M48 96C74.5097 96 96 74.5097 96 48C96 21.4903 74.5097 0 48 0C21.4903 0 0 21.4903 0 48C0 74.5097 21.4903 96 48 96Z" fill="#73C3F9"/>
<path d="M55.4351 28.1235H74.0973V76.575H55.4351V28.1235Z" fill="#EEEFEE"/>
<path d="M21.498 17.25H56.9513V76.8787H21.498V17.25Z" fill="#EEEFEE"/>
<path d="M56.9517 28.1235H58.9242V76.6763H56.9517V28.1235Z" fill="#DBD8DD"/>
<path d="M24.9224 20.0737H31.7001V26.8515H24.9224V20.0737Z" fill="#69B0EE"/>
<path d="M35.8364 20.0737H42.6142V26.8515H35.8364V20.0737Z" fill="#69B0EE"/>
<path d="M46.7505 20.0737H53.5282V26.8515H46.7505V20.0737Z" fill="#69B0EE"/>
<g opacity="0.5">
<path opacity="0.5" d="M26.0468 26.8515H25.5938L28.515 20.0737H28.968L26.0468 26.8515Z" fill="#EEEFEE"/>
<path opacity="0.5" d="M28.1067 26.8515H26.6704L29.5917 20.0737H31.0279L28.1067 26.8515Z" fill="#EEEFEE"/>
</g>
<g opacity="0.5">
<path opacity="0.5" d="M37.1244 26.8515H36.6714L39.5926 20.0737H40.0456L37.1244 26.8515Z" fill="#EEEFEE"/>
<path opacity="0.5" d="M39.1843 26.8515H37.748L40.6693 20.0737H42.1055L39.1843 26.8515Z" fill="#EEEFEE"/>
</g>
<g opacity="0.5">
<path opacity="0.5" d="M48.2015 26.8515H47.7485L50.6698 20.0737H51.1228L48.2015 26.8515Z" fill="#EEEFEE"/>
<path opacity="0.5" d="M50.2614 26.8515H48.8252L51.7464 20.0737H53.1834L50.2614 26.8515Z" fill="#EEEFEE"/>
</g>
<path d="M24.9224 30.7703H31.7001V37.548H24.9224V30.7703Z" fill="#69B0EE"/>
<path d="M35.8364 30.7703H42.6142V37.548H35.8364V30.7703Z" fill="#69B0EE"/>
<path d="M46.7505 30.7703H53.5282V37.548H46.7505V30.7703Z" fill="#69B0EE"/>
<g opacity="0.5">
<path opacity="0.5" d="M26.0468 37.548H25.5938L28.515 30.7703H28.968L26.0468 37.548Z" fill="#EEEFEE"/>
<path opacity="0.5" d="M28.1067 37.548H26.6704L29.5917 30.7703H31.0279L28.1067 37.548Z" fill="#EEEFEE"/>
</g>
<g opacity="0.5">
<path opacity="0.5" d="M37.1244 37.548H36.6714L39.5926 30.7703H40.0456L37.1244 37.548Z" fill="#EEEFEE"/>
<path opacity="0.5" d="M39.1843 37.548H37.748L40.6693 30.7703H42.1055L39.1843 37.548Z" fill="#EEEFEE"/>
</g>
<g opacity="0.5">
<path opacity="0.5" d="M48.2015 37.548H47.7485L50.6698 30.7703H51.1228L48.2015 37.548Z" fill="#EEEFEE"/>
<path opacity="0.5" d="M50.2614 37.548H48.8252L51.7464 30.7703H53.1834L50.2614 37.548Z" fill="#EEEFEE"/>
</g>
<path d="M24.9224 41.4675H31.7001V48.2453H24.9224V41.4675Z" fill="#69B0EE"/>
<path d="M35.8364 41.4675H42.6142V48.2453H35.8364V41.4675Z" fill="#69B0EE"/>
<path d="M46.7505 41.4675H53.5282V48.2453H46.7505V41.4675Z" fill="#69B0EE"/>
<g opacity="0.5">
<path opacity="0.5" d="M26.0468 48.2445H25.5938L28.515 41.4675H28.968L26.0468 48.2445Z" fill="#EEEFEE"/>
<path opacity="0.5" d="M28.1067 48.2445H26.6704L29.5917 41.4675H31.0279L28.1067 48.2445Z" fill="#EEEFEE"/>
</g>
<g opacity="0.5">
<path opacity="0.5" d="M37.1244 48.2445H36.6714L39.5926 41.4675H40.0456L37.1244 48.2445Z" fill="#EEEFEE"/>
<path opacity="0.5" d="M39.1843 48.2445H37.748L40.6693 41.4675H42.1055L39.1843 48.2445Z" fill="#EEEFEE"/>
</g>
<g opacity="0.5">
<path opacity="0.5" d="M48.2015 48.2445H47.7485L50.6698 41.4675H51.1228L48.2015 48.2445Z" fill="#EEEFEE"/>
<path opacity="0.5" d="M50.2614 48.2445H48.8252L51.7464 41.4675H53.1834L50.2614 48.2445Z" fill="#EEEFEE"/>
</g>
<path d="M24.9224 52.1641H31.7001V58.9418H24.9224V52.1641Z" fill="#69B0EE"/>
<path d="M35.8364 52.1641H42.6142V58.9418H35.8364V52.1641Z" fill="#69B0EE"/>
<path d="M46.7505 52.1641H53.5282V58.9418H46.7505V52.1641Z" fill="#69B0EE"/>
<g opacity="0.5">
<path opacity="0.5" d="M26.0468 58.9418H25.5938L28.515 52.1641H28.968L26.0468 58.9418Z" fill="#EEEFEE"/>
<path opacity="0.5" d="M28.1067 58.9418H26.6704L29.5917 52.1641H31.0279L28.1067 58.9418Z" fill="#EEEFEE"/>
</g>
<g opacity="0.5">
<path opacity="0.5" d="M37.1244 58.9418H36.6714L39.5926 52.1641H40.0456L37.1244 58.9418Z" fill="#EEEFEE"/>
<path opacity="0.5" d="M39.1843 58.9418H37.748L40.6693 52.1641H42.1055L39.1843 58.9418Z" fill="#EEEFEE"/>
</g>
<g opacity="0.5">
<path opacity="0.5" d="M48.2015 58.9418H47.7485L50.6698 52.1641H51.1228L48.2015 58.9418Z" fill="#EEEFEE"/>
<path opacity="0.5" d="M50.2614 58.9418H48.8252L51.7464 52.1641H53.1834L50.2614 58.9418Z" fill="#EEEFEE"/>
</g>
<path d="M63.1226 30.7703H69.9003V37.548H63.1226V30.7703Z" fill="#69B0EE"/>
<g opacity="0.5">
<path opacity="0.5" d="M64.2462 37.548H63.7939L66.7152 30.7703H67.1682L64.2462 37.548Z" fill="#EEEFEE"/>
<path opacity="0.5" d="M66.3073 37.548H64.8711L67.7923 30.7703H69.2286L66.3073 37.548Z" fill="#EEEFEE"/>
</g>
<path d="M63.1226 41.4675H69.9003V48.2453H63.1226V41.4675Z" fill="#69B0EE"/>
<g opacity="0.5">
<path opacity="0.5" d="M64.2462 48.2445H63.7939L66.7152 41.4675H67.1682L64.2462 48.2445Z" fill="#EEEFEE"/>
<path opacity="0.5" d="M66.3073 48.2445H64.8711L67.7923 41.4675H69.2286L66.3073 48.2445Z" fill="#EEEFEE"/>
</g>
<path d="M63.1226 52.1641H69.9003V58.9418H63.1226V52.1641Z" fill="#69B0EE"/>
<g opacity="0.5">
<path opacity="0.5" d="M64.2462 58.9418H63.7939L66.7152 52.1641H67.1682L64.2462 58.9418Z" fill="#EEEFEE"/>
<path opacity="0.5" d="M66.3073 58.9418H64.8711L67.7923 52.1641H69.2286L66.3073 58.9418Z" fill="#EEEFEE"/>
</g>
<path d="M63.1226 62.8606H69.9003V69.6383H63.1226V62.8606Z" fill="#69B0EE"/>
<g opacity="0.5">
<path opacity="0.5" d="M64.2462 69.6383H63.7939L66.7152 62.8606H67.1682L64.2462 69.6383Z" fill="#EEEFEE"/>
<path opacity="0.5" d="M66.3073 69.6383H64.8711L67.7923 62.8606H69.2286L66.3073 69.6383Z" fill="#EEEFEE"/>
</g>
<path d="M32.9287 61.6553H46.1797V75.4118H32.9287V61.6553Z" fill="#62667C"/>
<path d="M76.5249 74.4009H19.4754C19.1403 74.4009 18.8687 74.6725 18.8687 75.0076V78.1434C18.8687 78.4785 19.1403 78.7501 19.4754 78.7501H76.5249C76.86 78.7501 77.1317 78.4785 77.1317 78.1434V75.0076C77.1317 74.6725 76.86 74.4009 76.5249 74.4009Z" fill="#575B6D"/>
</svg>
