<svg width="96" height="96" viewBox="0 0 96 96" fill="none" xmlns="http://www.w3.org/2000/svg">
<g clip-path="url(#clip0)">
<path d="M77.5506 85.2317C87.5694 76.8049 93.9384 64.1783 93.9384 50.0621C93.9384 24.6913 73.3714 4.12427 48.0006 4.12427C22.6297 4.12427 2.0625 24.6915 2.0625 50.0623C2.0625 58.3697 4.26806 66.1618 8.12494 72.8858L77.5506 85.2317Z" fill="#73C3F9"/>
<path d="M21.5811 87.6452C29.0541 92.908 38.1658 96.0002 48.0006 96.0002C57.8353 96.0002 66.9471 92.908 74.4201 87.645H21.5811V87.6452Z" fill="#2A428C"/>
<path d="M43.9097 87.645H21.5811C27.8492 92.0595 35.2708 94.9455 43.3044 95.7617C39.6356 94.3695 39.9337 88.5463 43.9097 87.645Z" fill="#1C2E7A"/>
<path d="M64.6302 57.8481H18.9035C17.3512 57.8481 16.0811 59.1183 16.0811 60.6706V62.7065H67.4525V60.6706C67.4527 59.1183 66.1826 57.8481 64.6302 57.8481Z" fill="#3C58A0"/>
<path d="M35.8862 57.8481H18.9045C17.3522 57.8481 16.082 59.1183 16.082 60.6706V62.7065H35.3602C35.6803 62.5761 35.8862 62.527 35.8862 62.527C33.0268 60.3074 35.8862 57.8481 35.8862 57.8481Z" fill="#2A428C"/>
<path d="M30.0947 29.3384L45.698 10.7214L67.157 28.7066L51.5537 47.3236L30.0947 29.3384Z" fill="#FFD899"/>
<path d="M54.3509 18.4233C54.5384 18.4893 54.7289 18.4655 54.8883 18.3841L45.7274 10.7051L30.1143 29.331L39.0087 36.7867C39.1353 36.5956 39.1668 36.3433 39.0565 36.1126C37.9002 33.693 39.4086 32.1213 39.4086 32.1213C39.4086 32.1213 47.3538 23.0589 49.7288 19.8714C51.2744 17.7975 53.1966 18.017 54.3509 18.4233Z" fill="#FFC466"/>
<path d="M48.6377 7.1859C50.9949 9.16177 67.7822 23.2338 70.155 25.2226C70.155 25.2226 68.7473 22.4375 70.8019 19.9863C66.7121 16.5583 56.0908 7.65502 53.6805 5.63452C51.6259 8.08571 48.6377 7.1859 48.6377 7.1859Z" fill="#3C58A0"/>
<path d="M58.3948 14.7727C58.3138 12.872 59.6278 12.2896 60.4316 12.1111C60.6576 12.0609 60.8284 11.8976 60.9071 11.6923C57.7099 9.01215 54.8036 6.57615 53.6805 5.63452C51.6259 8.08552 48.6377 7.1859 48.6377 7.1859C49.7216 8.09452 53.8573 11.5612 58.2394 15.2345C58.3431 15.1089 58.4023 14.9467 58.3948 14.7727Z" fill="#2A428C"/>
<path d="M27.2104 32.7471C29.5676 34.7229 46.3549 48.795 48.7277 50.784C48.7277 50.784 45.7395 49.8842 43.6849 52.3354C39.5951 48.9071 28.9738 40.0039 26.5635 37.9836C28.6181 35.5324 27.2104 32.7471 27.2104 32.7471Z" fill="#3C58A0"/>
<path d="M27.2104 32.7471C27.2104 32.7471 28.6181 35.5322 26.5635 37.9834C27.6478 38.8924 30.3941 41.1943 33.4597 43.7642C33.63 43.6208 33.7277 43.3993 33.6971 43.1634C33.4612 41.3447 34.8392 40.8587 35.718 40.7323C35.9617 40.6973 36.1545 40.533 36.2434 40.3191C32.0769 36.8265 28.2472 33.6163 27.2104 32.7471Z" fill="#2A428C"/>
<path d="M67.6098 38.3207L65.1995 38.165C64.5221 38.9732 61.7026 42.3367 60.5703 43.6875L61.1446 46.0335C61.9632 49.3777 64.448 52.0543 67.7131 53.1465C70.0949 53.9432 72.8922 55.4897 75.9654 57.6992C76.073 57.3705 76.2418 57.056 76.4774 56.7748L80.8638 51.5418C81.0995 51.2606 81.3796 51.0395 81.6845 50.8762C78.9721 48.236 76.961 45.7518 75.7606 43.5459C74.1149 40.5217 71.0456 38.5427 67.6098 38.3207Z" fill="#3C58A0"/>
<path d="M71.1273 48.4343C70.2931 48.1296 69.6464 47.6922 69.1456 47.2073C67.7422 45.8488 67.6428 43.6257 68.8357 42.0792L71.0662 39.1872C69.9903 38.7013 68.8239 38.3995 67.6098 38.3209L65.1995 38.1653C64.5221 38.9734 61.7026 42.337 60.5703 43.6877L61.1446 46.0337C61.9632 49.378 64.448 52.0545 67.7131 53.1467C70.0949 53.9434 72.8923 55.4899 75.9654 57.6994C76.073 57.3709 76.2418 57.0563 76.4774 56.775L78.8969 53.8888C77.1974 52.3748 73.5995 49.3373 71.1273 48.4343Z" fill="#2A428C"/>
<path d="M92.8195 60.1702L85.2522 53.8269C85.1454 54.167 84.9721 54.4922 84.7289 54.7824L80.3425 60.0153C80.0994 60.3056 79.8093 60.5328 79.4932 60.6975L89.7333 69.2814C91.0655 66.3933 92.1069 63.3442 92.8195 60.1702Z" fill="#3C58A0"/>
<path d="M86.8921 61.2007C85.7384 60.2336 85.5592 58.5176 86.5038 57.3455C86.5149 57.3318 86.5248 57.3197 86.5334 57.3093L87.7786 55.9447L85.2522 53.8269C85.1453 54.167 84.9721 54.4922 84.7289 54.7824L80.3425 60.0153C80.0994 60.3056 79.8093 60.5328 79.4932 60.6975L89.7333 69.2814C90.3725 67.8958 90.9427 66.4721 91.4438 65.0163L86.8921 61.2007Z" fill="#2A428C"/>
<path d="M70.5694 28.4961C69.7103 29.521 68.1833 29.6553 67.1586 28.7963L45.6413 10.7594C44.6164 9.90025 44.4822 8.37325 45.3411 7.34856C46.2002 6.32369 47.7272 6.18944 48.7519 7.04838L70.2692 25.0853C71.2941 25.9443 71.4285 27.4713 70.5694 28.4961Z" fill="#FFFAF2"/>
<path d="M48.7519 7.04837C47.7272 6.18944 46.2 6.32369 45.3411 7.34856C44.4822 8.37325 44.6164 9.90044 45.6413 10.7594L54.7883 18.4268C55.0448 18.3437 55.2458 18.115 55.2623 17.8176C55.359 16.0799 56.8971 15.6044 57.8078 15.4756C58.0465 15.4418 58.2388 15.286 58.3322 15.079L48.7519 7.04837Z" fill="#FFD899"/>
<path d="M75.2887 19.7187C74.1294 21.1017 72.0684 21.2832 70.6854 20.1237L53.564 5.77191C52.181 4.61259 51.9997 2.55159 53.159 1.16859C54.3183 -0.214405 56.3793 -0.395905 57.7623 0.763595L74.8835 15.1156C76.2667 16.2749 76.448 18.3357 75.2887 19.7187Z" fill="#4F71B6"/>
<path d="M57.7623 0.763517C56.3793 -0.395795 54.3183 -0.214483 53.159 1.16852C51.9997 2.55152 52.181 4.61252 53.564 5.77183L60.8199 11.854C60.9159 11.7225 60.9665 11.557 60.9528 11.3845C60.6669 7.74789 63.5141 7.14714 64.7242 7.05527C64.863 7.04477 64.9888 6.9902 65.0919 6.90752L57.7623 0.763517Z" fill="#3C58A0"/>
<path d="M52.0225 50.6211C52.8815 49.5963 52.7472 48.0693 51.7224 47.2103L30.205 29.1734C29.1803 28.3144 27.6532 28.4487 26.7942 29.4736C25.9353 30.4983 26.0695 32.0254 27.0944 32.8844L48.6117 50.9213C49.6364 51.7804 51.1634 51.646 52.0225 50.6211Z" fill="#FFFAF2"/>
<path d="M30.205 29.1734C29.1803 28.3144 27.6532 28.4487 26.7942 29.4736C25.9353 30.4982 26.0695 32.0254 27.0944 32.8844L36.1533 40.4779C36.2572 40.3444 36.3119 40.1723 36.2941 39.9921C36.0792 37.8072 37.4724 37.2218 38.5269 37.0868C38.8042 37.0514 39.0106 36.859 39.0888 36.6201L30.205 29.1734Z" fill="#FFD899"/>
<path d="M44.2057 56.8009C45.365 55.4179 45.1837 53.3569 43.8007 52.1976L26.6793 37.8458C25.2963 36.6865 23.2353 36.8678 22.076 38.2508C20.9167 39.6338 21.098 41.6948 22.481 42.8541L39.6024 57.2059C40.9856 58.3654 43.0464 58.1841 44.2057 56.8009Z" fill="#4F71B6"/>
<path d="M26.6784 37.8458C25.2954 36.6865 23.2344 36.8678 22.075 38.2508C20.9157 39.6338 21.097 41.6946 22.48 42.8541L29.4605 48.7054C29.5169 48.5929 29.5441 48.4656 29.53 48.3345C29.1659 44.9402 31.7941 44.1184 33.1182 43.9197C33.3127 43.8904 33.4754 43.7809 33.5799 43.6309L26.6784 37.8458Z" fill="#3C58A0"/>
<path d="M67.1011 62.5271H16.4354C11.8653 62.5271 8.12598 66.2664 8.12598 70.8365V72.8855C10.4159 76.8776 13.2897 80.4911 16.6282 83.6141H75.4104V70.8364C75.4105 66.2664 71.6712 62.5271 67.1011 62.5271Z" fill="#4F71B6"/>
<path d="M33.7773 83.2556C31.6679 82.4051 31.6679 79.9811 31.6679 79.9811C31.6679 79.9811 31.6679 73.653 31.6679 68.5905C31.6679 63.528 35.8867 62.5271 35.8867 62.5271H16.4354C11.8653 62.5271 8.12598 66.2664 8.12598 70.8365V72.8855C10.4159 76.8776 13.2897 80.4911 16.6282 83.6141H33.4465C33.6357 83.387 33.7773 83.2556 33.7773 83.2556Z" fill="#3C58A0"/>
<path d="M78.0153 84.8391C77.6741 83.9154 76.7883 83.2556 75.746 83.2556H16.2451C18.0999 85.0305 20.1031 86.6514 22.2344 88.098H73.7669C75.2471 87.0934 76.6655 86.0049 78.0153 84.8391Z" fill="#FFFAF2"/>
<path d="M33.7766 83.2556H16.2451C18.0999 85.0305 20.1031 86.6514 22.2344 88.098H33.7766C30.8703 85.9492 33.7766 83.2556 33.7766 83.2556Z" fill="#FFD899"/>
<path d="M55.4033 42.4928L57.6494 44.3757C58.5192 45.1049 59.8274 44.9898 60.5564 44.12L65.6232 38.0755C66.3524 37.2057 66.2372 35.8975 65.3674 35.1685L63.1214 33.2856L55.4033 42.4928Z" fill="#FFFAF2"/>
<path d="M84.5215 50.9654C83.34 49.9751 81.5796 50.1301 80.5894 51.3114L76.203 56.5443C75.2127 57.7258 75.3675 59.4862 76.549 60.4764C77.7304 61.4668 79.4909 61.3119 80.481 60.1304L84.8674 54.8975C85.8576 53.7163 85.7027 51.9558 84.5215 50.9654Z" fill="#FFFAF2"/>
<path d="M80.1589 56.0842C79.2458 55.3188 78.8899 54.1374 79.1318 53.0493L76.2021 56.5443C75.2117 57.7258 75.3666 59.4862 76.548 60.4764C77.7294 61.4667 79.4899 61.3119 80.4801 60.1304L83.5566 56.4603C82.4852 57.0138 81.141 56.9075 80.1589 56.0842Z" fill="#FFD899"/>
<path d="M63.2571 33.4006C58.8542 34.298 55.6538 38.1161 55.5391 42.608L59.6643 38.2451L63.2571 33.4006Z" fill="#FFFAF2"/>
</g>
<defs>
<clipPath id="clip0">
<rect width="96" height="96" fill="white"/>
</clipPath>
</defs>
</svg>
