<svg width="96" height="96" viewBox="0 0 96 96" fill="none" xmlns="http://www.w3.org/2000/svg">
<path d="M48 96C74.5097 96 96 74.5097 96 48C96 21.4903 74.5097 0 48 0C21.4903 0 0 21.4903 0 48C0 74.5097 21.4903 96 48 96Z" fill="#73C3F9"/>
<path d="M95.5 54.9333L85.166 44.5993L71.8979 33.7432L58.7133 20.5586L22.0049 64.746L11.0225 66.2855L40.0831 95.3462C42.659 95.7738 45.3031 96 48.0005 96C72.1552 96 92.1395 78.1571 95.5 54.9333Z" fill="#84CAFA" fill-opacity="0.95"/>
<path d="M71.483 73.257C75.3331 73.257 78.4542 70.1358 78.4542 66.2857C78.4542 62.4356 75.3331 59.3145 71.483 59.3145C67.6329 59.3145 64.5117 62.4356 64.5117 66.2857C64.5117 70.1358 67.6329 73.257 71.483 73.257Z" fill="#32393F"/>
<path d="M71.4837 69.8221C73.4368 69.8221 75.0201 68.2388 75.0201 66.2857C75.0201 64.3326 73.4368 62.7493 71.4837 62.7493C69.5306 62.7493 67.9473 64.3326 67.9473 66.2857C67.9473 68.2388 69.5306 69.8221 71.4837 69.8221Z" fill="#697C84"/>
<path d="M24.5259 73.257C28.3761 73.257 31.4972 70.1358 31.4972 66.2857C31.4972 62.4356 28.3761 59.3145 24.5259 59.3145C20.6758 59.3145 17.5547 62.4356 17.5547 66.2857C17.5547 70.1358 20.6758 73.257 24.5259 73.257Z" fill="#5A5A5A"/>
<path d="M24.5267 69.8221C26.4798 69.8221 28.0631 68.2388 28.0631 66.2857C28.0631 64.3326 26.4798 62.7493 24.5267 62.7493C22.5736 62.7493 20.9902 64.3326 20.9902 66.2857C20.9902 68.2388 22.5736 69.8221 24.5267 69.8221Z" fill="#8B9AA6"/>
<path d="M58.7133 66.2857L36.7334 64.1977L13.835 66.2857V20.5586H58.7133V66.2857Z" fill="#000066"/>
<path d="M85.1657 66.2857L71.9443 63.7665L57.8008 66.2857V32.3242H72.8906L76.2639 35.6975L79.2223 40.5903L84.1052 45.321L85.1657 45.8315V66.2857Z" fill="#FFFAF2"/>
<path d="M87.9785 66.2856H78.455L71.4835 64.4851L64.5123 66.2856H11.0225V63.4731H87.9785V66.2856Z" fill="#8B9AA6"/>
<path d="M85.1655 45.9268H64.4443V35.7211L76.2638 35.6975L85.1655 44.5993V45.9268Z" fill="#72BBFF"/>
<path d="M31.7411 55.7403C24.4453 55.7403 18.5098 49.8048 18.5098 42.5092C18.5098 35.2136 24.4453 29.2781 31.7411 29.2781C39.0367 29.2781 44.9722 35.2136 44.9722 42.5092C44.9722 49.8048 39.0367 55.7403 31.7411 55.7403Z" fill="white"/>
<path d="M31.7411 30.6841C38.2719 30.6841 43.5661 35.9783 43.5661 42.5091C43.5661 49.0399 38.2719 54.3342 31.7411 54.3342C25.2103 54.3342 19.916 49.0399 19.916 42.5091C19.916 35.9783 25.2103 30.6841 31.7411 30.6841ZM31.7411 27.8716C23.67 27.8716 17.1035 34.438 17.1035 42.5091C17.1035 50.5803 23.67 57.1467 31.7411 57.1467C39.8122 57.1467 46.3786 50.5803 46.3786 42.5091C46.3785 34.4378 39.8122 27.8716 31.7411 27.8716Z" fill="#7A83EA"/>
<path d="M37.0614 45.954L31.3691 44.387C30.7587 44.219 30.3359 43.6642 30.3359 43.0312V34.5742H33.1484V41.9598L37.8078 43.2423L37.0614 45.954Z" fill="#5A5A5A"/>
<path d="M31.743 44.7149C32.9614 44.7149 33.949 43.7272 33.949 42.5089C33.949 41.2906 32.9614 40.303 31.743 40.303C30.5247 40.303 29.5371 41.2906 29.5371 42.5089C29.5371 43.7272 30.5247 44.7149 31.743 44.7149Z" fill="#7A83EA"/>
<path d="M58.7128 20.5586H49.5V66.2857L54.1065 64.0539L58.7128 66.2857V20.5586Z" fill="#0000B2"/>
<path d="M49.5 63.4731H87.978V66.2856H49.5V63.4731Z" fill="#697C84"/>
</svg>
