<svg width="96" height="96" viewBox="0 0 96 96" fill="none" xmlns="http://www.w3.org/2000/svg">
<path d="M48 96C74.5097 96 96 74.5097 96 48C96 21.4903 74.5097 0 48 0C21.4903 0 0 21.4903 0 48C0 74.5097 21.4903 96 48 96Z" fill="#73C3F9"/>
<path d="M52.8029 95.7627C75.6185 93.496 93.7338 75.2532 95.8028 52.3801L76.6492 33.2264L76.5638 33.3925L68.5604 25.3891L49.0349 40.3636L24.7143 16.043L31.9227 53.4873L19.814 62.7736L52.8029 95.7627Z" fill="#85CBFA" fill-opacity="0.95"/>
<path d="M68.5605 33.2264L26.4175 31.4365L27.9029 62.7738L70.5085 64.6062L68.5605 33.2264Z" fill="#000099"/>
<path d="M68.5603 33.2264L47.9917 32.3901V63.6751L70.5082 64.6062L68.5603 33.2264Z" fill="#0000B3"/>
<path d="M33.1113 25.3891L24.7143 16.043V25.3891H19.814V62.7738H27.9029V33.2264H68.5606V25.3891H33.1113Z" fill="#0000B3"/>
<path d="M47.9893 25.3892H68.5601V33.2265H47.9893V25.3892Z" fill="#000066"/>
<path d="M76.6488 33.2263H68.56V62.7737H27.9023V70.611H62.1113L70.508 79.9571V70.611H76.6488V33.2263Z" fill="#000066"/>
<path d="M68.5603 33.2263V62.7735L47.9917 62.7566V70.5939L62.1114 70.611L70.5082 79.9571V70.611H76.649V33.2263H68.5603Z" fill="#000099"/>
<path d="M31.1831 51.7681L32.6949 49.6248C33.4924 50.4222 34.7218 51.0869 36.2336 51.0869C37.2139 51.0869 37.812 50.7048 37.812 50.173C37.812 48.6612 31.5319 49.874 31.5319 45.6042C31.5319 43.7435 33.1102 42.082 35.9512 42.082C37.7287 42.082 39.2739 42.6136 40.4537 43.627L38.892 45.6706C37.9614 44.9063 36.7487 44.5242 35.6522 44.5242C34.8215 44.5242 34.4559 44.8565 34.4559 45.3217C34.4559 46.7339 40.7194 45.7038 40.7194 49.8241C40.7194 52.0505 39.0748 53.5291 36.1007 53.5291C33.8578 53.5291 32.2961 52.8314 31.1831 51.7681Z" fill="white"/>
<path d="M51.4312 53.3297V46.1192L48.6234 53.3297H47.3607L44.5694 46.1192V53.3297H41.7119V42.248H45.6828L47.992 48.2623L50.3178 42.248H54.2887V53.3297H51.4312Z" fill="white"/>
<path d="M50.3174 42.248L47.9917 48.2623L48.0607 53.3297H48.623L51.4308 46.1192V53.3297H54.2883V42.248H50.3174Z" fill="white"/>
<path d="M56.6167 53.3297V42.248H64.7409V44.7403H59.4742V46.4681H64.6246V48.9602H59.4742V50.8376H64.7409V53.3297H56.6167Z" fill="white"/>
</svg>
