<svg width="96" height="96" viewBox="0 0 96 96" fill="none" xmlns="http://www.w3.org/2000/svg">
<g clip-path="url(#clip0)">
<path d="M95.9996 49.054C95.9996 72.4381 78.9024 91.8292 56.5266 95.4084C56.5266 87.2817 49.9386 80.6938 41.8119 80.6938H14.3709C6.75336 72.3481 2.10742 61.2435 2.10742 49.0538C2.10742 23.1455 23.0946 2.13893 48.9957 2.1077C74.8695 2.07647 95.9996 23.1802 95.9996 49.054Z" fill="#73C3F9"/>
<path d="M77.6038 57.485H50.7775C49.7192 57.485 48.8613 56.6271 48.8613 55.5688V36.4071C48.8613 35.3488 49.7192 34.491 50.7775 34.491H77.6038C78.6621 34.491 79.52 35.3488 79.52 36.4071V55.5688C79.52 56.6271 78.6621 57.485 77.6038 57.485Z" fill="#528ED7"/>
<path d="M61.3174 70.4193C61.3174 69.6256 61.9608 68.9822 62.7545 68.9822H82.8743C83.6679 68.9822 84.3114 69.6256 84.3114 70.4193C84.3114 71.213 83.6679 71.8564 82.8743 71.8564H62.7545C61.9608 71.8564 61.3174 71.213 61.3174 70.4193ZM69.4611 73.7726H62.7545C61.9608 73.7726 61.3174 74.416 61.3174 75.2097C61.3174 76.0034 61.9608 76.6468 62.7545 76.6468H69.4611C70.2548 76.6468 70.8982 76.0034 70.8982 75.2097C70.8982 74.416 70.2548 73.7726 69.4611 73.7726ZM65.6288 78.563H62.7545C61.9608 78.563 61.3174 79.2065 61.3174 80.0001C61.3174 80.7938 61.9608 81.4373 62.7545 81.4373H65.6288C66.4224 81.4373 67.0659 80.7938 67.0659 80.0001C67.0659 79.2065 66.4224 78.563 65.6288 78.563ZM74.2515 78.563C73.4578 78.563 72.8144 79.2065 72.8144 80.0001C72.8144 80.7938 73.4578 81.4373 74.2515 81.4373C75.0452 81.4373 75.6886 80.7938 75.6886 80.0001C75.6886 79.2065 75.0452 78.563 74.2515 78.563ZM79.0419 78.563C78.2483 78.563 77.6048 79.2065 77.6048 80.0001C77.6048 80.7938 78.2483 81.4373 79.0419 81.4373C79.8356 81.4373 80.4791 80.7938 80.4791 80.0001C80.4791 79.2065 79.8356 78.563 79.0419 78.563ZM88.1437 73.7726H74.2515C73.4578 73.7726 72.8144 74.416 72.8144 75.2097C72.8144 76.0034 73.4578 76.6468 74.2515 76.6468H88.1437C88.9374 76.6468 89.5809 76.0034 89.5809 75.2097C89.5809 74.416 88.9374 73.7726 88.1437 73.7726Z" fill="#528ED7"/>
<path d="M54.6106 43.1137H16.2873C15.229 43.1137 14.3711 42.2558 14.3711 41.1975V33.5329C14.3711 32.4746 15.229 31.6167 16.2873 31.6167H54.6106C55.6689 31.6167 56.5268 32.4746 56.5268 33.5329V41.1975C56.5268 42.2558 55.6689 43.1137 54.6106 43.1137Z" fill="#0573CD"/>
<path d="M20.8861 43.1137H16.2873C15.229 43.1137 14.3711 42.2558 14.3711 41.1975V33.5329C14.3711 32.4746 15.229 31.6167 16.2873 31.6167H20.8861V43.1137Z" fill="#004B92"/>
<path d="M38.898 36.2157C38.898 37.0094 38.2546 37.6528 37.4609 37.6528H33.437C32.6433 37.6528 31.9998 37.0094 31.9998 36.2157C31.9998 35.422 32.6433 34.7786 33.437 34.7786H37.4609C38.2546 34.7786 38.898 35.422 38.898 36.2157ZM42.6346 34.7786C41.8409 34.7786 41.1974 35.422 41.1974 36.2157C41.1974 37.0094 41.8409 37.6528 42.6346 37.6528C43.4282 37.6528 44.0717 37.0094 44.0717 36.2157C44.0717 35.422 43.4282 34.7786 42.6346 34.7786ZM28.2633 34.7786C27.4696 34.7786 26.8262 35.422 26.8262 36.2157C26.8262 37.0094 27.4696 37.6528 28.2633 37.6528C29.057 37.6528 29.7004 37.0094 29.7004 36.2157C29.7004 35.422 29.057 34.7786 28.2633 34.7786Z" fill="#002C5D"/>
<path d="M14.3711 40.0479H56.5268V95.4084C54.0931 95.7978 51.5971 96 49.0537 96C35.3158 96 22.9561 90.0991 14.3711 80.6936V40.0479Z" fill="#F7E6B0"/>
<path d="M21.0771 40.0479H56.5262V92.0871C56.2712 92.0912 56.0158 92.0935 55.7598 92.0935C42.5815 92.0935 30.6716 86.6636 22.145 77.919C21.4542 77.2106 21.0771 76.254 21.0771 75.2645V40.0479Z" fill="#FFF5F5"/>
<path d="M50.7794 44.0718H25.8692C25.3402 44.0718 24.9111 44.5008 24.9111 45.0299V73.7724C24.9111 74.3014 25.3402 74.7305 25.8692 74.7305H50.7794C51.3085 74.7305 51.7375 74.3014 51.7375 73.7724V45.0299C51.7375 44.5008 51.3085 44.0718 50.7794 44.0718Z" fill="#F5DC90"/>
<path d="M42.1557 68.982H9.58084C4.28953 68.982 0 64.6924 0 59.4011C0 54.1098 4.28953 49.8203 9.58084 49.8203H42.1557C47.447 49.8203 51.7365 54.1098 51.7365 59.4011C51.7365 64.6924 47.447 68.982 42.1557 68.982Z" fill="#22B27F"/>
<path d="M42.1563 68.982H17.0545C11.7632 68.982 7.47363 64.6924 7.47363 59.4011C7.47363 54.1098 11.7632 49.8203 17.0545 49.8203H42.1563C47.4476 49.8203 51.7371 54.1098 51.7371 59.4011C51.7371 64.6924 47.4476 68.982 42.1563 68.982Z" fill="#04D481"/>
<path d="M45.9891 59.4013C45.9891 60.4596 45.1312 61.3174 44.0729 61.3174H13.4142C12.3559 61.3174 11.498 60.4596 11.498 59.4013C11.498 58.343 12.3559 57.4851 13.4142 57.4851H44.0729C45.1312 57.4851 45.9891 58.343 45.9891 59.4013Z" fill="#F5F0EB"/>
<path d="M93.8919 44.0719H67.0656C66.0073 44.0719 65.1494 43.214 65.1494 42.1557V22.994C65.1494 21.9357 66.0073 21.0779 67.0656 21.0779H93.8919C94.9502 21.0779 95.8081 21.9357 95.8081 22.994V42.1557C95.8081 43.214 94.9502 44.0719 93.8919 44.0719Z" fill="#FCB30B"/>
<path d="M68.9818 44.0719H67.0656C66.0073 44.0719 65.1494 43.214 65.1494 42.1557V22.994C65.1494 21.9357 66.0073 21.0779 67.0656 21.0779H68.9818V44.0719Z" fill="#FC9302"/>
<path d="M76.6129 29.6326C76.6129 31.7492 74.8972 33.465 72.7806 33.465C70.664 33.465 68.9482 31.7492 68.9482 29.6326C68.9482 27.5162 70.664 25.8003 72.7806 25.8003C74.8972 25.8003 76.6129 27.516 76.6129 29.6326ZM91.824 36.8497L86.7981 28.9807C86.4214 28.391 85.5599 28.391 85.1832 28.9807L82.6956 32.8756L81.3765 30.8103C81.0736 30.3359 80.3809 30.3359 80.0779 30.8103L76.0361 37.1385C75.7087 37.6512 76.077 38.3236 76.6855 38.3236H91.0165C91.7732 38.3234 92.2314 37.4874 91.824 36.8497Z" fill="#F7E6B0"/>
<path d="M84.3112 51.7365V59.4012C84.3112 60.4595 83.4534 61.3173 82.3951 61.3173H74.7304L71.2949 64.7528C71.0408 65.0069 70.6961 65.1497 70.3368 65.1497C69.5886 65.1497 68.9819 64.543 68.9819 63.7947V61.3173H65.1496C64.0913 61.3173 63.2334 60.4595 63.2334 59.4012V51.7365C63.2334 50.6782 64.0913 49.8203 65.1496 49.8203H82.3951C83.4534 49.8203 84.3112 50.6782 84.3112 51.7365Z" fill="#003C79"/>
<path d="M67.0657 61.3173H65.1496C64.0913 61.3173 63.2334 60.4595 63.2334 59.4012V51.7365C63.2334 50.6782 64.0913 49.8203 65.1496 49.8203H67.0657V61.3173Z" fill="#002C5D"/>
<path d="M69.9407 55.5688C69.9407 56.6271 69.0829 57.4849 68.0246 57.4849C66.9663 57.4849 66.1084 56.6271 66.1084 55.5688C66.1084 54.5105 66.9663 53.6526 68.0246 53.6526C69.0829 53.6526 69.9407 54.5105 69.9407 55.5688ZM79.5216 53.6526C78.4633 53.6526 77.6054 54.5105 77.6054 55.5688C77.6054 56.6271 78.4633 57.4849 79.5216 57.4849C80.5799 57.4849 81.4378 56.6271 81.4378 55.5688C81.4378 54.5105 80.5799 53.6526 79.5216 53.6526ZM73.7731 53.6526C72.7148 53.6526 71.8569 54.5105 71.8569 55.5688C71.8569 56.6271 72.7148 57.4849 73.7731 57.4849C74.8314 57.4849 75.6892 56.6271 75.6892 55.5688C75.6892 54.5105 74.8314 53.6526 73.7731 53.6526Z" fill="#ACD1FD"/>
<path d="M57.1657 26.8263H25.8684C24.6338 26.8263 23.6328 25.8255 23.6328 24.5908V2.23559C23.6328 1.00081 24.6338 0 25.8684 0H57.1657C58.4005 0 59.4013 1.00081 59.4013 2.23559V24.5909C59.4013 25.8255 58.4005 26.8263 57.1657 26.8263Z" fill="#E43950"/>
<path d="M28.104 26.8263H25.8684C24.6338 26.8263 23.6328 25.8255 23.6328 24.5908V2.23559C23.6328 1.00081 24.6338 0 25.8684 0H28.104V26.8263Z" fill="#AB2538"/>
<path d="M48.2227 10.9141C48.2227 14.6181 45.2201 17.6207 41.5162 17.6207C37.8122 17.6207 34.8096 14.6181 34.8096 10.9141C34.8096 7.21015 37.8122 4.20752 41.5162 4.20752C45.2201 4.20752 48.2227 7.21015 48.2227 10.9141Z" fill="#962437"/>
<path d="M40.2518 8.03659L43.4476 10.4791C43.7342 10.6981 43.7342 11.1299 43.4476 11.3489L40.2518 13.7914C39.8915 14.0668 39.3721 13.8098 39.3721 13.3564V8.47156C39.3721 8.01819 39.8915 7.76124 40.2518 8.03659Z" fill="#F5F0EB"/>
<path d="M54.9304 22.3553H28.104C27.4866 22.3553 26.9863 21.8548 26.9863 21.2376C26.9863 20.6202 27.4868 20.1199 28.104 20.1199H54.9304C55.5478 20.1199 56.0481 20.6204 56.0481 21.2376C56.0481 21.8548 55.5476 22.3553 54.9304 22.3553Z" fill="#F5F0EB"/>
<path d="M52.6949 21.2376C52.6949 23.0895 51.1936 24.5909 49.3416 24.5909C47.4896 24.5909 45.9883 23.0895 45.9883 21.2376C45.9883 19.3856 47.4896 17.8843 49.3416 17.8843C51.1936 17.8843 52.6949 19.3856 52.6949 21.2376Z" fill="#FD92D2"/>
<path d="M50.3476 24.4374C50.03 24.5372 49.692 24.5909 49.3416 24.5909C47.4896 24.5909 45.9883 23.0895 45.9883 21.2376C45.9883 19.3856 47.4896 17.8843 49.3416 17.8843C49.692 17.8843 50.03 17.9381 50.3476 18.0378C48.9871 18.4651 48.0003 19.7361 48.0003 21.2376C48.0003 22.7391 48.9871 24.0101 50.3476 24.4374Z" fill="#FD2AA7"/>
<path d="M19.1611 21.0778C19.1611 24.2527 16.5875 26.8263 13.4126 26.8263C10.2377 26.8263 7.66406 24.2527 7.66406 21.0778C7.66406 17.9029 10.2377 15.3293 13.4126 15.3293C16.5875 15.3293 19.1611 17.9029 19.1611 21.0778Z" fill="#FDED32"/>
<path d="M18.6531 23.4442C17.751 25.4387 15.744 26.8264 13.4126 26.8264C10.2377 26.8264 7.66406 24.2528 7.66406 21.0779C7.66406 18.7465 9.05175 16.7395 11.0463 15.8374C10.72 16.559 10.5383 17.3602 10.5383 18.2037C10.5383 21.3786 13.1119 23.9522 16.2868 23.9522C17.1303 23.9522 17.9315 23.7705 18.6531 23.4442Z" fill="#F5C02C"/>
<path d="M11.4971 20.1198C10.9681 20.1198 10.5391 19.6908 10.5391 19.1617C10.5391 18.6326 10.9681 18.2036 11.4971 18.2036C12.0262 18.2036 12.4552 18.6326 12.4552 19.1617C12.4552 19.6908 12.0262 20.1198 11.4971 20.1198ZM15.3295 18.2036C14.8004 18.2036 14.3714 18.6326 14.3714 19.1617C14.3714 19.6908 14.8004 20.1198 15.3295 20.1198C15.8585 20.1198 16.2876 19.6908 16.2876 19.1617C16.2876 18.6326 15.8585 18.2036 15.3295 18.2036ZM14.9462 22.0359H11.8804C11.6688 22.0359 11.4971 22.2076 11.4971 22.4192V23.3773C11.4971 24.2238 12.1835 24.9102 13.0301 24.9102H13.7965C14.6431 24.9102 15.3295 24.2238 15.3295 23.3773V22.4192C15.3295 22.2076 15.1578 22.0359 14.9462 22.0359Z" fill="#CE9047"/>
<path d="M34.4908 80.958V93.6973C31.823 92.8275 29.2601 91.7253 26.8262 90.4147V80.958C26.8262 79.3707 28.1131 78.0838 29.7004 78.0838H31.6166C33.2039 78.0838 34.4908 79.3707 34.4908 80.958ZM64.2261 89.5808H59.7843C59.5727 89.5808 59.401 89.4091 59.401 89.1975V86.7065C59.401 85.1192 58.1141 83.8323 56.5268 83.8323H52.1196C51.908 83.8323 51.7363 83.6606 51.7363 83.449V80.958C51.7363 79.3707 50.4495 78.0838 48.8621 78.0838H44.4549C44.2434 78.0838 44.0717 77.9121 44.0717 77.7005V62.2754C44.0717 60.688 42.7848 59.4011 41.1974 59.4011H39.2813C37.6939 59.4011 36.407 60.688 36.407 62.2754V94.2767C40.4306 95.3996 44.672 95.9999 49.0537 95.9999C55.4351 95.9999 61.5191 94.7266 67.0657 92.4203C67.0657 90.8522 65.7943 89.5808 64.2261 89.5808Z" fill="#A95947"/>
<path d="M31.6166 78.0838C31.882 78.0838 32.1391 78.1198 32.3831 78.1872C31.1678 78.5226 30.2753 79.6362 30.2753 80.958V92.0934C29.0997 91.5799 27.9492 91.0196 26.8262 90.4149V80.958C26.8262 79.3707 28.1131 78.0838 29.7004 78.0838H31.6166ZM39.2813 59.4011C37.6939 59.4011 36.407 60.688 36.407 62.2754V94.2767C37.54 94.5929 38.6903 94.8677 39.8561 95.0991V62.2754C39.8561 60.9534 40.7487 59.8399 41.9639 59.5046C41.72 59.4371 41.4628 59.4011 41.1974 59.4011H39.2813ZM51.7364 83.449V92.1197C51.7364 93.0722 52.5084 93.8442 53.4609 93.8442C54.4134 93.8442 55.1855 93.0722 55.1855 92.1197V83.8323H52.1196C51.908 83.8323 51.7364 83.6606 51.7364 83.449ZM59.7843 89.5808C59.5727 89.5808 59.401 89.4091 59.401 89.1975V86.7065C59.401 86.5272 59.3845 86.3516 59.3531 86.1815V92.1197C59.3531 93.0722 60.1251 93.8442 61.0777 93.8442C62.0302 93.8442 62.8022 93.0722 62.8022 92.1197V89.5808H59.7843ZM44.0717 77.7005V92.1197C44.0717 93.0722 44.8437 93.8442 45.7962 93.8442C46.7488 93.8442 47.5208 93.0722 47.5208 92.1197V78.0838H44.4549C44.2434 78.0838 44.0717 77.9121 44.0717 77.7005Z" fill="#7D402D"/>
<path d="M32.5755 82.3952V83.9282C32.5755 84.1397 32.4038 84.3114 32.1923 84.3114H29.1264C28.9149 84.3114 28.7432 84.1397 28.7432 83.9282V82.3952C28.7432 81.3369 29.601 80.4791 30.6593 80.4791C31.7176 80.4791 32.5755 81.3369 32.5755 82.3952ZM40.2402 61.3174C39.1819 61.3174 38.324 62.1753 38.324 63.2335V64.7665C38.324 64.978 38.4957 65.1497 38.7072 65.1497H41.7731C41.9846 65.1497 42.1563 64.978 42.1563 64.7665V63.2335C42.1563 62.1753 41.2985 61.3174 40.2402 61.3174Z" fill="#FFF5F5"/>
</g>
<defs>
<clipPath id="clip0">
<rect width="96" height="96" fill="white"/>
</clipPath>
</defs>
</svg>
