<svg width="96" height="96" viewBox="0 0 96 96" fill="none" xmlns="http://www.w3.org/2000/svg">
<path d="M48 96C73.3706 96 93.9375 75.4331 93.9375 50.0625C93.9375 24.6919 73.3706 4.125 48 4.125C22.6294 4.125 2.0625 24.6919 2.0625 50.0625C2.0625 75.4331 22.6294 96 48 96Z" fill="#73C3F9"/>
<path d="M40.6496 71.0484C43.0215 71.0484 45.2066 72.2413 46.4949 74.2396C46.5266 74.2889 46.5799 74.3206 46.6384 74.3249C46.6431 74.3253 46.6479 74.3255 46.6526 74.3255C46.7062 74.3255 46.7574 74.3026 46.7931 74.2621C48.7243 72.0776 51.5008 70.8247 54.4106 70.8247C55.4021 70.8247 56.3599 70.9698 57.2664 71.2359L53.9203 62.6587H42.0804L38.6978 71.3294C39.3174 71.1476 39.972 71.0484 40.6496 71.0484Z" fill="#D9EAFC"/>
<path d="M43.6235 62.6587H42.08L38.6973 71.3294C39.2238 71.1751 39.7765 71.0846 40.3461 71.0594L43.6235 62.6587Z" fill="#AEC1ED"/>
<path d="M37.0475 79.9111C37.055 79.9606 37.0818 80.0051 37.1221 80.0347C37.1543 80.0585 37.1933 80.0711 37.2329 80.0711C37.2426 80.0711 37.2526 80.0703 37.2623 80.0688C37.9317 79.9623 38.6039 79.9083 39.2601 79.9083C42.4662 79.9083 45.5245 81.113 47.8722 83.3004C47.9082 83.334 47.9542 83.3506 48.0001 83.3506C48.046 83.3506 48.092 83.334 48.128 83.3004C50.4755 81.113 53.534 79.9083 56.74 79.9083C57.3961 79.9083 58.0685 79.9623 58.7378 80.0688C58.7478 80.0703 58.7575 80.0711 58.7673 80.0711C58.8068 80.0711 58.8458 80.0585 58.8781 80.0347C58.9184 80.0051 58.9452 79.9606 58.9527 79.9111C59.2992 77.579 60.1769 75.3703 61.4937 73.4426C59.6416 71.7041 57.1514 70.6372 54.4103 70.6372C51.3209 70.6372 48.5493 71.9921 46.6523 74.138C45.3818 72.1672 43.169 70.8609 40.6495 70.8609C38.2328 70.8609 36.0983 72.063 34.8066 73.9006C35.956 75.7173 36.7281 77.7615 37.0475 79.9111Z" fill="#000080"/>
<path d="M37.2334 79.8835C36.105 72.2879 29.5581 66.4602 21.6486 66.4602C16.1577 66.4602 11.3247 69.2697 8.50391 73.5284C12.8228 80.7822 19.0836 86.7425 26.5684 90.698C27.3688 85.1543 31.7149 80.7603 37.2334 79.8835Z" fill="#000099"/>
<path d="M23.2221 68.3976C27.2406 68.3976 30.9242 69.823 33.8018 72.1921C30.9118 68.6924 26.542 66.4602 21.6486 66.4602C16.1577 66.4602 11.3247 69.2697 8.50391 73.5284C8.87647 74.1541 9.26459 74.7696 9.66566 75.3756C12.688 71.152 17.6322 68.3976 23.2221 68.3976Z" fill="#000066"/>
<path d="M74.3519 66.4602C66.4424 66.4602 59.8955 72.2881 58.7671 79.8835C64.2856 80.7603 68.6316 85.1543 69.4321 90.698C76.9167 86.7425 83.1777 80.782 87.4966 73.5284C84.6758 69.2697 79.8428 66.4602 74.3519 66.4602Z" fill="#000099"/>
<path d="M75.3042 66.4895C74.9888 66.4707 74.6712 66.4602 74.3509 66.4602C66.4414 66.4602 59.8945 72.2881 58.7661 79.8835C59.3541 79.9769 59.9279 80.1126 60.4862 80.2831C62.0541 73.1058 67.9499 67.5481 75.3042 66.4895Z" fill="#000066"/>
<path d="M56.7392 79.7207C53.3612 79.7207 50.2901 81.0287 47.9995 83.163C45.7088 81.0285 42.6377 79.7207 39.2597 79.7207C32.8031 79.7207 27.4622 84.4918 26.5669 90.7003C32.9659 94.0823 40.2581 96 47.9995 96C55.7408 96 63.033 94.0823 69.432 90.7003C68.5367 84.4918 63.1958 79.7207 56.7392 79.7207Z" fill="#000066"/>
<path d="M41.9408 81.3152C43.7098 81.3152 45.3981 81.6593 46.9433 82.2831C44.8015 80.6764 42.1433 79.7207 39.2597 79.7207C32.8031 79.7207 27.4622 84.4918 26.5669 90.7003C27.3212 91.0989 28.0883 91.4766 28.8666 91.8336C30.1804 85.8195 35.5324 81.3152 41.9408 81.3152Z" fill="#00004D"/>
<path d="M52.224 62.6587H49.3892L49.7509 65.5201C49.8482 66.2908 50.5528 66.8358 51.3223 66.7389C52.0927 66.6414 52.6385 65.9379 52.541 65.1674L52.224 62.6587Z" fill="#AEC1ED"/>
<path d="M43.7759 62.6586L43.0322 68.5424C42.9349 69.3128 43.4805 70.0165 44.2512 70.1138C44.311 70.1213 44.3704 70.1251 44.4293 70.1251C45.1274 70.1249 45.733 69.6055 45.8228 68.8949L46.611 62.6584H43.7759V62.6586Z" fill="#AEC1ED"/>
<path d="M33.583 36.697C33.583 35.168 33.6404 33.643 33.7477 32.1292C29.2364 34.6696 26.1284 40.3291 26.1284 46.8813C26.1284 50.3418 26.9889 53.642 28.6165 56.425C28.7694 56.6864 29.0459 56.8359 29.3332 56.8359C29.4382 56.8359 29.5445 56.816 29.6467 56.7742C31.7859 55.8997 34.0719 55.4504 36.4424 55.4317C34.5706 49.6702 33.583 43.2359 33.583 36.697Z" fill="#FE3745"/>
<path d="M28.2543 46.8813C28.2543 41.4695 30.3759 36.6687 33.6558 33.7295C33.6809 33.1949 33.71 32.6613 33.7477 32.1292C29.2364 34.6696 26.1284 40.3291 26.1284 46.8813C26.1284 50.3418 26.9889 53.642 28.6165 56.425C28.7694 56.6864 29.0459 56.8359 29.3332 56.8359C29.4382 56.8359 29.5445 56.816 29.6467 56.7742C29.9992 56.63 30.3573 56.5017 30.7175 56.3808C29.1063 53.6069 28.2543 50.3236 28.2543 46.8813Z" fill="#B7092B"/>
<path d="M62.253 32.1292C62.3603 33.6432 62.4177 35.1682 62.4177 36.697C62.4177 43.2357 61.4301 49.67 59.5581 55.4317C61.9289 55.4504 64.2147 55.8997 66.3539 56.7742C66.456 56.816 66.5625 56.8359 66.6674 56.8359C66.9548 56.8359 67.2312 56.6862 67.384 56.425C69.0119 53.642 69.8721 50.3418 69.8721 46.8813C69.8723 40.3291 66.7643 34.6696 62.253 32.1292Z" fill="#FE3745"/>
<path d="M40.8203 57.5859V61.9086C40.8203 62.4242 41.2422 62.8461 41.7578 62.8461H54.2421C54.7577 62.8461 55.1796 62.4242 55.1796 61.9086V57.5859H40.8203Z" fill="#FE3745"/>
<path d="M44.0091 61.9086V57.5859H40.8203V61.9086C40.8203 62.4242 41.2422 62.8461 41.7578 62.8461H44.9466C44.431 62.8461 44.0091 62.4242 44.0091 61.9086Z" fill="#B7092B"/>
<path d="M59.4099 16.9346H36.5895C34.4981 22.9633 33.395 29.7489 33.395 36.6969C33.395 43.9198 34.593 51.0194 36.8591 57.2281C36.9787 57.5555 37.29 57.7734 37.6385 57.7734H58.3608C58.7094 57.7734 59.0208 57.5555 59.1403 57.2281C61.4064 51.0194 62.6043 43.9198 62.6043 36.6969C62.6045 29.7489 61.5015 22.9634 59.4099 16.9346Z" fill="#EEF6FF"/>
<path d="M39.5163 57.2281C37.25 51.0194 36.0523 43.9198 36.0523 36.6969C36.0523 29.7489 37.1553 22.9633 39.2467 16.9346H36.5895C34.4981 22.9633 33.395 29.7489 33.395 36.6969C33.395 43.9198 34.593 51.0194 36.8591 57.2281C36.9787 57.5555 37.29 57.7734 37.6385 57.7734H40.2958C39.9472 57.7734 39.636 57.5555 39.5163 57.2281Z" fill="#D9EAFC"/>
<path d="M42.5962 16.9346V20.0459C42.5962 20.5616 43.0181 20.9834 43.5337 20.9834H52.4666C52.9822 20.9834 53.4041 20.5616 53.4041 20.0459V16.9346H42.5962Z" fill="#EA2A3D"/>
<path d="M44.7221 20.0459V16.9346H42.5962V20.0459C42.5962 20.5616 43.0181 20.9834 43.5337 20.9834H45.6596C45.1439 20.9834 44.7221 20.5616 44.7221 20.0459Z" fill="#B7092B"/>
<path d="M48.0003 0C47.8152 0 47.6303 0.0616875 47.4781 0.184875C43.2897 3.57656 39.7617 8.72156 37.276 15.0637C37.0117 15.7386 36.7632 16.4267 36.5249 17.1221H59.4755C59.2371 16.4267 58.9887 15.7386 58.7243 15.0637C56.2386 8.72156 52.7108 3.57656 48.5223 0.184875C48.3702 0.0616875 48.1853 0 48.0003 0Z" fill="#FE3745"/>
<path d="M49.3289 0.86775C49.0628 0.633187 48.7942 0.405 48.5225 0.184875C48.3702 0.0616875 48.1853 0 48.0003 0C47.8152 0 47.6303 0.0616875 47.4781 0.184875C43.2897 3.57656 39.7617 8.72156 37.276 15.0637C37.0117 15.7386 36.7632 16.4267 36.5249 17.1221H39.1822C39.4205 16.4267 39.6689 15.7386 39.9333 15.0637C42.2579 9.13294 45.4938 4.25006 49.3289 0.86775Z" fill="#B7092B"/>
<path d="M47.9999 43.4907C53.2831 43.4907 57.5661 39.2077 57.5661 33.9244C57.5661 28.6411 53.2831 24.3582 47.9999 24.3582C42.7166 24.3582 38.4336 28.6411 38.4336 33.9244C38.4336 39.2077 42.7166 43.4907 47.9999 43.4907Z" fill="#445EA0"/>
<path d="M48.0004 40.0615C51.3898 40.0615 54.1374 37.3138 54.1374 33.9244C54.1374 30.535 51.3898 27.7874 48.0004 27.7874C44.6109 27.7874 41.8633 30.535 41.8633 33.9244C41.8633 37.3138 44.6109 40.0615 48.0004 40.0615Z" fill="#69CDFF"/>
<path d="M44.1131 33.9247C44.1131 36.9297 46.2733 39.4287 49.1253 39.9573C48.7605 40.0248 48.3849 40.0619 48.0003 40.0619C44.6107 40.0619 41.8633 37.3141 41.8633 33.9247C41.8633 30.5352 44.6109 27.7876 48.0003 27.7876C48.3847 27.7876 48.7605 27.8247 49.1253 27.8922C46.2733 28.4208 44.1131 30.9196 44.1131 33.9247Z" fill="#52BBEF"/>
<path d="M20.6506 33.5133C20.4355 33.5133 20.2417 33.3837 20.1594 33.1849C19.1125 30.6576 18.3408 29.8861 15.8135 28.8393C15.6147 28.7569 15.4854 28.5631 15.4854 28.348C15.4854 28.1329 15.6149 27.9391 15.8135 27.8568C18.341 26.8096 19.1125 26.0378 20.1594 23.5107C20.2417 23.3119 20.4355 23.1824 20.6506 23.1824C20.8657 23.1824 21.0595 23.3119 21.1419 23.5107C22.1889 26.0378 22.9606 26.8096 25.4879 27.8568C25.6867 27.9391 25.8162 28.1329 25.8162 28.348C25.8162 28.5631 25.6867 28.7571 25.4879 28.8393C22.9606 29.8859 22.1889 30.6576 21.1419 33.1849C21.0595 33.3837 20.8657 33.5133 20.6506 33.5133Z" fill="#FFFAF2"/>
<path d="M21.2223 32.1219C20.1755 29.5945 19.4037 28.823 16.8764 27.7762C16.7515 27.7246 16.6542 27.6286 16.5989 27.5112C16.3563 27.6249 16.0975 27.7389 15.8135 27.8566C15.6147 27.9389 15.4854 28.1328 15.4854 28.3479C15.4854 28.5629 15.6149 28.757 15.8135 28.8391C18.3408 29.8859 19.1125 30.6575 20.1594 33.1848C20.2417 33.3835 20.4355 33.5131 20.6506 33.5131C20.8657 33.5131 21.0595 33.3835 21.1419 33.1848C21.2594 32.9007 21.3736 32.642 21.487 32.3995C21.3699 32.3442 21.274 32.2467 21.2223 32.1219Z" fill="#FFD899"/>
<path d="M77.1507 37.7632C76.9617 37.7632 76.7912 37.6494 76.7189 37.4747C75.7988 35.2532 75.1204 34.575 72.8989 33.6549C72.7244 33.5827 72.6104 33.4121 72.6104 33.2231C72.6104 33.0339 72.7242 32.8637 72.8989 32.7913C75.1206 31.8709 75.7988 31.1925 76.7189 28.9712C76.7912 28.7964 76.9617 28.6826 77.1507 28.6826C77.3397 28.6826 77.5101 28.7964 77.5825 28.9712C78.5027 31.1927 79.1811 31.8709 81.4028 32.7913C81.5774 32.8637 81.6912 33.0339 81.6912 33.2231C81.6912 33.4121 81.5774 33.5826 81.4026 33.6549C79.1811 34.575 78.5027 35.2532 77.5825 37.4747C77.5103 37.6492 77.3399 37.7632 77.1507 37.7632Z" fill="#FFFAF2"/>
<path d="M77.6529 36.5404C76.7326 34.3189 76.0544 33.6407 73.8327 32.7204C73.7231 32.675 73.6374 32.5909 73.5888 32.4875C73.3756 32.5873 73.148 32.6876 72.8984 32.7911C72.7239 32.8635 72.6099 33.0337 72.6099 33.2229C72.6099 33.4119 72.7237 33.5824 72.8984 33.6547C75.1201 34.5748 75.7983 35.253 76.7184 37.4745C76.7908 37.6492 76.9612 37.7631 77.1502 37.7631C77.3392 37.7631 77.5096 37.6492 77.582 37.4745C77.6853 37.2249 77.7856 36.9973 77.8856 36.7841C77.7826 36.7357 77.6984 36.6501 77.6529 36.5404Z" fill="#FFD899"/>
<path d="M72.2757 18.0132C72.0554 18.0132 71.8568 17.8804 71.7724 17.677C70.7003 15.0884 69.91 14.2981 67.3214 13.2261C67.1179 13.1419 66.9854 12.9432 66.9854 12.7231C66.9854 12.5026 67.1181 12.3042 67.3214 12.2198C69.9102 11.1473 70.7005 10.357 71.7724 7.76875C71.8568 7.56512 72.0554 7.43237 72.2757 7.43237C72.496 7.43237 72.6945 7.56512 72.7789 7.76875C73.8512 10.3572 74.6415 11.1475 77.2302 12.2198C77.4336 12.3042 77.5662 12.5026 77.5662 12.7231C77.5662 12.9432 77.4334 13.1419 77.23 13.2261C74.6414 14.2981 73.8512 15.0886 72.7787 17.677C72.6945 17.8804 72.496 18.0132 72.2757 18.0132Z" fill="#FFFAF2"/>
<path d="M72.8609 16.5884C71.7886 14 70.9983 13.2096 68.4097 12.1375C68.2818 12.0846 68.1822 11.9864 68.1254 11.8662C67.8772 11.9826 67.6119 12.0995 67.3209 12.2198C67.1174 12.3042 66.9849 12.5026 66.9849 12.7231C66.9849 12.9432 67.1176 13.142 67.3209 13.2261C69.9095 14.2983 70.7 15.0886 71.7719 17.677C71.8563 17.8805 72.0549 18.0132 72.2752 18.0132C72.4955 18.0132 72.6941 17.8805 72.7784 17.677C72.899 17.386 73.0158 17.1209 73.1321 16.8726C73.0119 16.816 72.9138 16.7163 72.8609 16.5884Z" fill="#FFD899"/>
</svg>
