<svg width="96" height="96" viewBox="0 0 96 96" fill="none" xmlns="http://www.w3.org/2000/svg">
<path d="M10.1051 77.1876C9.97275 77.1876 9.8475 77.1259 9.76744 77.0205C3.63994 68.9604 0 58.9059 0 48C0 21.4903 21.4903 0 48 0C74.5097 0 96 21.4903 96 48C96 58.7196 92.4836 68.6162 86.5447 76.6052C86.2706 76.974 85.8349 77.1874 85.3755 77.1874L10.1051 77.1876ZM14.6312 82.5C23.2687 90.8561 35.0329 96 48 96C60.9671 96 72.7313 90.8561 81.3688 82.5H14.6312Z" fill="#73C3F9"/>
<path d="M15.3795 80.625H80.4977C81.5217 80.625 82.0212 81.8722 81.2835 82.5823C79.1513 84.6347 76.83 86.4919 74.3477 88.125H21.6535C19.1363 86.4688 16.7854 84.5814 14.629 82.494C13.9264 81.8139 14.4015 80.625 15.3795 80.625Z" fill="#73C3F9"/>
<path d="M84.75 28.125H11.625C10.5894 28.125 9.75 27.2856 9.75 26.25V15C9.75 13.9644 10.5894 13.125 11.625 13.125H84.75C85.7856 13.125 86.625 13.9644 86.625 15V26.25C86.625 27.2856 85.7856 28.125 84.75 28.125Z" fill="#FF784B"/>
<path d="M9.75 22.5H86.625V76.4985C85.0403 78.6427 83.2811 80.6499 81.3688 82.5H14.6312C12.8683 80.7945 11.2359 78.9553 9.75 76.9984V22.5Z" fill="#E1FFFA"/>
<path d="M16.875 82.5H14.6312C12.8683 80.7945 11.2359 78.9553 9.75 76.9984V22.5H16.875V82.5Z" fill="#C8FFFA"/>
<path d="M17.25 17.813C17.25 18.8486 16.4106 19.688 15.375 19.688C14.3394 19.688 13.5 18.8486 13.5 17.813C13.5 16.7774 14.3394 15.938 15.375 15.938C16.4106 15.938 17.25 16.7774 17.25 17.813ZM26.625 15.938C25.5894 15.938 24.75 16.7774 24.75 17.813C24.75 18.8486 25.5894 19.688 26.625 19.688C27.6606 19.688 28.5 18.8486 28.5 17.813C28.5 16.7774 27.6606 15.938 26.625 15.938ZM21 15.938C19.9644 15.938 19.125 16.7774 19.125 17.813C19.125 18.8486 19.9644 19.688 21 19.688C22.0356 19.688 22.875 18.8486 22.875 17.813C22.875 16.7774 22.0356 15.938 21 15.938Z" fill="#FF5019"/>
<path d="M64.125 64.6875V66.5625C64.125 67.0802 63.7052 67.5 63.1875 67.5H32.8125C32.2948 67.5 31.875 67.0802 31.875 66.5625V64.6875C31.875 64.1698 32.2948 63.75 32.8125 63.75H63.1875C63.7052 63.75 64.125 64.1698 64.125 64.6875ZM71.4375 46.875H24.5625C23.5269 46.875 22.6875 47.7144 22.6875 48.75V52.5C22.6875 53.5356 23.5269 54.375 24.5625 54.375H71.4375C72.4731 54.375 73.3125 53.5356 73.3125 52.5V48.75C73.3125 47.7144 72.4731 46.875 71.4375 46.875Z" fill="#8CEBEB"/>
<path d="M73.5 48.75V52.5C73.5 52.7917 73.4314 53.0668 73.3125 53.3132V52.5C73.3125 51.4644 72.4731 50.625 71.4375 50.625H24.5625C23.8187 50.625 23.178 51.0591 22.875 51.6868V48.75C22.875 47.7144 23.7144 46.875 24.75 46.875H71.625C72.6606 46.875 73.5 47.7144 73.5 48.75ZM53.8125 71.25H42.1875C41.6698 71.25 41.25 71.6698 41.25 72.1875V74.0625C41.25 74.5802 41.6698 75 42.1875 75H53.8125C54.3302 75 54.75 74.5802 54.75 74.0625V72.1875C54.75 71.6698 54.3302 71.25 53.8125 71.25Z" fill="#64D2CD"/>
<path d="M60.2456 54.3751H47.0231L21.1517 28.5037C20.4195 27.7715 20.4195 26.5842 21.1517 25.852L41.0391 5.96467C41.7712 5.23248 42.9585 5.23248 43.6907 5.96467L74.8476 37.1215C75.5797 37.8537 75.5797 39.041 74.8476 39.7732L60.2456 54.3751Z" fill="#FFF573"/>
<path d="M74.8487 37.1213C74.9402 37.2128 75.0204 37.3115 75.0889 37.4155C75.0203 37.3115 74.9402 37.2128 74.8487 37.1213ZM75.0889 39.4788C75.0203 39.5826 74.9402 39.6815 74.8487 39.773C74.9402 39.6815 75.0203 39.5828 75.0889 39.4788ZM75.0889 37.4155C75.1391 37.4916 75.1811 37.5713 75.2192 37.6525C75.1811 37.5713 75.1393 37.4916 75.0889 37.4155ZM47.8464 30.5855L37.0628 9.94189L34.4111 12.5935L45.195 33.2369C45.7269 34.2552 46.5579 35.0862 47.5763 35.6181L68.2196 46.402L70.8713 43.7504L50.2279 32.9665C49.2096 32.4346 48.3786 31.6036 47.8464 30.5855Z" fill="#FFE13C"/>
</svg>
