<svg width="96" height="96" viewBox="0 0 96 96" fill="none" xmlns="http://www.w3.org/2000/svg">
<path d="M48 96C74.5097 96 96 74.5097 96 48C96 21.4903 74.5097 0 48 0C21.4903 0 0 21.4903 0 48C0 74.5097 21.4903 96 48 96Z" fill="#73C3F9"/>
<path d="M70.3945 64.1488L60.2235 53.8886C62.0971 50.8551 63.0785 47.3756 63.0785 43.6284C63.0785 32.7436 54.2458 23.9109 43.361 23.9109C32.4763 23.9109 23.6436 32.7436 23.6436 43.6284C23.6436 54.5131 32.4763 63.3458 43.361 63.3458C47.3759 63.3458 51.0339 62.186 54.1566 60.1339L64.2384 70.2157C66.3796 72.357 69.4131 72.7138 71.1083 71.0187C72.8926 69.3235 72.5358 66.2008 70.3945 64.1488Z" fill="#000066"/>
<path d="M71.197 70.9295C72.8922 69.2343 72.5353 66.2009 70.3941 64.0596L60.223 53.8886C62.0967 50.8551 63.0781 47.3756 63.0781 43.6284C63.0781 32.7436 54.2453 23.9109 43.3606 23.9109C37.9182 23.9109 33.0112 26.1414 29.4424 29.7101L70.9294 71.1972C71.0186 71.1079 71.1078 71.0187 71.197 70.9295Z" fill="#000099"/>
<path d="M43.4493 57.9926C51.3825 57.9926 57.8136 51.5614 57.8136 43.6282C57.8136 35.695 51.3825 29.2639 43.4493 29.2639C35.5161 29.2639 29.085 35.695 29.085 43.6282C29.085 51.5614 35.5161 57.9926 43.4493 57.9926Z" fill="#FFFAF2"/>
<path d="M40.2374 29.71C33.9028 31.1375 29.085 36.8475 29.085 43.7174C29.085 50.4981 33.8136 56.2081 40.2374 57.7248C46.5719 56.2973 51.3898 50.5873 51.3898 43.7174C51.3006 36.8475 46.5719 31.1375 40.2374 29.71Z" fill="#FFF4E4"/>
</svg>
