<svg width="96" height="96" viewBox="0 0 96 96" fill="none" xmlns="http://www.w3.org/2000/svg">
<path d="M48 96C74.5097 96 96 74.5097 96 48C96 21.4903 74.5097 0 48 0C21.4903 0 0 21.4903 0 48C0 74.5097 21.4903 96 48 96Z" fill="#73C3F9"/>
<path d="M34.6659 41.9392C35.7369 41.9392 36.6052 41.0709 36.6052 39.9999C36.6052 38.9288 35.7369 38.0605 34.6659 38.0605C33.5948 38.0605 32.7266 38.9288 32.7266 39.9999C32.7266 41.0709 33.5948 41.9392 34.6659 41.9392Z" fill="#73C3F9"/>
<path d="M56.7657 53.2296C59.6539 53.2296 61.9953 50.8883 61.9953 48.0001C61.9953 45.1119 59.6539 42.7705 56.7657 42.7705C53.8775 42.7705 51.5361 45.1119 51.5361 48.0001C51.5361 50.8883 53.8775 53.2296 56.7657 53.2296Z" fill="#000099"/>
<path d="M74.5626 53.2296C77.4508 53.2296 79.7921 50.8883 79.7921 48.0001C79.7921 45.1119 77.4508 42.7705 74.5626 42.7705C71.6744 42.7705 69.333 45.1119 69.333 48.0001C69.333 50.8883 71.6744 53.2296 74.5626 53.2296Z" fill="#000099"/>
<path d="M56.7676 42.7705C59.6556 42.7705 61.9971 45.1116 61.9971 48.0001C61.9971 50.8885 59.656 53.2296 56.7676 53.2296V42.7705Z" fill="#000066"/>
<path d="M74.5625 42.7705C77.4506 42.7705 79.7921 45.1116 79.7921 48.0001C79.7921 50.8885 77.4509 53.2296 74.5625 53.2296V42.7705Z" fill="#000066"/>
<path d="M24.2296 53.4591C27.1178 53.4591 29.4591 51.1178 29.4591 48.2296C29.4591 45.3414 27.1178 43 24.2296 43C21.3414 43 19 45.3414 19 48.2296C19 51.1178 21.3414 53.4591 24.2296 53.4591Z" fill="#000099"/>
<path d="M42.0264 53.4591C44.9146 53.4591 47.256 51.1178 47.256 48.2296C47.256 45.3414 44.9146 43 42.0264 43C39.1382 43 36.7969 45.3414 36.7969 48.2296C36.7969 51.1178 39.1382 53.4591 42.0264 53.4591Z" fill="#000099"/>
<path d="M24.2314 43C27.1195 43 29.461 45.3411 29.461 48.2296C29.461 51.118 27.1199 53.4591 24.2314 53.4591V43Z" fill="#000066"/>
<path d="M42.0264 43C44.9144 43 47.2559 45.3411 47.2559 48.2296C47.2559 51.118 44.9148 53.4591 42.0264 53.4591V43Z" fill="#000066"/>
</svg>
