<svg width="96" height="96" viewBox="0 0 96 96" fill="none" xmlns="http://www.w3.org/2000/svg">
<path opacity="0.1" d="M47.4482 46.8293V49.1168C49.1507 49.4468 48.6782 48.2168 47.4482 46.8293Z" fill="black"/>
<path d="M48 96C74.5097 96 96 74.5097 96 48C96 21.4903 74.5097 0 48 0C21.4903 0 0 21.4903 0 48C0 74.5097 21.4903 96 48 96Z" fill="#73C3F9"/>
<path opacity="0.1" d="M92.5215 50.7424C91.899 49.9324 91.1565 49.2049 90.3165 48.6199L55.134 13.2124C55.119 13.1899 55.0965 13.1749 55.0815 13.1524L54.984 13.0624V13.0699C53.1765 11.3149 50.7165 10.2349 48.0015 10.2349C42.4515 10.2349 37.944 14.7349 37.944 20.2924C37.944 22.9024 38.9415 25.2799 40.5765 27.0649C40.7565 27.2599 40.9515 27.4549 41.1465 27.6349L46.149 32.6374C45.669 33.0124 45.0765 33.2524 44.424 33.2524H38.559C35.949 33.2524 33.834 35.3749 33.834 37.9774C33.834 39.1999 34.299 40.3098 35.064 41.1499H35.0565L35.1315 41.2249C35.1915 41.2924 35.259 41.3599 35.3265 41.4199L45.234 51.2974C44.304 52.0999 43.719 53.2849 43.719 54.6049V55.9099C39.879 56.2099 36.639 58.6549 35.2065 62.0449V62.0524C34.6965 63.2524 34.4115 64.5799 34.4115 65.9749V75.6573C34.4115 78.0274 35.2365 80.2098 36.609 81.9348H36.6015L36.624 81.9574C37.0965 82.5498 37.629 83.0824 38.2215 83.5549L50.5947 95.9281C73.9499 94.6841 92.8608 76.7436 95.6363 53.8271L92.529 50.7198L92.5215 50.7424Z" fill="black"/>
<path d="M45.3306 60.4985H43.7164V54.6018C43.7164 52.1844 45.683 50.2178 48.0998 50.2178H56.803C58.873 50.2178 60.5571 48.5336 60.5571 46.4636C60.5571 44.393 58.873 42.7088 56.803 42.7088H38.5594C35.9521 42.7088 33.8311 40.5878 33.8311 37.9799C33.8311 35.3727 35.9521 33.2516 38.5594 33.2516H44.4245C45.9516 33.2516 47.1944 32.0088 47.1944 30.4817V25.9104H48.8085V30.4817C48.8085 32.8991 46.8419 34.8657 44.4245 34.8657H38.5594C36.8424 34.8657 35.4452 36.263 35.4452 37.9799C35.4452 39.6975 36.8424 41.0947 38.5594 41.0947H56.803C59.7633 41.0947 62.1713 43.5033 62.1713 46.4636C62.1713 49.4239 59.7633 51.8319 56.803 51.8319H48.0998C46.5727 51.8319 45.3306 53.0747 45.3306 54.6018V60.4985Z" fill="#EDEDED"/>
<path d="M44.5234 85.7531C38.9407 85.7531 34.415 81.2275 34.415 75.6448V75.6556C34.415 81.2383 38.9407 85.764 44.5234 85.764H44.5235C50.1061 85.764 54.6318 81.2383 54.6318 75.6556V75.6448C54.6318 81.2275 50.1062 85.7531 44.5234 85.7531Z" fill="#D5D6DB"/>
<path d="M54.6302 65.975V75.6425C54.6302 81.23 50.1076 85.7525 44.5201 85.7525C38.9401 85.7525 34.4102 81.23 34.4102 75.6425V65.975C34.4102 64.58 34.6952 63.2525 35.2052 62.0525V62.045C36.7127 58.475 40.2151 55.9475 44.3177 55.8725C44.3851 55.865 44.4527 55.865 44.5201 55.865C44.5877 55.865 44.6551 55.865 44.7227 55.8725C48.8251 55.9475 52.3277 58.475 53.8351 62.045C53.7227 62.2175 53.6251 62.3975 53.5276 62.5775C53.6327 62.3975 53.7302 62.225 53.8426 62.0525C54.3452 63.2525 54.6302 64.58 54.6302 65.975Z" fill="#344D5B"/>
<path d="M52.4714 66.7756V75.6556C52.4714 80.2466 48.8772 83.9617 44.5234 83.7866C40.1697 83.9617 36.5755 80.2466 36.5755 75.6556V66.7756C36.5755 65.0764 36.086 63.4373 35.2058 62.0486C34.6968 63.2554 34.415 64.5813 34.415 65.9734V75.6448C34.415 81.2275 38.9407 85.7531 44.5234 85.7531C50.1062 85.7531 54.6318 81.2275 54.6318 75.6448V65.9734C54.6318 64.5813 54.3501 63.2554 53.8411 62.0486C52.9609 63.4373 52.4714 65.0764 52.4714 66.7756Z" fill="#293B44"/>
<path d="M48 30.3436C53.5526 30.3436 58.0538 25.8424 58.0538 20.2898C58.0538 14.7373 53.5526 10.2361 48 10.2361C42.4475 10.2361 37.9463 14.7373 37.9463 20.2898C37.9463 25.8424 42.4475 30.3436 48 30.3436Z" fill="#F7BE56"/>
<path d="M47.9996 28.5216C52.546 28.5216 56.2316 24.836 56.2316 20.2896C56.2316 15.7432 52.546 12.0576 47.9996 12.0576C43.4532 12.0576 39.7676 15.7432 39.7676 20.2896C39.7676 24.836 43.4532 28.5216 47.9996 28.5216Z" fill="#FCD462"/>
<path d="M47.6974 26.0118V24.875C47.129 24.8034 46.6669 24.676 46.3111 24.4929C45.9554 24.3097 45.648 24.0139 45.3891 23.6055C45.1301 23.1971 44.9796 22.6982 44.9375 22.1087L46.0806 21.894C46.169 22.5045 46.3248 22.9529 46.548 23.2392C46.868 23.6434 47.2511 23.8687 47.6974 23.915V20.2961C47.2301 20.2077 46.7522 20.0267 46.2638 19.753C45.9017 19.5509 45.6227 19.2709 45.427 18.913C45.2312 18.5551 45.1333 18.1488 45.1333 17.6941C45.1333 16.8857 45.4196 16.231 45.9922 15.7299C46.3753 15.3931 46.9438 15.1868 47.6974 15.111V14.5679H48.3669V15.111C49.0279 15.1742 49.5521 15.3678 49.9395 15.692C50.4363 16.1047 50.7352 16.671 50.8363 17.3909L49.6616 17.5678C49.5942 17.1215 49.4542 16.7794 49.2416 16.5415C49.029 16.3036 48.7374 16.1468 48.3669 16.071V19.3488C48.9395 19.4919 49.3184 19.6035 49.5037 19.6835C49.8573 19.8393 50.1458 20.0288 50.3689 20.2519C50.5921 20.4751 50.7636 20.7403 50.8836 21.0477C51.0036 21.355 51.0636 21.6877 51.0636 22.0456C51.0636 22.8329 50.8131 23.4897 50.3121 24.016C49.811 24.5423 49.1626 24.8244 48.3669 24.8623V26.0118H47.6974ZM47.6974 16.0584C47.2553 16.1257 46.9069 16.3026 46.6522 16.5889C46.3975 16.8752 46.2701 17.2141 46.2701 17.6057C46.2701 17.993 46.3785 18.3172 46.5953 18.5783C46.8122 18.8393 47.1795 19.0477 47.6974 19.2035V16.0584ZM48.3669 23.915C48.809 23.8602 49.1742 23.6687 49.4626 23.3403C49.751 23.0118 49.8952 22.6055 49.8952 22.1213C49.8952 21.7087 49.7931 21.3772 49.5889 21.1266C49.3847 20.8761 48.9774 20.6519 48.3669 20.454V23.915Z" fill="#F7BE56"/>
<path d="M44.5228 55.8679C44.4553 55.8679 44.3878 55.8679 44.3203 55.8754V68.5279H44.7253V55.8754C44.6578 55.8679 44.5903 55.8679 44.5228 55.8679Z" fill="#19282F"/>
<path d="M44.5219 59.6011C43.6258 59.6011 42.8994 60.3275 42.8994 61.2236V64.1532C42.8994 65.0493 43.6258 65.7757 44.5219 65.7757C45.418 65.7757 46.1444 65.0493 46.1444 64.1532V61.2236C46.1444 60.3275 45.418 59.6011 44.5219 59.6011Z" fill="#293B44"/>
</svg>
