<svg width="96" height="96" viewBox="0 0 96 96" fill="none" xmlns="http://www.w3.org/2000/svg">
<g clip-path="url(#clip0)">
<path d="M48 96C74.5097 96 96 74.5097 96 48C96 21.4903 74.5097 0 48 0C21.4903 0 0 21.4903 0 48C0 74.5097 21.4903 96 48 96Z" fill="#73C3F9"/>
<path d="M49.4924 95.9747C75.3114 95.1859 96.0001 74.0102 96.0001 48C96.0001 46.6039 95.9369 45.2227 95.8203 43.857L73.5183 21.5552L23.1543 52.2204L39.7246 68.7907L30.0177 76.5L49.4924 95.9747Z" fill="#84CAFA" fill-opacity="0.95"/>
<path d="M65.479 17.6479H57.2115C54.5682 17.6479 52.1592 18.6511 50.3444 20.2973C49.0212 21.4975 46.9815 21.4975 45.6584 20.2973C43.8434 18.6511 41.4344 17.6479 38.791 17.6479H30.5235C24.876 17.6479 20.2979 22.2261 20.2979 27.8736V45.1339C20.2979 49.0518 22.5021 52.4532 25.737 54.1703V66.9631C25.737 74.0123 31.4517 79.727 38.5009 79.727H43.7224V61.2338C43.7224 58.8708 45.6381 56.9551 48.0012 56.9551C50.3642 56.9551 52.2799 58.8708 52.2799 61.2338V79.727H57.5016C64.5509 79.727 70.2655 74.0123 70.2655 66.9631V54.1703C73.5004 52.4532 75.7047 49.0518 75.7047 45.1339V27.8736C75.7047 22.2261 71.1265 17.6479 65.479 17.6479Z" fill="white"/>
<path d="M65.4782 17.6479H57.2105C54.5672 17.6479 52.1582 18.6511 50.3434 20.2973C49.6607 20.9166 48.7873 21.2136 47.9199 21.1939V56.9571C47.9467 56.9568 47.9734 56.9551 48.0004 56.9551C50.3634 56.9551 52.2791 58.8708 52.2791 61.2338V79.727H57.5008C64.55 79.727 70.2647 74.0123 70.2647 66.9631V54.1701C73.4996 52.453 75.7038 49.0516 75.7038 45.1338V27.8734C75.7038 22.2261 71.1257 17.6479 65.4782 17.6479Z" fill="#E1FFFA"/>
<path d="M62.9815 76.4981C73.7894 76.4981 82.5509 67.7366 82.5509 56.9287C82.5509 46.1209 73.7894 37.3594 62.9815 37.3594C52.1736 37.3594 43.4121 46.1209 43.4121 56.9287C43.4121 67.7366 52.1736 76.4981 62.9815 76.4981Z" fill="white"/>
<path d="M62.9817 37.3594C62.9461 37.3594 62.9106 37.3605 62.875 37.3607V76.4985C62.9106 76.4987 62.9461 76.4998 62.9817 76.4998C73.7901 76.4998 82.552 67.7379 82.552 56.9295C82.552 46.1211 73.7899 37.3594 62.9817 37.3594Z" fill="#E9EDF5"/>
<path d="M74.7949 61.1484V52.7109H67.2012V45.1172H58.7637V52.7107H51.1699V61.1484H58.7637V68.7422H67.2012V61.1484H74.7949Z" fill="#FFFAF2"/>
<path d="M67.2016 52.7109V45.1172H62.876V68.7422H67.2016V61.1484H74.7953V52.7109H67.2016Z" fill="#FFD899"/>
</g>
<defs>
<clipPath id="clip0">
<rect width="96" height="96" fill="white"/>
</clipPath>
</defs>
</svg>
