<svg width="96" height="96" viewBox="0 0 96 96" fill="none" xmlns="http://www.w3.org/2000/svg">
<path d="M95.9951 47.9936C95.9951 74.5002 74.508 95.9873 48.0014 95.9873C21.4949 95.9873 0.0078125 74.5002 0.0078125 47.9936C0.0078125 21.4871 21.4949 0 48.0014 0C74.508 0 95.9951 21.4871 95.9951 47.9936Z" fill="#D3ECFD"/>
<path d="M95.9951 47.9937C95.9951 52.8776 95.2656 57.5907 93.9087 62.0301C92.9655 65.1176 91.7205 68.0726 90.206 70.8619C88.6594 73.7115 86.8315 76.3851 84.7597 78.8502C84.6506 78.9797 84.5422 79.1087 84.4316 79.236C75.6313 89.4917 62.5739 95.9873 48.0014 95.9873C33.429 95.9873 20.3715 89.4917 11.5733 79.236C11.4629 79.1072 11.3523 78.9777 11.2453 78.8479C9.17141 76.3851 7.34353 73.7115 5.79911 70.8619C5.1825 69.7312 4.61201 68.5728 4.08915 67.3878C1.46449 61.4581 0.0078125 54.8965 0.0078125 47.9937C0.0078125 39.3288 2.30438 31.2015 6.32197 24.1843C14.5936 38.633 30.1613 48.3686 48.0014 48.3686C65.8416 48.3686 81.4116 38.633 89.6809 24.1843C93.6985 31.2015 95.9951 39.3288 95.9951 47.9937Z" fill="#73C3F9"/>
<path d="M90.2316 70.8091C88.8892 73.2881 87.3381 75.6351 85.5966 77.8263C84.0149 79.8197 82.2747 81.6826 80.4 83.3986C71.8626 91.2161 60.4881 95.9872 48.0005 95.9872C35.513 95.9872 24.1385 91.2161 15.6011 83.3986C13.7263 81.6826 11.9862 79.8197 10.4045 77.8263C8.66302 75.6351 7.11185 73.2881 5.76953 70.8091H90.2316Z" fill="#40ADF7"/>
<path d="M63.2463 60.855H58.8911C56.4856 60.855 54.5359 62.8047 54.5359 65.2102V76.3886C54.5359 79.9904 51.6047 82.9215 48.0029 82.9215C44.4012 82.9215 41.47 79.9906 41.47 76.3886V65.2102C41.47 62.8047 39.5203 60.855 37.1148 60.855H32.7595C30.354 60.855 28.4043 62.8047 28.4043 65.2102V75.5163C28.4043 85.7468 35.8649 94.9001 46.0461 95.8916C46.7052 95.9556 47.3584 95.9874 48.0029 95.9874C58.0505 95.9859 66.356 88.3889 67.4737 78.6361C67.5579 77.8957 67.6016 77.1451 67.6016 76.3888V65.2104C67.6016 62.8045 65.6518 60.855 63.2463 60.855Z" fill="#EFB8A0"/>
<path d="M63.2455 60.855H58.8902C56.4847 60.855 54.535 62.8047 54.535 65.2102V76.3886C54.535 79.9904 51.6038 82.9216 48.0021 82.9216C44.4003 82.9216 41.4691 79.9906 41.4691 76.3886V65.2102C41.4691 62.8047 39.5194 60.855 37.1139 60.855H39.283C36.8775 60.855 34.9277 62.8047 34.9277 65.2102V75.5163C34.9277 85.7468 39.7254 94.3195 46.045 95.8917C46.6877 96.0516 47.3573 95.9874 48.0019 95.9874C58.0494 95.9859 66.3549 88.3889 67.4727 78.6361C67.5568 77.8957 67.6005 77.1451 67.6005 76.3888V65.2104C67.6007 62.8045 65.651 60.855 63.2455 60.855Z" fill="#E48B90"/>
<path d="M67.6006 65.2102V76.3886C67.6006 77.1451 67.5571 77.8955 67.4727 78.6359C66.3548 88.3887 58.0495 95.9857 48.002 95.9872V82.9215C51.6037 82.9215 54.5349 79.9906 54.5349 76.3886V65.2102C54.5349 62.8047 56.4846 60.855 58.8901 60.855H63.2454C65.6509 60.855 67.6006 62.8045 67.6006 65.2102Z" fill="#E05352"/>
<path d="M41.47 65.2099H28.4043V52.144H41.47V65.2099Z" fill="#FBF5EB"/>
<path d="M67.601 65.2099H54.5352V52.144H67.6008V65.2099H67.601Z" fill="#DCE0EF"/>
<path d="M48.0017 34.7234C44.3992 34.7234 41.4688 31.7929 41.4688 28.1904C41.4688 24.5879 44.3992 21.6575 48.0017 21.6575C51.6042 21.6575 54.5346 24.5879 54.5346 28.1904C54.5346 31.7929 51.604 34.7234 48.0017 34.7234Z" fill="#FBF5EB"/>
<path d="M48.0014 34.7234C44.3989 34.7234 44.52 28.1904 44.52 28.1904C44.52 28.1904 44.3989 21.6575 48.0014 21.6575C51.6039 21.6575 54.5344 24.5879 54.5344 28.1904C54.5344 31.7929 51.6038 34.7234 48.0014 34.7234Z" fill="#F6DBCB"/>
<path d="M58.8916 47.7893H37.1152V45.6116C37.1152 39.6082 42.0001 34.7234 48.0034 34.7234C54.0068 34.7234 58.8916 39.6082 58.8916 45.6116V47.7893Z" fill="#D1EFE4"/>
<path d="M58.8899 47.7893H42.0996V45.6116C42.0996 39.6082 43.7567 34.7234 48.0017 34.7234C54.005 34.7234 58.8899 39.6082 58.8899 45.6116V47.7893Z" fill="#ACE3CE"/>
<path d="M63.2402 36.8474L63.2794 32.492L71.9903 32.5704L71.9511 36.9258L63.2402 36.8474Z" fill="#DCE0EF"/>
<path d="M61.7695 44.2004L63.6464 40.2682L71.5125 44.0226L69.6356 47.9549L61.7695 44.2004Z" fill="#DCE0EF"/>
<path d="M63.7761 29.0155L61.9707 25.0538L69.714 21.6575L71.5196 25.6194L63.7761 29.0155Z" fill="#DCE0EF"/>
<path d="M24.0391 32.561L32.7499 32.4826L32.7891 36.8381L24.0783 36.9165L24.0391 32.561Z" fill="#FBF5EB"/>
<path d="M24.5645 44.053L32.4305 40.2985L34.3074 44.2308L26.4413 47.9852L24.5645 44.053Z" fill="#FBF5EB"/>
<path d="M32.2257 29.0155L24.4824 25.6194L26.2878 21.6575L34.0313 25.0538L32.2257 29.0155Z" fill="#FBF5EB"/>
<path d="M58.8901 47.7893V45.6116C58.8901 39.6082 54.0053 34.7234 48.002 34.7234V47.7891H58.8901V47.7893Z" fill="#98BED0"/>
<path d="M54.5349 28.1904C54.5349 24.5879 51.6045 21.6575 48.002 21.6575V34.7232C51.6045 34.7234 54.5349 31.7929 54.5349 28.1904Z" fill="#ECBEA6"/>
<path d="M82.4132 68.7043H82.1275C80.8613 68.7043 79.8354 67.6775 79.8354 66.412V66.1265H78.2016V66.412C78.2016 67.6775 77.1748 68.7043 75.9093 68.7043H75.623V70.3381H75.9093C77.1748 70.3381 78.2016 71.364 78.2016 72.6302V72.9166H79.8354V72.6302C79.8354 71.364 80.8613 70.3381 82.1275 70.3381H82.4132V68.7043Z" fill="white"/>
<path d="M87.8351 49.1403H87.5494C86.2832 49.1403 85.2573 48.1135 85.2573 46.848V46.5625H83.6235V46.848C83.6235 48.1135 82.5967 49.1403 81.3312 49.1403H81.0449V50.7741H81.3312C82.5967 50.7741 83.6235 51.8 83.6235 53.0662V53.3527H85.2573V53.0662C85.2573 51.8 86.2832 50.7741 87.5494 50.7741H87.8351V49.1403Z" fill="white"/>
<path d="M13.3945 70.3381H13.6802C14.9464 70.3381 15.9723 71.364 15.9723 72.6302V72.9166H17.6062V72.6302C17.6062 71.364 18.633 70.3381 19.8984 70.3381H20.1847V68.7043H19.8984C18.633 68.7043 17.6062 67.6775 17.6062 66.412V66.1265H15.9723V66.412C15.9723 67.6775 14.9464 68.7043 13.6802 68.7043H13.3945V70.3381Z" fill="white"/>
<path d="M7.97266 50.7741H8.25837C9.52457 50.7741 10.5504 51.8 10.5504 53.0662V53.3527H12.1843V53.0662C12.1843 51.8 13.2111 50.7741 14.4765 50.7741H14.7628V49.1403H14.4765C13.2111 49.1403 12.1843 48.1135 12.1843 46.848V46.5625H10.5504V46.848C10.5504 48.1135 9.52457 49.1403 8.25837 49.1403H7.97266V50.7741Z" fill="white"/>
<path d="M41.4718 10.8185H41.1861C39.9199 10.8185 38.894 9.7917 38.894 8.52625V8.24072H37.2602V8.52625C37.2602 9.7917 36.2334 10.8185 34.9679 10.8185H34.6816V12.4524H34.9679C36.2334 12.4524 37.2602 13.4782 37.2602 14.7444V15.0309H38.894V14.7444C38.894 13.4782 39.9199 12.4524 41.1861 12.4524H41.4718V10.8185Z" fill="white"/>
<path d="M61.6163 10.8185H61.3306C60.0644 10.8185 59.0386 9.7917 59.0386 8.52625V8.24072H57.4047V8.52625C57.4047 9.7917 56.3779 10.8185 55.1124 10.8185H54.8262V12.4524H55.1124C56.3779 12.4524 57.4047 13.4782 57.4047 14.7444V15.0309H59.0386V14.7444C59.0386 13.4782 60.0644 12.4524 61.3306 12.4524H61.6163V10.8185Z" fill="white"/>
</svg>
