<svg width="96" height="96" viewBox="0 0 96 96" fill="none" xmlns="http://www.w3.org/2000/svg">
<path d="M48 96C74.5097 96 96 74.5097 96 48C96 21.4903 74.5097 0 48 0C21.4903 0 0 21.4903 0 48C0 74.5097 21.4903 96 48 96Z" fill="#73C3F9"/>
<path d="M95.9997 47.9999C95.9997 45.7602 95.8463 43.5565 95.5495 41.3984L69.1326 14.9817L19.3662 81.0181L31.4003 93.0522C36.5733 94.9587 42.1649 95.9999 47.9997 95.9999C74.5094 95.9999 95.9997 74.5096 95.9997 47.9999Z" fill="#84CAFA" fill-opacity="0.95"/>
<path d="M32.4749 14.9817L28.121 24.1454L19.3662 28.0902V81.0181H69.1327V14.9817H32.4749Z" fill="white"/>
<path d="M44.1826 14.9817H69.1325V81.0181H44.1826V14.9817Z" fill="#E9EDF5"/>
<path d="M32.4757 28.0902L32.4755 14.9817L19.3672 28.0902H32.4757Z" fill="#000066"/>
<path d="M25.5771 59.9941H62.9226V65.6191H25.5771V59.9941Z" fill="#CDD2E1"/>
<path d="M44.1836 59.9941H62.9231V65.6191H44.1836V59.9941Z" fill="#AFB4C8"/>
<path d="M25.5771 49.8538H62.9226V55.4788H25.5771V49.8538Z" fill="#CDD2E1"/>
<path d="M44.1836 49.8538H62.9231V55.4788H44.1836V49.8538Z" fill="#AFB4C8"/>
<path d="M25.5771 39.7136H62.9226V45.3386H25.5771V39.7136Z" fill="#CDD2E1"/>
<path d="M44.1836 39.7136H62.9231V45.3386H44.1836V39.7136Z" fill="#AFB4C8"/>
<path d="M84.2772 69.0855H74.5593L69.1327 66.1727L63.7062 69.0855H53.9883V46.3643L69.1327 35.2769L84.2772 46.3643V69.0855Z" fill="#FFFAF2"/>
<path d="M69.1328 35.28V66.175L74.5594 69.0855H84.2774V46.3643L69.1328 35.28Z" fill="#E9EDF5"/>
<path d="M85.8126 51.7894L69.1329 38.7037L52.4535 51.7894L49.125 47.5468L69.1329 31.8499L89.1409 47.5468L85.8126 51.7894Z" fill="#636978"/>
<path d="M89.1407 47.5468L69.1328 31.8499V38.7037L85.8124 51.7894L89.1407 47.5468Z" fill="#414952"/>
<path d="M63.707 55.4214H74.5601V69.0854H63.707V55.4214Z" fill="#636978"/>
<path d="M69.1328 55.4214H74.5594V69.0854H69.1328V55.4214Z" fill="#414952"/>
</svg>
