<svg width="96" height="96" viewBox="0 0 96 96" fill="none" xmlns="http://www.w3.org/2000/svg">
<path d="M96 48C96 66.7444 85.2544 82.98 69.5869 90.8813C68.6666 91.3463 68.3503 88.5006 66.2385 89.7148C65.3687 90.2149 64.9136 92.9456 63.9619 93.2812C58.9688 95.0419 53.595 96 48 96C45.4969 96 43.0387 95.8088 40.6388 95.4394C39.5574 95.2731 38.523 93.5188 37.4666 93.2812C36.6529 93.0983 35.8118 94.446 35.0138 94.2225C14.8144 88.5581 0 70.0088 0 48C0 21.4912 21.4912 0 48 0C74.5088 0 96 21.4912 96 48Z" fill="#73C3F9"/>
<path d="M37.4661 93.2812C38.5225 93.5187 39.5569 95.273 40.6383 95.4393C43.0383 95.8087 45.4964 95.9999 47.9995 95.9999C53.5945 95.9999 58.9683 95.0418 63.9614 93.2812C64.9131 92.9455 65.3682 90.2148 66.238 89.7147C68.3496 88.5005 68.6659 91.3462 69.5864 90.8812C85.1699 83.0223 95.8825 66.9175 95.9969 48.3005L80.8994 33.203C77.2052 29.2428 68.0279 29.6977 68.0279 29.6977L55.1095 16.7922L21.625 60.599L32.5038 71.4835L28.7493 72.1958L39.5513 82.3855L35.0133 94.2224C35.8113 94.4459 36.6524 93.0982 37.4661 93.2812Z" fill="#67AFE0"/>
<path d="M69.5879 69.3582V90.8813C67.7766 91.7963 65.8979 92.5988 63.9629 93.2813V69.3582H69.5879Z" fill="white"/>
<path d="M69.5879 69.3582V90.8813C68.6673 91.3463 67.7298 91.7832 66.7754 92.1863V69.3582H69.5879Z" fill="#C0FFFA"/>
<path d="M87.4333 50.4363C87.4333 37.3914 78.1848 26.8164 66.7762 26.8164C55.3676 26.8164 46.1191 37.3914 46.1191 50.4363C46.1191 61.478 52.7456 70.749 61.6991 73.3365L59.4093 78.0635C64.2285 79.4088 69.3241 79.4088 74.1433 78.0635L71.8535 73.3365C80.8068 70.749 87.4333 61.4778 87.4333 50.4363Z" fill="#FFE45F"/>
<path d="M71.8529 73.337L74.1423 78.0639C72.646 78.4802 71.1216 78.7689 69.5879 78.9264C68.6541 79.0239 67.7148 79.0727 66.7754 79.0727V26.8164C78.1848 26.8164 87.4323 37.3914 87.4323 50.4358C87.4323 61.4777 80.806 70.7495 71.8529 73.337Z" fill="#FFB531"/>
<path d="M40.6387 63.7236V95.4393C38.7243 95.1449 36.8474 94.7361 35.0137 94.2224V63.7236H40.6387Z" fill="white"/>
<path d="M40.6385 63.7236V95.4393C39.7385 95.3005 38.846 95.1374 37.9629 94.948V63.7236H40.6385Z" fill="#C0FFFA"/>
<path d="M63.2805 38.1551C63.2805 22.0819 51.8848 9.05176 37.8278 9.05176C23.7705 9.05176 12.375 22.0817 12.375 38.1551C12.375 51.7601 20.5397 63.1836 31.5718 66.3716L28.7503 72.1961C34.6882 73.8538 40.9669 73.8538 46.905 72.1961L44.0835 66.3716C55.1158 63.1836 63.2805 51.7601 63.2805 38.1551Z" fill="#6C2AC4"/>
<path d="M44.0829 66.3712L46.9048 72.1969C44.8479 72.7706 42.7498 73.1456 40.6385 73.3219C39.7479 73.3969 38.8554 73.4362 37.9629 73.4381V9.05249C51.9598 9.13687 63.2791 22.1344 63.2791 38.1544C63.2791 51.7594 55.1154 63.1837 44.0829 66.3712Z" fill="#3C1784"/>
<path d="M31.8984 49.6897L41.4292 26.9834L44.0223 28.0719L34.4916 50.7781L31.8984 49.6897Z" fill="white"/>
<path d="M37.263 32.216C37.263 29.0507 34.9588 26.4753 32.1266 26.4753C29.2944 26.4753 26.9902 29.0507 26.9902 32.216C26.9902 35.3814 29.2944 37.9567 32.1266 37.9567C34.9588 37.9567 37.263 35.3816 37.263 32.216ZM29.8027 32.216C29.8027 30.6015 30.8452 29.2878 32.1266 29.2878C33.408 29.2878 34.4505 30.6015 34.4505 32.216C34.4505 33.8306 33.408 35.1442 32.1266 35.1442C30.8452 35.1442 29.8027 33.8308 29.8027 32.216Z" fill="white"/>
<path d="M43.527 40.2283C40.6948 40.2283 38.3906 42.8036 38.3906 45.9691C38.3906 49.1345 40.6948 51.7098 43.527 51.7098C46.3592 51.7098 48.6634 49.1345 48.6634 45.9691C48.6634 42.8036 46.3592 40.2283 43.527 40.2283ZM43.527 48.8973C42.2456 48.8973 41.2031 47.5837 41.2031 45.9691C41.2031 44.3544 42.2456 43.0408 43.527 43.0408C44.8084 43.0408 45.8509 44.3544 45.8509 45.9691C45.8509 47.5837 44.8084 48.8973 43.527 48.8973Z" fill="#C0FFFA"/>
<path d="M44.0248 28.0669L37.9629 42.51V35.2425L41.4316 26.9775L44.0248 28.0669Z" fill="#C0FFFA"/>
</svg>
