<svg width="96" height="96" viewBox="0 0 96 96" fill="none" xmlns="http://www.w3.org/2000/svg">
<g clip-path="url(#clip0)">
<path d="M48 96C74.5097 96 96 74.5097 96 48C96 21.4903 74.5097 0 48 0C21.4903 0 0 21.4903 0 48C0 74.5097 21.4903 96 48 96Z" fill="#73C3F9"/>
<path opacity="0.1" d="M74.9391 21.3979L74.6791 21.1479C74.2391 20.7379 73.6592 20.498 73.0291 20.498H22.9689C21.609 20.498 20.499 21.608 20.499 22.968V73.0279C20.499 73.708 20.7791 74.3279 21.2189 74.7779L42.0686 95.6223C44.0133 95.8619 45.9895 96 47.999 96C74.5088 96 95.999 74.5096 95.999 48C95.999 45.9961 95.8619 44.0254 95.6232 42.0859L74.9689 21.4379L74.9391 21.3979Z" fill="black"/>
<path d="M73.0299 20.5H22.9682C21.6045 20.5 20.499 21.6055 20.499 22.9691V73.0307C20.499 74.3943 21.6045 75.4998 22.9682 75.4998H73.0297C74.3932 75.4998 75.4988 74.3943 75.4988 73.0307V22.9691C75.499 21.6055 74.3934 20.5 73.0299 20.5Z" fill="#64798A"/>
<path d="M71.5 30.7231H24.5V71.5001H71.5V30.7231Z" fill="#EBF0F3"/>
<path d="M58.107 24.05H24.5V26.893H58.107V24.05Z" fill="#EBF0F3"/>
<path d="M71.5 69.9971H24.5V71.5H71.5V69.9971Z" fill="#D5D6DB"/>
<path d="M61.2102 26.89C61.995 26.89 62.6312 26.2538 62.6312 25.4689C62.6312 24.6841 61.995 24.0479 61.2102 24.0479C60.4253 24.0479 59.7891 24.6841 59.7891 25.4689C59.7891 26.2538 60.4253 26.89 61.2102 26.89Z" fill="#FCD462"/>
<path d="M65.6506 26.89C66.4354 26.89 67.0717 26.2538 67.0717 25.4689C67.0717 24.6841 66.4354 24.0479 65.6506 24.0479C64.8657 24.0479 64.2295 24.6841 64.2295 25.4689C64.2295 26.2538 64.8657 26.89 65.6506 26.89Z" fill="#44C4A1"/>
<path d="M70.0803 26.89C70.8651 26.89 71.5014 26.2538 71.5014 25.4689C71.5014 24.6841 70.8651 24.0479 70.0803 24.0479C69.2954 24.0479 68.6592 24.6841 68.6592 25.4689C68.6592 26.2538 69.2954 26.89 70.0803 26.89Z" fill="#E56353"/>
<path d="M34.0246 34.24H27.8477V36.6769H34.0246V34.24Z" fill="#27A2DB"/>
<path d="M44.3166 34.24H38.1396V36.6769H44.3166V34.24Z" fill="#E56353"/>
<path d="M62.6301 34.24H49.4102V36.6769H62.6301V34.24Z" fill="#44C4A1"/>
<path d="M34.0246 54.7749H27.8477V57.2118H34.0246V54.7749Z" fill="#27A2DB"/>
<path d="M44.3166 54.7749H38.1396V57.2118H44.3166V54.7749Z" fill="#E56353"/>
<path d="M62.6301 54.7749H49.4102V57.2118H62.6301V54.7749Z" fill="#44C4A1"/>
<path d="M38.1426 47.928H27.8477V50.3649H38.1426V47.928Z" fill="#FCD462"/>
<path d="M47.468 47.928H41.291V50.3649H47.468V47.928Z" fill="#27A2DB"/>
<path d="M62.6355 47.928H50.6055V50.3649H62.6355V47.928Z" fill="#D5D6DB"/>
<path d="M34.0246 41.0801H27.8477V43.517H34.0246V41.0801Z" fill="#64798A"/>
<path d="M51.5777 41.0801H38.1396V43.517H51.5777V41.0801Z" fill="#64798A"/>
<path d="M62.6311 41.0801H55.3701V43.517H62.6311V41.0801Z" fill="#E56353"/>
<path d="M34.0246 61.6199H27.8477V64.0568H34.0246V61.6199Z" fill="#44C4A1"/>
<path d="M51.5777 61.6199H38.1396V64.0568H51.5777V61.6199Z" fill="#64798A"/>
<path d="M62.6311 61.6199H55.3701V64.0568H62.6311V61.6199Z" fill="#E56353"/>
<path opacity="0.25" d="M47.0705 60.0153C52.5029 60.0153 56.9066 55.6115 56.9066 50.1791C56.9066 44.7468 52.5029 40.343 47.0705 40.343C41.6382 40.343 37.2344 44.7468 37.2344 50.1791C37.2344 55.6115 41.6382 60.0153 47.0705 60.0153Z" fill="#27A2DB"/>
<path d="M54.8931 60.393L56.9446 62.4445L59.3337 60.0555L57.2821 58.0039C61.1585 52.9551 60.7974 45.6982 56.1749 41.0756C51.1464 36.047 42.9932 36.047 37.9647 41.0758C32.9362 46.1045 32.9362 54.2572 37.9649 59.2857C42.5874 63.9084 49.844 64.2693 54.8931 60.393ZM40.1149 57.1355C36.2739 53.2945 36.2739 47.0668 40.1149 43.2258C43.9559 39.3845 50.1837 39.3847 54.0247 43.2258C57.8657 47.0668 57.8657 53.2943 54.0247 57.1355C50.1835 60.9766 43.9559 60.9766 40.1149 57.1355Z" fill="#3A556A"/>
<path d="M56.3141 62.656L59.5453 59.4249C59.7063 59.264 59.967 59.264 60.1279 59.4247L61.3529 60.6499L57.5391 64.4638L56.3141 63.2386C56.1531 63.0777 56.1531 62.8169 56.3141 62.656Z" fill="#2F4859"/>
<path d="M57.1084 65.2897C56.999 65.1801 56.999 65.0028 57.1084 64.8934L61.7818 60.22C61.8912 60.1106 62.0686 60.1106 62.1781 60.22L70.373 68.4149L65.3033 73.4846L57.1084 65.2897Z" fill="#FCD462"/>
<path d="M70.3725 68.4148L71.4172 69.4595C71.5268 69.5691 71.5268 69.7464 71.4174 69.8558L66.7439 74.5292C66.6346 74.6386 66.4572 74.6386 66.3477 74.5292L65.3027 73.4845L70.3725 68.4148Z" fill="#F6C358"/>
</g>
<defs>
<clipPath id="clip0">
<rect width="96" height="96" fill="white"/>
</clipPath>
</defs>
</svg>
