<svg width="96" height="96" viewBox="0 0 96 96" fill="none" xmlns="http://www.w3.org/2000/svg">
<path d="M48 96C74.5097 96 96 74.5097 96 48C96 21.4903 74.5097 0 48 0C21.4903 0 0 21.4903 0 48C0 74.5097 21.4903 96 48 96Z" fill="#73C3F9"/>
<path d="M54.5842 26.9229L72.2109 73.5095C72.5983 74.5333 72.0785 75.6836 71.0559 76.0708L41.0904 87.4087C40.0667 87.7961 38.9163 87.2767 38.5292 86.2539L20.9028 39.6669C20.7427 39.2446 20.7272 38.8359 20.8545 38.4033L26.4247 19.4512C26.6064 18.8338 27.0264 18.3804 27.6273 18.1528L35.3021 15.2491C35.9036 15.0215 36.518 15.083 37.0625 15.4259L53.7838 25.9434C54.1657 26.1839 54.4247 26.5008 54.5842 26.9229ZM32.7768 20.1691C33.668 19.8322 34.6635 20.2805 35.0002 21.1723C35.3372 22.0625 34.8887 23.0583 33.9977 23.3951C33.1072 23.7322 32.1116 23.2831 31.7739 22.3925C31.4372 21.5015 31.8858 20.5059 32.7768 20.1691Z" fill="#21D0C3"/>
<path d="M72.2105 73.5098C72.5984 74.5328 72.0785 75.6833 71.0555 76.071L41.0902 87.409C40.0668 87.796 38.9165 87.2768 38.5293 86.2532L72.2105 73.5098Z" fill="#15BDB2"/>
<path d="M32.0723 18.3002C33.994 17.5731 36.1427 18.5423 36.8702 20.4651C37.5973 22.3872 36.6291 24.5359 34.7065 25.263C32.784 25.9904 30.6353 25.0215 29.9082 23.0993C29.1801 21.1769 30.1493 19.0281 32.0723 18.3002ZM32.7782 20.1692C33.6696 19.8321 34.665 20.2802 35.0025 21.171C35.3389 22.0624 34.8904 23.0582 33.9992 23.395C33.1088 23.7321 32.1132 23.283 31.7755 22.3926C31.4389 21.5009 31.8882 20.506 32.7782 20.1692Z" fill="white"/>
<path d="M32.5296 19.5151C33.7801 19.0415 35.1796 19.6726 35.6532 20.9242C36.1266 22.1755 35.4959 23.5743 34.2447 24.0477C32.9922 24.5214 31.5933 23.8906 31.1202 22.6396C30.6469 21.3875 31.2775 19.9893 32.5296 19.5151ZM32.776 20.1691C33.6674 19.832 34.6628 20.2801 35.0003 21.1709C35.3367 22.0623 34.8882 23.0581 33.997 23.3949C33.1066 23.732 32.1109 23.2829 31.7733 22.3925C31.4367 21.5007 31.8859 20.5058 32.776 20.1691Z" fill="#ECF0F1"/>
<path d="M45.8134 46.8482L46.9086 45.3795L49.4838 46.8662L48.7587 48.5514C49.258 48.9641 49.717 49.4235 50.1297 49.9224L51.8149 49.1974L53.3018 51.7725L51.8329 52.8682C52.0564 53.4681 52.2252 54.0951 52.3336 54.7427L54.1549 54.9568V57.9304L52.3336 58.1449C52.2252 58.7921 52.0564 59.4193 51.8329 60.0195L53.3016 61.1147L51.8151 63.6898L50.1299 62.9647C49.717 63.4641 49.2578 63.9231 48.7589 64.3357L49.4839 66.021L46.9088 67.5079L45.8131 66.039C45.2129 66.2625 44.5861 66.4312 43.9386 66.5396L43.7245 68.361H40.7509L40.5364 66.5396C39.8892 66.4312 39.262 66.2625 38.6618 66.039L37.5666 67.5077L34.9915 66.0212L35.7166 64.3359C35.2173 63.9231 34.7583 63.4639 34.3456 62.9649L32.6603 63.69L31.1734 61.1149L32.6423 60.0191C32.4188 59.4189 32.2501 58.7921 32.1417 58.1447L30.3203 57.9306V54.957L32.1417 54.7425C32.2501 54.0952 32.4188 53.4681 32.6423 52.8679L31.1736 51.7727L32.6603 49.1976L34.3456 49.9226C34.7584 49.4233 35.2176 48.9643 35.7166 48.5516L34.9915 46.8664L37.5666 45.3795L38.6624 46.8484C39.2626 46.6249 39.8892 46.4561 40.5368 46.3477L40.7509 44.5264H43.7245L43.9386 46.3477C44.5863 46.4559 45.2133 46.6247 45.8134 46.8482ZM42.2376 51.7564C44.8263 51.7564 46.9244 53.8547 46.9244 56.4431C46.9244 59.0317 44.8261 61.1299 42.2376 61.1299C39.649 61.1299 37.5509 59.0316 37.5509 56.4431C37.5509 53.8545 39.6492 51.7564 42.2376 51.7564Z" fill="#15BDB2"/>
<path d="M50.3828 15.4234L86.377 49.8544C87.1677 50.611 87.195 51.873 86.439 52.6637L64.2925 75.8155C63.5365 76.6062 62.2746 76.6341 61.4837 75.8772L25.4897 41.4465C25.164 41.1347 24.9734 40.7727 24.9015 40.3274L21.754 20.8259C21.6522 20.1912 21.8354 19.6004 22.2801 19.1361L27.9524 13.2068C28.3969 12.7422 28.978 12.5325 29.6174 12.6066L49.2392 14.886C49.6864 14.9378 50.0569 15.112 50.3828 15.4234ZM27.7958 18.7347C28.4539 18.046 29.545 18.0216 30.2339 18.6803C30.9222 19.3386 30.9465 20.4306 30.2877 21.1185C29.6295 21.8069 28.5375 21.831 27.8488 21.1724C27.1617 20.514 27.1365 19.423 27.7958 18.7347Z" fill="#FAD24D"/>
<path d="M86.3794 49.8542C87.1701 50.6108 87.1974 51.8729 86.4414 52.6636L64.2951 75.8153C63.5391 76.606 62.2772 76.6339 61.4863 75.877L86.3794 49.8542Z" fill="#EDB937"/>
<path d="M26.3526 17.3534C27.7733 15.8682 30.1298 15.8157 31.6151 17.237C33.1003 18.6575 33.1525 21.014 31.732 22.4993C30.3111 23.9847 27.955 24.037 26.4696 22.6161C24.984 21.1953 24.9319 18.839 26.3526 17.3534ZM27.796 18.7343C28.4546 18.046 29.5463 18.0218 30.2348 18.6805C30.9231 19.3388 30.9473 20.4306 30.2886 21.1188C29.6303 21.8071 28.5385 21.8315 27.8503 21.1728C27.1618 20.5143 27.1375 19.4226 27.796 18.7343Z" fill="white"/>
<path d="M27.2911 18.2515C28.216 17.2845 29.7504 17.2504 30.7173 18.1757C31.6842 19.1005 31.7184 20.6344 30.7932 21.6014C29.8683 22.5683 28.334 22.6024 27.3674 21.6773C26.4001 20.7525 26.3664 19.2182 27.2911 18.2515ZM27.7959 18.7343C28.4545 18.046 29.5462 18.0218 30.2347 18.6805C30.923 19.3388 30.9472 20.4306 30.2885 21.1187C29.6302 21.807 28.5384 21.8314 27.8502 21.1727C27.1617 20.5142 27.1374 19.4226 27.7959 18.7343Z" fill="#ECF0F1"/>
<path d="M46.6327 28.749C47.6568 27.653 48.7045 27.0568 49.7755 26.9582C50.8458 26.8605 51.9031 27.2994 52.9471 28.2763C53.9909 29.2532 54.4996 30.2786 54.4732 31.3528C54.4464 32.4283 53.921 33.5124 52.8961 34.6087L52.4977 35.0336L50.4873 33.1533L51.0119 32.5923C51.4696 32.1028 51.6995 31.671 51.6991 31.296C51.6991 30.9215 51.5317 30.5769 51.1962 30.2642C50.8619 29.9503 50.5074 29.8065 50.1329 29.8312C49.7596 29.8562 49.3434 30.114 48.8853 30.603C48.4518 31.0672 48.1715 31.5727 48.0464 32.1198C47.9208 32.6677 47.8653 33.2437 47.8792 33.8488C47.8934 34.4542 47.9304 35.0795 47.989 35.7272C48.0479 36.3742 48.0571 37.0299 48.017 37.6935C47.9769 38.3561 47.8372 39.0225 47.5968 39.6926C47.3574 40.362 46.9357 41.0192 46.3327 41.6634C45.3082 42.7592 44.2537 43.3498 43.1697 43.436C42.0873 43.5225 41.0234 43.077 39.9794 42.1005C38.936 41.1234 38.4202 40.0922 38.4339 39.0052C38.4475 37.9187 38.9664 36.8276 39.9918 35.7322L40.7694 34.9003L42.7807 36.7813L41.8752 37.748C41.4177 38.238 41.1982 38.6724 41.2171 39.0528C41.236 39.4333 41.4127 39.7798 41.7477 40.0931C42.0832 40.4066 42.4407 40.5602 42.8212 40.5534C43.2022 40.5472 43.621 40.2995 44.0793 39.8102C44.5137 39.3453 44.7937 38.8398 44.9191 38.2927C45.0442 37.7456 45.0995 37.1683 45.0858 36.5638C45.0721 35.9591 45.0355 35.3327 44.9763 34.685C44.9174 34.0383 44.9075 33.3827 44.9484 32.7198C44.9887 32.0561 45.1285 31.3903 45.3682 30.7207C45.6082 30.0504 46.0299 29.393 46.6327 28.749ZM53.963 40.2105L56.8822 42.9408L55.0739 44.8743L52.1549 42.1436L48.4469 46.1062L52.1199 49.5423L50.312 51.4751L44.512 46.05L57.1715 32.5175L62.971 37.9432L61.1628 39.8767L57.4899 36.4404L53.963 40.2105ZM56.4903 51.4198C56.0322 51.9093 55.8095 52.3471 55.823 52.734C55.8355 53.1204 56.0097 53.471 56.3448 53.784C56.6799 54.098 57.0406 54.2482 57.4274 54.2351C57.8144 54.2221 58.2359 53.9707 58.6945 53.4811L65.531 46.1735C65.9887 45.684 66.2114 45.246 66.1987 44.8592C66.1857 44.4722 66.0119 44.1219 65.677 43.8086C65.3412 43.4953 64.9801 43.3449 64.5939 43.358C64.207 43.3708 63.7846 43.6224 63.3269 44.1114L56.4903 51.4198ZM61.0735 42.2576C62.0979 41.1622 63.1621 40.5806 64.2648 40.5123C65.3671 40.445 66.4407 40.899 67.4845 41.8757C68.5285 42.8522 69.0535 43.8933 69.0592 44.9981C69.065 46.1027 68.5557 47.2027 67.5305 48.2981L60.9474 55.3346C59.923 56.4309 58.859 57.0123 57.7565 57.0802C56.6536 57.1481 55.5802 56.6938 54.5364 55.7175C53.4925 54.7408 52.9668 53.6998 52.9617 52.5952C52.9557 51.4905 53.4661 50.3904 54.4904 49.2947L61.0735 42.2576Z" fill="#FEFEFE"/>
<path d="M30.1775 19.0805C30.5793 19.5341 30.5368 20.228 30.0826 20.6298C29.6287 21.0312 28.935 20.9891 28.5331 20.5349L19.002 9.749C19.5875 9.30462 20.1834 8.87356 20.7892 8.45581L30.1775 19.0805Z" fill="#FF5B62"/>
<path d="M27.2655 19.1012L26.6529 18.4074L28.9466 17.6874L29.5595 18.3812L27.2655 19.1012ZM19.002 9.74888C19.38 9.462 19.7608 9.17925 20.1472 8.90344L20.9595 8.64844L21.5726 9.34219L19.2787 10.0622L19.002 9.74888ZM25.6683 17.2935L25.0554 16.5999L27.3493 15.8799L27.9622 16.5733L25.6683 17.2935ZM24.071 15.4854L23.4581 14.7921L25.7518 14.0721L26.3647 14.7656L24.071 15.4854ZM22.4733 13.6778L21.8604 12.9842L24.1543 12.2642L24.767 12.9579L22.4733 13.6778ZM20.8762 11.8699L20.2631 11.1761L22.5568 10.4563L23.1699 11.1501L20.8762 11.8699Z" fill="#ED4C54"/>
<path d="M48.287 71.2568C48.5668 71.4619 48.8209 71.6941 49.0475 71.9492L50.1092 71.5746L51.2139 73.9028L50.2277 74.4578C50.2796 74.7942 50.2969 75.1382 50.2764 75.4846L51.2917 75.9704L50.4268 78.3979L49.337 78.0929C49.1317 78.3728 48.8994 78.6267 48.6446 78.8534L49.0194 79.9152L46.691 81.0199L46.136 80.0337C45.7995 80.0858 45.4558 80.1029 45.1091 80.0824L44.6237 81.0975L42.1959 80.2328L42.501 79.1434C42.221 78.9383 41.9668 78.7058 41.7407 78.451L40.6787 78.8258L39.5737 76.4972L40.5596 75.9422C40.508 75.6059 40.4912 75.2616 40.5112 74.9155L39.4961 74.4299L40.3607 72.0021L41.4506 72.307C41.6557 72.0274 41.8882 71.7734 42.1428 71.5469L41.7682 70.4849L44.0964 69.3801L44.6514 70.3664C44.9878 70.3142 45.3318 70.2976 45.6783 70.3176L46.1638 69.3025L48.5917 70.1672L48.287 71.2568ZM45.3943 72.6376C46.8097 72.6376 47.9569 73.7849 47.9569 75.2001C47.9569 76.6152 46.8095 77.7625 45.3943 77.7625C43.9792 77.7625 42.8319 76.6152 42.8319 75.2001C42.8317 73.7847 43.979 72.6376 45.3943 72.6376Z" fill="#15BDB2"/>
</svg>
