<svg width="96" height="96" viewBox="0 0 96 96" fill="none" xmlns="http://www.w3.org/2000/svg">
<path d="M94.9459 49.0538C94.9459 60.0114 91.1918 70.0923 84.8995 78.0803C76.3031 88.993 19.9036 89.1015 11.3014 78.3338C4.88796 70.3062 1.05371 60.1277 1.05371 49.0538C1.05371 23.1261 22.0722 2.10767 47.9998 2.10767C73.9275 2.10767 94.9459 23.1261 94.9459 49.0538Z" fill="#73C3F9"/>
<path d="M48 96C62.9699 96 76.303 88.993 84.8991 78.08V37.9292L55.5118 7.731C51.3989 3.5047 44.6095 3.5047 40.4967 7.731L11.1094 37.9292V78.0906C19.7059 88.9974 33.0349 96 48 96Z" fill="#C0E0FF"/>
<path d="M48 96C62.9699 96 76.303 88.993 84.8991 78.08V37.9292L55.5118 7.731C51.3989 3.5047 44.6095 3.5047 40.4967 7.731L11.1094 37.9292V78.0906C19.7059 88.9974 33.0349 96 48 96Z" fill="#C0E0FF"/>
<path d="M55.5118 7.73094C52.2253 4.35389 47.2312 3.67825 43.2579 5.69808C43.2217 5.71648 43.1851 5.7341 43.1488 5.75307C43.0515 5.80404 42.9553 5.8577 42.8591 5.91192C42.8099 5.93971 42.7604 5.9673 42.7114 5.99585C42.6238 6.04721 42.5374 6.10028 42.451 6.15432C42.3939 6.19015 42.337 6.22637 42.2802 6.26316C42.2013 6.3147 42.1229 6.3674 42.0451 6.42124C41.9811 6.46551 41.9179 6.51111 41.8547 6.55691C41.7843 6.60807 41.714 6.65942 41.6448 6.7125C41.5739 6.76673 41.5042 6.82306 41.4343 6.8794C41.3733 6.92864 41.312 6.97712 41.252 7.0279C41.1702 7.09707 41.0899 7.16912 41.0098 7.24117C40.9629 7.28333 40.9152 7.32414 40.8688 7.36725C40.7425 7.48491 40.6182 7.60563 40.4963 7.73075L11.1094 37.9292V46.3603V78.0905C11.1734 78.1718 11.2376 78.2526 11.3021 78.3335C14.652 82.5263 18.7077 86.1292 23.2857 88.9699V38.6129C23.2857 35.5575 24.4779 32.6227 26.6089 30.4331L40.5312 16.0958C44.644 11.8695 51.3989 11.9358 55.5118 16.1621L84.8991 46.3601V37.929L55.5118 7.73094Z" fill="#AADAF2"/>
<path d="M87.9528 42.4904C87.1241 42.4904 86.2967 42.1689 85.6731 41.5281L53.8538 8.83085C52.3039 7.23832 50.2265 6.3611 48.0044 6.3611C45.7822 6.3611 43.7049 7.23832 42.1549 8.83085L10.3354 41.5281C9.11037 42.7873 7.09667 42.8141 5.83775 41.5893C4.57902 40.3643 4.55162 38.3506 5.77662 37.0916L37.5961 4.39435C40.3539 1.56072 44.0502 0 48.0044 0C51.9586 0 55.6548 1.56072 58.4126 4.39435L90.2319 37.0916C91.4569 38.3504 91.4295 40.3643 90.1708 41.5893C89.5526 42.1909 88.7522 42.4904 87.9528 42.4904Z" fill="#000099"/>
<path d="M54.7125 60.1677H41.2965C39.4982 60.1677 38.0405 61.6255 38.0405 63.4237V94.9378C41.2511 95.6314 44.5823 96.0001 48.0004 96.0001C51.4213 96.0001 54.7556 95.6308 57.9687 94.936V63.4237C57.9685 61.6255 56.5107 60.1677 54.7125 60.1677Z" fill="#000099"/>
<path d="M48.769 60.1677H41.296C39.4977 60.1677 38.04 61.6255 38.04 63.4237V94.9377C40.4669 95.462 42.9629 95.8 45.5131 95.9339V63.4237C45.5131 61.6255 46.9709 60.1677 48.769 60.1677Z" fill="#000066"/>
<path d="M11.022 50.7783H84.986V55.7604H11.022V50.7783Z" fill="#000099"/>
<path d="M11.022 50.7783H23.2854V55.7604H11.022V50.7783Z" fill="#000066"/>
<path d="M64.8917 44.8383H32.6503C31.5 44.8383 30.5674 43.9059 30.5674 42.7554V37.9151C30.5674 36.7649 31.4998 35.8323 32.6503 35.8323H64.8919C66.0422 35.8323 66.9748 36.7647 66.9748 37.9151V42.7556C66.9746 43.9059 66.0422 44.8383 64.8917 44.8383Z" fill="#E8F8FC"/>
<path d="M39.765 42.7554V37.9152C39.765 36.7649 40.6974 35.8323 41.8479 35.8323H32.6503C31.5 35.8323 30.5674 36.7647 30.5674 37.9152V42.7556C30.5674 43.9059 31.4998 44.8385 32.6503 44.8385H41.8479C40.6974 44.8383 39.765 43.9059 39.765 42.7554Z" fill="#AADAF2"/>
<path d="M37.5959 4.39445L5.77662 37.0919C4.55162 38.3507 4.57902 40.3644 5.83775 41.5896C7.09648 42.8144 9.11018 42.7876 10.3354 41.5284L42.1547 8.83095C42.9541 8.00968 43.894 7.37927 44.9214 6.96116C46.1049 6.47962 46.8545 5.30003 46.8545 4.02252C46.8545 1.76106 44.5578 0.229469 42.4663 1.08964C40.6584 1.83311 39.0045 2.94717 37.5959 4.39445Z" fill="#000066"/>
</svg>
