<svg width="96" height="96" viewBox="0 0 96 96" fill="none" xmlns="http://www.w3.org/2000/svg">
<g clip-path="url(#clip0)">
<path d="M93.892 48.1139C93.8853 50.9525 93.6266 53.7321 93.1371 56.4312C93.097 56.6521 92.2746 56.8704 92.2315 57.0902C92.0653 57.9365 91.8764 58.7749 91.6656 59.6044C91.6097 59.824 92.3332 60.0449 92.2742 60.2633C91.5106 63.0926 90.4891 65.8162 89.2367 68.4071C89.1016 68.6866 88.0887 68.8501 87.9483 69.1264C87.5357 69.9381 87.1002 70.7363 86.6426 71.5201C86.5244 71.7226 87.2795 72.0388 87.1584 72.2394C80.476 83.3016 69.3576 91.3836 56.2677 94.0205C54.9599 92.7374 53.2011 92.0185 51.3688 92.0185H30.5912C12.7274 85.3789 0 68.1758 0 48.0001C0 38.1728 3.0195 29.0509 8.18127 21.5113C8.23722 21.4295 8.65265 21.5635 8.70917 21.482C9.32196 20.5991 9.96426 19.7379 10.6347 18.9004C10.6997 18.8193 10.4056 18.5229 10.4711 18.4422C19.0783 7.83393 32.2204 1.05396 46.9459 1.05396C72.8542 1.05396 93.9535 22.2058 93.892 48.1139Z" fill="#73C3F9"/>
<path d="M51.9287 68.4072H89.2373C88.6026 69.7198 87.9088 70.9985 87.1592 72.2396H51.9287C50.8704 72.2396 50.0126 71.3817 50.0126 70.3234C50.0126 69.2651 50.8704 68.4072 51.9287 68.4072ZM65.7251 56.4312C64.6668 56.4312 63.809 57.2891 63.809 58.3474C63.809 59.4057 64.6668 60.2635 65.7251 60.2635H92.2748C92.6141 59.0061 92.9025 57.7281 93.1376 56.4312H65.7251ZM69.6816 25.7725C69.6816 36.3551 61.1026 44.9342 50.52 44.9342C39.9373 44.9342 31.3583 36.3551 31.3583 25.7725C31.3583 15.1899 39.9373 6.61084 50.52 6.61084C61.1026 6.61084 69.6816 15.1899 69.6816 25.7725ZM17.0545 37.2695C18.1128 37.2695 18.9706 36.4117 18.9706 35.3534C18.9706 34.2951 18.1128 33.4372 17.0545 33.4372C15.9962 33.4372 15.1383 34.2951 15.1383 35.3534C15.1383 36.4117 15.9962 37.2695 17.0545 37.2695ZM17.0545 21.9402C18.1128 21.9402 18.9706 21.0823 18.9706 20.024C18.9706 18.9657 18.1128 18.1078 17.0545 18.1078C15.9962 18.1078 15.1383 18.9657 15.1383 20.024C15.1383 21.0823 15.9962 21.9402 17.0545 21.9402ZM24.7191 37.2695C25.7774 37.2695 26.6353 36.4117 26.6353 35.3534C26.6353 34.2951 25.7774 33.4372 24.7191 33.4372C23.6608 33.4372 22.803 34.2951 22.803 35.3534C22.803 36.4117 23.6608 37.2695 24.7191 37.2695ZM17.0545 29.6049C18.1128 29.6049 18.9706 28.747 18.9706 27.6887C18.9706 26.6304 18.1128 25.7725 17.0545 25.7725C15.9962 25.7725 15.1383 26.6304 15.1383 27.6887C15.1383 28.747 15.9962 29.6049 17.0545 29.6049ZM9.3898 21.9402C10.4481 21.9402 11.306 21.0823 11.306 20.024C11.306 19.3672 10.9754 18.7877 10.4717 18.4424C9.66803 19.4329 8.90405 20.4567 8.18185 21.5113C8.51143 21.7794 8.93184 21.9402 9.3898 21.9402ZM9.3898 29.6049C10.4481 29.6049 11.306 28.747 11.306 27.6887C11.306 26.6304 10.4481 25.7725 9.3898 25.7725C8.3315 25.7725 7.47363 26.6304 7.47363 27.6887C7.47363 28.747 8.3315 29.6049 9.3898 29.6049ZM9.3898 37.2695C10.4481 37.2695 11.306 36.4117 11.306 35.3534C11.306 34.2951 10.4481 33.4372 9.3898 33.4372C8.3315 33.4372 7.47363 34.2951 7.47363 35.3534C7.47363 36.4117 8.3315 37.2695 9.3898 37.2695ZM24.7191 29.6049C25.7774 29.6049 26.6353 28.747 26.6353 27.6887C26.6353 26.6304 25.7774 25.7725 24.7191 25.7725C23.6608 25.7725 22.803 26.6304 22.803 27.6887C22.803 28.747 23.6608 29.6049 24.7191 29.6049ZM24.7191 18.1078C23.6608 18.1078 22.803 18.9657 22.803 20.024C22.803 21.0823 23.6608 21.9402 24.7191 21.9402C25.7774 21.9402 26.6353 21.0823 26.6353 20.024C26.6353 18.9657 25.7774 18.1078 24.7191 18.1078Z" fill="#0000CC"/>
<path d="M60.0992 25.7725C60.0992 31.0638 55.8096 35.3533 50.5183 35.3533C45.227 35.3533 40.9375 31.0638 40.9375 25.7725C40.9375 20.4812 45.227 16.1917 50.5183 16.1917C55.8096 16.1917 60.0992 20.4812 60.0992 25.7725ZM82.2025 54.036C81.1442 54.036 80.2864 54.8938 80.2864 55.9521V60.7425C80.2864 61.8008 81.1442 62.6587 82.2025 62.6587C83.2608 62.6587 84.1187 61.8008 84.1187 60.7425V55.9521C84.1187 54.8938 83.2608 54.036 82.2025 54.036ZM70.7055 66.012C69.6472 66.012 68.7894 66.8699 68.7894 67.9282V72.7186C68.7894 73.7769 69.6472 74.6348 70.7055 74.6348C71.7638 74.6348 72.6217 73.7769 72.6217 72.7186V67.9282C72.6217 66.8699 71.7638 66.012 70.7055 66.012Z" fill="#76B6FA"/>
<path d="M73.2752 46.3366L68.1078 55.709C67.1413 57.4621 66.3773 59.3194 65.8305 61.2452C64.5949 65.5968 62.2608 69.5587 59.0547 72.7497C58.5567 73.2452 58.2214 73.5824 58.1976 73.6144C56.9308 76.5943 56.2682 79.8134 56.2682 83.0837V94.0205C53.2554 94.6275 50.138 94.946 46.9464 94.946C41.1947 94.946 35.6844 93.9114 30.5916 92.0186V84.2127C30.5916 79.8261 29.3993 75.522 27.1425 71.7603C24.8856 67.9989 23.6934 63.6946 23.6934 59.3079V46.8504L46.6874 44.9342V25.7725C46.6874 23.6095 48.4792 21.8653 50.6594 21.9427C52.7361 22.0164 54.352 23.7864 54.352 25.8643V56.9516C54.352 57.5947 54.6588 58.1992 55.1779 58.5788C56.1588 59.2964 57.5471 58.9893 58.1338 57.925L64.7128 45.9921C66.2465 43.2104 69.746 42.1996 72.5269 43.736C73.4509 44.2467 73.7849 45.4121 73.2752 46.3366Z" fill="#FFBEAA"/>
<path d="M31.4881 69.7914C34.0889 74.4182 35.3835 79.6648 35.2333 84.9705L34.9941 93.4114C33.4957 93.0182 32.0266 92.5526 30.5906 92.0189V84.213C30.5906 79.8264 29.3983 75.5223 27.1415 71.7606C24.8846 67.9992 23.6924 63.6949 23.6924 59.3082V46.8504L27.9729 46.4937L27.743 54.6123C27.5927 59.9179 28.8873 65.1646 31.4881 69.7914ZM52.9814 60.2636C44.793 60.2636 38.1311 66.9256 38.1311 75.1139C38.1311 75.9076 38.7745 76.5511 39.5682 76.5511C40.3619 76.5511 41.0053 75.9076 41.0053 75.1139C41.0053 68.5104 46.3779 63.1379 52.9814 63.1379C53.7751 63.1379 54.4185 62.4944 54.4185 61.7007C54.4185 60.9071 53.7751 60.2636 52.9814 60.2636Z" fill="#FAA68E"/>
<path d="M46.6864 44.9341V60.2635C46.6864 62.3801 44.9707 64.0958 42.8541 64.0958C40.7375 64.0958 39.0217 62.3801 39.0217 60.2635V56.4311C39.0217 58.5477 37.306 60.2635 35.1894 60.2635C33.0728 60.2635 31.3571 58.5477 31.3571 56.4311V52.5988C31.3571 54.7154 29.6413 56.4311 27.5247 56.4311C25.4081 56.4311 23.6924 54.7154 23.6924 52.5988V44.9341C23.6924 42.8175 25.4081 41.1018 27.5247 41.1018C29.6413 41.1018 31.3571 42.8175 31.3571 44.9341C31.3571 42.8175 33.0728 41.1018 35.1894 41.1018C37.306 41.1018 39.0217 42.8175 39.0217 44.9341C39.0217 42.8175 40.7375 41.1018 42.8541 41.1018C44.9707 41.1018 46.6864 42.8175 46.6864 44.9341Z" fill="#FFCDBE"/>
<path d="M42.8541 64.0958C40.7375 64.0958 39.0217 62.3801 39.0217 60.2635V44.9341C39.0217 42.8175 40.7375 41.1018 42.8541 41.1018C43.5521 41.1018 44.2065 41.2884 44.7702 41.6146C43.6247 42.2772 42.8541 43.5156 42.8541 44.9341V64.0958ZM35.1894 44.9341C35.1894 43.5156 35.9601 42.2772 37.1056 41.6146C36.5418 41.2884 35.8874 41.1018 35.1894 41.1018C33.0728 41.1018 31.3571 42.8175 31.3571 44.9341V56.4311C31.3571 58.5477 33.0728 60.2635 35.1894 60.2635V44.9341ZM27.5247 55.1856V44.9341C27.5247 43.5156 28.2954 42.2772 29.4409 41.6146C28.8771 41.2884 28.2228 41.1018 27.5247 41.1018C25.4081 41.1018 23.6924 42.8175 23.6924 44.9341V52.5988C23.6924 54.7154 25.4081 56.4311 27.5247 56.4311C27.5935 56.4311 27.6619 56.4292 27.7299 56.4258C27.597 56.0368 27.5247 55.6196 27.5247 55.1856Z" fill="#FFBEAA"/>
<path d="M29.4417 52.5988V54.515C29.4417 55.5733 28.5838 56.4311 27.5255 56.4311C26.4672 56.4311 25.6094 55.5733 25.6094 54.515V52.5988C25.6094 51.5405 26.4672 50.6826 27.5255 50.6826C28.5838 50.6826 29.4417 51.5405 29.4417 52.5988ZM35.1902 54.515C34.1319 54.515 33.274 55.3728 33.274 56.4311V58.3473C33.274 59.4056 34.1319 60.2635 35.1902 60.2635C36.2485 60.2635 37.1064 59.4056 37.1064 58.3473V56.4311C37.1064 55.3728 36.2485 54.515 35.1902 54.515ZM42.8549 58.3473C41.7966 58.3473 40.9387 59.2052 40.9387 60.2635V62.1796C40.9387 63.2379 41.7966 64.0958 42.8549 64.0958C43.9132 64.0958 44.771 63.2379 44.771 62.1796V60.2635C44.771 59.2052 43.9132 58.3473 42.8549 58.3473Z" fill="#FFEEE5"/>
<path d="M54.3512 25.7725C54.3512 27.8891 52.6355 29.6049 50.5189 29.6049C48.4023 29.6049 46.6865 27.8891 46.6865 25.7725C46.6865 23.6559 48.4023 21.9402 50.5189 21.9402C52.6355 21.9402 54.3512 23.6559 54.3512 25.7725Z" fill="#E9F3FE"/>
<path d="M96.0002 21.9401C96.0002 22.9984 95.1423 23.8563 94.084 23.8563H65.7248C64.6665 23.8563 63.8086 22.9984 63.8086 21.9401C63.8086 20.8818 64.6665 20.0239 65.7248 20.0239H94.084C95.1423 20.0239 96.0002 20.8818 96.0002 21.9401ZM79.1379 27.6886H65.7248C64.6665 27.6886 63.8086 28.5465 63.8086 29.6048C63.8086 30.6631 64.6665 31.5209 65.7248 31.5209H79.1379C80.1962 31.5209 81.0541 30.6631 81.0541 29.6048C81.0541 28.5465 80.1962 27.6886 79.1379 27.6886Z" fill="#A7D0FC"/>
</g>
<defs>
<clipPath id="clip0">
<rect width="96" height="96" fill="white"/>
</clipPath>
</defs>
</svg>
