<svg width="96" height="96" viewBox="0 0 96 96" fill="none" xmlns="http://www.w3.org/2000/svg">
<g clip-path="url(#clip0)">
<path d="M95.7107 48.2896C95.7107 74.4719 74.5249 95.9999 48.0004 95.9999C21.5447 95.9999 0.290039 74.5368 0.290039 48.2896C0.290039 21.9397 21.6506 0.579102 48.0004 0.579102C74.3992 0.579102 95.7107 21.9849 95.7107 48.2896Z" fill="#73C3F9"/>
<path d="M59.5194 6.02784V25.4819C59.5194 26.0513 59.2111 26.554 58.7517 26.825C58.5181 26.9643 58.2472 27.0449 57.9566 27.0449C57.0965 27.0449 56.3936 26.342 56.3936 25.4819V6.02784C56.3936 5.16778 57.0965 4.46484 57.9566 4.46484C58.2472 4.46484 58.5181 4.54528 58.7517 4.68478C58.8637 4.75153 58.9677 4.83197 59.06 4.92441C59.3446 5.20697 59.5194 5.59772 59.5194 6.02784Z" fill="#EBE1DC"/>
<path d="M69.0076 6.02784V25.4819C69.0076 26.0513 68.6994 26.554 68.24 26.825C68.0064 26.9643 67.7355 27.0449 67.4448 27.0449C66.5848 27.0449 65.8818 26.342 65.8818 25.4819V6.02784C65.8818 5.16778 66.5848 4.46484 67.4448 4.46484C67.7355 4.46484 68.0064 4.54528 68.24 4.68478C68.352 4.75153 68.456 4.83197 68.5483 4.92441C68.8329 5.20697 69.0076 5.59772 69.0076 6.02784Z" fill="#EBE1DC"/>
<path d="M59.5208 6.02788V25.4819C59.5208 26.0514 59.2125 26.5541 58.7532 26.825C58.2938 26.5541 57.9854 26.0514 57.9854 25.4819V6.02788C57.9854 5.45844 58.2936 4.95575 58.7532 4.68481C58.8651 4.75156 58.9692 4.832 59.0614 4.92444C59.346 5.207 59.5208 5.59775 59.5208 6.02788Z" fill="#FFF5F5"/>
<path d="M69.0091 6.02788V25.4819C69.0091 26.0514 68.7008 26.5541 68.2414 26.825C67.7821 26.5541 67.4736 26.0514 67.4736 25.4819V6.02788C67.4736 5.45844 67.7819 4.95575 68.2414 4.68481C68.3534 4.75156 68.4574 4.832 68.5497 4.92444C68.8343 5.207 69.0091 5.59775 69.0091 6.02788Z" fill="#FFF5F5"/>
<path d="M86.9665 36.1574V73.9581C86.9665 74.6571 86.9194 75.3443 86.8272 76.0178C83.1122 81.217 78.3763 85.6446 72.9042 88.9982H72.9023C72.5665 89.0219 72.2288 89.0335 71.8892 89.0335H53.5092C45.184 89.0335 38.4336 82.2831 38.4336 73.9579V36.1574C38.4336 27.8322 45.184 21.0818 53.5092 21.0818H71.8892C80.2161 21.0818 86.9665 27.8322 86.9665 36.1574Z" fill="#000099"/>
<path d="M73.4373 3.11606C73.4373 3.97406 73.086 4.75163 72.5223 5.31712C71.9568 5.88263 71.1774 6.23212 70.3213 6.23212H55.0788C53.3668 6.23212 51.9648 4.83019 51.9648 3.11606C51.9648 2.25806 52.3162 1.4805 52.8798 0.915C53.4433 0.3495 54.2227 0 55.0788 0H70.3213C71.8586 0 73.1467 1.12894 73.394 2.59969C73.4216 2.76656 73.4373 2.93925 73.4373 3.11606Z" fill="#000066"/>
<path d="M73.3928 2.59969H58.2584C56.7211 2.59969 55.4348 1.47075 55.1875 0H70.3201C71.8574 0 73.1455 1.12894 73.3928 2.59969Z" fill="#000099"/>
<path d="M78.136 42.9903V83.6753C78.136 84.3606 77.9967 85.0124 77.7413 85.6034C76.4043 86.6716 75.0102 87.6689 73.5591 88.5878C73.4433 88.5976 73.3274 88.6015 73.2096 88.6015H53.5101C45.1849 88.6015 38.4346 81.8511 38.4346 73.526V38.062H73.2096C75.9291 38.062 78.136 40.2689 78.136 42.9903Z" fill="#000080"/>
<path d="M51.3815 28.8164C50.4335 28.8164 49.6582 29.5919 49.6582 30.5397V79.5755C49.6582 80.5233 50.4337 81.2988 51.3815 81.2988C52.3293 81.2988 53.1048 80.5233 53.1048 79.5755V30.5397C53.1048 29.5917 52.3293 28.8164 51.3815 28.8164Z" fill="#000066"/>
<path d="M62.7009 28.8164C61.7529 28.8164 60.9775 29.5919 60.9775 30.5397V79.5755C60.9775 80.5233 61.753 81.2988 62.7009 81.2988C63.6487 81.2988 64.4242 80.5233 64.4242 79.5755V30.5397C64.4242 29.5917 63.6487 28.8164 62.7009 28.8164Z" fill="#000066"/>
<path d="M74.0182 28.8164C73.0702 28.8164 72.2949 29.5919 72.2949 30.5397V79.5755C72.2949 80.5233 73.0704 81.2988 74.0182 81.2988C74.966 81.2988 75.7415 80.5233 75.7415 79.5755V30.5397C75.7415 29.5917 74.9662 28.8164 74.0182 28.8164Z" fill="#000066"/>
<path d="M45.4404 33.9065H26.7151C24.7083 33.9065 23.0801 35.5346 23.0801 37.5401V45.2746H26.9851V38.6849C26.9851 38.6206 26.9895 38.5563 26.9966 38.4948C27.0911 37.7015 27.764 37.0869 28.5832 37.0869H43.572C44.391 37.0869 45.0643 37.7015 45.1586 38.4948C45.1657 38.5563 45.17 38.6206 45.17 38.6849V45.2746H49.0751V37.5401C49.0751 35.5346 47.4472 33.9065 45.4404 33.9065Z" fill="#AA6432"/>
<path d="M23.0801 38.4956H26.9966C26.9894 38.5571 26.9851 38.6214 26.9851 38.6857V45.2754H23.0801V38.4956Z" fill="#965028"/>
<path d="M49.0747 38.4948V45.2744H45.1696V38.6848C45.1696 38.6204 45.1653 38.5561 45.1582 38.4946L49.0747 38.4948Z" fill="#965028"/>
<path d="M29.0108 89.0473C29.0108 90.033 28.8026 90.9696 28.4295 91.8178C27.6049 91.4486 26.7958 91.054 25.9988 90.6377C25.0307 90.1371 24.0823 89.601 23.1557 89.0335C21.7341 88.1636 20.3618 87.2231 19.0442 86.2138C18.3276 85.668 17.6286 85.1005 16.9453 84.5134C18.2078 83.0723 20.0614 82.1631 22.1269 82.1631C25.9281 82.1635 29.0108 85.2461 29.0108 89.0473Z" fill="#3E3D42"/>
<path d="M26.3136 89.0474C26.3136 89.6108 26.2016 90.149 25.9995 90.6378C25.0314 90.1371 24.0831 89.6011 23.1564 89.0335C21.7348 88.1637 20.3625 87.2232 19.0449 86.2139C19.8088 85.3814 20.9083 84.8611 22.1276 84.8611C24.4386 84.8613 26.3136 86.7344 26.3136 89.0474Z" fill="#1D1D1F"/>
<path d="M50.2432 95.9313C54.0451 95.9313 57.1271 92.8493 57.1271 89.0475C57.1271 85.2456 54.0451 82.1636 50.2432 82.1636C46.4414 82.1636 43.3594 85.2456 43.3594 89.0475C43.3594 92.8493 46.4414 95.9313 50.2432 95.9313Z" fill="#3E3D42"/>
<path d="M54.4296 89.0473C54.4296 90.5964 53.5892 91.9492 52.3386 92.6739C51.7221 93.0313 51.0074 93.2355 50.2437 93.2355C47.9307 93.2355 46.0557 91.3603 46.0557 89.0475C46.0557 86.7345 47.9309 84.8613 50.2437 84.8613C51.0075 84.8613 51.7221 85.0655 52.3386 85.4208C53.5892 86.1453 54.4296 87.4981 54.4296 89.0473Z" fill="#2D2D2D"/>
<path d="M70.7038 47.3864V84.5844C70.7038 87.0406 68.7108 89.0336 66.2546 89.0336H23.1564C12.2983 82.397 4.31884 71.543 1.45215 58.7923V47.3864C1.45215 44.9302 3.44509 42.9373 5.90134 42.9373H66.2546C68.7108 42.9371 70.7038 44.93 70.7038 47.3864Z" fill="#F2C230"/>
<path d="M70.7034 47.3866V81.8553H14.0927C13.8433 81.6041 13.5979 81.3508 13.3564 81.0954C11.6737 79.3185 10.1265 77.412 8.73242 75.3915V42.9373H66.2542C68.7105 42.9373 70.7034 44.9302 70.7034 47.3866Z" fill="#F7D139"/>
<path d="M66.2707 54.7342L55.631 58.508C54.8705 58.7778 54.0356 58.3799 53.7657 57.6196L51.5064 51.2497C51.2365 50.4892 51.6344 49.6542 52.3947 49.3844L63.0344 45.6106C63.7949 45.3408 64.6299 45.7387 64.8997 46.4992L67.1591 52.8691C67.4289 53.6294 67.031 54.4645 66.2707 54.7342Z" fill="#FF7251"/>
<path d="M41.3094 76.9272L30.1175 78.4067C29.3176 78.5125 28.5834 77.9498 28.4776 77.1499L27.5919 70.4496C27.4861 69.6497 28.0488 68.9155 28.8487 68.8097L40.0406 67.3302C40.8404 67.2244 41.5747 67.7871 41.6804 68.587L42.5662 75.2873C42.6719 76.0872 42.1091 76.8212 41.3094 76.9272Z" fill="#73C3F9"/>
<path d="M15.7971 61.4302L4.76593 59.031C3.97768 58.8596 3.47725 58.0813 3.649 57.2929L5.08543 50.6885C5.25681 49.9003 6.03512 49.3999 6.82356 49.5716L17.8547 51.971C18.643 52.1424 19.1434 52.9207 18.9717 53.7092L17.5352 60.3135C17.3637 61.1015 16.5856 61.6018 15.7971 61.4302Z" fill="#82CD64"/>
<path d="M17.5257 42.9372V85.0006C17.3313 84.8416 17.1389 84.6787 16.9465 84.5137C16.436 84.0758 15.9335 83.6262 15.4426 83.1667C14.9832 82.7386 14.5336 82.3008 14.0937 81.8551C13.8444 81.6038 13.5989 81.3505 13.3574 81.0951V42.937H17.5257V42.9372Z" fill="#B9783D"/>
<path d="M58.7994 42.9373H54.6309V89.0337H58.7994V42.9373Z" fill="#B9783D"/>
<path d="M17.5255 42.9373V85.0006C17.3311 84.8416 17.1387 84.6787 16.9463 84.5137C16.4358 84.0759 15.9333 83.6262 15.4424 83.1667V42.9373H17.5255Z" fill="#D29650"/>
<path d="M58.797 42.9373H56.7129V89.0337H58.797V42.9373Z" fill="#D29650"/>
</g>
<defs>
<clipPath id="clip0">
<rect width="96" height="96" fill="white"/>
</clipPath>
</defs>
</svg>
