<svg width="96" height="96" viewBox="0 0 96 96" fill="none" xmlns="http://www.w3.org/2000/svg">
<g clip-path="url(#clip0)">
<path d="M4.60763 65.1692H91.3929C93.0401 60.4376 93.9381 55.3551 93.9381 50.0621C93.9381 24.6913 73.371 4.12427 48.0002 4.12427C22.6294 4.12427 2.0625 24.6913 2.0625 50.0621C2.0625 55.3551 2.96062 60.4375 4.60763 65.1692Z" fill="#4FABF7"/>
<path d="M4.60742 14.8594V65.1692C6.17361 69.6681 8.41967 73.8486 11.2222 77.5877L18.7547 85.4848C26.6989 92.0522 36.8876 96 48.0002 96C59.6863 96 70.3513 91.6348 78.4577 84.4476L84.9034 77.418C87.6472 73.722 89.8502 69.6004 91.3927 65.1692V14.8594H4.60742Z" fill="#E9EFFF"/>
<path d="M4.60742 65.1692C6.17361 69.6681 8.41967 73.8486 11.2222 77.5877L18.7547 85.4848C23.7007 89.5738 29.5174 92.6466 35.8852 94.3839V69.4074C29.3274 67.9434 30.8227 61.3768 30.8227 61.3768C30.0467 60.6007 30.8227 59.8125 30.8227 59.8125C30.8227 59.8125 32.1144 57.0504 32.1144 55.1003C32.1144 53.1501 34.184 52.7239 34.184 52.7239C31.4563 47.3576 36.6457 44.9811 36.6457 44.9811C32.6923 43.2469 34.184 39.7202 34.184 39.7202L32.0486 34.1319C28.3417 34.1319 28.7692 30.8679 28.7692 30.8679C20.408 29.6769 22.4855 21.4721 22.4855 21.4721C18.4657 19.1977 20.84 15.2344 20.84 15.2344C20.5989 15.1194 20.3874 14.9931 20.1971 14.8594H4.60742V65.1692Z" fill="#D3DCFB"/>
<path d="M26.0496 9.65063C26.0496 12.7344 23.5496 15.2344 20.4658 15.2344H91.3933V9.65063H26.0496Z" fill="#D3DCFB"/>
<path d="M4.6084 9.65063V15.2344H20.8412C23.925 15.2344 26.425 12.7344 26.425 9.65063H4.6084Z" fill="#4FABF7"/>
<path d="M19.3159 9.98438C19.1584 9.87582 19.0245 9.76407 18.908 9.65063H4.60742V15.2344H20.8402C17.472 13.6286 19.3159 9.98438 19.3159 9.98438Z" fill="#1886EA"/>
<path d="M88.1974 0H7.80298C6.03823 0 4.60742 1.43062 4.60742 3.19556V9.98438H91.3927V3.19556C91.3927 1.43062 89.9621 0 88.1974 0Z" fill="#3C58A0"/>
<path d="M18.8815 0H7.80396C6.03921 0 4.6084 1.43062 4.6084 3.19556V9.98438H19.3168C17.4398 8.691 18.672 6.96131 18.672 6.96131C18.672 6.96131 20.1229 4.47375 18.672 3.02306C17.2211 1.57219 18.8815 0 18.8815 0V0Z" fill="#2A428C"/>
<path d="M12.8871 6.96144C13.9746 6.96144 14.8562 6.07984 14.8562 4.99232C14.8562 3.9048 13.9746 3.02319 12.8871 3.02319C11.7996 3.02319 10.918 3.9048 10.918 4.99232C10.918 6.07984 11.7996 6.96144 12.8871 6.96144Z" fill="#FF4155"/>
<path d="M18.6713 6.96144C19.7588 6.96144 20.6404 6.07984 20.6404 4.99232C20.6404 3.9048 19.7588 3.02319 18.6713 3.02319C17.5838 3.02319 16.7021 3.9048 16.7021 4.99232C16.7021 6.07984 17.5838 6.96144 18.6713 6.96144Z" fill="#FFDD40"/>
<path d="M24.4545 6.96144C25.542 6.96144 26.4236 6.07984 26.4236 4.99232C26.4236 3.9048 25.542 3.02319 24.4545 3.02319C23.367 3.02319 22.4854 3.9048 22.4854 4.99232C22.4854 6.07984 23.367 6.96144 24.4545 6.96144Z" fill="#4CE088"/>
<path d="M73.6885 6.39844H32.1475C31.3708 6.39844 30.7412 5.769 30.7412 4.99219C30.7412 4.21537 31.3708 3.58594 32.1475 3.58594H73.6885C74.4651 3.58594 75.0947 4.21537 75.0947 4.99219C75.0947 5.769 74.4651 6.39844 73.6885 6.39844Z" fill="#1C2E7A"/>
<path d="M83.8221 6.39844H80.2373C79.4607 6.39844 78.8311 5.769 78.8311 4.99219C78.8311 4.21537 79.4607 3.58594 80.2373 3.58594H83.8221C84.5987 3.58594 85.2284 4.21537 85.2284 4.99219C85.2284 5.769 84.5987 6.39844 83.8221 6.39844Z" fill="#1C2E7A"/>
<path d="M55.9516 21.4722H12.4171C11.6802 21.4722 11.083 22.0695 11.083 22.8062V53.0989H57.2858V22.8062C57.2858 22.0694 56.6884 21.4722 55.9516 21.4722Z" fill="#FF4155"/>
<path d="M12.4171 21.4722C11.6802 21.4722 11.083 22.0695 11.083 22.8062V53.0989H33.2783C33.7493 52.8141 34.1843 52.7239 34.1843 52.7239C31.4566 47.3577 36.646 44.9811 36.646 44.9811C32.6926 43.2469 34.1843 39.7202 34.1843 39.7202L32.0489 34.132C28.342 34.132 28.7695 30.868 28.7695 30.868C20.4083 29.677 22.4858 21.4722 22.4858 21.4722H12.4171Z" fill="#E80054"/>
<path d="M11.083 52.7239V60.0428C11.083 60.7796 11.6804 61.3768 12.4171 61.3768H55.9516C56.6884 61.3768 57.2856 60.7794 57.2856 60.0428V52.7239H11.083Z" fill="#3C58A0"/>
<path d="M11.083 60.0428C11.083 60.7797 11.6804 61.3771 12.4171 61.3771H30.823C30.0469 60.601 30.823 59.8127 30.823 59.8127C30.823 59.8127 32.1147 57.0507 32.1147 55.1005C32.1147 53.1503 34.1843 52.7241 34.1843 52.7241H11.083V60.0428Z" fill="#2A428C"/>
<path d="M76.6658 34.6065C76.6658 33.8745 77.2593 33.2813 77.9911 33.2813H84.9168V22.8062C84.9168 22.0694 84.3194 21.4722 83.5827 21.4722H64.8565C64.1196 21.4722 63.5225 22.0695 63.5225 22.8062V36.9715C63.5225 37.7083 64.1198 38.3055 64.8565 38.3055H76.6658V34.6065Z" fill="#FFDD40"/>
<path d="M76.6658 57.6778C76.6658 56.9458 77.2593 56.3526 77.9911 56.3526H84.9168V45.8775C84.9168 45.1406 84.3194 44.5435 83.5827 44.5435H64.8565C64.1196 44.5435 63.5225 45.1408 63.5225 45.8775V60.0428C63.5225 60.7796 64.1198 61.3768 64.8565 61.3768H76.6658V57.6778Z" fill="#73C3F9"/>
<path d="M84.9168 77.4024V68.9488C84.9168 68.2119 84.3194 67.6145 83.5827 67.6145H64.8565C64.1196 67.6145 63.5225 68.2119 63.5225 68.9488V83.114C63.5225 83.8509 64.1198 84.4481 64.8565 84.4481H76.6658V80.7491C76.6658 80.0171 77.2593 79.4238 77.9911 79.4238H83.3281C83.876 78.7653 84.4056 78.0913 84.9168 77.4024Z" fill="#816AE2"/>
<path d="M72.5439 36.9717V22.8062C72.5439 22.0694 73.1412 21.4722 73.8779 21.4722H64.8575C64.1206 21.4722 63.5234 22.0695 63.5234 22.8062V36.9717C63.5234 37.7086 64.1208 38.3057 64.8575 38.3057H73.8779C73.1412 38.3057 72.5439 37.7084 72.5439 36.9717Z" fill="#FFB332"/>
<path d="M72.5439 60.0427V45.8775C72.5439 45.1406 73.1412 44.5432 73.8779 44.5432H64.8575C64.1206 44.5432 63.5234 45.1406 63.5234 45.8775V60.0427C63.5234 60.7796 64.1208 61.377 64.8575 61.377H73.8779C73.1412 61.377 72.5439 60.7796 72.5439 60.0427Z" fill="#4FABF7"/>
<path d="M72.5439 83.114V68.9488C72.5439 68.2119 73.1412 67.6145 73.8779 67.6145H64.8575C64.1206 67.6145 63.5234 68.2119 63.5234 68.9488V83.114C63.5234 83.8509 64.1208 84.4481 64.8575 84.4481H73.8779C73.1412 84.4483 72.5439 83.8509 72.5439 83.114Z" fill="#6550DD"/>
<path d="M46.0107 72.22H35.8857C35.1091 72.22 34.4795 71.5905 34.4795 70.8137C34.4795 70.0369 35.1091 69.4075 35.8857 69.4075H46.0107C46.7874 69.4075 47.417 70.0369 47.417 70.8137C47.417 71.5905 46.7874 72.22 46.0107 72.22Z" fill="#3C58A0"/>
<path d="M52.7607 77.7656H35.8857C35.1091 77.7656 34.4795 77.1362 34.4795 76.3594C34.4795 75.5826 35.1091 74.9531 35.8857 74.9531H52.7607C53.5374 74.9531 54.167 75.5826 54.167 76.3594C54.167 77.1362 53.5376 77.7656 52.7607 77.7656Z" fill="#BEC8F7"/>
<path d="M52.7607 83.3113H35.8857C35.1091 83.3113 34.4795 82.6818 34.4795 81.905C34.4795 81.1284 35.1091 80.4988 35.8857 80.4988H52.7607C53.5374 80.4988 54.167 81.1284 54.167 81.905C54.167 82.6817 53.5376 83.3113 52.7607 83.3113Z" fill="#BEC8F7"/>
<path d="M19.0701 58.4565H17.0771C16.3005 58.4565 15.6709 57.8271 15.6709 57.0503C15.6709 56.2735 16.3005 55.644 17.0771 55.644H19.0701C19.8467 55.644 20.4763 56.2735 20.4763 57.0503C20.4763 57.8271 19.8467 58.4565 19.0701 58.4565Z" fill="#1C2E7A"/>
<path d="M51.0721 58.4565H30.8223C30.0456 58.4565 29.416 57.8271 29.416 57.0503C29.416 56.2735 30.0456 55.644 30.8223 55.644H51.0721C51.8487 55.644 52.4783 56.2735 52.4783 57.0503C52.4783 57.8271 51.8489 58.4565 51.0721 58.4565Z" fill="#1C2E7A"/>
<path d="M30.8234 58.4565H23.9326C23.156 58.4565 22.5264 57.8271 22.5264 57.0503C22.5264 56.2735 23.156 55.644 23.9326 55.644H30.8234C31.6 55.644 32.2297 56.2735 32.2297 57.0503C32.2297 57.8271 31.6 58.4565 30.8234 58.4565Z" fill="#FF4155"/>
<path d="M30.8232 59.8126C30.0466 59.8126 29.417 59.1831 29.417 58.4063V55.6562C29.417 54.8794 30.0466 54.25 30.8232 54.25C31.5999 54.25 32.2295 54.8794 32.2295 55.6562V58.4063C32.2295 59.1831 31.5999 59.8126 30.8232 59.8126Z" fill="#FF7186"/>
<path d="M77.6163 32.9062C76.8843 32.9062 76.291 33.4995 76.291 34.2315V38.3057H83.5829C84.3198 38.3057 84.917 37.7083 84.917 36.9716V32.9062H77.6163Z" fill="#FFE98D"/>
<path d="M77.6163 55.9775C76.8843 55.9775 76.291 56.571 76.291 57.3028V61.377H83.5829C84.3198 61.377 84.917 60.7796 84.917 60.0429V55.9777H77.6163V55.9775Z" fill="#9BD8F9"/>
<path d="M77.6163 79.0488C76.8843 79.0488 76.291 79.642 76.291 80.374V84.448H78.4566C80.3253 82.7917 82.0581 80.986 83.636 79.0486H77.6163V79.0488Z" fill="#9181F2"/>
<path d="M42.1962 39.0309C43.2633 34.5987 40.5352 30.1407 36.103 29.0737C31.6709 28.0067 27.2129 30.7348 26.1459 35.1669C25.0788 39.5991 27.8069 44.0571 32.2391 45.1241C36.6713 46.1911 41.1292 43.4631 42.1962 39.0309Z" fill="#E9EFFF"/>
<path d="M34.1843 39.7202L32.0489 34.1319C28.342 34.1319 28.7695 30.8679 28.7695 30.8679C27.0293 32.3816 25.9277 34.6104 25.9277 37.098C25.9277 41.6578 29.6243 45.3544 34.1841 45.3544C35.0415 45.3544 35.8682 45.2235 36.6458 44.981C32.6927 43.2469 34.1843 39.7202 34.1843 39.7202Z" fill="#BEC8F7"/>
<path d="M37.4481 36.3051L33.1921 33.9194C32.5862 33.5798 31.8389 34.0176 31.8389 34.7121V39.4836C31.8389 40.1781 32.5862 40.6159 33.1921 40.2764L37.4481 37.8906C38.0674 37.5434 38.0674 36.6522 37.4481 36.3051Z" fill="#E80054"/>
<path d="M36.7199 35.8914L34.6036 34.7051C34.3023 34.5362 33.9307 34.7541 33.9307 35.0992V37.4719C33.9307 37.8172 34.3023 38.0349 34.6036 37.866L36.7199 36.6797C37.0278 36.5072 37.0278 36.0639 36.7199 35.8914Z" fill="#FF4155"/>
<path d="M20.7655 66.3489C15.418 66.3489 11.083 70.6839 11.083 76.0314C11.083 76.5558 11.1271 77.0698 11.2075 77.5717C12.3931 79.1548 13.6797 80.6574 15.0559 82.0726L15.0561 82.0723L20.4854 85.1036C20.5788 85.1066 20.6719 85.1101 20.7659 85.1101C24.6139 85.1101 27.9818 82.4868 27.9818 82.4868C29.5156 80.7734 30.4484 78.5116 30.4484 76.0316C30.4482 70.6839 26.113 66.3489 20.7655 66.3489Z" fill="#FF4155"/>
<path d="M30.2346 78.0501C26.6133 79.8375 24.0753 77.218 24.0753 77.218C24.0753 77.218 22.7907 68.6329 21.2584 68.245C20.1694 67.9693 20.1773 66.9362 20.2729 66.3613C15.1544 66.6178 11.083 70.8491 11.083 76.0315C11.083 76.5559 11.1271 77.0698 11.2075 77.5718C12.3931 79.1548 13.6797 80.6575 15.0559 82.0727L15.0561 82.0723L20.4854 85.1036C20.5788 85.1066 20.6719 85.1102 20.7659 85.1102C24.6139 85.1102 27.9818 82.4869 27.9818 82.4869C29.0869 81.252 29.8778 79.7312 30.2346 78.0501Z" fill="#E80054"/>
<path d="M18.1762 82.1163C18.9147 82.6899 19.8264 83.0015 20.765 83.0015C21.7036 83.0015 22.6152 82.69 23.3538 82.1163C23.6965 81.85 24.0537 81.5221 24.3985 81.1364C24.1996 81.0723 23.9971 81.0134 23.7897 80.9615C23.6641 80.93 23.5539 80.8544 23.4826 80.7541C23.1541 80.2908 23.0632 79.5745 23.0454 79.0552C22.8149 79.3235 22.5732 79.5479 22.3422 79.7274C21.4158 80.4468 20.1127 80.4459 19.1874 79.7274C18.9564 79.5479 18.7147 79.3235 18.4842 79.0552C18.4659 79.5862 18.3714 80.3229 18.0249 80.7847C17.9658 80.8634 17.8747 80.9279 17.7654 80.9549C17.5497 81.0084 17.3386 81.0693 17.1309 81.1364C17.476 81.5221 17.8332 81.85 18.1762 82.1163Z" fill="#FCAD6D"/>
<path d="M20.639 80.2615C20.1243 80.2364 19.616 80.0596 19.1883 79.7274C18.9573 79.5479 18.7156 79.3235 18.4852 79.0552C18.4668 79.5862 18.3723 80.3229 18.0258 80.7847C17.9668 80.8634 17.8756 80.9279 17.7663 80.9549C17.5507 81.0084 17.3396 81.0693 17.1318 81.1362C17.4768 81.5219 17.8338 81.8499 18.1768 82.1163C18.6459 82.4806 19.1851 82.7382 19.7565 82.8783C20.3536 81.9909 20.5683 80.9887 20.639 80.2615Z" fill="#FD995B"/>
<path d="M26.3349 81.9925C25.6717 81.6185 24.9868 81.3145 24.2484 81.0901C23.9092 81.4754 23.556 81.7998 23.2177 82.0625C22.518 82.6058 21.6545 82.901 20.7652 82.901C19.8759 82.901 19.0125 82.6058 18.3127 82.0625C17.9745 81.7998 17.6212 81.4754 17.2822 81.0901C16.5461 81.3143 15.8569 81.6196 15.1957 81.9925C15.1449 82.021 15.0992 82.0475 15.0557 82.0724C16.2324 83.2833 17.4729 84.4315 18.7762 85.5074C19.4184 85.6416 20.0833 85.7142 20.7654 85.7142C23.6329 85.7142 26.2087 84.4673 27.9817 82.4868C27.7245 82.4069 27.4425 82.3516 27.1329 82.3263C26.8384 82.3021 26.6818 82.1881 26.3349 81.9925Z" fill="#3C58A0"/>
<path d="M19.818 82.7862C19.2735 82.6538 18.7595 82.4093 18.3127 82.0625C17.9745 81.7998 17.6212 81.4754 17.2822 81.0901C16.5461 81.3143 15.8569 81.6196 15.1957 81.9925C15.1449 82.021 15.0992 82.0475 15.0557 82.0724C15.8818 82.9227 16.7415 83.74 17.6302 84.5251C18.675 84.1396 19.3655 83.4961 19.818 82.7862Z" fill="#2A428C"/>
<path d="M20.0035 68.2651C17.713 68.5771 17.4953 69.8757 17.4944 70.3521C17.4942 70.4521 17.4389 70.5447 17.3489 70.5884C16.1575 71.168 16.7999 73.9613 16.7999 73.9613C16.9195 73.9694 17.0989 74.072 17.1923 74.1171C17.2152 73.9748 17.2525 73.8346 17.3052 73.6992C17.3453 73.5959 17.3956 73.4916 17.4584 73.3932C17.5673 73.2222 17.617 73.0207 17.6022 72.8191C17.5594 72.2363 17.5257 71.1423 18.295 70.7961C18.9466 70.5029 19.7461 70.6728 20.2557 70.8423C20.5868 70.9523 20.9453 70.9523 21.2764 70.8423C21.7863 70.6728 22.5856 70.5029 23.2373 70.7961C24.0044 71.1413 23.9729 72.2298 23.9305 72.814C23.9159 73.0171 23.9641 73.2209 24.0739 73.3932C24.1388 73.4948 24.1902 73.6026 24.2311 73.7091C24.2819 73.8415 24.3179 73.9782 24.3402 74.1171C24.4579 74.0601 24.6803 73.9437 24.8243 73.9642C24.8419 73.3533 24.8984 72.695 24.8984 72.695C25.5771 69.3706 22.4697 67.9291 20.0035 68.2651Z" fill="#2A428C"/>
<path d="M20.0035 68.2661C17.713 68.5781 17.4953 69.8767 17.4944 70.3531C17.4942 70.4531 17.4389 70.5457 17.3489 70.5894C16.1575 71.1689 16.7999 73.9623 16.7999 73.9623C16.9195 73.9704 17.0989 74.0729 17.1923 74.1181C17.2152 73.9758 17.2525 73.8356 17.3052 73.7002C17.3453 73.5969 17.3956 73.4926 17.4584 73.3942C17.5673 73.2232 17.617 73.0216 17.6022 72.8201C17.5594 72.2373 17.5257 71.1432 18.295 70.7971C18.9466 70.5039 19.7461 70.6738 20.2557 70.8433C20.3952 70.8896 20.5396 70.9152 20.6847 70.9226C20.6624 70.8845 20.6388 70.8466 20.6121 70.8091C19.6294 69.428 20.9954 68.4217 21.259 68.2458C20.8364 68.204 20.4113 68.2106 20.0035 68.2661Z" fill="#1C2E7A"/>
<path d="M25.0279 74.0433C24.8496 73.8798 24.4943 73.9627 24.3406 74.0628C24.3743 74.2725 24.3762 74.487 24.3471 74.6986L24.1658 76.0192C24.1658 76.1257 24.1624 76.2301 24.1562 76.3327C24.5984 76.466 24.8179 76.0691 24.8551 75.7968C24.871 75.6796 24.8971 75.564 24.9331 75.4513C25.0506 75.084 25.4749 74.453 25.0279 74.0433Z" fill="#FCAD6D"/>
<path d="M16.5049 74.0433C16.6832 73.8798 17.0387 73.9627 17.1923 74.0628C17.1585 74.2725 17.1566 74.487 17.1857 74.6986L17.367 76.0192C17.367 76.1257 17.3704 76.2301 17.3766 76.3327C16.9345 76.466 16.7149 76.0691 16.6778 75.7968C16.6618 75.6796 16.6358 75.564 16.5998 75.4513C16.4822 75.084 16.0579 74.453 16.5049 74.0433Z" fill="#FD995B"/>
<path d="M24.2855 73.655C24.2447 73.5485 24.1933 73.4407 24.1284 73.3391C24.0185 73.1668 23.9704 72.9632 23.985 72.7599C24.0274 72.1757 24.0047 71.0329 23.2376 70.6879C22.586 70.3946 21.7867 70.5645 21.2769 70.734C20.9458 70.844 20.5871 70.844 20.256 70.734C19.7462 70.5645 18.9469 70.3948 18.2953 70.6879C17.5262 71.034 17.5055 72.1822 17.5483 72.765C17.5631 72.9665 17.5134 73.1683 17.4045 73.3391C17.3417 73.4375 17.2914 73.542 17.2513 73.6451C17.121 73.98 17.0829 74.343 17.1319 74.6985L17.3132 76.0192C17.3132 77.918 18.3268 79.2088 19.1891 79.8782C19.6391 80.2277 20.1945 80.4174 20.7665 80.4174C21.3386 80.4174 21.894 80.2275 22.344 79.8782C23.2061 79.2086 24.2197 77.918 24.2197 76.0192L24.401 74.6987C24.4494 74.3467 24.4129 73.9871 24.2855 73.655Z" fill="#F9BA8F"/>
<path d="M21.7061 79.8783C20.8439 79.2088 19.8303 77.9182 19.8303 76.0194L19.649 74.6986C19.6003 74.3431 19.6381 73.9799 19.7684 73.6453C19.8086 73.5421 19.8588 73.4379 19.9216 73.3393C20.0306 73.1683 20.0803 72.9667 20.0654 72.7651C20.0268 72.2383 20.0401 71.249 20.6114 70.8086C20.4909 70.7971 20.3711 70.7728 20.255 70.7341C19.7452 70.5646 18.9459 70.395 18.2943 70.688C17.5252 71.0341 17.5046 72.1824 17.5473 72.7651C17.5621 72.9667 17.5124 73.1685 17.4035 73.3393C17.3407 73.4377 17.2904 73.5421 17.2503 73.6453C17.12 73.9801 17.0819 74.3431 17.1309 74.6986L17.3122 76.0194C17.3122 77.9182 18.3258 79.2089 19.1881 79.8783C19.6381 80.2278 20.1935 80.4176 20.7656 80.4176C21.2092 80.4176 21.6425 80.303 22.0246 80.0887C21.9138 80.0268 21.8071 79.9569 21.7061 79.8783Z" fill="#FCAD6D"/>
<path d="M27.3431 72.3447C29.1038 72.3447 30.531 70.9175 30.531 69.1569C30.531 67.3963 29.1038 65.969 27.3431 65.969C25.5825 65.969 24.1553 67.3963 24.1553 69.1569C24.1553 70.9175 25.5825 72.3447 27.3431 72.3447Z" fill="#73C3F9"/>
<path d="M27.9819 70.1253C28.7091 70.1253 29.2987 69.5358 29.2987 68.8085C29.2987 68.0813 28.7091 67.4917 27.9819 67.4917C27.2546 67.4917 26.665 68.0813 26.665 68.8085C26.665 69.5358 27.2546 70.1253 27.9819 70.1253Z" fill="#9BD8F9"/>
</g>
<defs>
<clipPath id="clip0">
<rect width="96" height="96" fill="white"/>
</clipPath>
</defs>
</svg>
