<svg width="96" height="96" viewBox="0 0 96 96" fill="none" xmlns="http://www.w3.org/2000/svg">
<g clip-path="url(#clip0)">
<path d="M48 96C74.5097 96 96 74.5097 96 48C96 21.4903 74.5097 0 48 0C21.4903 0 0 21.4903 0 48C0 74.5097 21.4903 96 48 96Z" fill="#73C3F9"/>
<path d="M96.0001 48C96.0001 46.4182 95.9214 44.855 95.7719 43.3127L74.2406 21.7594C68.9478 16.4666 60.3358 16.4666 55.043 21.7594L47.4427 29.3597C43.2791 33.5233 42.3931 39.7399 44.78 44.7799C39.74 42.393 33.5234 43.2789 29.3598 47.4425L21.7597 55.0427C16.4669 60.3354 16.4668 68.9475 21.7595 74.2402L43.2888 95.7695C44.8391 95.9207 46.4103 96 48.0001 96C74.5098 96 96.0001 74.5097 96.0001 48Z" fill="#84CAFA"/>
<path d="M47.4422 48.5572C42.1495 43.2645 42.1495 34.6526 47.4422 29.3597L55.0425 21.7594C60.3353 16.4666 68.9473 16.4666 74.2401 21.7594C79.5328 27.0521 79.533 35.6642 74.2403 40.9569L66.64 48.5572C61.347 53.8502 52.735 53.8502 47.4422 48.5572ZM69.5455 26.454C66.8412 23.7497 62.4411 23.7499 59.737 26.454L52.1367 34.0543C49.4323 36.7586 49.4323 41.1585 52.1367 43.8628C54.841 46.5671 59.241 46.5671 61.9453 43.863L69.5457 36.2627C72.2496 33.5585 72.2496 29.1583 69.5455 26.454Z" fill="#000099"/>
<path d="M74.241 21.759L69.5462 26.4538C72.2509 29.1585 72.2509 33.5577 69.5462 36.2624L61.9452 43.8632C60.4272 45.3812 58.3748 46.0469 56.3873 45.8599C54.8361 45.7167 53.3234 45.0499 52.1367 43.8632L47.4434 48.5565C48.5359 49.6491 49.7702 50.5174 51.0893 51.1579C51.133 51.1804 51.1769 51.2003 51.2219 51.2215C56.26 53.608 62.4767 52.7209 66.6398 48.5579L74.2407 40.957C79.5336 35.6642 79.5336 27.0518 74.241 21.759Z" fill="#000066"/>
<path d="M21.7586 74.2404C16.4659 68.9476 16.4659 60.3356 21.7588 55.0428L29.3589 47.4427C34.6517 42.15 43.2635 42.15 48.5565 47.4427C53.8492 52.7355 53.8494 61.3475 48.5567 66.6403L40.9565 74.2404C35.6634 79.5333 27.0514 79.5333 21.7586 74.2404ZM43.8618 52.1371C41.1575 49.4328 36.7575 49.433 34.0534 52.1371L26.4532 59.7373C23.7489 62.4416 23.7489 66.8416 26.453 69.546C29.1573 72.2503 33.5574 72.2503 36.2617 69.546L43.8618 61.9458C46.566 59.2417 46.566 54.8415 43.8618 52.1371Z" fill="#000099"/>
<path d="M51.2212 51.2216C51.2 51.1766 51.1802 51.1327 51.1577 51.0891C50.5173 49.7698 49.6489 48.5355 48.5565 47.4431L43.863 52.1364C45.0497 53.3231 45.7164 54.8359 45.8597 56.3871C46.0466 58.3744 45.381 60.4269 43.863 61.9449L36.2619 69.5458C33.5572 72.2505 29.1581 72.2505 26.4534 69.5458L21.7588 74.2406C27.0515 79.5334 35.664 79.5334 40.9567 74.2406L48.5578 66.6396C52.7207 62.4767 53.6077 56.2597 51.2212 51.2216Z" fill="#000066"/>
<path d="M36.7742 59.6906C34.8049 57.9752 34.6918 55.0627 36.427 53.3276L53.3286 36.426C55.0637 34.6908 57.9763 34.8039 59.6916 36.7734C61.1966 38.5014 61.2041 41.0435 59.6574 42.5902L42.5912 59.6565C41.0441 61.2033 38.5022 61.1958 36.7742 59.6906Z" fill="#FFD899"/>
<path d="M59.657 42.5905L42.591 59.6566C41.0437 61.2038 38.5008 61.196 36.7732 59.6911C36.6896 59.6181 36.6101 59.5439 36.5332 59.467L59.4673 36.533C59.5441 36.6098 59.6184 36.6893 59.6913 36.773C61.1964 38.5002 61.2043 41.0433 59.657 42.5905Z" fill="#FFFAF2"/>
</g>
<defs>
<clipPath id="clip0">
<rect width="96" height="96" fill="white"/>
</clipPath>
</defs>
</svg>
