<svg width="96" height="96" viewBox="0 0 96 96" fill="none" xmlns="http://www.w3.org/2000/svg">
<path d="M48 96C74.5097 96 96 74.5097 96 48C96 21.4903 74.5097 0 48 0C21.4903 0 0 21.4903 0 48C0 74.5097 21.4903 96 48 96Z" fill="#73C3F9"/>
<path d="M95.5703 41.5718L74.9981 20.9995L21 74.9976L41.5727 95.5703C43.6753 95.8518 45.8203 95.9999 48 95.9999C74.5097 95.9999 96 74.5096 96 47.9999C96 45.82 95.8519 43.6748 95.5703 41.5718Z" fill="#149AF5"/>
<path d="M75 33.6562V75H21V33.6562L24.1641 30.4922H71.8359L75 33.6562Z" fill="#E0F4FF"/>
<path d="M75 33.6562V75H48V30.4922H71.8359L75 33.6562Z" fill="#BBDCFF"/>
<path d="M75 21H21V33.6562H75V21Z" fill="#61729B"/>
<path d="M75 21H48V33.6562H75V21Z" fill="#47568C"/>
<path d="M30.5986 25.7461H27.4346V28.9102H30.5986V25.7461Z" fill="#64E1DC"/>
<path d="M36.9268 25.7461H33.7627V28.9102H36.9268V25.7461Z" fill="#64E1DC"/>
<path d="M43.2549 25.7461H40.0908V28.9102H43.2549V25.7461Z" fill="#64E1DC"/>
<path d="M68.5664 25.7461H59.0742V28.9102H68.5664V25.7461Z" fill="#00C8C8"/>
<path d="M46.4189 52.7461H27.4346V40.0898H46.4189V52.7461Z" fill="#64E1DC"/>
<path d="M36.9268 59.0742H27.4346V62.2383H36.9268V59.0742Z" fill="#BBDCFF"/>
<path d="M36.9268 65.4023H27.4346V68.5664H36.9268V65.4023Z" fill="#BBDCFF"/>
<path d="M68.5664 65.4023H59.0742V68.5664H68.5664V65.4023Z" fill="#9ABADB"/>
<path d="M68.5664 59.0742H59.0742V62.2383H68.5664V59.0742Z" fill="#9ABADB"/>
<path d="M64.0923 44.8823H59.6176L41.7188 62.7811L37.2441 71.7304L46.1935 67.2558L64.0923 49.357V44.8823Z" fill="#FF641A"/>
<path d="M64.0923 49.357V44.8823L37.2441 71.7304L46.1935 67.2558L64.0923 49.357Z" fill="#F03800"/>
<path d="M66.3301 42.6452L64.0928 40.4077L59.6182 44.8824L61.8554 47.1198L64.0928 49.3571L68.5675 44.8824L66.3301 42.6452Z" fill="#61729B"/>
<path d="M68.5664 44.8818L66.3291 42.6445L61.8545 47.1191L64.0918 49.3565L68.5664 44.8818Z" fill="#47568C"/>
</svg>
