<svg width="96" height="96" viewBox="0 0 96 96" fill="none" xmlns="http://www.w3.org/2000/svg">
<path d="M48 96C74.5097 96 96 74.5097 96 48C96 21.4903 74.5097 0 48 0C21.4903 0 0 21.4903 0 48C0 74.5097 21.4903 96 48 96Z" fill="#73C3F9"/>
<path d="M96 48C96 47.9931 95.9998 47.9864 95.9998 47.9794L73.5238 25.5034L18.8438 70.4967L44.1973 95.8502C45.4521 95.9487 46.7199 96 48 96C74.5097 96 96 74.5097 96 48Z" fill="#67AFE0"/>
<path d="M73.5241 25.5034H48.0003L45.7207 65.5114L73.5241 63.2318V25.5034Z" fill="#9ABADB"/>
<path d="M22.4766 25.5034V63.2318L48.0004 65.5114V25.5034H22.4766Z" fill="#D1E8FF"/>
<path d="M77.1566 63.2317H48.0003L45.7207 66.8641L48.0003 70.4966H77.1566V63.2317Z" fill="#D1E8FF"/>
<path d="M48 63.2324H18.8438V70.4975H48V63.2324Z" fill="#F5F5FF"/>
<path d="M70.1073 28.9199H48.0003L45.7207 44.3675L48.0003 59.8148H70.1073V28.9199Z" fill="#294B6E"/>
<path d="M48.0008 28.9199H25.8945V59.8143H48.0008V28.9199Z" fill="#6283A3"/>
<path d="M39.2115 53.4189L30.1602 44.3675L39.2115 35.3162L41.6275 37.7321L34.992 44.3675L41.6275 51.003L39.2115 53.4189Z" fill="#F5F5FF"/>
<path d="M56.789 53.4189L54.373 51.003L61.0085 44.3675L54.373 37.7321L56.789 35.3162L65.8404 44.3675L56.789 53.4189Z" fill="#D1E8FF"/>
<path d="M44.2172 54.6273L47.5684 55.2939L51.7819 34.112L48.4307 33.4454L44.2172 54.6273Z" fill="#D1E8FF"/>
</svg>
