<svg width="96" height="96" viewBox="0 0 96 96" fill="none" xmlns="http://www.w3.org/2000/svg">
<path d="M47.999 61.9378C21.4889 61.9378 2.08621 31.9641 5.76196 25.1758C13.8811 10.1826 29.7507 0 47.999 0C66.2247 0 82.0775 10.1574 90.2058 25.1201C93.9003 31.9215 74.509 61.9378 47.999 61.9378Z" fill="#BBE2FC"/>
<path d="M96 48C96 52.8846 95.2704 57.5983 93.9133 62.0383C92.97 65.1263 91.7248 68.0816 90.2102 70.8713C88.6633 73.7213 62.5744 79.0937 48 79.0937C33.4256 79.0937 7.33669 73.7213 5.79206 70.8713C5.17537 69.7404 4.60481 68.5819 4.08187 67.3967C1.45688 61.4663 0 54.9037 0 48C0 39.3339 2.29688 31.2056 6.315 24.1875C14.5877 38.6381 30.1575 48.375 48 48.375C65.8425 48.375 81.4146 38.6381 89.685 24.1875C93.7031 31.2056 96 39.3339 96 48Z" fill="#73C3F9"/>
<path d="M90.2367 70.8186C88.8942 73.2979 87.3429 75.6452 85.6012 77.8367C84.0192 79.8304 82.2789 81.6936 80.4039 83.4098C79.9021 83.8692 79.3906 84.318 78.8697 84.7562C70.5247 91.7727 25.3715 91.7318 17.0097 84.6542C16.5305 84.2487 16.0593 83.8337 15.5965 83.41C13.7215 81.6938 11.9812 79.8306 10.3992 77.8369C8.65755 75.6454 7.10617 73.2981 5.76367 70.8188H90.2367V70.8186Z" fill="#23A1F6"/>
<path d="M79.1927 48.2347V33.6123H47.9987L40.6875 55.5457L79.1927 48.2347Z" fill="#435D7A"/>
<path d="M47.9987 33.6123H16.8047V40.9235L44.3432 44.579L47.9987 33.6123Z" fill="#A6CFE7"/>
<path d="M40.6875 40.9235H16.8047V48.2347L47.9987 55.5457V33.6123L40.6875 40.9235Z" fill="#5A7BA0"/>
<path d="M24.1152 72.1174L47.9979 96.0001H47.9982C54.6194 96.0001 60.9271 94.6589 66.665 92.2337C67.7296 91.0334 70.6376 88.1078 70.6376 88.1078C70.6376 88.1078 74.1937 87.3721 75.5476 87.3092C76.8084 86.4239 78.0247 85.4794 79.1924 84.4801V48.2346H75.5369L24.1152 72.1174Z" fill="#8DB3CF"/>
<path d="M20.4602 48.2346H16.8047V84.4801C17.9723 85.4792 19.1882 86.4235 20.4486 87.3087C21.9743 87.7686 25.9526 88.9887 25.9526 88.9887C25.9526 88.9887 28.3397 91.2166 29.2969 92.2187C35.0439 94.6534 41.3638 96.0001 47.9987 96.0001V51.8901L20.4602 48.2346Z" fill="#A6CFE7"/>
<path d="M26.9141 70.2171L47.9983 92.1994H66.7475C69.8596 90.8777 72.8023 89.2354 75.5368 87.3166V48.2346H47.9983L26.9141 70.2171Z" fill="#DFF5FF"/>
<path d="M29.2502 92.1994H47.9994V48.2346H20.4609V87.3166C23.1954 89.2354 26.1381 90.8777 29.2502 92.1994Z" fill="white"/>
<path d="M64.5703 39.0959V42.7514H60.9148V39.0959H64.5703Z" fill="#6ABB5E"/>
<path d="M71.8809 39.0957V42.7512H68.2254V39.0957H71.8809Z" fill="#DC4180"/>
<path d="M57.2598 39.0957V42.7512H53.6043V39.0957H57.2598Z" fill="#F2D332"/>
<path d="M55.9594 51.8901L48.6484 68.3401L71.8816 61.0291V51.8901H55.9594Z" fill="#2D3E53"/>
<path d="M55.9205 68.3401V51.8901H47.9594L40.6484 68.3401H55.9205Z" fill="#435D7A"/>
<path d="M47.9986 68.3401V51.8901H40.0378L32.7266 68.3401H47.9986Z" fill="#5A7BA0"/>
<path d="M40.0374 51.8901H24.1152V61.0291L40.0374 68.3401V51.8901Z" fill="#7397B8"/>
<path d="M47.9991 61.0293L43.125 74.8595L47.9991 88.6897H71.8821V61.0293H47.9991Z" fill="#64B0FB"/>
<path d="M24.1152 61.0293H47.9982V88.6897H24.1152V61.0293Z" fill="#7ED7FF"/>
<path d="M24.1152 61.0293H36.0567V88.6897H24.1152V61.0293Z" fill="#ADE6FF"/>
<path d="M30.7579 19.9746H30.4721C29.2057 19.9746 28.1797 18.9477 28.1797 17.682V17.3965H26.5457V17.682C26.5457 18.9477 25.5187 19.9746 24.2531 19.9746H23.9668V21.6087H24.2531C25.5187 21.6087 26.5457 22.6347 26.5457 23.9011V24.1876H28.1797V23.9011C28.1797 22.6347 29.2057 21.6087 30.4721 21.6087H30.7579V19.9746Z" fill="white"/>
<path d="M51.3965 13.1836H51.1108C49.8444 13.1836 48.8184 12.1567 48.8184 10.891V10.6055H47.1843V10.891C47.1843 12.1567 46.1574 13.1836 44.8918 13.1836H44.6055V14.8177H44.8918C46.1574 14.8177 47.1843 15.8437 47.1843 17.11V17.3965H48.8184V17.11C48.8184 15.8437 49.8444 14.8177 51.1108 14.8177H51.3965V13.1836Z" fill="white"/>
<path d="M71.6231 19.9746H71.3373C70.071 19.9746 69.045 18.9477 69.045 17.682V17.3965H67.4109V17.682C67.4109 18.9477 66.384 19.9746 65.1183 19.9746H64.832V21.6087H65.1183C66.384 21.6087 67.4109 22.6347 67.4109 23.9011V24.1876H69.045V23.9011C69.045 22.6347 70.071 21.6087 71.3373 21.6087H71.6231V19.9746Z" fill="white"/>
</svg>
