<svg width="258" height="243" viewBox="0 0 258 243" fill="none" xmlns="http://www.w3.org/2000/svg">
<g filter="url(#filter0_dd)">
<rect x="54" y="19" width="168" height="187" rx="8" fill="white"/>
<rect x="110" y="122" width="8" height="8" rx="1" transform="rotate(45 110 122)" fill="#1A1A1A"/>
<rect x="90" y="96" width="40" height="32" rx="3" fill="#1A1A1A"/>
<path d="M102.061 109.08H100.369V108.06H103.249V117H102.061V109.08ZM109.131 113.496C108.915 113.592 108.643 113.64 108.315 113.64C107.795 113.64 107.323 113.52 106.899 113.28C106.475 113.032 106.139 112.692 105.891 112.26C105.651 111.828 105.531 111.34 105.531 110.796C105.531 110.252 105.659 109.76 105.915 109.32C106.171 108.88 106.523 108.536 106.971 108.288C107.419 108.04 107.923 107.916 108.483 107.916C109.051 107.916 109.559 108.044 110.007 108.3C110.463 108.548 110.815 108.896 111.063 109.344C111.319 109.792 111.447 110.3 111.447 110.868C111.447 111.34 111.363 111.804 111.195 112.26C111.027 112.716 110.755 113.192 110.379 113.688L107.859 117H106.443L109.131 113.496ZM106.719 110.796C106.719 111.324 106.883 111.76 107.211 112.104C107.547 112.44 107.971 112.608 108.483 112.608C108.995 112.608 109.419 112.44 109.755 112.104C110.091 111.76 110.259 111.324 110.259 110.796C110.259 110.452 110.183 110.14 110.031 109.86C109.879 109.58 109.667 109.36 109.395 109.2C109.123 109.04 108.819 108.96 108.483 108.96C108.155 108.96 107.855 109.04 107.583 109.2C107.311 109.36 107.099 109.58 106.947 109.86C106.795 110.14 106.719 110.452 106.719 110.796ZM113.139 116.184L115.611 113.508L115.827 113.28C116.339 112.728 116.707 112.316 116.931 112.044C117.163 111.764 117.335 111.504 117.447 111.264C117.567 111.016 117.627 110.756 117.627 110.484C117.627 110.004 117.483 109.632 117.195 109.368C116.915 109.096 116.535 108.96 116.055 108.96C115.575 108.96 115.167 109.1 114.831 109.38C114.495 109.652 114.263 110.04 114.135 110.544L113.067 110.268C113.219 109.548 113.567 108.976 114.111 108.552C114.655 108.128 115.303 107.916 116.055 107.916C116.591 107.916 117.067 108.024 117.483 108.24C117.907 108.448 118.235 108.744 118.467 109.128C118.699 109.504 118.815 109.936 118.815 110.424C118.815 110.896 118.675 111.36 118.395 111.816C118.123 112.264 117.651 112.852 116.979 113.58L114.771 115.98H119.007V117H113.139V116.184Z" fill="white"/>
<path d="M74.64 54.144C73.68 54.0053 72.8373 53.648 72.112 53.072C71.3973 52.4853 70.9013 51.7547 70.624 50.88L72.432 50.096C72.656 50.6293 72.9547 51.072 73.328 51.424C73.712 51.776 74.1493 52.0213 74.64 52.16V48.928L73.872 48.688C72.9547 48.3893 72.256 47.9573 71.776 47.392C71.3067 46.8267 71.072 46.1493 71.072 45.36C71.072 44.7307 71.2213 44.1653 71.52 43.664C71.8187 43.152 72.2347 42.7467 72.768 42.448C73.312 42.1387 73.936 41.9573 74.64 41.904V40.48H76V41.968C76.8427 42.1067 77.5733 42.432 78.192 42.944C78.8107 43.456 79.2587 44.096 79.536 44.864L77.744 45.664C77.5733 45.2373 77.3387 44.88 77.04 44.592C76.7413 44.2933 76.3947 44.0747 76 43.936V47.184L76.704 47.408C78.6027 48.016 79.552 49.1147 79.552 50.704C79.552 51.3227 79.4027 51.8827 79.104 52.384C78.816 52.8747 78.4 53.28 77.856 53.6C77.3227 53.9093 76.704 54.096 76 54.16V55.6H74.64V54.144ZM73.216 45.264C73.216 45.5947 73.3227 45.888 73.536 46.144C73.76 46.3893 74.0853 46.5813 74.512 46.72L74.64 46.768V43.824C74.2027 43.888 73.856 44.048 73.6 44.304C73.344 44.56 73.216 44.88 73.216 45.264ZM76 52.256C76.4373 52.1813 76.7787 52.0213 77.024 51.776C77.28 51.52 77.408 51.2053 77.408 50.832C77.408 50.48 77.3067 50.192 77.104 49.968C76.9013 49.744 76.5867 49.5627 76.16 49.424L76 49.376V52.256ZM85.8554 54.192C85.0127 54.192 84.2714 54.032 83.6314 53.712C82.9914 53.3813 82.4954 52.944 82.1434 52.4C81.7914 51.8453 81.6154 51.232 81.6154 50.56C81.6154 49.9093 81.7647 49.3387 82.0634 48.848C82.3727 48.3573 82.8154 47.9627 83.3914 47.664C82.986 47.4187 82.666 47.072 82.4314 46.624C82.2074 46.1653 82.0954 45.6693 82.0954 45.136C82.0954 44.5173 82.2554 43.9627 82.5754 43.472C82.8954 42.9813 83.338 42.5973 83.9034 42.32C84.4794 42.032 85.13 41.888 85.8554 41.888C86.57 41.888 87.21 42.0267 87.7754 42.304C88.3514 42.5813 88.7994 42.9707 89.1194 43.472C89.4394 43.9627 89.5994 44.5173 89.5994 45.136C89.5994 45.6587 89.4874 46.144 89.2634 46.592C89.0394 47.04 88.7247 47.3973 88.3194 47.664C88.8954 47.9733 89.3327 48.3733 89.6314 48.864C89.9407 49.3547 90.0954 49.9253 90.0954 50.576C90.0954 51.2373 89.9194 51.8453 89.5674 52.4C89.2154 52.944 88.714 53.3813 88.0634 53.712C87.4234 54.032 86.6874 54.192 85.8554 54.192ZM83.8074 50.496C83.8074 51.0507 83.994 51.4987 84.3674 51.84C84.7407 52.1813 85.2367 52.352 85.8554 52.352C86.474 52.352 86.97 52.1813 87.3434 51.84C87.7274 51.4987 87.9194 51.0507 87.9194 50.496C87.9194 49.9413 87.7274 49.4987 87.3434 49.168C86.97 48.8267 86.474 48.656 85.8554 48.656C85.2367 48.656 84.7407 48.8267 84.3674 49.168C83.994 49.4987 83.8074 49.9413 83.8074 50.496ZM84.2714 45.264C84.2714 45.712 84.4154 46.0853 84.7034 46.384C85.002 46.672 85.386 46.816 85.8554 46.816C86.314 46.816 86.6874 46.672 86.9754 46.384C87.274 46.0853 87.4234 45.712 87.4234 45.264C87.4234 44.816 87.274 44.448 86.9754 44.16C86.6874 43.872 86.314 43.728 85.8554 43.728C85.386 43.728 85.002 43.872 84.7034 44.16C84.4154 44.448 84.2714 44.816 84.2714 45.264ZM96.1807 54.192C95.3807 54.192 94.6661 54.0213 94.0367 53.68C93.4074 53.3387 92.9167 52.8693 92.5647 52.272C92.2127 51.664 92.0367 50.9867 92.0367 50.24C92.0367 49.6107 92.1434 49.008 92.3567 48.432C92.5701 47.8453 92.9701 47.168 93.5567 46.4L96.8847 42.08H99.4767L96.0687 46.448C96.2821 46.4267 96.4421 46.416 96.5487 46.416C97.2634 46.416 97.9034 46.5813 98.4687 46.912C99.0447 47.2427 99.4927 47.696 99.8127 48.272C100.143 48.8373 100.309 49.4773 100.309 50.192C100.309 50.9493 100.133 51.632 99.7807 52.24C99.4287 52.848 98.9381 53.328 98.3087 53.68C97.6794 54.0213 96.9701 54.192 96.1807 54.192ZM94.2127 50.224C94.2127 50.8107 94.3994 51.2907 94.7727 51.664C95.1567 52.0373 95.6261 52.224 96.1807 52.224C96.7354 52.224 97.1994 52.0373 97.5727 51.664C97.9461 51.2907 98.1327 50.8107 98.1327 50.224C98.1327 49.6373 97.9461 49.1573 97.5727 48.784C97.1994 48.4107 96.7354 48.224 96.1807 48.224C95.6261 48.224 95.1567 48.4107 94.7727 48.784C94.3994 49.1573 94.2127 49.6373 94.2127 50.224ZM103.062 55.488C103.798 55.3067 104.23 54.8107 104.358 54C104.07 54 103.83 53.8987 103.638 53.696C103.456 53.4933 103.366 53.2373 103.366 52.928C103.366 52.6187 103.467 52.3627 103.67 52.16C103.872 51.9467 104.128 51.84 104.438 51.84C104.758 51.84 105.014 51.9467 105.206 52.16C105.408 52.3627 105.51 52.6827 105.51 53.12C105.51 54.0587 105.302 54.8107 104.886 55.376C104.47 55.952 103.862 56.3253 103.062 56.496V55.488ZM113.684 43.904H108.068V42.064H115.972V43.904L111.124 54H108.724L113.684 43.904ZM122.614 54.192C121.675 54.192 120.843 53.936 120.118 53.424C119.403 52.912 118.843 52.192 118.438 51.264C118.043 50.3253 117.846 49.248 117.846 48.032C117.846 46.816 118.043 45.744 118.438 44.816C118.843 43.888 119.403 43.168 120.118 42.656C120.833 42.144 121.659 41.888 122.598 41.888C123.547 41.888 124.385 42.144 125.11 42.656C125.835 43.168 126.395 43.888 126.79 44.816C127.195 45.744 127.398 46.816 127.398 48.032C127.398 49.248 127.195 50.3253 126.79 51.264C126.395 52.192 125.835 52.912 125.11 53.424C124.395 53.936 123.563 54.192 122.614 54.192ZM120.022 48.032C120.022 49.3227 120.251 50.3413 120.71 51.088C121.169 51.8347 121.803 52.208 122.614 52.208C123.425 52.208 124.059 51.84 124.518 51.104C124.987 50.3573 125.222 49.3333 125.222 48.032C125.222 46.7413 124.987 45.728 124.518 44.992C124.059 44.2453 123.419 43.872 122.598 43.872C121.787 43.872 121.153 44.24 120.694 44.976C120.246 45.712 120.022 46.7307 120.022 48.032ZM134.382 54.192C133.443 54.192 132.611 53.936 131.886 53.424C131.171 52.912 130.611 52.192 130.206 51.264C129.811 50.3253 129.614 49.248 129.614 48.032C129.614 46.816 129.811 45.744 130.206 44.816C130.611 43.888 131.171 43.168 131.886 42.656C132.601 42.144 133.427 41.888 134.366 41.888C135.315 41.888 136.153 42.144 136.878 42.656C137.603 43.168 138.163 43.888 138.558 44.816C138.963 45.744 139.166 46.816 139.166 48.032C139.166 49.248 138.963 50.3253 138.558 51.264C138.163 52.192 137.603 52.912 136.878 53.424C136.163 53.936 135.331 54.192 134.382 54.192ZM131.79 48.032C131.79 49.3227 132.019 50.3413 132.478 51.088C132.937 51.8347 133.571 52.208 134.382 52.208C135.193 52.208 135.827 51.84 136.286 51.104C136.755 50.3573 136.99 49.3333 136.99 48.032C136.99 46.7413 136.755 45.728 136.286 44.992C135.827 44.2453 135.187 43.872 134.366 43.872C133.555 43.872 132.921 44.24 132.462 44.976C132.014 45.712 131.79 46.7307 131.79 48.032Z" fill="#1A1A1A"/>
<path d="M72.982 67.83H70.154V66.57H77.154V67.83H74.368V77H72.982V67.83ZM81.1721 77.168C80.4534 77.168 79.7954 77 79.1981 76.664C78.6101 76.3187 78.1434 75.8473 77.7981 75.25C77.4527 74.6433 77.2801 73.9667 77.2801 73.22C77.2801 72.4827 77.4481 71.8153 77.7841 71.218C78.1294 70.6113 78.5961 70.14 79.1841 69.804C79.7814 69.4587 80.4441 69.286 81.1721 69.286C81.8907 69.286 82.5441 69.4587 83.1321 69.804C83.7294 70.14 84.1961 70.6067 84.5321 71.204C84.8774 71.8013 85.0501 72.4733 85.0501 73.22C85.0501 73.976 84.8774 74.6527 84.5321 75.25C84.1867 75.8473 83.7154 76.3187 83.1181 76.664C82.5301 77 81.8814 77.168 81.1721 77.168ZM78.6521 73.22C78.6521 73.724 78.7594 74.1813 78.9741 74.592C79.1981 75.0027 79.5014 75.3247 79.8841 75.558C80.2761 75.7913 80.7054 75.908 81.1721 75.908C81.6294 75.908 82.0494 75.7913 82.4321 75.558C82.8147 75.3247 83.1134 75.0027 83.3281 74.592C83.5521 74.1813 83.6641 73.724 83.6641 73.22C83.6641 72.716 83.5521 72.2633 83.3281 71.862C83.1134 71.4513 82.8147 71.1293 82.4321 70.896C82.0494 70.6627 81.6294 70.546 81.1721 70.546C80.7054 70.546 80.2761 70.6627 79.8841 70.896C79.5014 71.1293 79.1981 71.4513 78.9741 71.862C78.7594 72.2633 78.6521 72.716 78.6521 73.22ZM89.9275 77.084C89.1902 77.084 88.6208 76.8787 88.2195 76.468C87.8275 76.048 87.6315 75.4507 87.6315 74.676V70.7H86.2595V69.454H86.5395C86.8755 69.454 87.1415 69.356 87.3375 69.16C87.5335 68.9547 87.6315 68.6793 87.6315 68.334V67.718H88.9335V69.454H90.6275V70.7H88.9335V74.634C88.9335 75.474 89.3535 75.894 90.1935 75.894C90.3708 75.894 90.5435 75.88 90.7115 75.852V77.014C90.5155 77.0607 90.2542 77.084 89.9275 77.084ZM94.7649 77.168C94.0183 77.168 93.4116 76.972 92.9449 76.58C92.4783 76.1787 92.2449 75.6607 92.2449 75.026C92.2449 74.41 92.4456 73.8967 92.8469 73.486C93.2576 73.066 93.8783 72.786 94.7089 72.646L97.2849 72.226V71.876C97.2849 71.4653 97.1309 71.134 96.8229 70.882C96.5149 70.6207 96.1183 70.49 95.6329 70.49C95.2036 70.49 94.8209 70.602 94.4849 70.826C94.1583 71.0407 93.9156 71.33 93.7569 71.694L92.6229 71.106C92.8376 70.5833 93.2296 70.1493 93.7989 69.804C94.3683 69.4587 94.9889 69.286 95.6609 69.286C96.2303 69.286 96.7343 69.398 97.1729 69.622C97.6209 69.8367 97.9663 70.14 98.2089 70.532C98.4609 70.924 98.5869 71.372 98.5869 71.876V77H97.3129V76.02C97.0423 76.3747 96.6829 76.6547 96.2349 76.86C95.7963 77.0653 95.3063 77.168 94.7649 77.168ZM93.6169 74.984C93.6169 75.292 93.7383 75.5487 93.9809 75.754C94.2329 75.9593 94.5456 76.062 94.9189 76.062C95.3763 76.062 95.7823 75.964 96.1369 75.768C96.5009 75.5627 96.7809 75.2873 96.9769 74.942C97.1823 74.5967 97.2849 74.214 97.2849 73.794V73.318L95.0029 73.696C94.0789 73.8547 93.6169 74.284 93.6169 74.984ZM100.856 66.402H102.158V77H100.856V66.402ZM110.836 77.168C110.127 77.168 109.492 77.0373 108.932 76.776C108.372 76.5053 107.91 76.1507 107.546 75.712C107.182 75.264 106.93 74.7833 106.79 74.27L108.05 73.878C108.246 74.5033 108.61 74.998 109.142 75.362C109.683 75.726 110.248 75.908 110.836 75.908C111.228 75.908 111.578 75.8287 111.886 75.67C112.203 75.5113 112.451 75.3107 112.628 75.068C112.805 74.8253 112.894 74.5827 112.894 74.34C112.894 73.9573 112.759 73.612 112.488 73.304C112.227 72.996 111.863 72.7907 111.396 72.688L109.632 72.296C108.885 72.1373 108.293 71.7827 107.854 71.232C107.425 70.672 107.21 70.0327 107.21 69.314C107.21 68.7633 107.35 68.2687 107.63 67.83C107.919 67.382 108.311 67.032 108.806 66.78C109.301 66.528 109.847 66.402 110.444 66.402C111.107 66.402 111.695 66.5187 112.208 66.752C112.731 66.9853 113.155 67.298 113.482 67.69C113.818 68.0727 114.056 68.488 114.196 68.936L112.95 69.384C112.745 68.8333 112.404 68.4087 111.928 68.11C111.461 67.8113 110.971 67.662 110.458 67.662C110.103 67.662 109.786 67.7413 109.506 67.9C109.226 68.0493 109.007 68.2453 108.848 68.488C108.689 68.7307 108.61 68.978 108.61 69.23C108.61 69.622 108.75 69.9813 109.03 70.308C109.319 70.6253 109.679 70.8307 110.108 70.924L111.704 71.288C112.544 71.4747 113.188 71.8293 113.636 72.352C114.084 72.8747 114.308 73.5 114.308 74.228C114.308 74.7787 114.163 75.278 113.874 75.726C113.585 76.174 113.174 76.5287 112.642 76.79C112.119 77.042 111.517 77.168 110.836 77.168ZM118.406 77.168C117.659 77.168 117.052 76.972 116.586 76.58C116.119 76.1787 115.886 75.6607 115.886 75.026C115.886 74.41 116.086 73.8967 116.488 73.486C116.898 73.066 117.519 72.786 118.35 72.646L120.926 72.226V71.876C120.926 71.4653 120.772 71.134 120.464 70.882C120.156 70.6207 119.759 70.49 119.274 70.49C118.844 70.49 118.462 70.602 118.126 70.826C117.799 71.0407 117.556 71.33 117.398 71.694L116.264 71.106C116.478 70.5833 116.87 70.1493 117.44 69.804C118.009 69.4587 118.63 69.286 119.302 69.286C119.871 69.286 120.375 69.398 120.814 69.622C121.262 69.8367 121.607 70.14 121.85 70.532C122.102 70.924 122.228 71.372 122.228 71.876V77H120.954V76.02C120.683 76.3747 120.324 76.6547 119.876 76.86C119.437 77.0653 118.947 77.168 118.406 77.168ZM117.258 74.984C117.258 75.292 117.379 75.5487 117.622 75.754C117.874 75.9593 118.186 76.062 118.56 76.062C119.017 76.062 119.423 75.964 119.778 75.768C120.142 75.5627 120.422 75.2873 120.618 74.942C120.823 74.5967 120.926 74.214 120.926 73.794V73.318L118.644 73.696C117.72 73.8547 117.258 74.284 117.258 74.984ZM124.496 66.402H125.798V77H124.496V66.402ZM131.541 77.168C130.831 77.168 130.187 76.9953 129.609 76.65C129.03 76.3047 128.577 75.8333 128.251 75.236C127.924 74.6293 127.761 73.9527 127.761 73.206C127.761 72.4593 127.919 71.7873 128.237 71.19C128.563 70.5927 129.002 70.126 129.553 69.79C130.113 69.454 130.738 69.286 131.429 69.286C132.147 69.286 132.773 69.454 133.305 69.79C133.846 70.126 134.257 70.574 134.537 71.134C134.826 71.6847 134.971 72.2773 134.971 72.912C134.971 73.1267 134.947 73.36 134.901 73.612H129.133C129.151 74.088 129.273 74.5033 129.497 74.858C129.721 75.2127 130.01 75.488 130.365 75.684C130.729 75.88 131.125 75.978 131.555 75.978C132.469 75.978 133.174 75.5627 133.669 74.732L134.761 75.292C134.518 75.8333 134.107 76.2813 133.529 76.636C132.95 76.9907 132.287 77.168 131.541 77.168ZM133.557 72.492C133.538 71.904 133.323 71.4187 132.913 71.036C132.511 70.644 132.017 70.448 131.429 70.448C130.85 70.448 130.351 70.6347 129.931 71.008C129.511 71.372 129.254 71.8667 129.161 72.492H133.557ZM139.62 77.168C138.892 77.168 138.248 76.9907 137.688 76.636C137.128 76.272 136.727 75.782 136.484 75.166L137.534 74.634C137.749 75.0727 138.043 75.418 138.416 75.67C138.789 75.922 139.195 76.048 139.634 76.048C140.054 76.048 140.399 75.95 140.67 75.754C140.941 75.558 141.076 75.3013 141.076 74.984C141.076 74.676 140.955 74.4287 140.712 74.242C140.469 74.046 140.208 73.9293 139.928 73.892L138.794 73.738C138.122 73.57 137.618 73.29 137.282 72.898C136.946 72.506 136.778 72.044 136.778 71.512C136.778 71.0733 136.89 70.686 137.114 70.35C137.347 70.014 137.665 69.7527 138.066 69.566C138.477 69.3793 138.929 69.286 139.424 69.286C140.077 69.286 140.661 69.4493 141.174 69.776C141.697 70.1027 142.07 70.5553 142.294 71.134L141.258 71.666C141.071 71.2833 140.81 70.98 140.474 70.756C140.147 70.532 139.783 70.42 139.382 70.42C138.999 70.42 138.691 70.5133 138.458 70.7C138.225 70.8867 138.108 71.1293 138.108 71.428C138.108 71.736 138.215 71.9833 138.43 72.17C138.654 72.3473 138.897 72.4593 139.158 72.506L140.404 72.674C141.029 72.842 141.515 73.1313 141.86 73.542C142.215 73.9433 142.392 74.41 142.392 74.942C142.392 75.3713 142.275 75.754 142.042 76.09C141.809 76.426 141.482 76.692 141.062 76.888C140.642 77.0747 140.161 77.168 139.62 77.168Z" fill="#607D8B"/>
<g opacity="0.24" clip-path="url(#clip0)">
<path d="M-188.111 189.08C-207.555 189.08 -198.764 173.581 -225.394 173.581C-250.693 173.581 -242.704 195.194 -262.677 195.194C-287.643 195.194 -275.327 187.231 -299.96 187.231C-324.26 187.516 -312.942 198.606 -337.243 198.606V206H222V122.394C196.701 122.394 210.016 134.195 184.717 134.338C159.418 134.48 174.822 126.375 147.434 126.375C124.133 126.375 135.118 139.456 110.151 139.456C85.1853 139.456 94.1731 154.244 72.8686 154.244C49.3139 154.244 63.8625 134.338 35.5858 134.338C7.30902 134.338 24.0242 158.509 -1.6971 158.509C-28.6606 158.509 -14.0137 145.713 -38.9799 145.713C-66.2763 145.713 -47.9865 159.505 -75.9299 159.505C-107.123 159.505 -87.9137 175.856 -113.546 175.856C-139.178 175.856 -126.774 166.614 -150.828 166.614C-176.128 166.614 -163.328 189.08 -188.111 189.08Z" fill="#FFD700"/>
</g>
<g clip-path="url(#clip1)">
<path d="M222 122.394C196.701 122.394 210.016 134.195 184.717 134.338C159.418 134.48 174.822 126.375 147.434 126.375C124.133 126.375 135.118 139.456 110.151 139.456C85.1853 139.456 94.1731 154.244 72.8686 154.244C49.3139 154.244 63.8625 134.338 35.5858 134.338C7.30902 134.338 24.0242 158.509 -1.6971 158.509C-28.6606 158.509 -14.0138 145.713 -38.9799 145.713C-66.2763 145.713 -47.9865 159.505 -75.9299 159.505C-107.123 159.505 -87.9137 175.856 -113.546 175.856C-139.178 175.856 -126.774 166.614 -150.828 166.614C-176.128 166.614 -163.328 189.08 -188.111 189.08C-207.555 189.08 -198.764 173.581 -225.394 173.581C-250.693 173.581 -242.704 195.194 -262.677 195.194C-287.643 195.194 -275.327 187.231 -299.96 187.231C-324.26 187.516 -312.942 198.606 -337.243 198.606" stroke="#0000FE" stroke-width="1.33153" stroke-linecap="round" stroke-linejoin="round"/>
</g>
<rect width="8" height="8" rx="4" transform="matrix(-1 0 0 1 188.701 129.93)" fill="#0000FE"/>
<rect width="5" height="5" rx="2.5" transform="matrix(-1 0 0 1 187.369 131.262)" fill="white"/>
<rect width="8" height="8" rx="4" transform="matrix(-1 0 0 1 151.418 121.968)" fill="#0000FE"/>
<rect width="5" height="5" rx="2.5" transform="matrix(-1 0 0 1 150.087 123.3)" fill="white"/>
<rect width="8" height="8" rx="4" transform="matrix(-1 0 0 1 114.135 135.049)" fill="#0000FE"/>
<rect width="5" height="5" rx="2.5" transform="matrix(-1 0 0 1 112.804 136.381)" fill="white"/>
<rect width="8" height="8" rx="4" transform="matrix(-1 0 0 1 76.8525 149.837)" fill="#0000FE"/>
<rect width="5" height="5" rx="2.5" transform="matrix(-1 0 0 1 75.521 151.168)" fill="white"/>
<rect width="8" height="8" rx="4" transform="matrix(-1 0 0 1 225.984 117.987)" fill="#0000FE"/>
<rect width="5" height="5" rx="2.5" transform="matrix(-1 0 0 1 224.652 119.318)" fill="white"/>
</g>
<defs>
<filter id="filter0_dd" x="0.506321" y="0.939761" width="256.573" height="241.181" filterUnits="userSpaceOnUse" color-interpolation-filters="sRGB">
<feFlood flood-opacity="0" result="BackgroundImageFix"/>
<feColorMatrix in="SourceAlpha" type="matrix" values="0 0 0 0 0 0 0 0 0 0 0 0 0 0 0 0 0 0 127 0" result="hardAlpha"/>
<feOffset dy="3.38629"/>
<feGaussianBlur stdDeviation="2.82191"/>
<feColorMatrix type="matrix" values="0 0 0 0 0.690196 0 0 0 0 0.745098 0 0 0 0 0.772549 0 0 0 0.32 0"/>
<feBlend mode="multiply" in2="BackgroundImageFix" result="effect1_dropShadow"/>
<feColorMatrix in="SourceAlpha" type="matrix" values="0 0 0 0 0 0 0 0 0 0 0 0 0 0 0 0 0 0 127 0" result="hardAlpha"/>
<feOffset dy="9.03012"/>
<feGaussianBlur stdDeviation="13.5452"/>
<feColorMatrix type="matrix" values="0 0 0 0 0.690196 0 0 0 0 0.745098 0 0 0 0 0.772549 0 0 0 0.32 0"/>
<feBlend mode="multiply" in2="effect1_dropShadow" result="effect2_dropShadow"/>
<feBlend mode="normal" in="SourceGraphic" in2="effect2_dropShadow" result="shape"/>
</filter>
<clipPath id="clip0">
<rect width="168" height="83.0375" fill="white" transform="matrix(-1 0 0 1 222 122.963)"/>
</clipPath>
<clipPath id="clip1">
<rect width="168" height="91" fill="white" transform="matrix(-1 0 0 1 222 115)"/>
</clipPath>
</defs>
</svg>
