<svg width="240" height="240" viewBox="0 0 240 240" fill="none" xmlns="http://www.w3.org/2000/svg">
<path d="M120 20C175.228 20 220 64.7716 220 120C220 175.228 175.228 220 120 220C64.7715 220 20 175.228 20 120C20 64.7716 64.7715 20 120 20ZM120 200C164.183 200 200 164.183 200 120C200 75.8172 164.183 40 120 40C75.8172 40 40 75.8172 40 120C40 164.183 75.8172 200 120 200Z" fill="#FAFAFA"/>
<path d="M20 120C20 99.7505 26.1476 79.978 37.6295 63.2983C49.1113 46.6186 65.3865 33.8177 84.3018 26.5889C103.217 19.3602 123.881 18.0443 143.561 22.8153C163.24 27.5863 181.008 38.2194 194.513 53.3079C208.018 68.3964 216.624 87.2294 219.192 107.315C221.761 127.401 218.171 147.794 208.898 165.795C199.624 183.797 185.104 198.559 167.259 208.128C149.413 217.698 129.083 221.625 108.957 219.388L111.166 199.511C127.266 201.3 143.53 198.159 157.807 190.503C172.083 182.847 183.699 171.037 191.118 156.636C198.537 142.235 201.409 125.921 199.354 109.852C197.299 93.7835 190.414 78.7172 179.61 66.6463C168.806 54.5755 154.592 46.069 138.849 42.2522C123.105 38.4354 106.574 39.4882 91.4415 45.2711C76.3092 51.0541 63.2891 61.2949 54.1036 74.6386C44.9181 87.9824 40 103.8 40 120L20 120Z" fill="#000066"/>
<path d="M81.512 135.432C80.024 135.432 78.596 135.144 77.228 134.568C75.884 133.992 74.744 133.188 73.808 132.156C72.872 131.124 72.26 129.924 71.972 128.556L76.904 126.9C77.288 128.052 77.876 128.928 78.668 129.528C79.484 130.104 80.432 130.392 81.512 130.392C82.832 130.392 83.876 130.032 84.644 129.312C85.436 128.568 85.832 127.572 85.832 126.324C85.832 125.1 85.448 124.14 84.68 123.444C83.912 122.724 82.856 122.364 81.512 122.364C80.408 122.364 79.4 122.592 78.488 123.048L77.192 120.348L84.068 112.86H73.592V108.18H90.332V112.5L85.148 118.404C87.068 118.74 88.592 119.604 89.72 120.996C90.848 122.364 91.412 124.068 91.412 126.108C91.412 127.86 90.98 129.456 90.116 130.896C89.276 132.312 88.1 133.428 86.588 134.244C85.076 135.036 83.384 135.432 81.512 135.432ZM104.419 135.432C102.475 135.432 100.759 135.072 99.271 134.352C97.807 133.608 96.679 132.612 95.887 131.364C95.119 130.116 94.735 128.748 94.735 127.26C94.735 124.428 95.983 122.316 98.479 120.924C97.591 120.348 96.895 119.556 96.391 118.548C95.911 117.516 95.671 116.4 95.671 115.2C95.671 113.784 96.043 112.512 96.787 111.384C97.531 110.232 98.563 109.344 99.883 108.72C101.227 108.072 102.739 107.748 104.419 107.748C106.099 107.748 107.599 108.072 108.919 108.72C110.239 109.344 111.271 110.232 112.015 111.384C112.783 112.512 113.167 113.784 113.167 115.2C113.167 116.376 112.915 117.48 112.411 118.512C111.931 119.52 111.247 120.324 110.359 120.924C112.903 122.34 114.175 124.464 114.175 127.296C114.175 128.76 113.779 130.116 112.987 131.364C112.195 132.612 111.055 133.608 109.567 134.352C108.079 135.072 106.363 135.432 104.419 135.432ZM100.315 127.08C100.315 128.184 100.687 129.072 101.431 129.744C102.199 130.416 103.195 130.752 104.419 130.752C105.667 130.752 106.675 130.416 107.443 129.744C108.211 129.072 108.595 128.184 108.595 127.08C108.595 125.976 108.211 125.1 107.443 124.452C106.675 123.78 105.667 123.444 104.419 123.444C103.195 123.444 102.199 123.78 101.431 124.452C100.687 125.1 100.315 125.976 100.315 127.08ZM101.251 115.596C101.251 116.484 101.539 117.24 102.115 117.864C102.715 118.464 103.483 118.764 104.419 118.764C105.355 118.764 106.111 118.464 106.687 117.864C107.287 117.24 107.587 116.484 107.587 115.596C107.587 114.684 107.287 113.928 106.687 113.328C106.111 112.728 105.355 112.428 104.419 112.428C103.483 112.428 102.715 112.728 102.115 113.328C101.539 113.928 101.251 114.684 101.251 115.596ZM128.424 135.432C126.312 135.432 124.44 134.856 122.808 133.704C121.176 132.552 119.904 130.932 118.992 128.844C118.08 126.732 117.624 124.308 117.624 121.572C117.624 118.836 118.068 116.424 118.956 114.336C119.868 112.248 121.14 110.628 122.772 109.476C124.404 108.324 126.276 107.748 128.388 107.748C130.548 107.748 132.444 108.324 134.076 109.476C135.708 110.628 136.968 112.248 137.856 114.336C138.768 116.424 139.224 118.836 139.224 121.572C139.224 124.308 138.768 126.732 137.856 128.844C136.968 130.932 135.708 132.552 134.076 133.704C132.444 134.856 130.56 135.432 128.424 135.432ZM123.204 121.572C123.204 124.332 123.66 126.492 124.572 128.052C125.484 129.612 126.768 130.392 128.424 130.392C130.08 130.392 131.364 129.624 132.276 128.088C133.188 126.528 133.644 124.356 133.644 121.572C133.644 118.788 133.188 116.628 132.276 115.092C131.364 113.556 130.068 112.788 128.388 112.788C126.732 112.788 125.448 113.556 124.536 115.092C123.648 116.628 123.204 118.788 123.204 121.572ZM168.391 108.18H173.935L152.263 135H146.719L168.391 108.18ZM143.911 114.768C143.911 113.496 144.223 112.32 144.847 111.24C145.471 110.16 146.323 109.308 147.403 108.684C148.483 108.06 149.683 107.748 151.003 107.748C152.299 107.748 153.487 108.06 154.567 108.684C155.647 109.308 156.499 110.16 157.123 111.24C157.747 112.32 158.059 113.496 158.059 114.768C158.059 116.04 157.747 117.216 157.123 118.296C156.499 119.376 155.647 120.228 154.567 120.852C153.487 121.476 152.299 121.788 151.003 121.788C149.683 121.788 148.483 121.476 147.403 120.852C146.323 120.228 145.471 119.376 144.847 118.296C144.223 117.216 143.911 116.04 143.911 114.768ZM148.051 114.768C148.051 115.584 148.315 116.304 148.843 116.928C149.371 117.528 150.091 117.828 151.003 117.828C151.915 117.828 152.623 117.528 153.127 116.928C153.655 116.328 153.919 115.608 153.919 114.768C153.919 113.928 153.655 113.208 153.127 112.608C152.623 112.008 151.915 111.708 151.003 111.708C150.091 111.708 149.371 112.02 148.843 112.644C148.315 113.244 148.051 113.952 148.051 114.768ZM162.523 128.412C162.523 127.14 162.835 125.964 163.459 124.884C164.083 123.804 164.935 122.952 166.015 122.328C167.095 121.704 168.295 121.392 169.615 121.392C170.911 121.392 172.099 121.704 173.179 122.328C174.259 122.952 175.111 123.804 175.735 124.884C176.359 125.964 176.671 127.14 176.671 128.412C176.671 129.684 176.359 130.86 175.735 131.94C175.111 133.02 174.259 133.872 173.179 134.496C172.099 135.12 170.911 135.432 169.615 135.432C168.295 135.432 167.095 135.12 166.015 134.496C164.935 133.872 164.083 133.02 163.459 131.94C162.835 130.86 162.523 129.684 162.523 128.412ZM166.663 128.412C166.663 129.228 166.927 129.948 167.455 130.572C167.983 131.172 168.703 131.472 169.615 131.472C170.527 131.472 171.235 131.172 171.739 130.572C172.267 129.972 172.531 129.252 172.531 128.412C172.531 127.572 172.267 126.852 171.739 126.252C171.235 125.652 170.527 125.352 169.615 125.352C168.703 125.352 167.983 125.664 167.455 126.288C166.927 126.888 166.663 127.596 166.663 128.412Z" fill="#000066"/>
</svg>
